  0
SECTION
  2
HEADER
  9
$ACADVER
  1
AC1015
  9
$ACADMAINTVER
 70
     6
  9
$DWGCODEPAGE
  3
ANSI_1252
  9
$INSBASE
 10
0.0
 20
0.0
 30
0.0
  9
$EXTMIN
 10
0.0
 20
0.0
 30
0.0
  9
$EXTMAX
 10
100.0
 20
100.0
 30
0.0
  9
$LIMMIN
 10
0.0
 20
0.0
  9
$LIMMAX
 10
420.0
 20
297.0
  9
$ORTHOMODE
 70
     0
  9
$REGENMODE
 70
     1
  9
$FILLMODE
 70
     1
  9
$QTEXTMODE
 70
     0
  9
$MIRRTEXT
 70
     1
  9
$LTSCALE
 40
1.0
  9
$ATTMODE
 70
     1
  9
$TEXTSIZE
 40
3.5
  9
$TRACEWID
 40
1.0
  9
$TEXTSTYLE
  7
Standard
  9
$CLAYER
  8
0
  9
$CELTYPE
  6
ByLayer
  9
$CECOLOR
 62
   256
  9
$CELTSCALE
 40
1.0
  9
$DISPSILH
 70
     0
  9
$DIMSCALE
 40
1.0
  9
$DIMASZ
 40
3.302
  9
$DIMEXO
 40
1.27
  9
$DIMDLI
 40
3.75
  9
$DIMRND
 40
0.0
  9
$DIMDLE
 40
0.0
  9
$DIMEXE
 40
3.175
  9
$DIMTP
 40
0.0
  9
$DIMTM
 40
0.0
  9
$DIMTXT
 40
3.5
  9
$DIMCEN
 40
2.5
  9
$DIMTSZ
 40
0.0
  9
$DIMTOL
 70
     0
  9
$DIMLIM
 70
     0
  9
$DIMTIH
 70
     1
  9
$DIMTOH
 70
     1
  9
$DIMSE1
 70
     0
  9
$DIMSE2
 70
     0
  9
$DIMTAD
 70
     1
  9
$DIMZIN
 70
     1
  9
$DIMBLK
  1

  9
$DIMASO
 70
     1
  9
$DIMSHO
 70
     1
  9
$DIMPOST
  1

  9
$DIMAPOST
  1

  9
$DIMALT
 70
     0
  9
$DIMALTD
 70
     3
  9
$DIMALTF
 40
0.0393700787
  9
$DIMLFAC
 40
1.0
  9
$DIMTOFL
 70
     1
  9
$DIMTVP
 40
0.0
  9
$DIMTIX
 70
     0
  9
$DIMSOXD
 70
     0
  9
$DIMSAH
 70
     0
  9
$DIMBLK1
  1

  9
$DIMBLK2
  1

  9
$DIMSTYLE
  2
ISO-25
  9
$DIMCLRD
 70
     0
  9
$DIMCLRE
 70
     0
  9
$DIMCLRT
 70
     0
  9
$DIMTFAC
 40
1.0
  9
$DIMGAP
 40
1.524
  9
$DIMJUST
 70
     0
  9
$DIMSD1
 70
     0
  9
$DIMSD2
 70
     0
  9
$DIMTOLJ
 70
     0
  9
$DIMTZIN
 70
     1
  9
$DIMALTZ
 70
     0
  9
$DIMALTTZ
 70
     0
  9
$DIMUPT
 70
     0
  9
$DIMDEC
 70
     2
  9
$DIMTDEC
 70
     2
  9
$DIMALTU
 70
     2
  9
$DIMALTTD
 70
     3
  9
$DIMTXSTY
  7
Standard
  9
$DIMAUNIT
 70
     0
  9
$DIMADEC
 70
     2
  9
$DIMALTRND
 40
0.0
  9
$DIMAZIN
 70
     0
  9
$DIMDSEP
 70
    44
  9
$DIMATFIT
 70
     3
  9
$DIMFRAC
 70
     0
  9
$DIMLDRBLK
  1

  9
$DIMLUNIT
 70
     2
  9
$DIMLWD
 70
    -2
  9
$DIMLWE
 70
    -2
  9
$DIMTMOVE
 70
     0
  9
$LUNITS
 70
     2
  9
$LUPREC
 70
     2
  9
$SKETCHINC
 40
1.0
  9
$FILLETRAD
 40
10.0
  9
$AUNITS
 70
     0
  9
$AUPREC
 70
     2
  9
$MENU
  1
.
  9
$ELEVATION
 40
0.0
  9
$PELEVATION
 40
0.0
  9
$THICKNESS
 40
0.0
  9
$LIMCHECK
 70
     0
  9
$CHAMFERA
 40
0.0
  9
$CHAMFERB
 40
0.0
  9
$CHAMFERC
 40
0.0
  9
$CHAMFERD
 40
0.0
  9
$SKPOLY
 70
     0
  9
$TDCREATE
 40
2458800.621818067
  9
$TDUCREATE
 40
2458800.955151401
  9
$TDUPDATE
 40
2458800.621862928
  9
$TDUUPDATE
 40
2458800.955196261
  9
$TDINDWG
 40
0.0000000116
  9
$TDUSRTIMER
 40
0.0000000116
  9
$USRTIMER
 70
     1
  9
$ANGBASE
 50
0.0
  9
$ANGDIR
 70
     0
  9
$PDMODE
 70
     0
  9
$PDSIZE
 40
-1.0
  9
$PLINEWID
 40
0.0
  9
$SPLFRAME
 70
     0
  9
$SPLINETYPE
 70
     6
  9
$SPLINESEGS
 70
     8
  9
$HANDSEED
  5
E6
  9
$SURFTAB1
 70
     6
  9
$SURFTAB2
 70
     6
  9
$SURFTYPE
 70
     6
  9
$SURFU
 70
     6
  9
$SURFV
 70
     6
  9
$UCSBASE
  2

  9
$UCSNAME
  2

  9
$UCSORG
 10
0.0
 20
0.0
 30
0.0
  9
$UCSXDIR
 10
1.0
 20
0.0
 30
0.0
  9
$UCSYDIR
 10
0.0
 20
1.0
 30
0.0
  9
$UCSORTHOREF
  2

  9
$UCSORTHOVIEW
 70
     0
  9
$UCSORGTOP
 10
0.0
 20
0.0
 30
0.0
  9
$UCSORGBOTTOM
 10
0.0
 20
0.0
 30
0.0
  9
$UCSORGLEFT
 10
0.0
 20
0.0
 30
0.0
  9
$UCSORGRIGHT
 10
0.0
 20
0.0
 30
0.0
  9
$UCSORGFRONT
 10
0.0
 20
0.0
 30
0.0
  9
$UCSORGBACK
 10
0.0
 20
0.0
 30
0.0
  9
$PUCSBASE
  2

  9
$PUCSNAME
  2

  9
$PUCSORG
 10
0.0
 20
0.0
 30
0.0
  9
$PUCSXDIR
 10
1.0
 20
0.0
 30
0.0
  9
$PUCSYDIR
 10
0.0
 20
1.0
 30
0.0
  9
$PUCSORTHOREF
  2

  9
$PUCSORTHOVIEW
 70
     0
  9
$PUCSORGTOP
 10
0.0
 20
0.0
 30
0.0
  9
$PUCSORGBOTTOM
 10
0.0
 20
0.0
 30
0.0
  9
$PUCSORGLEFT
 10
0.0
 20
0.0
 30
0.0
  9
$PUCSORGRIGHT
 10
0.0
 20
0.0
 30
0.0
  9
$PUCSORGFRONT
 10
0.0
 20
0.0
 30
0.0
  9
$PUCSORGBACK
 10
0.0
 20
0.0
 30
0.0
  9
$USERI1
 70
     0
  9
$USERI2
 70
     0
  9
$USERI3
 70
     0
  9
$USERI4
 70
     0
  9
$USERI5
 70
     0
  9
$USERR1
 40
0.0
  9
$USERR2
 40
0.0
  9
$USERR3
 40
0.0
  9
$USERR4
 40
0.0
  9
$USERR5
 40
0.0
  9
$WORLDVIEW
 70
     1
  9
$SHADEDGE
 70
     3
  9
$SHADEDIF
 70
    70
  9
$TILEMODE
 70
     1
  9
$MAXACTVP
 70
    64
  9
$PINSBASE
 10
0.0
 20
0.0
 30
0.0
  9
$PLIMCHECK
 70
     0
  9
$PEXTMIN
 10
1.0000000000E+20
 20
1.0000000000E+20
 30
1.0000000000E+20
  9
$PEXTMAX
 10
-1.0000000000E+20
 20
-1.0000000000E+20
 30
-1.0000000000E+20
  9
$PLIMMIN
 10
0.0
 20
0.0
  9
$PLIMMAX
 10
420.0
 20
297.0
  9
$UNITMODE
 70
     0
  9
$VISRETAIN
 70
     1
  9
$PLINEGEN
 70
     0
  9
$PSLTSCALE
 70
     1
  9
$TREEDEPTH
 70
  3020
  9
$CMLSTYLE
  2
Standard
  9
$CMLJUST
 70
     0
  9
$CMLSCALE
 40
20.0
  9
$PROXYGRAPHICS
 70
     1
  9
$MEASUREMENT
 70
     1
  9
$CELWEIGHT
370
    -1
  9
$ENDCAPS
280
     0
  9
$JOINSTYLE
280
     0
  9
$LWDISPLAY
290
     1
  9
$INSUNITS
 70
     4
  9
$HYPERLINKBASE
  1

  9
$STYLESHEET
  1

  9
$XEDIT
290
     1
  9
$CEPSNTYPE
380
     0
  9
$PSTYLEMODE
290
     1
  9
$FINGERPRINTGUID
  2
{8ed03a2b-fd2a-4dbe-b380-de89bbb06e1f}
  9
$VERSIONGUID
  2
{FAEB1C32-E019-11D5-929B-00C0DF256EC4}
  9
$EXTNAMES
290
     1
  9
$PSVPSCALE
 40
0.0
  9
$OLESTARTUP
290
     0
  0
ENDSEC
  0
SECTION
  2
CLASSES
  0
CLASS
  1
ACDBDICTIONARYWDFLT
  2
AcDbDictionaryWithDefault
  3
ObjectDBX Classes
 90
        0
280
     0
281
     0
  0
CLASS
  1
VISUALSTYLE
  2
AcDbVisualStyle
  3
ObjectDBX Classes
 90
     4095
280
     0
281
     0
  0
CLASS
  1
MATERIAL
  2
AcDbMaterial
  3
ObjectDBX Classes
 90
     1153
280
     0
281
     0
  0
CLASS
  1
SCALE
  2
AcDbScale
  3
ObjectDBX Classes
 90
     1153
280
     0
281
     0
  0
CLASS
  1
TABLESTYLE
  2
AcDbTableStyle
  3
ObjectDBX Classes
 90
     4095
280
     0
281
     0
  0
CLASS
  1
MLEADERSTYLE
  2
AcDbMLeaderStyle
  3
ACDB_MLEADERSTYLE_CLASS
 90
     4095
280
     0
281
     0
  0
CLASS
  1
SUN
  2
AcDbSun
  3
SCENEOE
 90
     1153
280
     0
281
     0
  0
CLASS
  1
ACDBPLACEHOLDER
  2
AcDbPlaceHolder
  3
ObjectDBX Classes
 90
        0
280
     0
281
     0
  0
CLASS
  1
LAYOUT
  2
AcDbLayout
  3
ObjectDBX Classes
 90
        0
280
     0
281
     0
  0
ENDSEC
  0
SECTION
  2
TABLES
  0
TABLE
  2
VPORT
  5
8
330
0
100
AcDbSymbolTable
 70
     1
  0
VPORT
  5
29
330
8
100
AcDbSymbolTableRecord
100
AcDbViewportTableRecord
  2
*Active
 70
     0
 10
0.0
 20
0.0
 11
1.0
 21
1.0
 12
50.0
 22
50.0
 13
0.0
 23
0.0
 14
10.0
 24
10.0
 15
10.0
 25
10.0
 16
0.0
 26
0.0
 36
1.0
 17
0.0
 27
0.0
 37
0.0
 40
102.0
 41
1.0
 42
50.0
 43
0.0
 44
0.0
 50
0.0
 51
0.0
 71
     0
 72
   100
 73
     1
 74
     3
 75
     0
 76
     0
 77
     0
 78
     0
281
     0
 65
     1
110
0.0
120
0.0
130
0.0
111
1.0
121
0.0
131
0.0
112
0.0
122
1.0
132
0.0
 79
     0
146
0.0
  0
ENDTAB
  0
TABLE
  2
LTYPE
  5
5
330
0
100
AcDbSymbolTable
 70
     6
  0
LTYPE
  5
14
330
5
100
AcDbSymbolTableRecord
100
AcDbLinetypeTableRecord
  2
ByBlock
 70
     0
  3

 72
    65
 73
     0
 40
0.0
  0
LTYPE
  5
15
330
5
100
AcDbSymbolTableRecord
100
AcDbLinetypeTableRecord
  2
ByLayer
 70
     0
  3

 72
    65
 73
     0
 40
0.0
  0
LTYPE
  5
16
330
5
100
AcDbSymbolTableRecord
100
AcDbLinetypeTableRecord
  2
Continuous
 70
     0
  3
Solid line
 72
    65
 73
     0
 40
0.0
  0
LTYPE
  5
6E
330
5
100
AcDbSymbolTableRecord
100
AcDbLinetypeTableRecord
  2
HIDDEN
 70
     0
  3
Hidden __ __ __ __ __ __ __ __ __ __ __ __ __ __
 72
    65
 73
     2
 40
1.905
 49
1.27
 74
     0
 49
-0.635
 74
     0
  0
LTYPE
  5
6F
330
5
100
AcDbSymbolTableRecord
100
AcDbLinetypeTableRecord
  2
PHANTOM
 70
     0
  3
Phantom ______  __  __  ______  __  __  ______
 72
    65
 73
     6
 40
12.7
 49
6.35
 74
     0
 49
-1.27
 74
     0
 49
1.27
 74
     0
 49
-1.27
 74
     0
 49
1.27
 74
     0
 49
-1.27
 74
     0
  0
LTYPE
  5
70
330
5
100
AcDbSymbolTableRecord
100
AcDbLinetypeTableRecord
  2
CENTER
 70
     0
  3
Center ____ _ ____ _ ____ _ ____ _ ____ _ ____
 72
    65
 73
     4
 40
10.16
 49
6.35
 74
     0
 49
-1.27
 74
     0
 49
1.27
 74
     0
 49
-1.27
 74
     0
  0
LTYPE
  5
71
330
5
100
AcDbSymbolTableRecord
100
AcDbLinetypeTableRecord
  2
CENTERX2
 70
     0
  3
Center (2x) ________  __  ________  __  _____
 72
    65
 73
     4
 40
20.32
 49
12.7
 74
     0
 49
-2.54
 74
     0
 49
2.54
 74
     0
 49
-2.54
 74
     0
  0
LTYPE
  5
72
330
5
100
AcDbSymbolTableRecord
100
AcDbLinetypeTableRecord
  2
DOT2
 70
     0
  3
Dot (.5x) ........................................
 72
    65
 73
     2
 40
0.635
 49
0.0
 74
     0
 49
-0.635
 74
     0
  0
ENDTAB
  0
TABLE
  2
LAYER
  5
2
330
0
100
AcDbSymbolTable
 70
     1
  0
LAYER
  5
10
330
2
100
AcDbSymbolTableRecord
100
AcDbLayerTableRecord
  2
0
 70
     0
 62
     7
  6
Continuous
370
    -3
390
F
  0
ENDTAB
  0
TABLE
  2
STYLE
  5
3
330
0
100
AcDbSymbolTable
 70
     2
  0
STYLE
  5
11
330
3
100
AcDbSymbolTableRecord
100
AcDbTextStyleTableRecord
  2
Standard
 70
     0
 40
0.0
 41
1.0
 50
0.0
 71
     0
 42
3.5
  3
txt
  4

  0
STYLE
  5
E3
330
3
100
AcDbSymbolTableRecord
100
AcDbTextStyleTableRecord
  2
SLDTEXTSTYLE0
 70
     0
 40
0.0
 41
0.7
 50
0.0
 71
     0
 42
3.5
  3
TXT
  4

  0
ENDTAB
  0
TABLE
  2
VIEW
  5
6
330
0
100
AcDbSymbolTable
 70
     0
  0
ENDTAB
  0
TABLE
  2
UCS
  5
7
330
0
100
AcDbSymbolTable
 70
     0
  0
ENDTAB
  0
TABLE
  2
APPID
  5
9
330
0
100
AcDbSymbolTable
 70
     1
  0
APPID
  5
12
330
9
100
AcDbSymbolTableRecord
100
AcDbRegAppTableRecord
  2
ACAD
 70
     0
  0
ENDTAB
  0
TABLE
  2
DIMSTYLE
  5
A
330
0
100
AcDbSymbolTable
 70
     1
100
AcDbDimStyleTable
  0
DIMSTYLE
105
27
330
A
100
AcDbSymbolTableRecord
100
AcDbDimStyleTableRecord
  2
ISO-25
 70
     0
 41
2.5
 42
0.625
 43
3.75
 44
1.25
 73
     0
 74
     0
 77
     1
 78
     8
140
2.5
141
2.5
143
0.0393700787
147
0.625
171
     3
172
     1
178
     0
271
     2
272
     2
274
     3
278
    44
283
     0
284
     8
340
11
  0
ENDTAB
  0
TABLE
  2
BLOCK_RECORD
  5
1
330
0
100
AcDbSymbolTable
 70
     1
  0
BLOCK_RECORD
  5
1F
330
1
100
AcDbSymbolTableRecord
100
AcDbBlockTableRecord
  2
*Model_Space
340
22
  0
BLOCK_RECORD
  5
1B
330
1
100
AcDbSymbolTableRecord
100
AcDbBlockTableRecord
  2
*Paper_Space
340
1E
  0
BLOCK_RECORD
  5
23
330
1
100
AcDbSymbolTableRecord
100
AcDbBlockTableRecord
  2
*Paper_Space0
340
26
  0
ENDTAB
  0
ENDSEC
  0
SECTION
  2
BLOCKS
  0
BLOCK
  5
20
330
1F
100
AcDbEntity
  8
0
100
AcDbBlockBegin
  2
*Model_Space
 70
     0
 10
0.0
 20
0.0
 30
0.0
  3
*Model_Space
  1

  0
ENDBLK
  5
21
330
1F
100
AcDbEntity
  8
0
100
AcDbBlockEnd
  0
BLOCK
  5
1C
330
1B
100
AcDbEntity
 67
     1
  8
0
100
AcDbBlockBegin
  2
*Paper_Space
 70
     0
 10
0.0
 20
0.0
 30
0.0
  3
*Paper_Space
  1

  0
ENDBLK
  5
1D
330
1B
100
AcDbEntity
 67
     1
  8
0
100
AcDbBlockEnd
  0
BLOCK
  5
24
330
23
100
AcDbEntity
  8
0
100
AcDbBlockBegin
  2
*Paper_Space0
 70
     0
 10
0.0
 20
0.0
 30
0.0
  3
*Paper_Space0
  1

  0
ENDBLK
  5
25
330
23
100
AcDbEntity
  8
0
100
AcDbBlockEnd
  0
ENDSEC
  0
SECTION
  2
ENTITIES
  0
LINE
  5
73
330
1F
100
AcDbEntity
  8
0
  6
CENTERX2
 62
     7
100
AcDbLine
 10
49.9
 20
97.0
 30
0.0
 11
49.9
 21
57.0131
 31
0.0
  0
LINE
  5
74
330
1F
100
AcDbEntity
  8
0
  6
CENTERX2
 62
     7
100
AcDbLine
 10
49.9
 20
42.9869
 30
0.0
 11
49.9
 21
3.0
 31
0.0
  0
LINE
  5
75
330
1F
100
AcDbEntity
  8
0
  6
CENTERX2
 62
     7
100
AcDbLine
 10
56.9131
 20
50.0
 30
0.0
 11
97.0
 21
50.1
 31
0.0
  0
LINE
  5
76
330
1F
100
AcDbEntity
  8
0
  6
CENTERX2
 62
     7
100
AcDbLine
 10
42.8869
 20
50.0
 30
0.0
 11
3.0
 21
50.1
 31
0.0
  0
LWPOLYLINE
  5
78
330
1F
100
AcDbEntity
  8
0
  6
Continuous
 62
     7
100
AcDbPolyline
 90
       26
 70
   128
 43
0.0
 10
39.4551157951
 20
90.6503335198
 10
39.7797475962
 20
90.6503335198
 10
39.7797475962
 20
90.6503335198
 10
40.4647435897
 20
88.0835266288
 10
40.4647435897
 20
88.0835266288
 10
41.4834735577
 20
90.6503335198
 10
41.4834735577
 20
90.6503335198
 10
41.5290464744
 20
90.6503335198
 10
41.5290464744
 20
90.6503335198
 10
42.5288461538
 20
88.1010546736
 10
42.5288461538
 20
88.1010546736
 10
43.2173477564
 20
90.6503335198
 10
43.2173477564
 20
90.6503335198
 10
43.5384615385
 20
90.6503335198
 10
43.5384615385
 20
90.6503335198
 10
42.5947516026
 20
87.1503335198
 10
42.5947516026
 20
87.1503335198
 10
42.5498798077
 20
87.1503335198
 10
42.5498798077
 20
87.1503335198
 10
41.4967948718
 20
89.8272165326
 10
41.4967948718
 20
89.8272165326
 10
40.4310897436
 20
87.1503335198
 10
40.4310897436
 20
87.1503335198
 10
40.3862179487
 20
87.1503335198
 10
40.3862179487
 20
87.1503335198
 10
39.4551282051
 20
90.6503335198
  0
LINE
  5
79
330
1F
100
AcDbEntity
  8
0
  6
Continuous
 62
     7
100
AcDbLine
 10
45.3122996795
 20
89.7528976224
 30
0.0
 11
45.3122854233
 21
89.7528976224
 31
0.0
  0
ARC
  5
7A
330
1F
100
AcDbEntity
  8
0
  6
Continuous
 62
     7
100
AcDbCircle
 10
45.310891075
 20
88.4293786475
 30
0.0
 40
1.009416410776102
100
AcDbArc
 50
90.0003610521
 51
89.9996389479
  0
LINE
  5
7B
330
1F
100
AcDbEntity
  8
0
  6
Continuous
 62
     7
100
AcDbLine
 10
48.4981971154
 20
89.7528976224
 30
0.0
 11
48.4981834888
 21
89.7528976224
 31
0.0
  0
ARC
  5
7C
330
1F
100
AcDbEntity
  8
0
  6
Continuous
 62
     7
100
AcDbCircle
 10
48.4967888259
 20
88.4293786602
 30
0.0
 40
1.009416398057841
100
AcDbArc
 50
90.0003431927
 51
89.9996568294
  0
LWPOLYLINE
  5
7D
330
1F
100
AcDbEntity
  8
0
  6
Continuous
 62
     7
100
AcDbPolyline
 90
       62
 70
   128
 43
0.0
 10
53.0512630939
 20
90.7400771095
 10
53.0512820513
 20
87.1503335198
 10
53.0512820513
 20
87.1503335198
 10
52.7371794872
 20
87.1503335198
 10
52.7371794872
 20
87.1503335198
 10
52.7371794872
 20
87.5927413724
 10
52.7371794872
 20
87.5927413724
 10
52.628505609
 20
87.4749529108
 10
52.5142227564
 20
87.3739913724
 10
52.3922275641
 20
87.289856757
 10
52.2646233974
 20
87.2225490647
 10
52.1307091346
 20
87.1713671736
 10
51.9911858974
 20
87.1349088403
 10
51.8446514423
 20
87.1124729429
 10
51.6925080128
 20
87.1054617249
 10
51.6925080128
 20
87.1054617249
 10
51.5571915064
 20
87.1117718211
 10
51.4267828526
 20
87.1300009877
 10
51.3012820513
 20
87.1601492249
 10
51.1806891026
 20
87.2022165326
 10
51.0657051282
 20
87.2569040326
 10
50.9549278846
 20
87.3235106031
 10
50.8497596154
 20
87.4020362442
 10
50.7494991987
 20
87.4931820775
 10
50.6576522436
 20
87.5927413724
 10
50.5784254808
 20
87.6972085198
 10
50.5118189103
 20
87.8072846416
 10
50.4564302885
 20
87.9229697377
 10
50.413661859
 20
88.0435626865
 10
50.3835136218
 20
88.1690634877
 10
50.3652844551
 20
88.3001732634
 10
50.358974359
 20
88.4361908916
 10
50.358974359
 20
88.4361908916
 10
50.3652844551
 20
88.5694040326
 10
50.3835136218
 20
88.6984104429
 10
50.4143629808
 20
88.8218078788
 10
50.4578325321
 20
88.9409985839
 10
50.5132211538
 20
89.0545803147
 10
50.5805288462
 20
89.1632541929
 10
50.6604567308
 20
89.2677213403
 10
50.7530048077
 20
89.3665795134
 10
50.8539663462
 20
89.4570242249
 10
50.960536859
 20
89.5355498659
 10
51.0713141026
 20
89.6021564365
 10
51.1877003205
 20
89.6561428147
 10
51.308994391
 20
89.6989112442
 10
51.4351963141
 20
89.7290594813
 10
51.5663060897
 20
89.7465875262
 10
51.7023237179
 20
89.7528976224
 10
51.7023237179
 20
89.7528976224
 10
51.8586738782
 20
89.7444841608
 10
52.0073116987
 20
89.7192437762
 10
52.1482371795
 20
89.6764753467
 10
52.2814503205
 20
89.6175811159
 10
52.4069511218
 20
89.5418599621
 10
52.5254407051
 20
89.4493118852
 10
52.6348157051
 20
89.3392357634
 10
52.7371794872
 20
89.2130338403
 10
52.7371794872
 20
89.2130338403
 10
52.7371794872
 20
90.7400771095
 10
52.7371794872
 20
90.7400771095
 10
53.0512820513
 20
90.7400771095
  0
LWPOLYLINE
  5
7E
330
1F
100
AcDbEntity
  8
0
  6
Continuous
 62
     7
100
AcDbPolyline
 90
       56
 70
   128
 43
0.0
 10
51.7065227032
 20
89.4387950583
 10
51.5691105769
 20
89.4303815967
 10
51.4372996795
 20
89.4058423339
 10
51.3110977564
 20
89.364476148
 10
51.1898036859
 20
89.3069841608
 10
51.0776241987
 20
89.2347686159
 10
50.9773637821
 20
89.1485306352
 10
50.8890224359
 20
89.0496724621
 10
50.8126001603
 20
88.9367918531
 10
50.7516025641
 20
88.8161989044
 10
50.7081330128
 20
88.6913992249
 10
50.6814903846
 20
88.5637950583
 10
50.6730769231
 20
88.4326852826
 10
50.6730769231
 20
88.4326852826
 10
50.6821915064
 20
88.3022766288
 10
50.7081330128
 20
88.1746724621
 10
50.7523036859
 20
88.0498727826
 10
50.8140024038
 20
87.9278775903
 10
50.8911258013
 20
87.8142958595
 10
50.9794671474
 20
87.7140354429
 10
51.0804286859
 20
87.6270963403
 10
51.1933092949
 20
87.5534785518
 10
51.3146033654
 20
87.4945843211
 10
51.4401041667
 20
87.4532181352
 10
51.5698116987
 20
87.4279777506
 10
51.7037259615
 20
87.419564289
 10
51.7037259615
 20
87.419564289
 10
51.8397435897
 20
87.4279777506
 10
51.972255609
 20
87.4525170134
 10
52.1005608974
 20
87.4938831993
 10
52.2253605769
 20
87.5520763083
 10
52.3410456731
 20
87.6242918531
 10
52.4434094551
 20
87.7084264685
 10
52.5303485577
 20
87.8044801544
 10
52.6039663462
 20
87.911751789
 10
52.6621594551
 20
88.0288391288
 10
52.7042267628
 20
88.1536388083
 10
52.7287660256
 20
88.2847485839
 10
52.7371794872
 20
88.4235706993
 10
52.7371794872
 20
88.4235706993
 10
52.7322716346
 20
88.5294400903
 10
52.7182491987
 20
88.6311027506
 10
52.6951121795
 20
88.7285586801
 10
52.6628605769
 20
88.821106757
 10
52.6207932692
 20
88.9094481031
 10
52.5696113782
 20
88.9935827185
 10
52.5093149038
 20
89.0728094813
 10
52.4392027244
 20
89.1478295134
 10
52.3627804487
 20
89.2158383275
 10
52.2821514423
 20
89.2754336801
 10
52.1966145833
 20
89.3252133275
 10
52.1075721154
 20
89.3658783916
 10
52.0136217949
 20
89.3981299942
 10
51.9154647436
 20
89.4205658916
 10
51.8131009615
 20
89.4345883275
 10
51.7065304487
 20
89.4387950583
  0
LWPOLYLINE
  5
7F
330
1F
100
AcDbEntity
  8
0
  6
Continuous
 62
     7
100
AcDbPolyline
 90
      171
 70
   128
 43
0.0
 10
53.4999966621
 20
87.8255138083
 10
53.7958733974
 20
88.0028976224
 10
53.7958733974
 20
88.0028976224
 10
53.8807091346
 20
87.8661788724
 10
53.968349359
 20
87.747689289
 10
54.0594951923
 20
87.6474288724
 10
54.1541466346
 20
87.5653976224
 10
54.2516025641
 20
87.501595539
 10
54.3525641026
 20
87.4560226224
 10
54.45703125
 20
87.4286788724
 10
54.5643028846
 20
87.419564289
 10
54.5643028846
 20
87.419564289
 10
54.6561498397
 20
87.4244721416
 10
54.7451923077
 20
87.4398968211
 10
54.8314302885
 20
87.4651372057
 10
54.9148637821
 20
87.5008944172
 10
54.9919871795
 20
87.5450650903
 10
55.0592948718
 20
87.5969481031
 10
55.116786859
 20
87.6551412121
 10
55.164463141
 20
87.720345539
 10
55.2016225962
 20
87.7904577185
 10
55.2289663462
 20
87.8626732634
 10
55.2443910256
 20
87.9362910518
 10
55.25
 20
88.0127133275
 10
55.25
 20
88.0127133275
 10
55.2422876603
 20
88.0996524301
 10
55.2184495192
 20
88.1865915326
 10
55.1791866987
 20
88.2714272698
 10
55.1244991987
 20
88.356263007
 10
55.1244991987
 20
88.356263007
 10
55.0768229167
 20
88.4158583595
 10
55.0207331731
 20
88.4782581993
 10
54.9548277244
 20
88.5434625262
 10
54.8805088141
 20
88.6121724621
 10
54.7970753205
 20
88.6829857634
 10
54.7052283654
 20
88.7573046736
 10
54.6035657051
 20
88.8344280711
 10
54.4934895833
 20
88.9143559557
 10
54.4934895833
 20
88.9143559557
 10
54.3834134615
 20
88.9935827185
 10
54.2845552885
 20
89.0679016288
 10
54.1969150641
 20
89.1359104429
 10
54.1197916667
 20
89.1983102826
 10
54.0531850962
 20
89.255101148
 10
53.9977964744
 20
89.3055819172
 10
53.9536258013
 20
89.3511548339
 10
53.9199719551
 20
89.3904176544
 10
53.9199719551
 20
89.3904176544
 10
53.8743990385
 20
89.4528174942
 10
53.8344350962
 20
89.5159184557
 10
53.80078125
 20
89.5804216608
 10
53.7734375
 20
89.6470282313
 10
53.7517027244
 20
89.7136348018
 10
53.7362780449
 20
89.7823447377
 10
53.7271634615
 20
89.8524569172
 10
53.7243589744
 20
89.9232702185
 10
53.7243589744
 20
89.9232702185
 10
53.7313701923
 20
90.0340474621
 10
53.7524038462
 20
90.1406179749
 10
53.7867588141
 20
90.2415795134
 10
53.8351362179
 20
90.3376331993
 10
53.8968349359
 20
90.4259745454
 10
53.9690504808
 20
90.5052013083
 10
54.0531850962
 20
90.5732101224
 10
54.1478365385
 20
90.6321043531
 10
54.2509014423
 20
90.6790795134
 10
54.3588741987
 20
90.7134344813
 10
54.4703525641
 20
90.7330658916
 10
54.5867387821
 20
90.7400771095
 10
54.5867387821
 20
90.7400771095
 10
54.7101362179
 20
90.7323647698
 10
54.8300280449
 20
90.7085266288
 10
54.9450120192
 20
90.6685626865
 10
55.0564903846
 20
90.6131740647
 10
55.1118790064
 20
90.5781179749
 10
55.1672676282
 20
90.536751789
 10
55.2240584936
 20
90.4883743852
 10
55.2815504808
 20
90.4336868852
 10
55.3397435897
 20
90.3719881672
 10
55.3986378205
 20
90.3039793531
 10
55.4589342949
 20
90.2289593211
 10
55.5192307692
 20
90.1476291929
 10
55.5192307692
 20
90.1476291929
 10
55.2352764423
 20
89.9323848018
 10
55.2352764423
 20
89.9323848018
 10
55.1833934295
 20
89.9982902506
 10
55.1336137821
 20
90.0578856031
 10
55.0859375
 20
90.1118719813
 10
55.0396634615
 20
90.1595482634
 10
54.9961939103
 20
90.2016155711
 10
54.9541266026
 20
90.2380739044
 10
54.9134615385
 20
90.2689232634
 10
54.8756009615
 20
90.2934625262
 10
54.7998798077
 20
90.3320242249
 10
54.7206530449
 20
90.3593679749
 10
54.6379206731
 20
90.3754937762
 10
54.5516826923
 20
90.3811027506
 10
54.5516826923
 20
90.3811027506
 10
54.4437099359
 20
90.3733904108
 10
54.3462540064
 20
90.348851148
 10
54.2593149038
 20
90.3088872057
 10
54.1821915064
 20
90.2527974621
 10
54.1190905449
 20
90.1854897698
 10
54.07421875
 20
90.1104697377
 10
54.0475761218
 20
90.0277373659
 10
54.0384615385
 20
89.9379937762
 10
54.0384615385
 20
89.9379937762
 10
54.0412660256
 20
89.8819040326
 10
54.0510817308
 20
89.8265154108
 10
54.0658052885
 20
89.7718279108
 10
54.0875400641
 20
89.7178415326
 10
54.1176883013
 20
89.6631540326
 10
54.1576522436
 20
89.6063631672
 10
54.2081330128
 20
89.5474689365
 10
54.269130609
 20
89.4857702185
 10
54.269130609
 20
89.4857702185
 10
54.2922676282
 20
89.4654376865
 10
54.3252203526
 20
89.4387950583
 10
54.3686899038
 20
89.4058423339
 10
54.4226762821
 20
89.3651772698
 10
54.4864783654
 20
89.3182021095
 10
54.5607972756
 20
89.2649168531
 10
54.644931891
 20
89.2046203788
 10
54.7395833333
 20
89.1373126865
 10
54.7395833333
 20
89.1373126865
 10
54.8531650641
 20
89.0538791929
 10
54.9576322115
 20
88.9732501865
 10
55.0522836538
 20
88.8947245454
 10
55.1378205128
 20
88.8183022698
 10
55.2142427885
 20
88.7446844813
 10
55.2815504808
 20
88.6731700583
 10
55.3397435897
 20
88.6037590006
 10
55.3881209936
 20
88.5364513083
 10
55.465244391
 20
88.4046404108
 10
55.519931891
 20
88.2728295134
 10
55.5528846154
 20
88.1403174942
 10
55.5641025641
 20
88.0078054749
 10
55.5641025641
 20
88.0078054749
 10
55.5598958333
 20
87.9138551544
 10
55.5458733974
 20
87.8227093211
 10
55.5234375
 20
87.7350690967
 10
55.4911858974
 20
87.6502333595
 10
55.4505208333
 20
87.5682021095
 10
55.4000400641
 20
87.4896764685
 10
55.3411458333
 20
87.4146564365
 10
55.2724358974
 20
87.3424408916
 10
55.1974158654
 20
87.2765354429
 10
55.1188902244
 20
87.2190434557
 10
55.0361578526
 20
87.1706660518
 10
54.9499198718
 20
87.1314032313
 10
54.8594751603
 20
87.1005538724
 10
54.7648237179
 20
87.0781179749
 10
54.6666666667
 20
87.0647966608
 10
54.5643028846
 20
87.0605899301
 10
54.5643028846
 20
87.0605899301
 10
54.4850761218
 20
87.0633944172
 10
54.4072516026
 20
87.0718078788
 10
54.3315304487
 20
87.0851291929
 10
54.2579126603
 20
87.1047606031
 10
54.1863982372
 20
87.1292998659
 10
54.1162860577
 20
87.1594481031
 10
54.0482772436
 20
87.1952053147
 10
53.9816706731
 20
87.2365715006
 10
53.9171674679
 20
87.2842477826
 10
53.8540665064
 20
87.3396364044
 10
53.7916666667
 20
87.4020362442
 10
53.7306690705
 20
87.4721484236
 10
53.6710737179
 20
87.5492718211
 10
53.612880609
 20
87.6341075583
 10
53.5560897436
 20
87.7259545134
 10
53.5
 20
87.8255138083
  0
LWPOLYLINE
  5
80
330
1F
100
AcDbEntity
  8
0
  6
Continuous
 62
     7
100
AcDbPolyline
 90
       62
 70
   128
 43
0.0
 10
58.7948560715
 20
89.7080258275
 10
58.7948717949
 20
87.1503335198
 10
58.7948717949
 20
87.1503335198
 10
58.4807692308
 20
87.1503335198
 10
58.4807692308
 20
87.1503335198
 10
58.4807692308
 20
87.5927413724
 10
58.4807692308
 20
87.5927413724
 10
58.3720953526
 20
87.4749529108
 10
58.2578125
 20
87.3739913724
 10
58.1358173077
 20
87.289856757
 10
58.008213141
 20
87.2225490647
 10
57.8742988782
 20
87.1713671736
 10
57.734775641
 20
87.1349088403
 10
57.5882411859
 20
87.1124729429
 10
57.4360977564
 20
87.1054617249
 10
57.4360977564
 20
87.1054617249
 10
57.30078125
 20
87.1117718211
 10
57.1703725962
 20
87.1300009877
 10
57.0448717949
 20
87.1601492249
 10
56.9242788462
 20
87.2022165326
 10
56.8092948718
 20
87.2569040326
 10
56.6985176282
 20
87.3235106031
 10
56.593349359
 20
87.4020362442
 10
56.4930889423
 20
87.4931820775
 10
56.4012419872
 20
87.5927413724
 10
56.3220152244
 20
87.6972085198
 10
56.2554086538
 20
87.8072846416
 10
56.2000200321
 20
87.9229697377
 10
56.1572516026
 20
88.0435626865
 10
56.1271033654
 20
88.1690634877
 10
56.1088741987
 20
88.3001732634
 10
56.1025641026
 20
88.4361908916
 10
56.1025641026
 20
88.4361908916
 10
56.1088741987
 20
88.5694040326
 10
56.1271033654
 20
88.6984104429
 10
56.1579527244
 20
88.8218078788
 10
56.2014222756
 20
88.9409985839
 10
56.2568108974
 20
89.0545803147
 10
56.3241185897
 20
89.1632541929
 10
56.4040464744
 20
89.2677213403
 10
56.4965945513
 20
89.3665795134
 10
56.5975560897
 20
89.4570242249
 10
56.7041266026
 20
89.5355498659
 10
56.8149038462
 20
89.6021564365
 10
56.9312900641
 20
89.6561428147
 10
57.0525841346
 20
89.6989112442
 10
57.1787860577
 20
89.7290594813
 10
57.3098958333
 20
89.7465875262
 10
57.4459134615
 20
89.7528976224
 10
57.4459134615
 20
89.7528976224
 10
57.6022636218
 20
89.7451852826
 10
57.7509014423
 20
89.7220482634
 10
57.8918269231
 20
89.6827854429
 10
58.0250400641
 20
89.6287990647
 10
58.1505408654
 20
89.5579857634
 10
58.2690304487
 20
89.4682421736
 10
58.3784054487
 20
89.360970539
 10
58.4807692308
 20
89.2347686159
 10
58.4807692308
 20
89.2347686159
 10
58.4807692308
 20
89.7080258275
 10
58.4807692308
 20
89.7080258275
 10
58.7948717949
 20
89.7080258275
  0
LWPOLYLINE
  5
81
330
1F
100
AcDbEntity
  8
0
  6
Continuous
 62
     7
100
AcDbPolyline
 90
       56
 70
   128
 43
0.0
 10
57.4501156807
 20
89.4387950583
 10
57.3127003205
 20
89.4303815967
 10
57.1808894231
 20
89.4058423339
 10
57.0546875
 20
89.364476148
 10
56.9333934295
 20
89.3069841608
 10
56.8212139423
 20
89.2347686159
 10
56.7209535256
 20
89.1485306352
 10
56.6326121795
 20
89.0496724621
 10
56.5561899038
 20
88.9367918531
 10
56.4951923077
 20
88.8161989044
 10
56.4517227564
 20
88.6913992249
 10
56.4250801282
 20
88.5637950583
 10
56.4166666667
 20
88.4326852826
 10
56.4166666667
 20
88.4326852826
 10
56.42578125
 20
88.3022766288
 10
56.4517227564
 20
88.1746724621
 10
56.4958934295
 20
88.0498727826
 10
56.5575921474
 20
87.9278775903
 10
56.6347155449
 20
87.8142958595
 10
56.723056891
 20
87.7140354429
 10
56.8240184295
 20
87.6270963403
 10
56.9368990385
 20
87.5534785518
 10
57.058193109
 20
87.4945843211
 10
57.1836939103
 20
87.4532181352
 10
57.3134014423
 20
87.4279777506
 10
57.4473157051
 20
87.419564289
 10
57.4473157051
 20
87.419564289
 10
57.5833333333
 20
87.4279777506
 10
57.7158453526
 20
87.4525170134
 10
57.844150641
 20
87.4938831993
 10
57.9689503205
 20
87.5520763083
 10
58.0846354167
 20
87.6242918531
 10
58.1869991987
 20
87.7084264685
 10
58.2739383013
 20
87.8044801544
 10
58.3475560897
 20
87.911751789
 10
58.4057491987
 20
88.0288391288
 10
58.4478165064
 20
88.1536388083
 10
58.4723557692
 20
88.2847485839
 10
58.4807692308
 20
88.4235706993
 10
58.4807692308
 20
88.4235706993
 10
58.4758613782
 20
88.5294400903
 10
58.4618389423
 20
88.6311027506
 10
58.4387019231
 20
88.7285586801
 10
58.4064503205
 20
88.821106757
 10
58.3643830128
 20
88.9094481031
 10
58.3132011218
 20
88.9935827185
 10
58.2529046474
 20
89.0728094813
 10
58.1827924679
 20
89.1478295134
 10
58.1063701923
 20
89.2158383275
 10
58.0257411859
 20
89.2754336801
 10
57.9402043269
 20
89.3252133275
 10
57.851161859
 20
89.3658783916
 10
57.7572115385
 20
89.3981299942
 10
57.6590544872
 20
89.4205658916
 10
57.5566907051
 20
89.4345883275
 10
57.4501201923
 20
89.4387950583
  0
LWPOLYLINE
  5
82
330
1F
100
AcDbEntity
  8
0
  6
Continuous
 62
     7
100
AcDbPolyline
 90
       24
 70
   128
 43
0.0
 10
59.8269104958
 20
90.7400771095
 10
60.141025641
 20
90.7400771095
 10
60.141025641
 20
90.7400771095
 10
60.141025641
 20
89.7080258275
 10
60.141025641
 20
89.7080258275
 10
60.5897435897
 20
89.7080258275
 10
60.5897435897
 20
89.7080258275
 10
60.5897435897
 20
89.3939232634
 10
60.5897435897
 20
89.3939232634
 10
60.141025641
 20
89.3939232634
 10
60.141025641
 20
89.3939232634
 10
60.141025641
 20
87.1503335198
 10
60.141025641
 20
87.1503335198
 10
59.8269230769
 20
87.1503335198
 10
59.8269230769
 20
87.1503335198
 10
59.8269230769
 20
89.3939232634
 10
59.8269230769
 20
89.3939232634
 10
59.3782051282
 20
89.3939232634
 10
59.3782051282
 20
89.3939232634
 10
59.3782051282
 20
89.7080258275
 10
59.3782051282
 20
89.7080258275
 10
59.8269230769
 20
89.7080258275
 10
59.8269230769
 20
89.7080258275
 10
59.8269230769
 20
90.7400771095
  0
LINE
  5
B3
330
1F
100
AcDbEntity
  8
0
  6
Continuous
 62
     7
370
    25
100
AcDbLine
 10
52.15
 20
57.0131
 30
0.0
 11
47.65
 21
57.0131
 31
0.0
  0
LINE
  5
B4
330
1F
100
AcDbEntity
  8
0
  6
Continuous
 62
     7
370
    25
100
AcDbLine
 10
47.65
 20
57.0131
 30
0.0
 11
47.65
 21
52.25
 31
0.0
  0
LINE
  5
B5
330
1F
100
AcDbEntity
  8
0
  6
Continuous
 62
     7
370
    25
100
AcDbLine
 10
47.65
 20
52.25
 30
0.0
 11
42.8869
 21
52.25
 31
0.0
  0
LINE
  5
B6
330
1F
100
AcDbEntity
  8
0
  6
Continuous
 62
     7
370
    25
100
AcDbLine
 10
42.8869
 20
52.25
 30
0.0
 11
42.8869
 21
47.75
 31
0.0
  0
LINE
  5
B7
330
1F
100
AcDbEntity
  8
0
  6
Continuous
 62
     7
370
    25
100
AcDbLine
 10
42.8869
 20
47.75
 30
0.0
 11
47.65
 21
47.75
 31
0.0
  0
LINE
  5
B8
330
1F
100
AcDbEntity
  8
0
  6
Continuous
 62
     7
370
    25
100
AcDbLine
 10
47.65
 20
47.75
 30
0.0
 11
47.65
 21
42.9869
 31
0.0
  0
LINE
  5
B9
330
1F
100
AcDbEntity
  8
0
  6
Continuous
 62
     7
370
    25
100
AcDbLine
 10
47.65
 20
42.9869
 30
0.0
 11
52.15
 21
42.9869
 31
0.0
  0
LINE
  5
BA
330
1F
100
AcDbEntity
  8
0
  6
Continuous
 62
     7
370
    25
100
AcDbLine
 10
52.15
 20
42.9869
 30
0.0
 11
52.15
 21
47.75
 31
0.0
  0
LINE
  5
BB
330
1F
100
AcDbEntity
  8
0
  6
Continuous
 62
     7
370
    25
100
AcDbLine
 10
52.15
 20
47.75
 30
0.0
 11
56.9131
 21
47.75
 31
0.0
  0
LINE
  5
BC
330
1F
100
AcDbEntity
  8
0
  6
Continuous
 62
     7
370
    25
100
AcDbLine
 10
56.9131
 20
47.75
 30
0.0
 11
56.9131
 21
52.25
 31
0.0
  0
LINE
  5
BD
330
1F
100
AcDbEntity
  8
0
  6
Continuous
 62
     7
370
    25
100
AcDbLine
 10
56.9131
 20
52.25
 30
0.0
 11
52.15
 21
52.25
 31
0.0
  0
LINE
  5
BE
330
1F
100
AcDbEntity
  8
0
  6
Continuous
 62
     7
370
    25
100
AcDbLine
 10
52.15
 20
52.25
 30
0.0
 11
52.15
 21
57.0131
 31
0.0
  0
LINE
  5
BF
330
1F
100
AcDbEntity
  8
0
  6
Continuous
 62
     7
370
    25
100
AcDbLine
 10
97.0
 20
80.2
 30
0.0
 11
100.0
 21
80.2
 31
0.0
  0
LINE
  5
C0
330
1F
100
AcDbEntity
  8
0
  6
Continuous
 62
     7
370
    25
100
AcDbLine
 10
100.0
 20
60.0
 30
0.0
 11
100.0
 21
80.2
 31
0.0
  0
LINE
  5
C1
330
1F
100
AcDbEntity
  8
0
  6
Continuous
 62
     7
370
    25
100
AcDbLine
 10
97.0
 20
60.0
 30
0.0
 11
100.0
 21
60.0
 31
0.0
  0
LINE
  5
C2
330
1F
100
AcDbEntity
  8
0
  6
Continuous
 62
     7
370
    25
100
AcDbLine
 10
97.0
 20
60.0
 30
0.0
 11
97.0
 21
40.2
 31
0.0
  0
LINE
  5
C3
330
1F
100
AcDbEntity
  8
0
  6
Continuous
 62
     7
370
    25
100
AcDbLine
 10
97.0
 20
40.2
 30
0.0
 11
100.0
 21
40.2
 31
0.0
  0
LINE
  5
C4
330
1F
100
AcDbEntity
  8
0
  6
Continuous
 62
     7
370
    25
100
AcDbLine
 10
100.0
 20
20.0
 30
0.0
 11
100.0
 21
40.2
 31
0.0
  0
LINE
  5
C5
330
1F
100
AcDbEntity
  8
0
  6
Continuous
 62
     7
370
    25
100
AcDbLine
 10
97.0
 20
20.0
 30
0.0
 11
100.0
 21
20.0
 31
0.0
  0
LINE
  5
C6
330
1F
100
AcDbEntity
  8
0
  6
Continuous
 62
     7
370
    25
100
AcDbLine
 10
97.0
 20
20.0
 30
0.0
 11
97.0
 21
3.0
 31
0.0
  0
LINE
  5
C7
330
1F
100
AcDbEntity
  8
0
  6
Continuous
 62
     7
370
    25
100
AcDbLine
 10
80.0
 20
3.0
 30
0.0
 11
97.0
 21
3.0
 31
0.0
  0
LINE
  5
C8
330
1F
100
AcDbEntity
  8
0
  6
Continuous
 62
     7
370
    25
100
AcDbLine
 10
80.0
 20
3.0
 30
0.0
 11
80.0
 21
0.0
 31
0.0
  0
LINE
  5
C9
330
1F
100
AcDbEntity
  8
0
  6
Continuous
 62
     7
370
    25
100
AcDbLine
 10
59.8
 20
0.0
 30
0.0
 11
80.0
 21
0.0
 31
0.0
  0
LINE
  5
CA
330
1F
100
AcDbEntity
  8
0
  6
Continuous
 62
     7
370
    25
100
AcDbLine
 10
59.8
 20
3.0
 30
0.0
 11
59.8
 21
0.0
 31
0.0
  0
LINE
  5
CB
330
1F
100
AcDbEntity
  8
0
  6
Continuous
 62
     7
370
    25
100
AcDbLine
 10
40.0
 20
3.0
 30
0.0
 11
59.8
 21
3.0
 31
0.0
  0
LINE
  5
CC
330
1F
100
AcDbEntity
  8
0
  6
Continuous
 62
     7
370
    25
100
AcDbLine
 10
40.0
 20
3.0
 30
0.0
 11
40.0
 21
0.0
 31
0.0
  0
LINE
  5
CD
330
1F
100
AcDbEntity
  8
0
  6
Continuous
 62
     7
370
    25
100
AcDbLine
 10
19.8
 20
0.0
 30
0.0
 11
40.0
 21
0.0
 31
0.0
  0
LINE
  5
CE
330
1F
100
AcDbEntity
  8
0
  6
Continuous
 62
     7
370
    25
100
AcDbLine
 10
19.8
 20
3.0
 30
0.0
 11
19.8
 21
0.0
 31
0.0
  0
LINE
  5
CF
330
1F
100
AcDbEntity
  8
0
  6
Continuous
 62
     7
370
    25
100
AcDbLine
 10
3.0
 20
3.0
 30
0.0
 11
19.8
 21
3.0
 31
0.0
  0
LINE
  5
D0
330
1F
100
AcDbEntity
  8
0
  6
Continuous
 62
     7
370
    25
100
AcDbLine
 10
3.0
 20
20.0
 30
0.0
 11
3.0
 21
3.0
 31
0.0
  0
LINE
  5
D1
330
1F
100
AcDbEntity
  8
0
  6
Continuous
 62
     7
370
    25
100
AcDbLine
 10
3.0
 20
20.0
 30
0.0
 11
0.0
 21
20.0
 31
0.0
  0
LINE
  5
D2
330
1F
100
AcDbEntity
  8
0
  6
Continuous
 62
     7
370
    25
100
AcDbLine
 10
0.0
 20
20.0
 30
0.0
 11
0.0
 21
40.2
 31
0.0
  0
LINE
  5
D3
330
1F
100
AcDbEntity
  8
0
  6
Continuous
 62
     7
370
    25
100
AcDbLine
 10
3.0
 20
40.2
 30
0.0
 11
0.0
 21
40.2
 31
0.0
  0
LINE
  5
D4
330
1F
100
AcDbEntity
  8
0
  6
Continuous
 62
     7
370
    25
100
AcDbLine
 10
3.0
 20
60.0
 30
0.0
 11
3.0
 21
40.2
 31
0.0
  0
LINE
  5
D5
330
1F
100
AcDbEntity
  8
0
  6
Continuous
 62
     7
370
    25
100
AcDbLine
 10
3.0
 20
60.0
 30
0.0
 11
0.0
 21
60.0
 31
0.0
  0
LINE
  5
D6
330
1F
100
AcDbEntity
  8
0
  6
Continuous
 62
     7
370
    25
100
AcDbLine
 10
0.0
 20
60.0
 30
0.0
 11
0.0
 21
80.2
 31
0.0
  0
LINE
  5
D7
330
1F
100
AcDbEntity
  8
0
  6
Continuous
 62
     7
370
    25
100
AcDbLine
 10
3.0
 20
80.2
 30
0.0
 11
0.0
 21
80.2
 31
0.0
  0
LINE
  5
D8
330
1F
100
AcDbEntity
  8
0
  6
Continuous
 62
     7
370
    25
100
AcDbLine
 10
3.0
 20
97.0
 30
0.0
 11
3.0
 21
80.2
 31
0.0
  0
LINE
  5
D9
330
1F
100
AcDbEntity
  8
0
  6
Continuous
 62
     7
370
    25
100
AcDbLine
 10
3.0
 20
97.0
 30
0.0
 11
19.8
 21
97.0
 31
0.0
  0
LINE
  5
DA
330
1F
100
AcDbEntity
  8
0
  6
Continuous
 62
     7
370
    25
100
AcDbLine
 10
19.8
 20
97.0
 30
0.0
 11
19.8
 21
100.0
 31
0.0
  0
LINE
  5
DB
330
1F
100
AcDbEntity
  8
0
  6
Continuous
 62
     7
370
    25
100
AcDbLine
 10
19.8
 20
100.0
 30
0.0
 11
40.0
 21
100.0
 31
0.0
  0
LINE
  5
DC
330
1F
100
AcDbEntity
  8
0
  6
Continuous
 62
     7
370
    25
100
AcDbLine
 10
40.0
 20
97.0
 30
0.0
 11
40.0
 21
100.0
 31
0.0
  0
LINE
  5
DD
330
1F
100
AcDbEntity
  8
0
  6
Continuous
 62
     7
370
    25
100
AcDbLine
 10
40.0
 20
97.0
 30
0.0
 11
59.8
 21
97.0
 31
0.0
  0
LINE
  5
DE
330
1F
100
AcDbEntity
  8
0
  6
Continuous
 62
     7
370
    25
100
AcDbLine
 10
59.8
 20
97.0
 30
0.0
 11
59.8
 21
100.0
 31
0.0
  0
LINE
  5
DF
330
1F
100
AcDbEntity
  8
0
  6
Continuous
 62
     7
370
    25
100
AcDbLine
 10
59.8
 20
100.0
 30
0.0
 11
80.0
 21
100.0
 31
0.0
  0
LINE
  5
E0
330
1F
100
AcDbEntity
  8
0
  6
Continuous
 62
     7
370
    25
100
AcDbLine
 10
80.0
 20
97.0
 30
0.0
 11
80.0
 21
100.0
 31
0.0
  0
LINE
  5
E1
330
1F
100
AcDbEntity
  8
0
  6
Continuous
 62
     7
370
    25
100
AcDbLine
 10
80.0
 20
97.0
 30
0.0
 11
97.0
 21
97.0
 31
0.0
  0
LINE
  5
E2
330
1F
100
AcDbEntity
  8
0
  6
Continuous
 62
     7
370
    25
100
AcDbLine
 10
97.0
 20
97.0
 30
0.0
 11
97.0
 21
80.2
 31
0.0
  0
MTEXT
  5
E4
330
1F
100
AcDbEntity
  8
0
  6
Continuous
 62
     7
100
AcDbMText
 10
0.0
 20
-1.0195663917
 30
0.0
 40
4.83362
 41
0.0
 71
     1
 72
     1
  1
SOLIDWORKS Educational Product.
  7
SLDTEXTSTYLE0
 73
     1
 44
1.0
  0
MTEXT
  5
E5
330
1F
100
AcDbEntity
  8
0
  6
Continuous
 62
     7
100
AcDbMText
 10
0.0
 20
-8.2699963917
 30
0.0
 40
4.83362
 41
0.0
 71
     1
 72
     1
  1
For Instructional Use Only.
  7
SLDTEXTSTYLE0
 73
     1
 44
1.0
  0
ENDSEC
  0
SECTION
  2
OBJECTS
  0
DICTIONARY
  5
C
330
0
100
AcDbDictionary
281
     1
  3
ACAD_GROUP
350
D
  3
ACAD_LAYOUT
350
1A
  3
ACAD_MLINESTYLE
350
17
  3
ACAD_PLOTSETTINGS
350
19
  3
ACAD_PLOTSTYLENAME
350
E
  3
ACAD_SCALELIST
350
47
  0
DICTIONARY
  5
D
102
{ACAD_REACTORS
330
C
102
}
330
C
100
AcDbDictionary
281
     1
  0
DICTIONARY
  5
1A
102
{ACAD_REACTORS
330
C
102
}
330
C
100
AcDbDictionary
281
     1
  3
Layout1
350
1E
  3
Layout2
350
26
  3
Model
350
22
  0
DICTIONARY
  5
17
102
{ACAD_REACTORS
330
C
102
}
330
C
100
AcDbDictionary
281
     1
  3
Standard
350
18
  0
DICTIONARY
  5
19
102
{ACAD_REACTORS
330
C
102
}
330
C
100
AcDbDictionary
281
     1
  0
ACDBDICTIONARYWDFLT
  5
E
102
{ACAD_REACTORS
330
C
102
}
330
C
100
AcDbDictionary
281
     1
  3
Normal
350
F
100
AcDbDictionaryWithDefault
340
F
  0
DICTIONARY
  5
47
102
{ACAD_REACTORS
330
C
102
}
330
C
100
AcDbDictionary
281
     1
  3
A0
350
48
  3
A1
350
49
  3
A2
350
4A
  3
A3
350
4B
  3
A4
350
4C
  3
A5
350
4D
  3
A6
350
4E
  3
A7
350
4F
  3
A8
350
50
  3
A9
350
51
  3
B0
350
52
  3
B1
350
53
  3
B2
350
54
  3
B3
350
55
  3
B4
350
56
  3
B5
350
57
  3
B6
350
58
  3
B7
350
59
  3
B8
350
5A
  3
B9
350
5B
  3
C0
350
5C
  3
C1
350
5D
  3
C2
350
5E
  3
C3
350
5F
  3
C4
350
60
  3
C5
350
61
  3
C6
350
62
  3
C7
350
63
  3
C8
350
64
  3
C9
350
65
  3
D0
350
66
  3
D1
350
67
  3
D2
350
68
  0
LAYOUT
  5
1E
102
{ACAD_REACTORS
330
1A
102
}
330
1A
100
AcDbPlotSettings
  1

  2
none_device
  4

  6

 40
0.0
 41
0.0
 42
0.0
 43
0.0
 44
0.0
 45
0.0
 46
0.0
 47
0.0
 48
0.0
 49
0.0
140
0.0
141
0.0
142
1.0
143
1.0
 70
   688
 72
     1
 73
     0
 74
     5
  7

 75
    16
147
1.0
148
0.0
149
0.0
100
AcDbLayout
  1
Layout1
 70
     1
 71
     1
 10
0.0
 20
0.0
 11
420.0
 21
297.0
 12
0.0
 22
0.0
 32
0.0
 14
1.0000000000E+20
 24
1.0000000000E+20
 34
1.0000000000E+20
 15
-1.0000000000E+20
 25
-1.0000000000E+20
 35
-1.0000000000E+20
146
0.0
 13
0.0
 23
0.0
 33
0.0
 16
1.0
 26
0.0
 36
0.0
 17
0.0
 27
1.0
 37
0.0
 76
     0
330
1B
  0
LAYOUT
  5
26
102
{ACAD_REACTORS
330
1A
102
}
330
1A
100
AcDbPlotSettings
  1

  2
none_device
  4

  6

 40
0.0
 41
0.0
 42
0.0
 43
0.0
 44
0.0
 45
0.0
 46
0.0
 47
0.0
 48
0.0
 49
0.0
140
0.0
141
0.0
142
1.0
143
1.0
 70
   688
 72
     1
 73
     0
 74
     5
  7

 75
    16
147
1.0
148
0.0
149
0.0
100
AcDbLayout
  1
Layout2
 70
     1
 71
     2
 10
0.0
 20
0.0
 11
0.0
 21
0.0
 12
0.0
 22
0.0
 32
0.0
 14
0.0
 24
0.0
 34
0.0
 15
0.0
 25
0.0
 35
0.0
146
0.0
 13
0.0
 23
0.0
 33
0.0
 16
1.0
 26
0.0
 36
0.0
 17
0.0
 27
1.0
 37
0.0
 76
     0
330
23
  0
LAYOUT
  5
22
102
{ACAD_REACTORS
330
1A
102
}
330
1A
100
AcDbPlotSettings
  1

  2
none_device
  4
ANSI_A_(11.00_x_8.50_Inches)
  6

 40
6.35
 41
19.05
 42
6.35000508
 43
19.05000254
 44
279.4
 45
215.9
 46
26.47949746
 47
-17.97050127
 48
0.0
 49
0.0
140
0.0
141
0.0
142
0.08415
143
1.0
 70
  1696
 72
     0
 73
     0
 74
     0
  7

 75
     0
147
0.0179189148
148
-1300.4909072572
149
0.0
100
AcDbLayout
  1
Model
 70
     1
 71
     0
 10
0.0
 20
0.0
 11
420.0
 21
297.0
 12
0.0
 22
0.0
 32
0.0
 14
0.0
 24
0.0
 34
0.0
 15
100.0
 25
100.0
 35
0.0
146
0.0
 13
0.0
 23
0.0
 33
0.0
 16
1.0
 26
0.0
 36
0.0
 17
0.0
 27
1.0
 37
0.0
 76
     0
330
1F
331
29
  0
MLINESTYLE
  5
18
102
{ACAD_REACTORS
330
17
102
}
330
17
100
AcDbMlineStyle
  2
Standard
 70
     0
  3

 62
   256
 51
90.0
 52
90.0
 71
     2
 49
0.5
 62
   256
  6
BYLAYER
 49
-0.5
 62
   256
  6
BYLAYER
  0
ACDBPLACEHOLDER
  5
F
102
{ACAD_REACTORS
330
E
102
}
330
E
  0
SCALE
  5
48
102
{ACAD_REACTORS
330
47
102
}
330
47
100
AcDbScale
 70
     0
300
1:1
140
1.0
141
1.0
290
     1
  0
SCALE
  5
49
102
{ACAD_REACTORS
330
47
102
}
330
47
100
AcDbScale
 70
     0
300
1:2
140
1.0
141
2.0
290
     0
  0
SCALE
  5
4A
102
{ACAD_REACTORS
330
47
102
}
330
47
100
AcDbScale
 70
     0
300
1:4
140
1.0
141
4.0
290
     0
  0
SCALE
  5
4B
102
{ACAD_REACTORS
330
47
102
}
330
47
100
AcDbScale
 70
     0
300
1:5
140
1.0
141
5.0
290
     0
  0
SCALE
  5
4C
102
{ACAD_REACTORS
330
47
102
}
330
47
100
AcDbScale
 70
     0
300
1:8
140
1.0
141
8.0
290
     0
  0
SCALE
  5
4D
102
{ACAD_REACTORS
330
47
102
}
330
47
100
AcDbScale
 70
     0
300
1:10
140
1.0
141
10.0
290
     0
  0
SCALE
  5
4E
102
{ACAD_REACTORS
330
47
102
}
330
47
100
AcDbScale
 70
     0
300
1:16
140
1.0
141
16.0
290
     0
  0
SCALE
  5
4F
102
{ACAD_REACTORS
330
47
102
}
330
47
100
AcDbScale
 70
     0
300
1:20
140
1.0
141
20.0
290
     0
  0
SCALE
  5
50
102
{ACAD_REACTORS
330
47
102
}
330
47
100
AcDbScale
 70
     0
300
1:30
140
1.0
141
30.0
290
     0
  0
SCALE
  5
51
102
{ACAD_REACTORS
330
47
102
}
330
47
100
AcDbScale
 70
     0
300
1:40
140
1.0
141
40.0
290
     0
  0
SCALE
  5
52
102
{ACAD_REACTORS
330
47
102
}
330
47
100
AcDbScale
 70
     0
300
1:50
140
1.0
141
50.0
290
     0
  0
SCALE
  5
53
102
{ACAD_REACTORS
330
47
102
}
330
47
100
AcDbScale
 70
     0
300
1:100
140
1.0
141
100.0
290
     0
  0
SCALE
  5
54
102
{ACAD_REACTORS
330
47
102
}
330
47
100
AcDbScale
 70
     0
300
2:1
140
2.0
141
1.0
290
     0
  0
SCALE
  5
55
102
{ACAD_REACTORS
330
47
102
}
330
47
100
AcDbScale
 70
     0
300
4:1
140
4.0
141
1.0
290
     0
  0
SCALE
  5
56
102
{ACAD_REACTORS
330
47
102
}
330
47
100
AcDbScale
 70
     0
300
8:1
140
8.0
141
1.0
290
     0
  0
SCALE
  5
57
102
{ACAD_REACTORS
330
47
102
}
330
47
100
AcDbScale
 70
     0
300
10:1
140
10.0
141
1.0
290
     0
  0
SCALE
  5
58
102
{ACAD_REACTORS
330
47
102
}
330
47
100
AcDbScale
 70
     0
300
100:1
140
100.0
141
1.0
290
     0
  0
SCALE
  5
59
102
{ACAD_REACTORS
330
47
102
}
330
47
100
AcDbScale
 70
     0
300
1/128" = 1'-0"
140
0.0078125
141
12.0
290
     0
  0
SCALE
  5
5A
102
{ACAD_REACTORS
330
47
102
}
330
47
100
AcDbScale
 70
     0
300
1/64" = 1'-0"
140
0.015625
141
12.0
290
     0
  0
SCALE
  5
5B
102
{ACAD_REACTORS
330
47
102
}
330
47
100
AcDbScale
 70
     0
300
1/32" = 1'-0"
140
0.03125
141
12.0
290
     0
  0
SCALE
  5
5C
102
{ACAD_REACTORS
330
47
102
}
330
47
100
AcDbScale
 70
     0
300
1/16" = 1'-0"
140
0.0625
141
12.0
290
     0
  0
SCALE
  5
5D
102
{ACAD_REACTORS
330
47
102
}
330
47
100
AcDbScale
 70
     0
300
3/32" = 1'-0"
140
0.09375
141
12.0
290
     0
  0
SCALE
  5
5E
102
{ACAD_REACTORS
330
47
102
}
330
47
100
AcDbScale
 70
     0
300
1/8" = 1'-0"
140
0.125
141
12.0
290
     0
  0
SCALE
  5
5F
102
{ACAD_REACTORS
330
47
102
}
330
47
100
AcDbScale
 70
     0
300
3/16" = 1'-0"
140
0.1875
141
12.0
290
     0
  0
SCALE
  5
60
102
{ACAD_REACTORS
330
47
102
}
330
47
100
AcDbScale
 70
     0
300
1/4" = 1'-0"
140
0.25
141
12.0
290
     0
  0
SCALE
  5
61
102
{ACAD_REACTORS
330
47
102
}
330
47
100
AcDbScale
 70
     0
300
3/8" = 1'-0"
140
0.375
141
12.0
290
     0
  0
SCALE
  5
62
102
{ACAD_REACTORS
330
47
102
}
330
47
100
AcDbScale
 70
     0
300
1/2" = 1'-0"
140
0.5
141
12.0
290
     0
  0
SCALE
  5
63
102
{ACAD_REACTORS
330
47
102
}
330
47
100
AcDbScale
 70
     0
300
3/4" = 1'-0"
140
0.75
141
12.0
290
     0
  0
SCALE
  5
64
102
{ACAD_REACTORS
330
47
102
}
330
47
100
AcDbScale
 70
     0
300
1" = 1'-0"
140
1.0
141
12.0
290
     0
  0
SCALE
  5
65
102
{ACAD_REACTORS
330
47
102
}
330
47
100
AcDbScale
 70
     0
300
1-1/2" = 1'-0"
140
1.5
141
12.0
290
     0
  0
SCALE
  5
66
102
{ACAD_REACTORS
330
47
102
}
330
47
100
AcDbScale
 70
     0
300
3" = 1'-0"
140
3.0
141
12.0
290
     0
  0
SCALE
  5
67
102
{ACAD_REACTORS
330
47
102
}
330
47
100
AcDbScale
 70
     0
300
6" = 1'-0"
140
6.0
141
12.0
290
     0
  0
SCALE
  5
68
102
{ACAD_REACTORS
330
47
102
}
330
47
100
AcDbScale
 70
     0
300
1'-0" = 1'-0"
140
12.0
141
12.0
290
     0
  0
ENDSEC
  0
EOF
