  0
SECTION
  2
HEADER
  9
$ACADVER
  1
AC1015
  9
$ACADMAINTVER
 70
     6
  9
$DWGCODEPAGE
  3
ANSI_1252
  9
$INSBASE
 10
0.0
 20
0.0
 30
0.0
  9
$EXTMIN
 10
0.0
 20
0.0
 30
0.0
  9
$EXTMAX
 10
100.0
 20
100.0
 30
0.0
  9
$LIMMIN
 10
0.0
 20
0.0
  9
$LIMMAX
 10
420.0
 20
297.0
  9
$ORTHOMODE
 70
     0
  9
$REGENMODE
 70
     1
  9
$FILLMODE
 70
     1
  9
$QTEXTMODE
 70
     0
  9
$MIRRTEXT
 70
     1
  9
$LTSCALE
 40
1.0
  9
$ATTMODE
 70
     1
  9
$TEXTSIZE
 40
3.5
  9
$TRACEWID
 40
1.0
  9
$TEXTSTYLE
  7
Standard
  9
$CLAYER
  8
0
  9
$CELTYPE
  6
ByLayer
  9
$CECOLOR
 62
   256
  9
$CELTSCALE
 40
1.0
  9
$DISPSILH
 70
     0
  9
$DIMSCALE
 40
1.0
  9
$DIMASZ
 40
3.302
  9
$DIMEXO
 40
1.27
  9
$DIMDLI
 40
3.75
  9
$DIMRND
 40
0.0
  9
$DIMDLE
 40
0.0
  9
$DIMEXE
 40
3.175
  9
$DIMTP
 40
0.0
  9
$DIMTM
 40
0.0
  9
$DIMTXT
 40
3.5
  9
$DIMCEN
 40
2.5
  9
$DIMTSZ
 40
0.0
  9
$DIMTOL
 70
     0
  9
$DIMLIM
 70
     0
  9
$DIMTIH
 70
     1
  9
$DIMTOH
 70
     1
  9
$DIMSE1
 70
     0
  9
$DIMSE2
 70
     0
  9
$DIMTAD
 70
     1
  9
$DIMZIN
 70
     1
  9
$DIMBLK
  1

  9
$DIMASO
 70
     1
  9
$DIMSHO
 70
     1
  9
$DIMPOST
  1

  9
$DIMAPOST
  1

  9
$DIMALT
 70
     0
  9
$DIMALTD
 70
     3
  9
$DIMALTF
 40
0.0393700787
  9
$DIMLFAC
 40
1.0
  9
$DIMTOFL
 70
     1
  9
$DIMTVP
 40
0.0
  9
$DIMTIX
 70
     0
  9
$DIMSOXD
 70
     0
  9
$DIMSAH
 70
     0
  9
$DIMBLK1
  1

  9
$DIMBLK2
  1

  9
$DIMSTYLE
  2
ISO-25
  9
$DIMCLRD
 70
     0
  9
$DIMCLRE
 70
     0
  9
$DIMCLRT
 70
     0
  9
$DIMTFAC
 40
1.0
  9
$DIMGAP
 40
1.524
  9
$DIMJUST
 70
     0
  9
$DIMSD1
 70
     0
  9
$DIMSD2
 70
     0
  9
$DIMTOLJ
 70
     0
  9
$DIMTZIN
 70
     1
  9
$DIMALTZ
 70
     0
  9
$DIMALTTZ
 70
     0
  9
$DIMUPT
 70
     0
  9
$DIMDEC
 70
     2
  9
$DIMTDEC
 70
     2
  9
$DIMALTU
 70
     2
  9
$DIMALTTD
 70
     3
  9
$DIMTXSTY
  7
Standard
  9
$DIMAUNIT
 70
     0
  9
$DIMADEC
 70
     2
  9
$DIMALTRND
 40
0.0
  9
$DIMAZIN
 70
     0
  9
$DIMDSEP
 70
    44
  9
$DIMATFIT
 70
     3
  9
$DIMFRAC
 70
     0
  9
$DIMLDRBLK
  1

  9
$DIMLUNIT
 70
     2
  9
$DIMLWD
 70
    -2
  9
$DIMLWE
 70
    -2
  9
$DIMTMOVE
 70
     0
  9
$LUNITS
 70
     2
  9
$LUPREC
 70
     2
  9
$SKETCHINC
 40
1.0
  9
$FILLETRAD
 40
10.0
  9
$AUNITS
 70
     0
  9
$AUPREC
 70
     2
  9
$MENU
  1
.
  9
$ELEVATION
 40
0.0
  9
$PELEVATION
 40
0.0
  9
$THICKNESS
 40
0.0
  9
$LIMCHECK
 70
     0
  9
$CHAMFERA
 40
0.0
  9
$CHAMFERB
 40
0.0
  9
$CHAMFERC
 40
0.0
  9
$CHAMFERD
 40
0.0
  9
$SKPOLY
 70
     0
  9
$TDCREATE
 40
2458800.621333171
  9
$TDUCREATE
 40
2458800.954666505
  9
$TDUPDATE
 40
2458800.621420254
  9
$TDUUPDATE
 40
2458800.954753588
  9
$TDINDWG
 40
0.0000000116
  9
$TDUSRTIMER
 40
0.0000000116
  9
$USRTIMER
 70
     1
  9
$ANGBASE
 50
0.0
  9
$ANGDIR
 70
     0
  9
$PDMODE
 70
     0
  9
$PDSIZE
 40
-1.0
  9
$PLINEWID
 40
0.0
  9
$SPLFRAME
 70
     0
  9
$SPLINETYPE
 70
     6
  9
$SPLINESEGS
 70
     8
  9
$HANDSEED
  5
112
  9
$SURFTAB1
 70
     6
  9
$SURFTAB2
 70
     6
  9
$SURFTYPE
 70
     6
  9
$SURFU
 70
     6
  9
$SURFV
 70
     6
  9
$UCSBASE
  2

  9
$UCSNAME
  2

  9
$UCSORG
 10
0.0
 20
0.0
 30
0.0
  9
$UCSXDIR
 10
1.0
 20
0.0
 30
0.0
  9
$UCSYDIR
 10
0.0
 20
1.0
 30
0.0
  9
$UCSORTHOREF
  2

  9
$UCSORTHOVIEW
 70
     0
  9
$UCSORGTOP
 10
0.0
 20
0.0
 30
0.0
  9
$UCSORGBOTTOM
 10
0.0
 20
0.0
 30
0.0
  9
$UCSORGLEFT
 10
0.0
 20
0.0
 30
0.0
  9
$UCSORGRIGHT
 10
0.0
 20
0.0
 30
0.0
  9
$UCSORGFRONT
 10
0.0
 20
0.0
 30
0.0
  9
$UCSORGBACK
 10
0.0
 20
0.0
 30
0.0
  9
$PUCSBASE
  2

  9
$PUCSNAME
  2

  9
$PUCSORG
 10
0.0
 20
0.0
 30
0.0
  9
$PUCSXDIR
 10
1.0
 20
0.0
 30
0.0
  9
$PUCSYDIR
 10
0.0
 20
1.0
 30
0.0
  9
$PUCSORTHOREF
  2

  9
$PUCSORTHOVIEW
 70
     0
  9
$PUCSORGTOP
 10
0.0
 20
0.0
 30
0.0
  9
$PUCSORGBOTTOM
 10
0.0
 20
0.0
 30
0.0
  9
$PUCSORGLEFT
 10
0.0
 20
0.0
 30
0.0
  9
$PUCSORGRIGHT
 10
0.0
 20
0.0
 30
0.0
  9
$PUCSORGFRONT
 10
0.0
 20
0.0
 30
0.0
  9
$PUCSORGBACK
 10
0.0
 20
0.0
 30
0.0
  9
$USERI1
 70
     0
  9
$USERI2
 70
     0
  9
$USERI3
 70
     0
  9
$USERI4
 70
     0
  9
$USERI5
 70
     0
  9
$USERR1
 40
0.0
  9
$USERR2
 40
0.0
  9
$USERR3
 40
0.0
  9
$USERR4
 40
0.0
  9
$USERR5
 40
0.0
  9
$WORLDVIEW
 70
     1
  9
$SHADEDGE
 70
     3
  9
$SHADEDIF
 70
    70
  9
$TILEMODE
 70
     1
  9
$MAXACTVP
 70
    64
  9
$PINSBASE
 10
0.0
 20
0.0
 30
0.0
  9
$PLIMCHECK
 70
     0
  9
$PEXTMIN
 10
1.0000000000E+20
 20
1.0000000000E+20
 30
1.0000000000E+20
  9
$PEXTMAX
 10
-1.0000000000E+20
 20
-1.0000000000E+20
 30
-1.0000000000E+20
  9
$PLIMMIN
 10
0.0
 20
0.0
  9
$PLIMMAX
 10
420.0
 20
297.0
  9
$UNITMODE
 70
     0
  9
$VISRETAIN
 70
     1
  9
$PLINEGEN
 70
     0
  9
$PSLTSCALE
 70
     1
  9
$TREEDEPTH
 70
  3020
  9
$CMLSTYLE
  2
Standard
  9
$CMLJUST
 70
     0
  9
$CMLSCALE
 40
20.0
  9
$PROXYGRAPHICS
 70
     1
  9
$MEASUREMENT
 70
     1
  9
$CELWEIGHT
370
    -1
  9
$ENDCAPS
280
     0
  9
$JOINSTYLE
280
     0
  9
$LWDISPLAY
290
     1
  9
$INSUNITS
 70
     4
  9
$HYPERLINKBASE
  1

  9
$STYLESHEET
  1

  9
$XEDIT
290
     1
  9
$CEPSNTYPE
380
     0
  9
$PSTYLEMODE
290
     1
  9
$FINGERPRINTGUID
  2
{1e06e56f-ca9c-491d-8f8a-ea55296fa390}
  9
$VERSIONGUID
  2
{FAEB1C32-E019-11D5-929B-00C0DF256EC4}
  9
$EXTNAMES
290
     1
  9
$PSVPSCALE
 40
0.0
  9
$OLESTARTUP
290
     0
  0
ENDSEC
  0
SECTION
  2
CLASSES
  0
CLASS
  1
ACDBDICTIONARYWDFLT
  2
AcDbDictionaryWithDefault
  3
ObjectDBX Classes
 90
        0
280
     0
281
     0
  0
CLASS
  1
VISUALSTYLE
  2
AcDbVisualStyle
  3
ObjectDBX Classes
 90
     4095
280
     0
281
     0
  0
CLASS
  1
MATERIAL
  2
AcDbMaterial
  3
ObjectDBX Classes
 90
     1153
280
     0
281
     0
  0
CLASS
  1
SCALE
  2
AcDbScale
  3
ObjectDBX Classes
 90
     1153
280
     0
281
     0
  0
CLASS
  1
TABLESTYLE
  2
AcDbTableStyle
  3
ObjectDBX Classes
 90
     4095
280
     0
281
     0
  0
CLASS
  1
MLEADERSTYLE
  2
AcDbMLeaderStyle
  3
ACDB_MLEADERSTYLE_CLASS
 90
     4095
280
     0
281
     0
  0
CLASS
  1
SUN
  2
AcDbSun
  3
SCENEOE
 90
     1153
280
     0
281
     0
  0
CLASS
  1
ACDBPLACEHOLDER
  2
AcDbPlaceHolder
  3
ObjectDBX Classes
 90
        0
280
     0
281
     0
  0
CLASS
  1
LAYOUT
  2
AcDbLayout
  3
ObjectDBX Classes
 90
        0
280
     0
281
     0
  0
ENDSEC
  0
SECTION
  2
TABLES
  0
TABLE
  2
VPORT
  5
8
330
0
100
AcDbSymbolTable
 70
     1
  0
VPORT
  5
29
330
8
100
AcDbSymbolTableRecord
100
AcDbViewportTableRecord
  2
*Active
 70
     0
 10
0.0
 20
0.0
 11
1.0
 21
1.0
 12
50.0
 22
50.0
 13
0.0
 23
0.0
 14
10.0
 24
10.0
 15
10.0
 25
10.0
 16
0.0
 26
0.0
 36
1.0
 17
0.0
 27
0.0
 37
0.0
 40
102.0
 41
1.0
 42
50.0
 43
0.0
 44
0.0
 50
0.0
 51
0.0
 71
     0
 72
   100
 73
     1
 74
     3
 75
     0
 76
     0
 77
     0
 78
     0
281
     0
 65
     1
110
0.0
120
0.0
130
0.0
111
1.0
121
0.0
131
0.0
112
0.0
122
1.0
132
0.0
 79
     0
146
0.0
  0
ENDTAB
  0
TABLE
  2
LTYPE
  5
5
330
0
100
AcDbSymbolTable
 70
     6
  0
LTYPE
  5
14
330
5
100
AcDbSymbolTableRecord
100
AcDbLinetypeTableRecord
  2
ByBlock
 70
     0
  3

 72
    65
 73
     0
 40
0.0
  0
LTYPE
  5
15
330
5
100
AcDbSymbolTableRecord
100
AcDbLinetypeTableRecord
  2
ByLayer
 70
     0
  3

 72
    65
 73
     0
 40
0.0
  0
LTYPE
  5
16
330
5
100
AcDbSymbolTableRecord
100
AcDbLinetypeTableRecord
  2
Continuous
 70
     0
  3
Solid line
 72
    65
 73
     0
 40
0.0
  0
LTYPE
  5
6E
330
5
100
AcDbSymbolTableRecord
100
AcDbLinetypeTableRecord
  2
HIDDEN
 70
     0
  3
Hidden __ __ __ __ __ __ __ __ __ __ __ __ __ __
 72
    65
 73
     2
 40
1.905
 49
1.27
 74
     0
 49
-0.635
 74
     0
  0
LTYPE
  5
6F
330
5
100
AcDbSymbolTableRecord
100
AcDbLinetypeTableRecord
  2
PHANTOM
 70
     0
  3
Phantom ______  __  __  ______  __  __  ______
 72
    65
 73
     6
 40
12.7
 49
6.35
 74
     0
 49
-1.27
 74
     0
 49
1.27
 74
     0
 49
-1.27
 74
     0
 49
1.27
 74
     0
 49
-1.27
 74
     0
  0
LTYPE
  5
70
330
5
100
AcDbSymbolTableRecord
100
AcDbLinetypeTableRecord
  2
CENTER
 70
     0
  3
Center ____ _ ____ _ ____ _ ____ _ ____ _ ____
 72
    65
 73
     4
 40
10.16
 49
6.35
 74
     0
 49
-1.27
 74
     0
 49
1.27
 74
     0
 49
-1.27
 74
     0
  0
LTYPE
  5
71
330
5
100
AcDbSymbolTableRecord
100
AcDbLinetypeTableRecord
  2
CENTERX2
 70
     0
  3
Center (2x) ________  __  ________  __  _____
 72
    65
 73
     4
 40
20.32
 49
12.7
 74
     0
 49
-2.54
 74
     0
 49
2.54
 74
     0
 49
-2.54
 74
     0
  0
LTYPE
  5
72
330
5
100
AcDbSymbolTableRecord
100
AcDbLinetypeTableRecord
  2
DOT2
 70
     0
  3
Dot (.5x) ........................................
 72
    65
 73
     2
 40
0.635
 49
0.0
 74
     0
 49
-0.635
 74
     0
  0
ENDTAB
  0
TABLE
  2
LAYER
  5
2
330
0
100
AcDbSymbolTable
 70
     1
  0
LAYER
  5
10
330
2
100
AcDbSymbolTableRecord
100
AcDbLayerTableRecord
  2
0
 70
     0
 62
     7
  6
Continuous
370
    -3
390
F
  0
ENDTAB
  0
TABLE
  2
STYLE
  5
3
330
0
100
AcDbSymbolTable
 70
     2
  0
STYLE
  5
11
330
3
100
AcDbSymbolTableRecord
100
AcDbTextStyleTableRecord
  2
Standard
 70
     0
 40
0.0
 41
1.0
 50
0.0
 71
     0
 42
3.5
  3
txt
  4

  0
STYLE
  5
10F
330
3
100
AcDbSymbolTableRecord
100
AcDbTextStyleTableRecord
  2
SLDTEXTSTYLE0
 70
     0
 40
0.0
 41
0.7
 50
0.0
 71
     0
 42
3.5
  3
TXT
  4

  0
ENDTAB
  0
TABLE
  2
VIEW
  5
6
330
0
100
AcDbSymbolTable
 70
     0
  0
ENDTAB
  0
TABLE
  2
UCS
  5
7
330
0
100
AcDbSymbolTable
 70
     0
  0
ENDTAB
  0
TABLE
  2
APPID
  5
9
330
0
100
AcDbSymbolTable
 70
     1
  0
APPID
  5
12
330
9
100
AcDbSymbolTableRecord
100
AcDbRegAppTableRecord
  2
ACAD
 70
     0
  0
ENDTAB
  0
TABLE
  2
DIMSTYLE
  5
A
330
0
100
AcDbSymbolTable
 70
     1
100
AcDbDimStyleTable
  0
DIMSTYLE
105
27
330
A
100
AcDbSymbolTableRecord
100
AcDbDimStyleTableRecord
  2
ISO-25
 70
     0
 41
2.5
 42
0.625
 43
3.75
 44
1.25
 73
     0
 74
     0
 77
     1
 78
     8
140
2.5
141
2.5
143
0.0393700787
147
0.625
171
     3
172
     1
178
     0
271
     2
272
     2
274
     3
278
    44
283
     0
284
     8
340
11
  0
ENDTAB
  0
TABLE
  2
BLOCK_RECORD
  5
1
330
0
100
AcDbSymbolTable
 70
     1
  0
BLOCK_RECORD
  5
1F
330
1
100
AcDbSymbolTableRecord
100
AcDbBlockTableRecord
  2
*Model_Space
340
22
  0
BLOCK_RECORD
  5
1B
330
1
100
AcDbSymbolTableRecord
100
AcDbBlockTableRecord
  2
*Paper_Space
340
1E
  0
BLOCK_RECORD
  5
23
330
1
100
AcDbSymbolTableRecord
100
AcDbBlockTableRecord
  2
*Paper_Space0
340
26
  0
ENDTAB
  0
ENDSEC
  0
SECTION
  2
BLOCKS
  0
BLOCK
  5
20
330
1F
100
AcDbEntity
  8
0
100
AcDbBlockBegin
  2
*Model_Space
 70
     0
 10
0.0
 20
0.0
 30
0.0
  3
*Model_Space
  1

  0
ENDBLK
  5
21
330
1F
100
AcDbEntity
  8
0
100
AcDbBlockEnd
  0
BLOCK
  5
1C
330
1B
100
AcDbEntity
 67
     1
  8
0
100
AcDbBlockBegin
  2
*Paper_Space
 70
     0
 10
0.0
 20
0.0
 30
0.0
  3
*Paper_Space
  1

  0
ENDBLK
  5
1D
330
1B
100
AcDbEntity
 67
     1
  8
0
100
AcDbBlockEnd
  0
BLOCK
  5
24
330
23
100
AcDbEntity
  8
0
100
AcDbBlockBegin
  2
*Paper_Space0
 70
     0
 10
0.0
 20
0.0
 30
0.0
  3
*Paper_Space0
  1

  0
ENDBLK
  5
25
330
23
100
AcDbEntity
  8
0
100
AcDbBlockEnd
  0
ENDSEC
  0
SECTION
  2
ENTITIES
  0
LINE
  5
73
330
1F
100
AcDbEntity
  8
0
  6
CENTERX2
 62
     7
100
AcDbLine
 10
50.0
 20
57.0131
 30
0.0
 11
50.0
 21
100.0
 31
0.0
  0
LINE
  5
74
330
1F
100
AcDbEntity
  8
0
  6
CENTERX2
 62
     7
100
AcDbLine
 10
57.0131
 20
50.0
 30
0.0
 11
100.0
 21
50.0
 31
0.0
  0
LINE
  5
75
330
1F
100
AcDbEntity
  8
0
  6
CENTERX2
 62
     7
100
AcDbLine
 10
50.0
 20
42.9869
 30
0.0
 11
50.0
 21
0.0
 31
0.0
  0
LINE
  5
76
330
1F
100
AcDbEntity
  8
0
  6
CENTERX2
 62
     7
100
AcDbLine
 10
42.9869
 20
50.0
 30
0.0
 11
0.0
 21
50.0
 31
0.0
  0
LWPOLYLINE
  5
78
330
1F
100
AcDbEntity
  8
0
  6
Continuous
 62
     7
100
AcDbPolyline
 90
       89
 70
   128
 43
0.0
 10
20.9732055664
 20
90.8831051841
 10
20.9761904762
 20
90.8667361365
 10
20.9761904762
 20
90.8667361365
 10
20.9761904762
 20
89.5144295889
 10
20.9761904762
 20
89.5144295889
 10
21.0572916667
 20
89.2729861365
 10
21.0572916667
 20
89.2729861365
 10
21.2172619048
 20
89.1133879222
 10
21.2172619048
 20
89.1133879222
 10
21.4635416667
 20
89.0319147079
 10
21.4635416667
 20
89.0319147079
 10
21.6343005952
 20
89.0319147079
 10
21.6343005952
 20
89.0319147079
 10
21.8753720238
 20
89.1133879222
 10
21.8753720238
 20
89.1133879222
 10
22.0349702381
 20
89.2729861365
 10
22.0349702381
 20
89.2729861365
 10
22.119047619
 20
89.5226141127
 10
22.119047619
 20
89.5226141127
 10
22.119047619
 20
90.8749206603
 10
22.119047619
 20
90.8749206603
 10
22.1261160714
 20
90.8894295889
 10
22.1357886905
 20
90.9005903031
 10
22.1476934524
 20
90.9084028031
 10
22.1625744048
 20
90.9128670889
 10
22.1625744048
 20
90.9128670889
 10
22.1886160714
 20
90.9110069698
 10
22.209077381
 20
90.9054266127
 10
22.2235863095
 20
90.8961260174
 10
22.2321428571
 20
90.8831051841
 10
22.2321428571
 20
90.8831051841
 10
22.2380952381
 20
90.8667361365
 10
22.2380952381
 20
90.8667361365
 10
22.2380952381
 20
89.4969444698
 10
22.2380952381
 20
89.4969444698
 10
22.2220982143
 20
89.4508135174
 10
22.2075892857
 20
89.4076587555
 10
22.1938244048
 20
89.3678522079
 10
22.181547619
 20
89.330649827
 10
22.170014881
 20
89.2964236365
 10
22.1595982143
 20
89.2651736365
 10
22.1506696429
 20
89.236899827
 10
22.142485119
 20
89.2116022079
 10
22.142485119
 20
89.2116022079
 10
22.0427827381
 20
89.1100397079
 10
21.9401041667
 20
89.0107093508
 10
21.9401041667
 20
89.0107093508
 10
21.9125744048
 20
89.0006647079
 10
21.8787202381
 20
88.9891319698
 10
21.8392857143
 20
88.9761111365
 10
21.7935267857
 20
88.9616022079
 10
21.748139881
 20
88.9474653031
 10
21.7094494048
 20
88.9344444698
 10
21.6767113095
 20
88.9229117317
 10
21.650297619
 20
88.9128670889
 10
21.650297619
 20
88.9128670889
 10
21.4397321429
 20
88.9128670889
 10
21.4397321429
 20
88.9128670889
 10
21.4148065476
 20
88.9214236365
 10
21.3872767857
 20
88.9310962555
 10
21.3563988095
 20
88.9411408984
 10
21.3229166667
 20
88.9523016127
 10
21.2860863095
 20
88.9642063746
 10
21.2462797619
 20
88.9772272079
 10
21.2038690476
 20
88.9906200651
 10
21.158110119
 20
89.0051289936
 10
21.158110119
 20
89.0051289936
 10
20.9557291667
 20
89.2063938746
 10
20.9557291667
 20
89.2063938746
 10
20.9468005952
 20
89.2324355412
 10
20.9371279762
 20
89.2610813746
 10
20.9263392857
 20
89.2930754222
 10
20.9144345238
 20
89.3280456603
 10
20.9017857143
 20
89.3656200651
 10
20.8880208333
 20
89.4065426841
 10
20.873139881
 20
89.4500694698
 10
20.8571428571
 20
89.4969444698
 10
20.8571428571
 20
89.4969444698
 10
20.8571428571
 20
90.8749206603
 10
20.8571428571
 20
90.8749206603
 10
20.8642113095
 20
90.8894295889
 10
20.875
 20
90.9005903031
 10
20.8883928571
 20
90.9084028031
 10
20.9055059524
 20
90.9128670889
 10
20.9055059524
 20
90.9128670889
 10
20.9267113095
 20
90.9110069698
 10
20.9449404762
 20
90.9054266127
 10
20.9605654762
 20
90.8961260174
 10
20.9732142857
 20
90.8831051841
  0
LWPOLYLINE
  5
79
330
1F
100
AcDbEntity
  8
0
  6
Continuous
 62
     7
100
AcDbPolyline
 90
      109
 70
   128
 43
0.0
 10
23.9996165037
 20
90.8105605412
 10
24.1923363095
 20
90.611899827
 10
24.1923363095
 20
90.611899827
 10
24.2927827381
 20
90.4076587555
 10
24.2927827381
 20
90.4076587555
 10
24.290922619
 20
90.3883135174
 10
24.2860863095
 20
90.371572446
 10
24.2775297619
 20
90.3578075651
 10
24.265625
 20
90.3466468508
 10
24.265625
 20
90.3466468508
 10
24.2462797619
 20
90.3406944698
 10
24.2358630952
 20
90.338462327
 10
24.2358630952
 20
90.338462327
 10
24.224702381
 20
90.3392063746
 10
24.2172619048
 20
90.3410664936
 10
24.2172619048
 20
90.3410664936
 10
24.2094494048
 20
90.3440426841
 10
24.2016369048
 20
90.3499950651
 10
24.1945684524
 20
90.3592956603
 10
24.1875
 20
90.3712004222
 10
24.1875
 20
90.3712004222
 10
24.1008184524
 20
90.5441914936
 10
24.1008184524
 20
90.5441914936
 10
23.9334077381
 20
90.7142063746
 10
23.9334077381
 20
90.7142063746
 10
23.7767857143
 20
90.7938194698
 10
23.7767857143
 20
90.7938194698
 10
23.4415922619
 20
90.7938194698
 10
23.4415922619
 20
90.7938194698
 10
23.2875744048
 20
90.7127182793
 10
23.2875744048
 20
90.7127182793
 10
23.1197916667
 20
90.5482837555
 10
23.1197916667
 20
90.5482837555
 10
23.0308779762
 20
90.3700843508
 10
23.0308779762
 20
90.3700843508
 10
22.9523809524
 20
90.127524827
 10
22.9523809524
 20
90.127524827
 10
22.9523809524
 20
89.6903968508
 10
22.9523809524
 20
89.6903968508
 10
23.0360863095
 20
89.4366766127
 10
23.0360863095
 20
89.4366766127
 10
23.1227678571
 20
89.2748462555
 10
23.1227678571
 20
89.2748462555
 10
23.2875744048
 20
89.1100397079
 10
23.2875744048
 20
89.1100397079
 10
23.4441964286
 20
89.0319147079
 10
23.4441964286
 20
89.0319147079
 10
23.779389881
 20
89.0319147079
 10
23.779389881
 20
89.0319147079
 10
23.9360119048
 20
89.1081795889
 10
23.9360119048
 20
89.1081795889
 10
24.1008184524
 20
89.2707539936
 10
24.1008184524
 20
89.2707539936
 10
24.1927083333
 20
89.4467212555
 10
24.1927083333
 20
89.4467212555
 10
24.2023809524
 20
89.4545337555
 10
24.2150297619
 20
89.4604861365
 10
24.2310267857
 20
89.4638343508
 10
24.2496279762
 20
89.4649504222
 10
24.2496279762
 20
89.4649504222
 10
24.2663690476
 20
89.4582539936
 10
24.279389881
 20
89.4489533984
 10
24.2879464286
 20
89.4366766127
 10
24.2927827381
 20
89.4221676841
 10
24.2927827381
 20
89.4221676841
 10
24.2927827381
 20
89.3983581603
 10
24.2927827381
 20
89.3983581603
 10
24.2734375
 20
89.3611557793
 10
24.25
 20
89.3157688746
 10
24.2232142857
 20
89.262197446
 10
24.1923363095
 20
89.2008135174
 10
24.1923363095
 20
89.2008135174
 10
23.9970238095
 20
89.0062450651
 10
23.9970238095
 20
89.0062450651
 10
23.8043154762
 20
88.9128670889
 10
23.8043154762
 20
88.9128670889
 10
23.4110863095
 20
88.9128670889
 10
23.4110863095
 20
88.9128670889
 10
23.2183779762
 20
89.0077331603
 10
23.2183779762
 20
89.0077331603
 10
23.0178571429
 20
89.2112301841
 10
23.0178571429
 20
89.2112301841
 10
22.9229910714
 20
89.4095188746
 10
22.9229910714
 20
89.4095188746
 10
22.8333333333
 20
89.6755158984
 10
22.8333333333
 20
89.6755158984
 10
22.8333333333
 20
90.1557986365
 10
22.8333333333
 20
90.1557986365
 10
22.8415178571
 20
90.1814682793
 10
22.8508184524
 20
90.2101141127
 10
22.861235119
 20
90.2409920889
 10
22.8735119048
 20
90.2752182793
 10
22.8865327381
 20
90.3116766127
 10
22.9010416667
 20
90.3511111365
 10
22.9166666667
 20
90.393149827
 10
22.9337797619
 20
90.4377926841
 10
22.9337797619
 20
90.4377926841
 10
23.0204613095
 20
90.6171081603
 10
23.0204613095
 20
90.6171081603
 10
23.2213541667
 20
90.815024827
 10
23.2213541667
 20
90.815024827
 10
23.2585565476
 20
90.8343700651
 10
23.3046875
 20
90.8570635174
 10
23.3601190476
 20
90.8834772079
 10
23.4248511905
 20
90.9128670889
 10
23.4248511905
 20
90.9128670889
 10
23.8043154762
 20
90.9102629222
 10
23.8043154762
 20
90.9102629222
 10
23.9996279762
 20
90.8105605412
  0
LWPOLYLINE
  5
7A
330
1F
100
AcDbEntity
  8
0
  6
Continuous
 62
     7
100
AcDbPolyline
 90
       45
 70
   128
 43
0.0
 10
27.4185240269
 20
90.8176289936
 10
27.4322916667
 20
90.8068403031
 10
27.4322916667
 20
90.8068403031
 10
27.6235119048
 20
90.6141319698
 10
27.6235119048
 20
90.6141319698
 10
27.7191220238
 20
90.4154712555
 10
27.7191220238
 20
90.4154712555
 10
27.8095238095
 20
90.1491022079
 10
27.8095238095
 20
90.1491022079
 10
27.8095238095
 20
89.6766319698
 10
27.8095238095
 20
89.6766319698
 10
27.7109375
 20
89.3912897079
 10
27.7109375
 20
89.3912897079
 10
27.6209077381
 20
89.2063938746
 10
27.6209077381
 20
89.2063938746
 10
27.4322916667
 20
89.0162897079
 10
27.4322916667
 20
89.0162897079
 10
27.4103422619
 20
89.002524827
 10
27.4103422619
 20
89.002524827
 10
27.3854166667
 20
88.994712327
 10
27.3578869048
 20
88.9857837555
 10
27.3270089286
 20
88.9761111365
 10
27.2935267857
 20
88.965322446
 10
27.2566964286
 20
88.9534176841
 10
27.216889881
 20
88.9407688746
 10
27.1744791667
 20
88.9273760174
 10
27.1287202381
 20
88.9128670889
 10
27.1287202381
 20
88.9128670889
 10
26.466889881
 20
88.9128670889
 10
26.466889881
 20
88.9128670889
 10
26.4523809524
 20
88.9188194698
 10
26.4408482143
 20
88.9277480412
 10
26.4330357143
 20
88.9403968508
 10
26.4285714286
 20
88.9563938746
 10
26.4285714286
 20
88.9563938746
 10
26.4285714286
 20
90.8749206603
 10
26.4285714286
 20
90.8749206603
 10
26.435639881
 20
90.8894295889
 10
26.4456845238
 20
90.9005903031
 10
26.4587053571
 20
90.9084028031
 10
26.4750744048
 20
90.9128670889
 10
26.4750744048
 20
90.9128670889
 10
27.1369047619
 20
90.9128670889
 10
27.1369047619
 20
90.9128670889
 10
27.4185267857
 20
90.8176289936
  0
LWPOLYLINE
  5
7B
330
1F
100
AcDbEntity
  8
0
  6
Continuous
 62
     7
100
AcDbPolyline
 90
       24
 70
   128
 43
0.0
 10
27.3563861847
 20
90.7026736365
 10
27.1149553571
 20
90.7834028031
 10
27.1149553571
 20
90.7834028031
 10
26.5476190476
 20
90.7860069698
 10
26.5476190476
 20
90.7860069698
 10
26.5476190476
 20
89.0319147079
 10
26.5476190476
 20
89.0319147079
 10
27.1134672619
 20
89.0319147079
 10
27.1134672619
 20
89.0319147079
 10
27.3586309524
 20
89.1126438746
 10
27.3586309524
 20
89.1126438746
 10
27.5189732143
 20
89.2741022079
 10
27.5189732143
 20
89.2741022079
 10
27.603422619
 20
89.4329563746
 10
27.603422619
 20
89.4329563746
 10
27.6904761905
 20
89.6911408984
 10
27.6904761905
 20
89.6911408984
 10
27.6904761905
 20
90.121572446
 10
27.6904761905
 20
90.121572446
 10
27.6090029762
 20
90.3663641127
 10
27.6090029762
 20
90.3663641127
 10
27.5193452381
 20
90.5438194698
 10
27.5193452381
 20
90.5438194698
 10
27.3563988095
 20
90.7026736365
  0
LWPOLYLINE
  5
7C
330
1F
100
AcDbEntity
  8
0
  6
Continuous
 62
     7
100
AcDbPolyline
 90
       87
 70
   128
 43
0.0
 10
29.2920321226
 20
90.1740278031
 10
29.380952381
 20
90.0862301841
 10
29.380952381
 20
90.0862301841
 10
29.380952381
 20
90.2294593508
 10
29.380952381
 20
90.2294593508
 10
29.3872767857
 20
90.2450843508
 10
29.3973214286
 20
90.2569891127
 10
29.4114583333
 20
90.2655456603
 10
29.4293154762
 20
90.270009946
 10
29.4293154762
 20
90.270009946
 10
29.451264881
 20
90.2685218508
 10
29.4694940476
 20
90.2640575651
 10
29.4840029762
 20
90.2562450651
 10
29.4944196429
 20
90.2458283984
 10
29.4944196429
 20
90.2458283984
 10
29.5
 20
90.2242510174
 10
29.5
 20
90.2242510174
 10
29.5
 20
88.9586260174
 10
29.5
 20
88.9586260174
 10
29.4955357143
 20
88.9437450651
 10
29.4880952381
 20
88.9310962555
 10
29.4773065476
 20
88.9206795889
 10
29.4631696429
 20
88.9128670889
 10
29.4631696429
 20
88.9128670889
 10
29.431547619
 20
88.9154712555
 10
29.4069940476
 20
88.9225397079
 10
29.3902529762
 20
88.9348164936
 10
29.380952381
 20
88.9515575651
 10
29.380952381
 20
88.9515575651
 10
29.3828125
 20
88.9835516127
 10
29.3843005952
 20
89.0114533984
 10
29.3854166667
 20
89.0348908984
 10
29.3857886905
 20
89.0538641127
 10
29.3854166667
 20
89.0687450651
 10
29.3843005952
 20
89.0795337555
 10
29.3828125
 20
89.0858581603
 10
29.380952381
 20
89.0880903031
 10
29.380952381
 20
89.0880903031
 10
29.2890625
 20
89.0055010174
 10
29.2890625
 20
89.0055010174
 10
29.2514880952
 20
88.9872718508
 10
29.2061011905
 20
88.9656944698
 10
29.1532738095
 20
88.9407688746
 10
29.0922619048
 20
88.9128670889
 10
29.0922619048
 20
88.9128670889
 10
28.7953869048
 20
88.9128670889
 10
28.7953869048
 20
88.9128670889
 10
28.6008184524
 20
89.0069891127
 10
28.6008184524
 20
89.0069891127
 10
28.4066220238
 20
89.2030456603
 10
28.4066220238
 20
89.2030456603
 10
28.3980654762
 20
89.2287153031
 10
28.3883928571
 20
89.2573611365
 10
28.3779761905
 20
89.2889831603
 10
28.3660714286
 20
89.3232093508
 10
28.353422619
 20
89.3607837555
 10
28.3400297619
 20
89.400962327
 10
28.3251488095
 20
89.4444891127
 10
28.3095238095
 20
89.4906200651
 10
28.3095238095
 20
89.4906200651
 10
28.3095238095
 20
89.6974653031
 10
28.3095238095
 20
89.6974653031
 10
28.3251488095
 20
89.7417361365
 10
28.3396577381
 20
89.7834028031
 10
28.3530505952
 20
89.8220932793
 10
28.3656994048
 20
89.8581795889
 10
28.376860119
 20
89.8912897079
 10
28.3869047619
 20
89.9217956603
 10
28.3962053571
 20
89.9493254222
 10
28.4040178571
 20
89.9742510174
 10
28.4040178571
 20
89.9742510174
 10
28.4069940476
 20
89.9772272079
 10
28.4162946429
 20
89.9865278031
 10
28.431547619
 20
90.0017807793
 10
28.453125
 20
90.0233581603
 10
28.4810267857
 20
90.0508879222
 10
28.5148809524
 20
90.0847420889
 10
28.5546875
 20
90.1245486365
 10
28.6008184524
 20
90.1706795889
 10
28.6008184524
 20
90.1706795889
 10
28.7953869048
 20
90.2674057793
 10
28.7953869048
 20
90.2674057793
 10
28.8087797619
 20
90.270009946
 10
28.8087797619
 20
90.270009946
 10
29.0974702381
 20
90.2674057793
 10
29.0974702381
 20
90.2674057793
 10
29.2920386905
 20
90.1740278031
  0
LWPOLYLINE
  5
7D
330
1F
100
AcDbEntity
  8
0
  6
Continuous
 62
     7
100
AcDbPolyline
 90
       28
 70
   128
 43
0.0
 10
29.2254388332
 20
90.0735813746
 10
29.0725446429
 20
90.150962327
 10
29.0725446429
 20
90.150962327
 10
28.8255208333
 20
90.150962327
 10
28.8255208333
 20
90.150962327
 10
28.670014881
 20
90.0735813746
 10
28.670014881
 20
90.0735813746
 10
28.5119047619
 20
89.916587327
 10
28.5119047619
 20
89.916587327
 10
28.4285714286
 20
89.6792361365
 10
28.4285714286
 20
89.6792361365
 10
28.4285714286
 20
89.5114533984
 10
28.4285714286
 20
89.5114533984
 10
28.5089285714
 20
89.2688938746
 10
28.5089285714
 20
89.2688938746
 10
28.6674107143
 20
89.111899827
 10
28.6674107143
 20
89.111899827
 10
28.8255208333
 20
89.0319147079
 10
28.8255208333
 20
89.0319147079
 10
29.0695684524
 20
89.0319147079
 10
29.0695684524
 20
89.0319147079
 10
29.2254464286
 20
89.1092956603
 10
29.2254464286
 20
89.1092956603
 10
29.380952381
 20
89.2610813746
 10
29.380952381
 20
89.2610813746
 10
29.380952381
 20
89.9217956603
 10
29.380952381
 20
89.9217956603
 10
29.2254464286
 20
90.0735813746
  0
LWPOLYLINE
  5
7E
330
1F
100
AcDbEntity
  8
0
  6
Continuous
 62
     7
100
AcDbPolyline
 90
       43
 70
   128
 43
0.0
 10
30.1272273064
 20
90.2402480412
 10
30.6164434524
 20
89.1070635174
 10
30.6164434524
 20
89.1070635174
 10
31.1082589286
 20
90.2428522079
 10
31.1082589286
 20
90.2428522079
 10
31.1183035714
 20
90.2547569698
 10
31.1294642857
 20
90.2633135174
 10
31.1413690476
 20
90.268149827
 10
31.154389881
 20
90.270009946
 10
31.154389881
 20
90.270009946
 10
31.1733630952
 20
90.2659176841
 10
31.189360119
 20
90.2592212555
 10
31.2020089286
 20
90.2499206603
 10
31.2116815476
 20
90.2376438746
 10
31.2116815476
 20
90.2376438746
 10
31.2135416667
 20
90.2235069698
 10
31.2142857143
 20
90.2026736365
 10
31.2142857143
 20
90.2026736365
 10
30.6651785714
 20
88.9344444698
 10
30.6651785714
 20
88.9344444698
 10
30.6540178571
 20
88.9251438746
 10
30.6421130952
 20
88.918447446
 10
30.6298363095
 20
88.9143551841
 10
30.6164434524
 20
88.9128670889
 10
30.6164434524
 20
88.9128670889
 10
30.6008184524
 20
88.9147272079
 10
30.5870535714
 20
88.9210516127
 10
30.5751488095
 20
88.9310962555
 10
30.5647321429
 20
88.9452331603
 10
30.5647321429
 20
88.9452331603
 10
30.0238095238
 20
90.1974653031
 10
30.0238095238
 20
90.1974653031
 10
30.0249255952
 20
90.2171825651
 10
30.0275297619
 20
90.2335516127
 10
30.0323660714
 20
90.2462004222
 10
30.0386904762
 20
90.2551289936
 10
30.056547619
 20
90.2662897079
 10
30.0807291667
 20
90.270009946
 10
30.0807291667
 20
90.270009946
 10
30.0915178571
 20
90.2685218508
 10
30.1011904762
 20
90.2644295889
 10
30.1127232143
 20
90.2558730412
 10
30.1272321429
 20
90.2402480412
  0
LWPOLYLINE
  5
7F
330
1F
100
AcDbEntity
  8
0
  6
Continuous
 62
     7
100
AcDbPolyline
 90
       40
 70
   128
 43
0.0
 10
31.631320715
 20
90.9017063746
 10
31.7369791667
 20
90.7893551841
 10
31.7369791667
 20
90.7893551841
 10
31.7433035714
 20
90.7741022079
 10
31.7451636905
 20
90.7614533984
 10
31.7451636905
 20
90.7614533984
 10
31.7425595238
 20
90.7443403031
 10
31.734375
 20
90.7264831603
 10
31.720610119
 20
90.7078819698
 10
31.7016369048
 20
90.6885367317
 10
31.7016369048
 20
90.6885367317
 10
31.6752232143
 20
90.6632391127
 10
31.6551339286
 20
90.6435218508
 10
31.6413690476
 20
90.6297569698
 10
31.6339285714
 20
90.6212004222
 10
31.6339285714
 20
90.6212004222
 10
31.6149553571
 20
90.6107837555
 10
31.5959821429
 20
90.6070635174
 10
31.5959821429
 20
90.6070635174
 10
31.584077381
 20
90.6085516127
 10
31.5744047619
 20
90.6126438746
 10
31.5744047619
 20
90.6126438746
 10
31.5580357143
 20
90.6238045889
 10
31.5580357143
 20
90.6238045889
 10
31.4579613095
 20
90.7305754222
 10
31.4579613095
 20
90.7305754222
 10
31.4553571429
 20
90.7365278031
 10
31.4538690476
 20
90.7458283984
 10
31.4527529762
 20
90.7588492317
 10
31.4523809524
 20
90.7752182793
 10
31.4523809524
 20
90.7752182793
 10
31.4605654762
 20
90.7923313746
 10
31.4605654762
 20
90.7923313746
 10
31.5636160714
 20
90.8987301841
 10
31.5636160714
 20
90.8987301841
 10
31.5758928571
 20
90.9095188746
 10
31.5959821429
 20
90.9128670889
 10
31.5959821429
 20
90.9128670889
 10
31.6116071429
 20
90.9102629222
 10
31.6313244048
 20
90.9017063746
  0
LWPOLYLINE
  5
80
330
1F
100
AcDbEntity
  8
0
  6
Continuous
 62
     7
100
AcDbPolyline
 90
       28
 70
   128
 43
0.0
 10
31.6607058048
 20
90.2432242317
 10
31.6666666667
 20
90.2242510174
 10
31.6666666667
 20
90.2242510174
 10
31.6666666667
 20
88.9530456603
 10
31.6666666667
 20
88.9530456603
 10
31.6614583333
 20
88.9374206603
 10
31.6521577381
 20
88.9255158984
 10
31.6383928571
 20
88.9173313746
 10
31.6201636905
 20
88.9128670889
 10
31.6201636905
 20
88.9128670889
 10
31.5963541667
 20
88.9147272079
 10
31.5773809524
 20
88.9203075651
 10
31.5632440476
 20
88.9292361365
 10
31.5535714286
 20
88.9422569698
 10
31.5535714286
 20
88.9422569698
 10
31.5476190476
 20
88.9530456603
 10
31.5476190476
 20
88.9530456603
 10
31.5476190476
 20
90.2268551841
 10
31.5476190476
 20
90.2268551841
 10
31.5535714286
 20
90.2417361365
 10
31.5636160714
 20
90.2540129222
 10
31.5770089286
 20
90.2633135174
 10
31.5941220238
 20
90.270009946
 10
31.5941220238
 20
90.270009946
 10
31.6168154762
 20
90.2685218508
 10
31.6354166667
 20
90.2633135174
 10
31.650297619
 20
90.2551289936
 10
31.6607142857
 20
90.2432242317
  0
LWPOLYLINE
  5
81
330
1F
100
AcDbEntity
  8
0
  6
Continuous
 62
     7
100
AcDbPolyline
 90
      158
 70
   128
 43
0.0
 10
32.8671634197
 20
90.2674057793
 10
32.9311755952
 20
90.2462004222
 10
32.9988839286
 20
90.2235069698
 10
33.0703125
 20
90.1993254222
 10
33.1454613095
 20
90.1732837555
 10
33.1454613095
 20
90.1732837555
 10
33.1573660714
 20
90.1643551841
 10
33.170014881
 20
90.1491022079
 10
33.170014881
 20
90.1491022079
 10
33.2619047619
 20
89.9582539936
 10
33.2619047619
 20
89.9582539936
 10
33.2604166667
 20
89.9385367317
 10
33.2563244048
 20
89.9225397079
 10
33.2488839286
 20
89.9102629222
 10
33.2388392857
 20
89.9017063746
 10
33.21875
 20
89.8916617317
 10
33.204985119
 20
89.8883135174
 10
33.204985119
 20
89.8883135174
 10
33.2016369048
 20
89.8883135174
 10
33.197172619
 20
89.8883135174
 10
33.197172619
 20
89.8883135174
 10
33.1923363095
 20
89.8901736365
 10
33.1889880952
 20
89.8909176841
 10
33.1889880952
 20
89.8909176841
 10
33.1748511905
 20
89.9002182793
 10
33.1592261905
 20
89.9173313746
 10
33.1592261905
 20
89.9173313746
 10
33.0755208333
 20
90.074697446
 10
33.0755208333
 20
90.074697446
 10
32.8430059524
 20
90.150962327
 10
32.8430059524
 20
90.150962327
 10
32.5833333333
 20
90.150962327
 10
32.5833333333
 20
90.150962327
 10
32.3537946429
 20
90.0758135174
 10
32.3537946429
 20
90.0758135174
 10
32.2860863095
 20
89.9444891127
 10
32.2860863095
 20
89.9444891127
 10
32.3537946429
 20
89.8079563746
 10
32.3537946429
 20
89.8079563746
 10
32.5111607143
 20
89.7302033984
 10
32.5111607143
 20
89.7302033984
 10
32.9583333333
 20
89.6416617317
 10
32.9583333333
 20
89.6416617317
 10
33.1536458333
 20
89.5479117317
 10
33.1536458333
 20
89.5479117317
 10
33.1577380952
 20
89.5419593508
 10
33.1651785714
 20
89.5293105412
 10
33.1752232143
 20
89.5095932793
 10
33.1886160714
 20
89.4835516127
 10
33.1886160714
 20
89.4835516127
 10
33.2619047619
 20
89.3362301841
 10
33.2619047619
 20
89.3362301841
 10
33.2652529762
 20
89.3258135174
 10
33.2667410714
 20
89.3127926841
 10
33.2652529762
 20
89.2975397079
 10
33.2619047619
 20
89.2800545889
 10
33.2619047619
 20
89.2800545889
 10
33.2619047619
 20
89.2614533984
 10
33.2619047619
 20
89.2458283984
 10
33.2619047619
 20
89.2335516127
 10
33.2619047619
 20
89.2238789936
 10
33.2619047619
 20
89.2238789936
 10
33.2425595238
 20
89.1863045889
 10
33.2202380952
 20
89.1409176841
 10
33.1938244048
 20
89.0873462555
 10
33.1644345238
 20
89.0255903031
 10
33.1644345238
 20
89.0255903031
 10
33.1413690476
 20
89.0088492317
 10
33.1104910714
 20
88.9958283984
 10
33.1104910714
 20
88.9958283984
 10
33.0866815476
 20
88.9876438746
 10
33.0691964286
 20
88.9820635174
 10
33.0584077381
 20
88.9783432793
 10
33.0535714286
 20
88.9772272079
 10
33.0535714286
 20
88.9772272079
 10
32.8590029762
 20
88.9128670889
 10
32.8590029762
 20
88.9128670889
 10
32.5613839286
 20
88.9128670889
 10
32.5613839286
 20
88.9128670889
 10
32.4750744048
 20
88.9374206603
 10
32.3883928571
 20
88.9630903031
 10
32.3883928571
 20
88.9630903031
 10
32.3381696429
 20
88.9828075651
 10
32.2983630952
 20
89.004384946
 10
32.2693452381
 20
89.027822446
 10
32.2503720238
 20
89.0531200651
 10
32.2503720238
 20
89.0531200651
 10
32.1666666667
 20
89.2145783984
 10
32.1666666667
 20
89.2145783984
 10
32.1674107143
 20
89.2328075651
 10
32.170014881
 20
89.2469444698
 10
32.1741071429
 20
89.2577331603
 10
32.1800595238
 20
89.2648016127
 10
32.1800595238
 20
89.2648016127
 10
32.1889880952
 20
89.2741022079
 10
32.1997767857
 20
89.2807986365
 10
32.2120535714
 20
89.2845188746
 10
32.2261904762
 20
89.2860069698
 10
32.2261904762
 20
89.2860069698
 10
32.2369791667
 20
89.2848908984
 10
32.2466517857
 20
89.2807986365
 10
32.2585565476
 20
89.2718700651
 10
32.275297619
 20
89.2551289936
 10
32.275297619
 20
89.2551289936
 10
32.3511904762
 20
89.1063194698
 10
32.3511904762
 20
89.1063194698
 10
32.5926339286
 20
89.0319147079
 10
32.5926339286
 20
89.0319147079
 10
32.8500744048
 20
89.0319147079
 10
32.8500744048
 20
89.0319147079
 10
33.0777529762
 20
89.1092956603
 10
33.0777529762
 20
89.1092956603
 10
33.1484375
 20
89.2540129222
 10
33.1484375
 20
89.2540129222
 10
33.1484375
 20
89.3153968508
 10
33.1484375
 20
89.3153968508
 10
33.0751488095
 20
89.4649504222
 10
33.0751488095
 20
89.4649504222
 10
32.9207589286
 20
89.5400992317
 10
32.9207589286
 20
89.5400992317
 10
32.4624255952
 20
89.6334772079
 10
32.4624255952
 20
89.6334772079
 10
32.275297619
 20
89.7272272079
 10
32.275297619
 20
89.7272272079
 10
32.2589285714
 20
89.7432242317
 10
32.2589285714
 20
89.7432242317
 10
32.2526041667
 20
89.7566170889
 10
32.2451636905
 20
89.7729861365
 10
32.2358630952
 20
89.7923313746
 10
32.2250744048
 20
89.8146528031
 10
32.212797619
 20
89.8399504222
 10
32.1990327381
 20
89.8678522079
 10
32.1834077381
 20
89.8991022079
 10
32.1666666667
 20
89.9329563746
 10
32.1666666667
 20
89.9329563746
 10
32.1666666667
 20
89.9463492317
 10
32.1666666667
 20
89.9463492317
 10
32.1674107143
 20
89.9627182793
 10
32.1692708333
 20
89.973134946
 10
32.1692708333
 20
89.973134946
 10
32.1875
 20
90.0066170889
 10
32.209077381
 20
90.0479117317
 10
32.2347470238
 20
90.0973908984
 10
32.2641369048
 20
90.1550545889
 10
32.2641369048
 20
90.1550545889
 10
32.2756696429
 20
90.1691914936
 10
32.2938988095
 20
90.1792361365
 10
32.2938988095
 20
90.1792361365
 10
32.3191964286
 20
90.1870486365
 10
32.3470982143
 20
90.1959772079
 10
32.3783482143
 20
90.205649827
 10
32.4129464286
 20
90.2168105412
 10
32.4501488095
 20
90.2283432793
 10
32.490327381
 20
90.2413641127
 10
32.5338541667
 20
90.2551289936
 10
32.5803571429
 20
90.270009946
 10
32.5803571429
 20
90.270009946
 10
32.8671875
 20
90.2674057793
  0
LWPOLYLINE
  5
82
330
1F
100
AcDbEntity
  8
0
  6
Continuous
 62
     7
100
AcDbPolyline
 90
      176
 70
   128
 43
0.0
 10
36.2935066223
 20
90.9102629222
 10
36.3180803571
 20
90.9013343508
 10
36.3459821429
 20
90.8916617317
 10
36.3764880952
 20
90.8812450651
 10
36.4099702381
 20
90.869712327
 10
36.4460565476
 20
90.8574355412
 10
36.4854910714
 20
90.8444147079
 10
36.5275297619
 20
90.8302778031
 10
36.5725446429
 20
90.8153968508
 10
36.5725446429
 20
90.8153968508
 10
36.587797619
 20
90.8020039936
 10
36.6056547619
 20
90.7848908984
 10
36.6264880952
 20
90.7644295889
 10
36.6506696429
 20
90.7402480412
 10
36.6770833333
 20
90.7127182793
 10
36.7068452381
 20
90.6818403031
 10
36.7395833333
 20
90.6472420889
 10
36.7749255952
 20
90.6092956603
 10
36.7749255952
 20
90.6092956603
 10
36.783110119
 20
90.5925545889
 10
36.7857142857
 20
90.5758135174
 10
36.7857142857
 20
90.5758135174
 10
36.7849702381
 20
90.5661408984
 10
36.783110119
 20
90.559072446
 10
36.783110119
 20
90.559072446
 10
36.7775297619
 20
90.5449355412
 10
36.7689732143
 20
90.533774827
 10
36.7570684524
 20
90.5255903031
 10
36.7421875
 20
90.520009946
 10
36.7421875
 20
90.520009946
 10
36.724702381
 20
90.5207539936
 10
36.7101934524
 20
90.5229861365
 10
36.6986607143
 20
90.5263343508
 10
36.6904761905
 20
90.5311706603
 10
36.6904761905
 20
90.5311706603
 10
36.5159970238
 20
90.7108581603
 10
36.5159970238
 20
90.7108581603
 10
36.2704613095
 20
90.7938194698
 10
36.2704613095
 20
90.7938194698
 10
35.9188988095
 20
90.7938194698
 10
35.9188988095
 20
90.7938194698
 10
35.6793154762
 20
90.715322446
 10
35.6793154762
 20
90.715322446
 10
35.5238095238
 20
90.5579563746
 10
35.5238095238
 20
90.5579563746
 10
35.5238095238
 20
90.4143551841
 10
35.5238095238
 20
90.4143551841
 10
35.6056547619
 20
90.254384946
 10
35.6056547619
 20
90.254384946
 10
35.6819196429
 20
90.1814682793
 10
35.6819196429
 20
90.1814682793
 10
35.8616071429
 20
90.0944147079
 10
35.8616071429
 20
90.0944147079
 10
36.3988095238
 20
89.9158432793
 10
36.3988095238
 20
89.9158432793
 10
36.5784970238
 20
89.8235813746
 10
36.5784970238
 20
89.8235813746
 10
36.6049107143
 20
89.7986557793
 10
36.6343005952
 20
89.7674057793
 10
36.6674107143
 20
89.7294593508
 10
36.7038690476
 20
89.6851885174
 10
36.7038690476
 20
89.6851885174
 10
36.783110119
 20
89.5226141127
 10
36.783110119
 20
89.5226141127
 10
36.7838541667
 20
89.496572446
 10
36.7842261905
 20
89.4675545889
 10
36.7845982143
 20
89.4351885174
 10
36.7849702381
 20
89.3994742317
 10
36.7853422619
 20
89.3604117317
 10
36.7857142857
 20
89.3183730412
 10
36.7857142857
 20
89.2729861365
 10
36.7857142857
 20
89.2246230412
 10
36.7857142857
 20
89.2246230412
 10
36.7749255952
 20
89.2030456603
 10
36.7749255952
 20
89.2030456603
 10
36.5807291667
 20
89.0133135174
 10
36.5807291667
 20
89.0133135174
 10
36.552827381
 20
89.0014087555
 10
36.515625
 20
88.9872718508
 10
36.4694940476
 20
88.971274827
 10
36.4136904762
 20
88.9534176841
 10
36.4136904762
 20
88.9534176841
 10
36.2879464286
 20
88.9128670889
 10
36.2879464286
 20
88.9128670889
 10
35.8969494048
 20
88.9128670889
 10
35.8969494048
 20
88.9128670889
 10
35.8723958333
 20
88.9206795889
 10
35.8444940476
 20
88.9296081603
 10
35.8139880952
 20
88.9396528031
 10
35.7808779762
 20
88.9504414936
 10
35.7444196429
 20
88.9627182793
 10
35.704985119
 20
88.9757391127
 10
35.6629464286
 20
88.9902480412
 10
35.6179315476
 20
89.0055010174
 10
35.6179315476
 20
89.0055010174
 10
35.6015625
 20
89.0159176841
 10
35.6015625
 20
89.0159176841
 10
35.4103422619
 20
89.2011855412
 10
35.4103422619
 20
89.2011855412
 10
35.40625
 20
89.2171825651
 10
35.4047619048
 20
89.2435962555
 10
35.4047619048
 20
89.2435962555
 10
35.4114583333
 20
89.2581051841
 10
35.4211309524
 20
89.2703819698
 10
35.4334077381
 20
89.2793105412
 10
35.4482886905
 20
89.2860069698
 10
35.4482886905
 20
89.2860069698
 10
35.4657738095
 20
89.2852629222
 10
35.4802827381
 20
89.2830307793
 10
35.4914434524
 20
89.2789385174
 10
35.5
 20
89.2733581603
 10
35.5
 20
89.2733581603
 10
35.6741071429
 20
89.1089236365
 10
35.6741071429
 20
89.1089236365
 10
35.915922619
 20
89.0319147079
 10
35.915922619
 20
89.0319147079
 10
36.2697172619
 20
89.0319147079
 10
36.2697172619
 20
89.0319147079
 10
36.5089285714
 20
89.1130158984
 10
36.5089285714
 20
89.1130158984
 10
36.6666666667
 20
89.2674057793
 10
36.6666666667
 20
89.2674057793
 10
36.6666666667
 20
89.4973164936
 10
36.6666666667
 20
89.4973164936
 10
36.5851934524
 20
89.6569147079
 10
36.5851934524
 20
89.6569147079
 10
36.5063244048
 20
89.7354117317
 10
36.5063244048
 20
89.7354117317
 10
36.3266369048
 20
89.8220932793
 10
36.3266369048
 20
89.8220932793
 10
35.7935267857
 20
89.9980605412
 10
35.7935267857
 20
89.9980605412
 10
35.6116071429
 20
90.0899504222
 10
35.6116071429
 20
90.0899504222
 10
35.5740327381
 20
90.1252926841
 10
35.5379464286
 20
90.160634946
 10
35.5379464286
 20
90.160634946
 10
35.5171130952
 20
90.1818403031
 10
35.5007440476
 20
90.2019295889
 10
35.4884672619
 20
90.2209028031
 10
35.4810267857
 20
90.2391319698
 10
35.4810267857
 20
90.2391319698
 10
35.474702381
 20
90.2528968508
 10
35.4661458333
 20
90.270009946
 10
35.4561011905
 20
90.2908432793
 10
35.4441964286
 20
90.3146528031
 10
35.4322916667
 20
90.3388343508
 10
35.4215029762
 20
90.3600397079
 10
35.4125744048
 20
90.3778968508
 10
35.4047619048
 20
90.393149827
 10
35.4047619048
 20
90.393149827
 10
35.4047619048
 20
90.596274827
 10
35.4047619048
 20
90.596274827
 10
35.4107142857
 20
90.6156200651
 10
35.427827381
 20
90.635337327
 10
35.4382440476
 20
90.6446379222
 10
35.4460565476
 20
90.6513343508
 10
35.451264881
 20
90.6561706603
 10
35.4538690476
 20
90.6584028031
 10
35.4538690476
 20
90.6584028031
 10
35.6045386905
 20
90.8101885174
 10
35.6045386905
 20
90.8101885174
 10
35.6235119048
 20
90.8209772079
 10
35.6235119048
 20
90.8209772079
 10
35.6480654762
 20
90.8295337555
 10
35.6759672619
 20
90.8388343508
 10
35.7064732143
 20
90.8488789936
 10
35.7399553571
 20
90.8596676841
 10
35.7760416667
 20
90.8712004222
 10
35.8154761905
 20
90.8834772079
 10
35.857514881
 20
90.8964980412
 10
35.9025297619
 20
90.9102629222
 10
35.9025297619
 20
90.9102629222
 10
35.9133184524
 20
90.9128670889
 10
35.9133184524
 20
90.9128670889
 10
36.2935267857
 20
90.9102629222
  0
LWPOLYLINE
  5
83
330
1F
100
AcDbEntity
  8
0
  6
Continuous
 62
     7
100
AcDbPolyline
 90
       71
 70
   128
 43
0.0
 10
38.0881428719
 20
90.1706795889
 10
38.2805059524
 20
89.9798313746
 10
38.2805059524
 20
89.9798313746
 10
38.2879464286
 20
89.957509946
 10
38.2994791667
 20
89.9288641127
 10
38.2994791667
 20
89.9288641127
 10
38.380952381
 20
89.6866766127
 10
38.380952381
 20
89.6866766127
 10
38.380952381
 20
89.4880158984
 10
38.380952381
 20
89.4880158984
 10
38.2860863095
 20
89.205649827
 10
38.2860863095
 20
89.205649827
 10
38.0859375
 20
89.0069891127
 10
38.0859375
 20
89.0069891127
 10
38.0677083333
 20
88.9991766127
 10
38.0457589286
 20
88.988759946
 10
38.0197172619
 20
88.9761111365
 10
37.9899553571
 20
88.9612301841
 10
37.9601934524
 20
88.9459772079
 10
37.9348958333
 20
88.9329563746
 10
37.9136904762
 20
88.9217956603
 10
37.896577381
 20
88.9128670889
 10
37.896577381
 20
88.9128670889
 10
37.5907738095
 20
88.9128670889
 10
37.5907738095
 20
88.9128670889
 10
37.3962053571
 20
89.0081051841
 10
37.3962053571
 20
89.0081051841
 10
37.3095238095
 20
89.0880903031
 10
37.3095238095
 20
89.0880903031
 10
37.3095238095
 20
88.3139087555
 10
37.3095238095
 20
88.3139087555
 10
37.302827381
 20
88.2967956603
 10
37.2938988095
 20
88.2845188746
 10
37.283110119
 20
88.2763343508
 10
37.2697172619
 20
88.2726141127
 10
37.2697172619
 20
88.2726141127
 10
37.259672619
 20
88.2707539936
 10
37.2470238095
 20
88.270009946
 10
37.2470238095
 20
88.270009946
 10
37.2224702381
 20
88.2729861365
 10
37.2046130952
 20
88.2815426841
 10
37.1941964286
 20
88.2960516127
 10
37.1904761905
 20
88.3161408984
 10
37.1904761905
 20
88.3161408984
 10
37.1904761905
 20
90.2320635174
 10
37.1904761905
 20
90.2320635174
 10
37.1964285714
 20
90.246572446
 10
37.2061011905
 20
90.2577331603
 10
37.2194940476
 20
90.2655456603
 10
37.2366071429
 20
90.270009946
 10
37.2366071429
 20
90.270009946
 10
37.2570684524
 20
90.268149827
 10
37.2745535714
 20
90.2625694698
 10
37.2894345238
 20
90.2532688746
 10
37.3017113095
 20
90.2402480412
 10
37.3017113095
 20
90.2402480412
 10
37.3017113095
 20
90.2116022079
 10
37.3024553571
 20
90.1766319698
 10
37.3031994048
 20
90.1357093508
 10
37.3043154762
 20
90.0888343508
 10
37.3043154762
 20
90.0888343508
 10
37.3909970238
 20
90.1714236365
 10
37.3909970238
 20
90.1714236365
 10
37.4296875
 20
90.1903968508
 10
37.4773065476
 20
90.213462327
 10
37.5342261905
 20
90.2398760174
 10
37.6000744048
 20
90.270009946
 10
37.6000744048
 20
90.270009946
 10
37.8928571429
 20
90.2674057793
 10
37.8928571429
 20
90.2674057793
 10
38.0881696429
 20
90.1706795889
  0
LWPOLYLINE
  5
84
330
1F
100
AcDbEntity
  8
0
  6
Continuous
 62
     7
100
AcDbPolyline
 90
       28
 70
   128
 43
0.0
 10
38.0204319954
 20
90.0735813746
 10
37.8649553571
 20
90.150962327
 10
37.8649553571
 20
90.150962327
 10
37.6179315476
 20
90.150962327
 10
37.6179315476
 20
90.150962327
 10
37.4650297619
 20
90.0761855412
 10
37.4650297619
 20
90.0761855412
 10
37.3095238095
 20
89.9217956603
 10
37.3095238095
 20
89.9217956603
 10
37.3095238095
 20
89.2610813746
 10
37.3095238095
 20
89.2610813746
 10
37.462797619
 20
89.111899827
 10
37.462797619
 20
89.111899827
 10
37.619047619
 20
89.0319147079
 10
37.619047619
 20
89.0319147079
 10
37.8638392857
 20
89.0319147079
 10
37.8638392857
 20
89.0319147079
 10
38.0197172619
 20
89.1066914936
 10
38.0197172619
 20
89.1066914936
 10
38.1811755952
 20
89.2688938746
 10
38.1811755952
 20
89.2688938746
 10
38.2619047619
 20
89.5062450651
 10
38.2619047619
 20
89.5062450651
 10
38.2619047619
 20
89.6714236365
 10
38.2619047619
 20
89.6714236365
 10
38.181547619
 20
89.9139831603
 10
38.181547619
 20
89.9139831603
 10
38.0204613095
 20
90.0735813746
  0
LWPOLYLINE
  5
85
330
1F
100
AcDbEntity
  8
0
  6
Continuous
 62
     7
100
AcDbPolyline
 90
       87
 70
   128
 43
0.0
 10
39.8872494698
 20
90.1740278031
 10
39.9761904762
 20
90.0862301841
 10
39.9761904762
 20
90.0862301841
 10
39.9761904762
 20
90.2294593508
 10
39.9761904762
 20
90.2294593508
 10
39.982514881
 20
90.2450843508
 10
39.9925595238
 20
90.2569891127
 10
40.0066964286
 20
90.2655456603
 10
40.0245535714
 20
90.270009946
 10
40.0245535714
 20
90.270009946
 10
40.0465029762
 20
90.2685218508
 10
40.0647321429
 20
90.2640575651
 10
40.0792410714
 20
90.2562450651
 10
40.0896577381
 20
90.2458283984
 10
40.0896577381
 20
90.2458283984
 10
40.0952380952
 20
90.2242510174
 10
40.0952380952
 20
90.2242510174
 10
40.0952380952
 20
88.9586260174
 10
40.0952380952
 20
88.9586260174
 10
40.0907738095
 20
88.9437450651
 10
40.0833333333
 20
88.9310962555
 10
40.0725446429
 20
88.9206795889
 10
40.0584077381
 20
88.9128670889
 10
40.0584077381
 20
88.9128670889
 10
40.0267857143
 20
88.9154712555
 10
40.0022321429
 20
88.9225397079
 10
39.9854910714
 20
88.9348164936
 10
39.9761904762
 20
88.9515575651
 10
39.9761904762
 20
88.9515575651
 10
39.9780505952
 20
88.9835516127
 10
39.9795386905
 20
89.0114533984
 10
39.9806547619
 20
89.0348908984
 10
39.9810267857
 20
89.0538641127
 10
39.9806547619
 20
89.0687450651
 10
39.9795386905
 20
89.0795337555
 10
39.9780505952
 20
89.0858581603
 10
39.9761904762
 20
89.0880903031
 10
39.9761904762
 20
89.0880903031
 10
39.8843005952
 20
89.0055010174
 10
39.8843005952
 20
89.0055010174
 10
39.8467261905
 20
88.9872718508
 10
39.8013392857
 20
88.9656944698
 10
39.7485119048
 20
88.9407688746
 10
39.6875
 20
88.9128670889
 10
39.6875
 20
88.9128670889
 10
39.390625
 20
88.9128670889
 10
39.390625
 20
88.9128670889
 10
39.1960565476
 20
89.0069891127
 10
39.1960565476
 20
89.0069891127
 10
39.001860119
 20
89.2030456603
 10
39.001860119
 20
89.2030456603
 10
38.9933035714
 20
89.2287153031
 10
38.9836309524
 20
89.2573611365
 10
38.9732142857
 20
89.2889831603
 10
38.9613095238
 20
89.3232093508
 10
38.9486607143
 20
89.3607837555
 10
38.9352678571
 20
89.400962327
 10
38.9203869048
 20
89.4444891127
 10
38.9047619048
 20
89.4906200651
 10
38.9047619048
 20
89.4906200651
 10
38.9047619048
 20
89.6974653031
 10
38.9047619048
 20
89.6974653031
 10
38.9203869048
 20
89.7417361365
 10
38.9348958333
 20
89.7834028031
 10
38.9482886905
 20
89.8220932793
 10
38.9609375
 20
89.8581795889
 10
38.9720982143
 20
89.8912897079
 10
38.9821428571
 20
89.9217956603
 10
38.9914434524
 20
89.9493254222
 10
38.9992559524
 20
89.9742510174
 10
38.9992559524
 20
89.9742510174
 10
39.0022321429
 20
89.9772272079
 10
39.0115327381
 20
89.9865278031
 10
39.0267857143
 20
90.0017807793
 10
39.0483630952
 20
90.0233581603
 10
39.076264881
 20
90.0508879222
 10
39.1101190476
 20
90.0847420889
 10
39.1499255952
 20
90.1245486365
 10
39.1960565476
 20
90.1706795889
 10
39.1960565476
 20
90.1706795889
 10
39.390625
 20
90.2674057793
 10
39.390625
 20
90.2674057793
 10
39.4040178571
 20
90.270009946
 10
39.4040178571
 20
90.270009946
 10
39.6927083333
 20
90.2674057793
 10
39.6927083333
 20
90.2674057793
 10
39.8872767857
 20
90.1740278031
  0
LWPOLYLINE
  5
86
330
1F
100
AcDbEntity
  8
0
  6
Continuous
 62
     7
100
AcDbPolyline
 90
       28
 70
   128
 43
0.0
 10
39.8206710815
 20
90.0735813746
 10
39.6677827381
 20
90.150962327
 10
39.6677827381
 20
90.150962327
 10
39.4207589286
 20
90.150962327
 10
39.4207589286
 20
90.150962327
 10
39.2652529762
 20
90.0735813746
 10
39.2652529762
 20
90.0735813746
 10
39.1071428571
 20
89.916587327
 10
39.1071428571
 20
89.916587327
 10
39.0238095238
 20
89.6792361365
 10
39.0238095238
 20
89.6792361365
 10
39.0238095238
 20
89.5114533984
 10
39.0238095238
 20
89.5114533984
 10
39.1041666667
 20
89.2688938746
 10
39.1041666667
 20
89.2688938746
 10
39.2626488095
 20
89.111899827
 10
39.2626488095
 20
89.111899827
 10
39.4207589286
 20
89.0319147079
 10
39.4207589286
 20
89.0319147079
 10
39.6648065476
 20
89.0319147079
 10
39.6648065476
 20
89.0319147079
 10
39.8206845238
 20
89.1092956603
 10
39.8206845238
 20
89.1092956603
 10
39.9761904762
 20
89.2610813746
 10
39.9761904762
 20
89.2610813746
 10
39.9761904762
 20
89.9217956603
 10
39.9761904762
 20
89.9217956603
 10
39.8206845238
 20
90.0735813746
  0
LWPOLYLINE
  5
87
330
1F
100
AcDbEntity
  8
0
  6
Continuous
 62
     7
100
AcDbPolyline
 90
      106
 70
   128
 43
0.0
 10
41.6037738323
 20
90.1732837555
 10
41.8043154762
 20
89.9742510174
 10
41.8043154762
 20
89.9742510174
 10
41.8084077381
 20
89.9589980412
 10
41.8098958333
 20
89.9448611365
 10
41.8098958333
 20
89.9448611365
 10
41.8080357143
 20
89.9284920889
 10
41.8017113095
 20
89.9177033984
 10
41.8017113095
 20
89.9177033984
 10
41.7905505952
 20
89.9061706603
 10
41.7767857143
 20
89.8976141127
 10
41.759672619
 20
89.8927778031
 10
41.7395833333
 20
89.8909176841
 10
41.7395833333
 20
89.8909176841
 10
41.7235863095
 20
89.8961260174
 10
41.7235863095
 20
89.8961260174
 10
41.537202381
 20
90.0773016127
 10
41.537202381
 20
90.0773016127
 10
41.3831845238
 20
90.150962327
 10
41.3831845238
 20
90.150962327
 10
41.1376488095
 20
90.150962327
 10
41.1376488095
 20
90.150962327
 10
40.978422619
 20
90.0713492317
 10
40.978422619
 20
90.0713492317
 10
40.8191964286
 20
89.9117510174
 10
40.8191964286
 20
89.9117510174
 10
40.7380952381
 20
89.6725397079
 10
40.7380952381
 20
89.6725397079
 10
40.7380952381
 20
89.5051289936
 10
40.7380952381
 20
89.5051289936
 10
40.8191964286
 20
89.2685218508
 10
40.8191964286
 20
89.2685218508
 10
40.9810267857
 20
89.1089236365
 10
40.9810267857
 20
89.1089236365
 10
41.1402529762
 20
89.0319147079
 10
41.1402529762
 20
89.0319147079
 10
41.3861607143
 20
89.0319147079
 10
41.3861607143
 20
89.0319147079
 10
41.5398065476
 20
89.1063194698
 10
41.5398065476
 20
89.1063194698
 10
41.7235863095
 20
89.2781944698
 10
41.7235863095
 20
89.2781944698
 10
41.7425595238
 20
89.2841468508
 10
41.7667410714
 20
89.2860069698
 10
41.7667410714
 20
89.2860069698
 10
41.7845982143
 20
89.2774504222
 10
41.7979910714
 20
89.2674057793
 10
41.8061755952
 20
89.2562450651
 10
41.8098958333
 20
89.2435962555
 10
41.8098958333
 20
89.2435962555
 10
41.8080357143
 20
89.2197867317
 10
41.8017113095
 20
89.2011855412
 10
41.8017113095
 20
89.2011855412
 10
41.6011904762
 20
89.0055010174
 10
41.6011904762
 20
89.0055010174
 10
41.5829613095
 20
88.996572446
 10
41.5602678571
 20
88.9857837555
 10
41.5338541667
 20
88.9735069698
 10
41.5033482143
 20
88.9589980412
 10
41.4728422619
 20
88.9448611365
 10
41.4464285714
 20
88.9325843508
 10
41.4241071429
 20
88.9217956603
 10
41.4058779762
 20
88.9128670889
 10
41.4058779762
 20
88.9128670889
 10
41.1071428571
 20
88.9128670889
 10
41.1071428571
 20
88.9128670889
 10
40.9118303571
 20
89.0069891127
 10
40.9118303571
 20
89.0069891127
 10
40.7165178571
 20
89.2030456603
 10
40.7165178571
 20
89.2030456603
 10
40.7079613095
 20
89.2287153031
 10
40.6982886905
 20
89.2573611365
 10
40.6875
 20
89.2889831603
 10
40.6759672619
 20
89.3232093508
 10
40.6633184524
 20
89.3607837555
 10
40.6495535714
 20
89.400962327
 10
40.634672619
 20
89.4444891127
 10
40.619047619
 20
89.4906200651
 10
40.619047619
 20
89.4906200651
 10
40.619047619
 20
89.6974653031
 10
40.619047619
 20
89.6974653031
 10
40.634672619
 20
89.7417361365
 10
40.6495535714
 20
89.7834028031
 10
40.6629464286
 20
89.8220932793
 10
40.6752232143
 20
89.8581795889
 10
40.6867559524
 20
89.8912897079
 10
40.6968005952
 20
89.9217956603
 10
40.7061011905
 20
89.9493254222
 10
40.7139136905
 20
89.9742510174
 10
40.7139136905
 20
89.9742510174
 10
40.716889881
 20
89.9772272079
 10
40.7261904762
 20
89.9865278031
 10
40.7418154762
 20
90.0017807793
 10
40.7633928571
 20
90.0233581603
 10
40.7912946429
 20
90.0508879222
 10
40.8251488095
 20
90.0847420889
 10
40.865327381
 20
90.1245486365
 10
40.9118303571
 20
90.1706795889
 10
40.9118303571
 20
90.1706795889
 10
41.1071428571
 20
90.2674057793
 10
41.1071428571
 20
90.2674057793
 10
41.1209077381
 20
90.270009946
 10
41.1209077381
 20
90.270009946
 10
41.4110863095
 20
90.2674057793
 10
41.4110863095
 20
90.2674057793
 10
41.6037946429
 20
90.1732837555
  0
LWPOLYLINE
  5
88
330
1F
100
AcDbEntity
  8
0
  6
Continuous
 62
     7
100
AcDbPolyline
 90
       95
 70
   128
 43
0.0
 10
43.2224571705
 20
90.1740278031
 10
43.3255208333
 20
90.0724653031
 10
43.3255208333
 20
90.0724653031
 10
43.3764880952
 20
89.9738789936
 10
43.4259672619
 20
89.8752926841
 10
43.4259672619
 20
89.8752926841
 10
43.4259672619
 20
89.6725397079
 10
43.4259672619
 20
89.6725397079
 10
43.4226190476
 20
89.658774827
 10
43.4151785714
 20
89.6472420889
 10
43.4036458333
 20
89.6375694698
 10
43.3880208333
 20
89.6297569698
 10
43.3880208333
 20
89.6297569698
 10
43.361235119
 20
89.6271528031
 10
43.361235119
 20
89.6271528031
 10
42.3571428571
 20
89.6271528031
 10
42.3571428571
 20
89.6271528031
 10
42.3571428571
 20
89.5118254222
 10
42.3571428571
 20
89.5118254222
 10
42.4382440476
 20
89.2703819698
 10
42.4382440476
 20
89.2703819698
 10
42.6000744048
 20
89.1096676841
 10
42.6000744048
 20
89.1096676841
 10
42.7593005952
 20
89.0319147079
 10
42.7593005952
 20
89.0319147079
 10
43.0052083333
 20
89.0319147079
 10
43.0052083333
 20
89.0319147079
 10
43.1588541667
 20
89.1063194698
 10
43.1588541667
 20
89.1063194698
 10
43.3426339286
 20
89.2781944698
 10
43.3426339286
 20
89.2781944698
 10
43.3616071429
 20
89.2841468508
 10
43.3857886905
 20
89.2860069698
 10
43.3857886905
 20
89.2860069698
 10
43.4036458333
 20
89.2774504222
 10
43.4170386905
 20
89.2674057793
 10
43.4252232143
 20
89.2562450651
 10
43.4289434524
 20
89.2435962555
 10
43.4289434524
 20
89.2435962555
 10
43.4270833333
 20
89.2197867317
 10
43.4207589286
 20
89.2011855412
 10
43.4207589286
 20
89.2011855412
 10
43.2202380952
 20
89.0055010174
 10
43.2202380952
 20
89.0055010174
 10
43.2020089286
 20
88.996572446
 10
43.1793154762
 20
88.9857837555
 10
43.1529017857
 20
88.9735069698
 10
43.1223958333
 20
88.9589980412
 10
43.091889881
 20
88.9448611365
 10
43.0654761905
 20
88.9325843508
 10
43.0431547619
 20
88.9217956603
 10
43.0249255952
 20
88.9128670889
 10
43.0249255952
 20
88.9128670889
 10
42.7261904762
 20
88.9128670889
 10
42.7261904762
 20
88.9128670889
 10
42.5308779762
 20
89.0069891127
 10
42.5308779762
 20
89.0069891127
 10
42.3355654762
 20
89.2030456603
 10
42.3355654762
 20
89.2030456603
 10
42.3270089286
 20
89.2287153031
 10
42.3173363095
 20
89.2573611365
 10
42.306547619
 20
89.2889831603
 10
42.295014881
 20
89.3232093508
 10
42.2823660714
 20
89.3607837555
 10
42.2686011905
 20
89.400962327
 10
42.2537202381
 20
89.4444891127
 10
42.2380952381
 20
89.4906200651
 10
42.2380952381
 20
89.4906200651
 10
42.2380952381
 20
89.6974653031
 10
42.2380952381
 20
89.6974653031
 10
42.2537202381
 20
89.7417361365
 10
42.2686011905
 20
89.7834028031
 10
42.2819940476
 20
89.8220932793
 10
42.2942708333
 20
89.8581795889
 10
42.3058035714
 20
89.8912897079
 10
42.3158482143
 20
89.9217956603
 10
42.3251488095
 20
89.9493254222
 10
42.3329613095
 20
89.9742510174
 10
42.3329613095
 20
89.9742510174
 10
42.3359375
 20
89.9772272079
 10
42.3452380952
 20
89.9865278031
 10
42.3608630952
 20
90.0017807793
 10
42.3824404762
 20
90.0233581603
 10
42.4103422619
 20
90.0508879222
 10
42.4441964286
 20
90.0847420889
 10
42.484375
 20
90.1245486365
 10
42.5308779762
 20
90.1706795889
 10
42.5308779762
 20
90.1706795889
 10
42.7261904762
 20
90.2674057793
 10
42.7261904762
 20
90.2674057793
 10
42.7399553571
 20
90.270009946
 10
42.7399553571
 20
90.270009946
 10
43.0301339286
 20
90.2674057793
 10
43.0301339286
 20
90.2674057793
 10
43.2224702381
 20
90.1740278031
  0
LWPOLYLINE
  5
89
330
1F
100
AcDbEntity
  8
0
  6
Continuous
 62
     7
100
AcDbPolyline
 90
       18
 70
   128
 43
0.0
 10
43.1573390961
 20
90.0732093508
 10
43.0029761905
 20
90.150962327
 10
43.0029761905
 20
90.150962327
 10
42.7533482143
 20
90.150962327
 10
42.7533482143
 20
90.150962327
 10
42.5989583333
 20
90.0784176841
 10
42.5989583333
 20
90.0784176841
 10
42.4334077381
 20
89.9199355412
 10
42.4334077381
 20
89.9199355412
 10
42.3764880952
 20
89.7462004222
 10
42.3764880952
 20
89.7462004222
 10
43.3121279762
 20
89.7462004222
 10
43.3121279762
 20
89.7462004222
 10
43.3121279762
 20
89.8499950651
 10
43.3121279762
 20
89.8499950651
 10
43.2336309524
 20
90.0028968508
 10
43.2336309524
 20
90.0028968508
 10
43.1573660714
 20
90.0732093508
  0
LWPOLYLINE
  5
8A
330
1F
100
AcDbEntity
  8
0
  6
Continuous
 62
     7
100
AcDbPolyline
 90
       87
 70
   128
 43
0.0
 10
46.5539395809
 20
90.1740278031
 10
46.6428571429
 20
90.0862301841
 10
46.6428571429
 20
90.0862301841
 10
46.6428571429
 20
90.2294593508
 10
46.6428571429
 20
90.2294593508
 10
46.6491815476
 20
90.2450843508
 10
46.6592261905
 20
90.2569891127
 10
46.6733630952
 20
90.2655456603
 10
46.6912202381
 20
90.270009946
 10
46.6912202381
 20
90.270009946
 10
46.7131696429
 20
90.2685218508
 10
46.7313988095
 20
90.2640575651
 10
46.7459077381
 20
90.2562450651
 10
46.7563244048
 20
90.2458283984
 10
46.7563244048
 20
90.2458283984
 10
46.7619047619
 20
90.2242510174
 10
46.7619047619
 20
90.2242510174
 10
46.7619047619
 20
88.9586260174
 10
46.7619047619
 20
88.9586260174
 10
46.7574404762
 20
88.9437450651
 10
46.75
 20
88.9310962555
 10
46.7392113095
 20
88.9206795889
 10
46.7250744048
 20
88.9128670889
 10
46.7250744048
 20
88.9128670889
 10
46.693452381
 20
88.9154712555
 10
46.6688988095
 20
88.9225397079
 10
46.6521577381
 20
88.9348164936
 10
46.6428571429
 20
88.9515575651
 10
46.6428571429
 20
88.9515575651
 10
46.6447172619
 20
88.9835516127
 10
46.6462053571
 20
89.0114533984
 10
46.6473214286
 20
89.0348908984
 10
46.6476934524
 20
89.0538641127
 10
46.6473214286
 20
89.0687450651
 10
46.6462053571
 20
89.0795337555
 10
46.6447172619
 20
89.0858581603
 10
46.6428571429
 20
89.0880903031
 10
46.6428571429
 20
89.0880903031
 10
46.5509672619
 20
89.0055010174
 10
46.5509672619
 20
89.0055010174
 10
46.5133928571
 20
88.9872718508
 10
46.4680059524
 20
88.9656944698
 10
46.4151785714
 20
88.9407688746
 10
46.3541666667
 20
88.9128670889
 10
46.3541666667
 20
88.9128670889
 10
46.0572916667
 20
88.9128670889
 10
46.0572916667
 20
88.9128670889
 10
45.8627232143
 20
89.0069891127
 10
45.8627232143
 20
89.0069891127
 10
45.6685267857
 20
89.2030456603
 10
45.6685267857
 20
89.2030456603
 10
45.6599702381
 20
89.2287153031
 10
45.650297619
 20
89.2573611365
 10
45.6398809524
 20
89.2889831603
 10
45.6279761905
 20
89.3232093508
 10
45.615327381
 20
89.3607837555
 10
45.6019345238
 20
89.400962327
 10
45.5870535714
 20
89.4444891127
 10
45.5714285714
 20
89.4906200651
 10
45.5714285714
 20
89.4906200651
 10
45.5714285714
 20
89.6974653031
 10
45.5714285714
 20
89.6974653031
 10
45.5870535714
 20
89.7417361365
 10
45.6015625
 20
89.7834028031
 10
45.6149553571
 20
89.8220932793
 10
45.6276041667
 20
89.8581795889
 10
45.638764881
 20
89.8912897079
 10
45.6488095238
 20
89.9217956603
 10
45.658110119
 20
89.9493254222
 10
45.665922619
 20
89.9742510174
 10
45.665922619
 20
89.9742510174
 10
45.6688988095
 20
89.9772272079
 10
45.6781994048
 20
89.9865278031
 10
45.693452381
 20
90.0017807793
 10
45.7150297619
 20
90.0233581603
 10
45.7429315476
 20
90.0508879222
 10
45.7767857143
 20
90.0847420889
 10
45.8165922619
 20
90.1245486365
 10
45.8627232143
 20
90.1706795889
 10
45.8627232143
 20
90.1706795889
 10
46.0572916667
 20
90.2674057793
 10
46.0572916667
 20
90.2674057793
 10
46.0706845238
 20
90.270009946
 10
46.0706845238
 20
90.270009946
 10
46.359375
 20
90.2674057793
 10
46.359375
 20
90.2674057793
 10
46.5539434524
 20
90.1740278031
  0
LWPOLYLINE
  5
8B
330
1F
100
AcDbEntity
  8
0
  6
Continuous
 62
     7
100
AcDbPolyline
 90
       28
 70
   128
 43
0.0
 10
46.4873313904
 20
90.0735813746
 10
46.3344494048
 20
90.150962327
 10
46.3344494048
 20
90.150962327
 10
46.0874255952
 20
90.150962327
 10
46.0874255952
 20
90.150962327
 10
45.9319196429
 20
90.0735813746
 10
45.9319196429
 20
90.0735813746
 10
45.7738095238
 20
89.916587327
 10
45.7738095238
 20
89.916587327
 10
45.6904761905
 20
89.6792361365
 10
45.6904761905
 20
89.6792361365
 10
45.6904761905
 20
89.5114533984
 10
45.6904761905
 20
89.5114533984
 10
45.7708333333
 20
89.2688938746
 10
45.7708333333
 20
89.2688938746
 10
45.9293154762
 20
89.111899827
 10
45.9293154762
 20
89.111899827
 10
46.0874255952
 20
89.0319147079
 10
46.0874255952
 20
89.0319147079
 10
46.3314732143
 20
89.0319147079
 10
46.3314732143
 20
89.0319147079
 10
46.4873511905
 20
89.1092956603
 10
46.4873511905
 20
89.1092956603
 10
46.6428571429
 20
89.2610813746
 10
46.6428571429
 20
89.2610813746
 10
46.6428571429
 20
89.9217956603
 10
46.6428571429
 20
89.9217956603
 10
46.4873511905
 20
90.0735813746
  0
LWPOLYLINE
  5
8C
330
1F
100
AcDbEntity
  8
0
  6
Continuous
 62
     7
100
AcDbPolyline
 90
       79
 70
   128
 43
0.0
 10
48.2856929302
 20
90.1706795889
 10
48.2961309524
 20
90.1636111365
 10
48.3046875
 20
90.1531944698
 10
48.310639881
 20
90.1394295889
 10
48.3147321429
 20
90.1223164936
 10
48.3147321429
 20
90.1223164936
 10
48.3225446429
 20
90.0996230412
 10
48.3311011905
 20
90.0739533984
 10
48.3411458333
 20
90.0460516127
 10
48.3519345238
 20
90.0155456603
 10
48.3634672619
 20
89.9820635174
 10
48.3761160714
 20
89.9463492317
 10
48.3898809524
 20
89.9076587555
 10
48.4047619048
 20
89.8667361365
 10
48.4047619048
 20
89.8667361365
 10
48.4047619048
 20
88.9504414936
 10
48.4047619048
 20
88.9504414936
 10
48.4014136905
 20
88.9381647079
 10
48.3939732143
 20
88.9277480412
 10
48.3820684524
 20
88.9191914936
 10
48.3660714286
 20
88.9128670889
 10
48.3660714286
 20
88.9128670889
 10
48.3470982143
 20
88.9136111365
 10
48.3314732143
 20
88.916587327
 10
48.3188244048
 20
88.9210516127
 10
48.3095238095
 20
88.9273760174
 10
48.2983630952
 20
88.9426289936
 10
48.2946428571
 20
88.9582539936
 10
48.2946428571
 20
88.9582539936
 10
48.2916666667
 20
89.8514831603
 10
48.2916666667
 20
89.8514831603
 10
48.209077381
 20
90.0787897079
 10
48.209077381
 20
90.0787897079
 10
48.0632440476
 20
90.150962327
 10
48.0632440476
 20
90.150962327
 10
47.8125
 20
90.150962327
 10
47.8125
 20
90.150962327
 10
47.6499255952
 20
90.0706051841
 10
47.6499255952
 20
90.0706051841
 10
47.4047619048
 20
89.8299057793
 10
47.4047619048
 20
89.8299057793
 10
47.4047619048
 20
88.955649827
 10
47.4047619048
 20
88.955649827
 10
47.3991815476
 20
88.941884946
 10
47.390625
 20
88.9303522079
 10
47.3790922619
 20
88.9206795889
 10
47.3649553571
 20
88.9128670889
 10
47.3649553571
 20
88.9128670889
 10
47.3452380952
 20
88.9128670889
 10
47.3452380952
 20
88.9128670889
 10
47.3203125
 20
88.9162153031
 10
47.3013392857
 20
88.926259946
 10
47.2898065476
 20
88.941884946
 10
47.2857142857
 20
88.9612301841
 10
47.2857142857
 20
88.9612301841
 10
47.2857142857
 20
90.2268551841
 10
47.2857142857
 20
90.2268551841
 10
47.2916666667
 20
90.2458283984
 10
47.3035714286
 20
90.2592212555
 10
47.3214285714
 20
90.2674057793
 10
47.3452380952
 20
90.270009946
 10
47.3452380952
 20
90.270009946
 10
47.3679315476
 20
90.2674057793
 10
47.3850446429
 20
90.2592212555
 10
47.3850446429
 20
90.2592212555
 10
47.3999255952
 20
90.2409920889
 10
47.4047619048
 20
90.2238789936
 10
47.4047619048
 20
90.2238789936
 10
47.4047619048
 20
89.996572446
 10
47.4047619048
 20
89.996572446
 10
47.5848214286
 20
90.1736557793
 10
47.5848214286
 20
90.1736557793
 10
47.78125
 20
90.2674057793
 10
47.78125
 20
90.2674057793
 10
47.7946428571
 20
90.270009946
 10
47.7946428571
 20
90.270009946
 10
48.0866815476
 20
90.2674057793
 10
48.0866815476
 20
90.2674057793
 10
48.2857142857
 20
90.1706795889
  0
LWPOLYLINE
  5
8D
330
1F
100
AcDbEntity
  8
0
  6
Continuous
 62
     7
100
AcDbPolyline
 90
       89
 70
   128
 43
0.0
 10
50.1848757267
 20
90.8857093508
 10
50.1904761905
 20
90.8667361365
 10
50.1904761905
 20
90.8667361365
 10
50.1904761905
 20
88.9537897079
 10
50.1904761905
 20
88.9537897079
 10
50.1852678571
 20
88.9381647079
 10
50.1759672619
 20
88.9258879222
 10
50.162202381
 20
88.9177033984
 10
50.1439732143
 20
88.9128670889
 10
50.1439732143
 20
88.9128670889
 10
50.1212797619
 20
88.9143551841
 10
50.1026785714
 20
88.9191914936
 10
50.087797619
 20
88.9273760174
 10
50.0773809524
 20
88.9385367317
 10
50.0773809524
 20
88.9385367317
 10
50.0714285714
 20
88.9515575651
 10
50.0714285714
 20
88.9515575651
 10
50.0732886905
 20
88.9835516127
 10
50.0747767857
 20
89.0114533984
 10
50.0758928571
 20
89.0348908984
 10
50.076264881
 20
89.0538641127
 10
50.0758928571
 20
89.0687450651
 10
50.0747767857
 20
89.0795337555
 10
50.0732886905
 20
89.0858581603
 10
50.0714285714
 20
89.0880903031
 10
50.0714285714
 20
89.0880903031
 10
49.9795386905
 20
89.0055010174
 10
49.9795386905
 20
89.0055010174
 10
49.9419642857
 20
88.9872718508
 10
49.896577381
 20
88.9656944698
 10
49.84375
 20
88.9407688746
 10
49.7827380952
 20
88.9128670889
 10
49.7827380952
 20
88.9128670889
 10
49.4858630952
 20
88.9128670889
 10
49.4858630952
 20
88.9128670889
 10
49.2912946429
 20
89.0069891127
 10
49.2912946429
 20
89.0069891127
 10
49.0970982143
 20
89.2030456603
 10
49.0970982143
 20
89.2030456603
 10
49.0885416667
 20
89.2287153031
 10
49.0788690476
 20
89.2573611365
 10
49.068452381
 20
89.2889831603
 10
49.056547619
 20
89.3232093508
 10
49.0438988095
 20
89.3607837555
 10
49.0305059524
 20
89.400962327
 10
49.015625
 20
89.4444891127
 10
49.0
 20
89.4906200651
 10
49.0
 20
89.4906200651
 10
49.0
 20
89.6974653031
 10
49.0
 20
89.6974653031
 10
49.015625
 20
89.7417361365
 10
49.0301339286
 20
89.7834028031
 10
49.0435267857
 20
89.8220932793
 10
49.0561755952
 20
89.8581795889
 10
49.0673363095
 20
89.8912897079
 10
49.0773809524
 20
89.9217956603
 10
49.0866815476
 20
89.9493254222
 10
49.0944940476
 20
89.9742510174
 10
49.0944940476
 20
89.9742510174
 10
49.0974702381
 20
89.9772272079
 10
49.1067708333
 20
89.9865278031
 10
49.1220238095
 20
90.0017807793
 10
49.1436011905
 20
90.0233581603
 10
49.1715029762
 20
90.0508879222
 10
49.2053571429
 20
90.0847420889
 10
49.2451636905
 20
90.1245486365
 10
49.2912946429
 20
90.1706795889
 10
49.2912946429
 20
90.1706795889
 10
49.4858630952
 20
90.2674057793
 10
49.4858630952
 20
90.2674057793
 10
49.5048363095
 20
90.270009946
 10
49.5048363095
 20
90.270009946
 10
49.7879464286
 20
90.2674057793
 10
49.7879464286
 20
90.2674057793
 10
49.982514881
 20
90.1740278031
 10
49.982514881
 20
90.1740278031
 10
50.0714285714
 20
90.0862301841
 10
50.0714285714
 20
90.0862301841
 10
50.0714285714
 20
90.871572446
 10
50.0714285714
 20
90.871572446
 10
50.0777529762
 20
90.8875694698
 10
50.087797619
 20
90.8998462555
 10
50.1019345238
 20
90.9080307793
 10
50.1197916667
 20
90.9128670889
 10
50.1197916667
 20
90.9128670889
 10
50.1417410714
 20
90.9110069698
 10
50.1599702381
 20
90.9061706603
 10
50.1744791667
 20
90.8976141127
 10
50.1848958333
 20
90.8857093508
  0
LWPOLYLINE
  5
8E
330
1F
100
AcDbEntity
  8
0
  6
Continuous
 62
     7
100
AcDbPolyline
 90
       28
 70
   128
 43
0.0
 10
49.9159097672
 20
90.0735813746
 10
49.7630208333
 20
90.150962327
 10
49.7630208333
 20
90.150962327
 10
49.5159970238
 20
90.150962327
 10
49.5159970238
 20
90.150962327
 10
49.3604910714
 20
90.0735813746
 10
49.3604910714
 20
90.0735813746
 10
49.2023809524
 20
89.916587327
 10
49.2023809524
 20
89.916587327
 10
49.119047619
 20
89.6792361365
 10
49.119047619
 20
89.6792361365
 10
49.119047619
 20
89.5114533984
 10
49.119047619
 20
89.5114533984
 10
49.1994047619
 20
89.2688938746
 10
49.1994047619
 20
89.2688938746
 10
49.3578869048
 20
89.111899827
 10
49.3578869048
 20
89.111899827
 10
49.5159970238
 20
89.0319147079
 10
49.5159970238
 20
89.0319147079
 10
49.7600446429
 20
89.0319147079
 10
49.7600446429
 20
89.0319147079
 10
49.915922619
 20
89.1092956603
 10
49.915922619
 20
89.1092956603
 10
50.0714285714
 20
89.2610813746
 10
50.0714285714
 20
89.2610813746
 10
50.0714285714
 20
89.9217956603
 10
50.0714285714
 20
89.9217956603
 10
49.915922619
 20
90.0735813746
  0
LWPOLYLINE
  5
8F
330
1F
100
AcDbEntity
  8
0
  6
Continuous
 62
     7
100
AcDbPolyline
 90
      176
 70
   128
 43
0.0
 10
53.3173084259
 20
90.9102629222
 10
53.341889881
 20
90.9013343508
 10
53.3697916667
 20
90.8916617317
 10
53.400297619
 20
90.8812450651
 10
53.4337797619
 20
90.869712327
 10
53.4698660714
 20
90.8574355412
 10
53.5093005952
 20
90.8444147079
 10
53.5513392857
 20
90.8302778031
 10
53.5963541667
 20
90.8153968508
 10
53.5963541667
 20
90.8153968508
 10
53.6116071429
 20
90.8020039936
 10
53.6294642857
 20
90.7848908984
 10
53.650297619
 20
90.7644295889
 10
53.6744791667
 20
90.7402480412
 10
53.7008928571
 20
90.7127182793
 10
53.7306547619
 20
90.6818403031
 10
53.7633928571
 20
90.6472420889
 10
53.798735119
 20
90.6092956603
 10
53.798735119
 20
90.6092956603
 10
53.8069196429
 20
90.5925545889
 10
53.8095238095
 20
90.5758135174
 10
53.8095238095
 20
90.5758135174
 10
53.8087797619
 20
90.5661408984
 10
53.8069196429
 20
90.559072446
 10
53.8069196429
 20
90.559072446
 10
53.8013392857
 20
90.5449355412
 10
53.7927827381
 20
90.533774827
 10
53.7808779762
 20
90.5255903031
 10
53.7659970238
 20
90.520009946
 10
53.7659970238
 20
90.520009946
 10
53.7485119048
 20
90.5207539936
 10
53.7340029762
 20
90.5229861365
 10
53.7224702381
 20
90.5263343508
 10
53.7142857143
 20
90.5311706603
 10
53.7142857143
 20
90.5311706603
 10
53.5398065476
 20
90.7108581603
 10
53.5398065476
 20
90.7108581603
 10
53.2942708333
 20
90.7938194698
 10
53.2942708333
 20
90.7938194698
 10
52.9427083333
 20
90.7938194698
 10
52.9427083333
 20
90.7938194698
 10
52.703125
 20
90.715322446
 10
52.703125
 20
90.715322446
 10
52.5476190476
 20
90.5579563746
 10
52.5476190476
 20
90.5579563746
 10
52.5476190476
 20
90.4143551841
 10
52.5476190476
 20
90.4143551841
 10
52.6294642857
 20
90.254384946
 10
52.6294642857
 20
90.254384946
 10
52.7057291667
 20
90.1814682793
 10
52.7057291667
 20
90.1814682793
 10
52.8854166667
 20
90.0944147079
 10
52.8854166667
 20
90.0944147079
 10
53.4226190476
 20
89.9158432793
 10
53.4226190476
 20
89.9158432793
 10
53.6023065476
 20
89.8235813746
 10
53.6023065476
 20
89.8235813746
 10
53.6287202381
 20
89.7986557793
 10
53.658110119
 20
89.7674057793
 10
53.6912202381
 20
89.7294593508
 10
53.7276785714
 20
89.6851885174
 10
53.7276785714
 20
89.6851885174
 10
53.8069196429
 20
89.5226141127
 10
53.8069196429
 20
89.5226141127
 10
53.8076636905
 20
89.496572446
 10
53.8080357143
 20
89.4675545889
 10
53.8084077381
 20
89.4351885174
 10
53.8087797619
 20
89.3994742317
 10
53.8091517857
 20
89.3604117317
 10
53.8095238095
 20
89.3183730412
 10
53.8095238095
 20
89.2729861365
 10
53.8095238095
 20
89.2246230412
 10
53.8095238095
 20
89.2246230412
 10
53.798735119
 20
89.2030456603
 10
53.798735119
 20
89.2030456603
 10
53.6045386905
 20
89.0133135174
 10
53.6045386905
 20
89.0133135174
 10
53.5766369048
 20
89.0014087555
 10
53.5394345238
 20
88.9872718508
 10
53.4933035714
 20
88.971274827
 10
53.4375
 20
88.9534176841
 10
53.4375
 20
88.9534176841
 10
53.3117559524
 20
88.9128670889
 10
53.3117559524
 20
88.9128670889
 10
52.9207589286
 20
88.9128670889
 10
52.9207589286
 20
88.9128670889
 10
52.8962053571
 20
88.9206795889
 10
52.8683035714
 20
88.9296081603
 10
52.837797619
 20
88.9396528031
 10
52.8046875
 20
88.9504414936
 10
52.7682291667
 20
88.9627182793
 10
52.7287946429
 20
88.9757391127
 10
52.6867559524
 20
88.9902480412
 10
52.6417410714
 20
89.0055010174
 10
52.6417410714
 20
89.0055010174
 10
52.6253720238
 20
89.0159176841
 10
52.6253720238
 20
89.0159176841
 10
52.4341517857
 20
89.2011855412
 10
52.4341517857
 20
89.2011855412
 10
52.4300595238
 20
89.2171825651
 10
52.4285714286
 20
89.2435962555
 10
52.4285714286
 20
89.2435962555
 10
52.4352678571
 20
89.2581051841
 10
52.4449404762
 20
89.2703819698
 10
52.4572172619
 20
89.2793105412
 10
52.4720982143
 20
89.2860069698
 10
52.4720982143
 20
89.2860069698
 10
52.4895833333
 20
89.2852629222
 10
52.5040922619
 20
89.2830307793
 10
52.5152529762
 20
89.2789385174
 10
52.5238095238
 20
89.2733581603
 10
52.5238095238
 20
89.2733581603
 10
52.6979166667
 20
89.1089236365
 10
52.6979166667
 20
89.1089236365
 10
52.9397321429
 20
89.0319147079
 10
52.9397321429
 20
89.0319147079
 10
53.2935267857
 20
89.0319147079
 10
53.2935267857
 20
89.0319147079
 10
53.5327380952
 20
89.1130158984
 10
53.5327380952
 20
89.1130158984
 10
53.6904761905
 20
89.2674057793
 10
53.6904761905
 20
89.2674057793
 10
53.6904761905
 20
89.4973164936
 10
53.6904761905
 20
89.4973164936
 10
53.6090029762
 20
89.6569147079
 10
53.6090029762
 20
89.6569147079
 10
53.5301339286
 20
89.7354117317
 10
53.5301339286
 20
89.7354117317
 10
53.3504464286
 20
89.8220932793
 10
53.3504464286
 20
89.8220932793
 10
52.8173363095
 20
89.9980605412
 10
52.8173363095
 20
89.9980605412
 10
52.6354166667
 20
90.0899504222
 10
52.6354166667
 20
90.0899504222
 10
52.5978422619
 20
90.1252926841
 10
52.5617559524
 20
90.160634946
 10
52.5617559524
 20
90.160634946
 10
52.540922619
 20
90.1818403031
 10
52.5245535714
 20
90.2019295889
 10
52.5122767857
 20
90.2209028031
 10
52.5048363095
 20
90.2391319698
 10
52.5048363095
 20
90.2391319698
 10
52.4985119048
 20
90.2528968508
 10
52.4899553571
 20
90.270009946
 10
52.4799107143
 20
90.2908432793
 10
52.4680059524
 20
90.3146528031
 10
52.4561011905
 20
90.3388343508
 10
52.4453125
 20
90.3600397079
 10
52.4363839286
 20
90.3778968508
 10
52.4285714286
 20
90.393149827
 10
52.4285714286
 20
90.393149827
 10
52.4285714286
 20
90.596274827
 10
52.4285714286
 20
90.596274827
 10
52.4345238095
 20
90.6156200651
 10
52.4516369048
 20
90.635337327
 10
52.4620535714
 20
90.6446379222
 10
52.4698660714
 20
90.6513343508
 10
52.4750744048
 20
90.6561706603
 10
52.4776785714
 20
90.6584028031
 10
52.4776785714
 20
90.6584028031
 10
52.6283482143
 20
90.8101885174
 10
52.6283482143
 20
90.8101885174
 10
52.6473214286
 20
90.8209772079
 10
52.6473214286
 20
90.8209772079
 10
52.671875
 20
90.8295337555
 10
52.6997767857
 20
90.8388343508
 10
52.7302827381
 20
90.8488789936
 10
52.763764881
 20
90.8596676841
 10
52.7998511905
 20
90.8712004222
 10
52.8392857143
 20
90.8834772079
 10
52.8813244048
 20
90.8964980412
 10
52.9263392857
 20
90.9102629222
 10
52.9263392857
 20
90.9102629222
 10
52.9371279762
 20
90.9128670889
 10
52.9371279762
 20
90.9128670889
 10
53.3173363095
 20
90.9102629222
  0
LWPOLYLINE
  5
90
330
1F
100
AcDbEntity
  8
0
  6
Continuous
 62
     7
100
AcDbPolyline
 90
       87
 70
   128
 43
0.0
 10
55.1967918873
 20
90.1740278031
 10
55.2857142857
 20
90.0862301841
 10
55.2857142857
 20
90.0862301841
 10
55.2857142857
 20
90.2294593508
 10
55.2857142857
 20
90.2294593508
 10
55.2920386905
 20
90.2450843508
 10
55.3020833333
 20
90.2569891127
 10
55.3162202381
 20
90.2655456603
 10
55.334077381
 20
90.270009946
 10
55.334077381
 20
90.270009946
 10
55.3560267857
 20
90.2685218508
 10
55.3742559524
 20
90.2640575651
 10
55.388764881
 20
90.2562450651
 10
55.3991815476
 20
90.2458283984
 10
55.3991815476
 20
90.2458283984
 10
55.4047619048
 20
90.2242510174
 10
55.4047619048
 20
90.2242510174
 10
55.4047619048
 20
88.9586260174
 10
55.4047619048
 20
88.9586260174
 10
55.400297619
 20
88.9437450651
 10
55.3928571429
 20
88.9310962555
 10
55.3820684524
 20
88.9206795889
 10
55.3679315476
 20
88.9128670889
 10
55.3679315476
 20
88.9128670889
 10
55.3363095238
 20
88.9154712555
 10
55.3117559524
 20
88.9225397079
 10
55.295014881
 20
88.9348164936
 10
55.2857142857
 20
88.9515575651
 10
55.2857142857
 20
88.9515575651
 10
55.2875744048
 20
88.9835516127
 10
55.2890625
 20
89.0114533984
 10
55.2901785714
 20
89.0348908984
 10
55.2905505952
 20
89.0538641127
 10
55.2901785714
 20
89.0687450651
 10
55.2890625
 20
89.0795337555
 10
55.2875744048
 20
89.0858581603
 10
55.2857142857
 20
89.0880903031
 10
55.2857142857
 20
89.0880903031
 10
55.1938244048
 20
89.0055010174
 10
55.1938244048
 20
89.0055010174
 10
55.15625
 20
88.9872718508
 10
55.1108630952
 20
88.9656944698
 10
55.0580357143
 20
88.9407688746
 10
54.9970238095
 20
88.9128670889
 10
54.9970238095
 20
88.9128670889
 10
54.7001488095
 20
88.9128670889
 10
54.7001488095
 20
88.9128670889
 10
54.5055803571
 20
89.0069891127
 10
54.5055803571
 20
89.0069891127
 10
54.3113839286
 20
89.2030456603
 10
54.3113839286
 20
89.2030456603
 10
54.302827381
 20
89.2287153031
 10
54.2931547619
 20
89.2573611365
 10
54.2827380952
 20
89.2889831603
 10
54.2708333333
 20
89.3232093508
 10
54.2581845238
 20
89.3607837555
 10
54.2447916667
 20
89.400962327
 10
54.2299107143
 20
89.4444891127
 10
54.2142857143
 20
89.4906200651
 10
54.2142857143
 20
89.4906200651
 10
54.2142857143
 20
89.6974653031
 10
54.2142857143
 20
89.6974653031
 10
54.2299107143
 20
89.7417361365
 10
54.2444196429
 20
89.7834028031
 10
54.2578125
 20
89.8220932793
 10
54.2704613095
 20
89.8581795889
 10
54.2816220238
 20
89.8912897079
 10
54.2916666667
 20
89.9217956603
 10
54.3009672619
 20
89.9493254222
 10
54.3087797619
 20
89.9742510174
 10
54.3087797619
 20
89.9742510174
 10
54.3117559524
 20
89.9772272079
 10
54.3210565476
 20
89.9865278031
 10
54.3363095238
 20
90.0017807793
 10
54.3578869048
 20
90.0233581603
 10
54.3857886905
 20
90.0508879222
 10
54.4196428571
 20
90.0847420889
 10
54.4594494048
 20
90.1245486365
 10
54.5055803571
 20
90.1706795889
 10
54.5055803571
 20
90.1706795889
 10
54.7001488095
 20
90.2674057793
 10
54.7001488095
 20
90.2674057793
 10
54.7135416667
 20
90.270009946
 10
54.7135416667
 20
90.270009946
 10
55.0022321429
 20
90.2674057793
 10
55.0022321429
 20
90.2674057793
 10
55.1968005952
 20
90.1740278031
  0
LWPOLYLINE
  5
91
330
1F
100
AcDbEntity
  8
0
  6
Continuous
 62
     7
100
AcDbPolyline
 90
       28
 70
   128
 43
0.0
 10
55.1301836967
 20
90.0735813746
 10
54.9773065476
 20
90.150962327
 10
54.9773065476
 20
90.150962327
 10
54.7302827381
 20
90.150962327
 10
54.7302827381
 20
90.150962327
 10
54.5747767857
 20
90.0735813746
 10
54.5747767857
 20
90.0735813746
 10
54.4166666667
 20
89.916587327
 10
54.4166666667
 20
89.916587327
 10
54.3333333333
 20
89.6792361365
 10
54.3333333333
 20
89.6792361365
 10
54.3333333333
 20
89.5114533984
 10
54.3333333333
 20
89.5114533984
 10
54.4136904762
 20
89.2688938746
 10
54.4136904762
 20
89.2688938746
 10
54.572172619
 20
89.111899827
 10
54.572172619
 20
89.111899827
 10
54.7302827381
 20
89.0319147079
 10
54.7302827381
 20
89.0319147079
 10
54.9743303571
 20
89.0319147079
 10
54.9743303571
 20
89.0319147079
 10
55.1302083333
 20
89.1092956603
 10
55.1302083333
 20
89.1092956603
 10
55.2857142857
 20
89.2610813746
 10
55.2857142857
 20
89.2610813746
 10
55.2857142857
 20
89.9217956603
 10
55.2857142857
 20
89.9217956603
 10
55.1302083333
 20
90.0735813746
  0
LWPOLYLINE
  5
92
330
1F
100
AcDbEntity
  8
0
  6
Continuous
 62
     7
100
AcDbPolyline
 90
       86
 70
   128
 43
0.0
 10
56.3095211983
 20
90.8656200651
 10
56.3095238095
 20
90.270009946
 10
56.3095238095
 20
90.270009946
 10
56.6279761905
 20
90.270009946
 10
56.6279761905
 20
90.270009946
 10
56.6439732143
 20
90.2640575651
 10
56.6558779762
 20
90.2540129222
 10
56.6644345238
 20
90.2406200651
 10
56.6688988095
 20
90.2235069698
 10
56.6688988095
 20
90.2235069698
 10
56.6674107143
 20
90.2019295889
 10
56.6629464286
 20
90.1844444698
 10
56.6551339286
 20
90.1699355412
 10
56.6443452381
 20
90.1595188746
 10
56.6443452381
 20
90.1595188746
 10
56.6227678571
 20
90.150962327
 10
56.6227678571
 20
90.150962327
 10
56.3095238095
 20
90.150962327
 10
56.3095238095
 20
90.150962327
 10
56.3095238095
 20
89.3295337555
 10
56.3095238095
 20
89.3295337555
 10
56.3883928571
 20
89.1011111365
 10
56.3883928571
 20
89.1011111365
 10
56.5353422619
 20
89.0319147079
 10
56.5353422619
 20
89.0319147079
 10
56.7150297619
 20
89.0319147079
 10
56.7150297619
 20
89.0319147079
 10
56.7351190476
 20
89.0248462555
 10
56.7496279762
 20
89.0129414936
 10
56.7581845238
 20
88.9950843508
 10
56.7611607143
 20
88.9723908984
 10
56.7611607143
 20
88.9723908984
 10
56.7593005952
 20
88.9526736365
 10
56.7529761905
 20
88.9385367317
 10
56.7529761905
 20
88.9385367317
 10
56.7366071429
 20
88.9221676841
 10
56.7146577381
 20
88.9128670889
 10
56.7146577381
 20
88.9128670889
 10
56.5033482143
 20
88.9128670889
 10
56.5033482143
 20
88.9128670889
 10
56.3058035714
 20
89.0092212555
 10
56.3058035714
 20
89.0092212555
 10
56.2957589286
 20
89.0162897079
 10
56.2879464286
 20
89.0267063746
 10
56.2819940476
 20
89.0404712555
 10
56.2782738095
 20
89.0575843508
 10
56.2782738095
 20
89.0575843508
 10
56.2704613095
 20
89.0795337555
 10
56.2615327381
 20
89.1044593508
 10
56.251860119
 20
89.1323611365
 10
56.2414434524
 20
89.1628670889
 10
56.2299107143
 20
89.1959772079
 10
56.2176339286
 20
89.2316914936
 10
56.2046130952
 20
89.2703819698
 10
56.1904761905
 20
89.3120486365
 10
56.1904761905
 20
89.3120486365
 10
56.1904761905
 20
90.150962327
 10
56.1904761905
 20
90.150962327
 10
55.9735863095
 20
90.150962327
 10
55.9735863095
 20
90.150962327
 10
55.9579613095
 20
90.1572867317
 10
55.9456845238
 20
90.1658432793
 10
55.9367559524
 20
90.1758879222
 10
55.9311755952
 20
90.1877926841
 10
55.9311755952
 20
90.1877926841
 10
55.9293154762
 20
90.1985813746
 10
55.9285714286
 20
90.213462327
 10
55.9285714286
 20
90.213462327
 10
55.9322916667
 20
90.2357837555
 10
55.9430803571
 20
90.2514087555
 10
55.9587053571
 20
90.2625694698
 10
55.9761904762
 20
90.270009946
 10
55.9761904762
 20
90.270009946
 10
56.1904761905
 20
90.270009946
 10
56.1904761905
 20
90.270009946
 10
56.1904761905
 20
90.8738045889
 10
56.1904761905
 20
90.8738045889
 10
56.1964285714
 20
90.8886855412
 10
56.2064732143
 20
90.9002182793
 10
56.2198660714
 20
90.9084028031
 10
56.2369791667
 20
90.9128670889
 10
56.2369791667
 20
90.9128670889
 10
56.265625
 20
90.9098908984
 10
56.287202381
 20
90.900962327
 10
56.3017113095
 20
90.8864533984
 10
56.3095238095
 20
90.8656200651
  0
LWPOLYLINE
  5
93
330
1F
100
AcDbEntity
  8
0
  6
Continuous
 62
     7
100
AcDbPolyline
 90
       95
 70
   128
 43
0.0
 10
58.1748485565
 20
90.1740278031
 10
58.2779017857
 20
90.0724653031
 10
58.2779017857
 20
90.0724653031
 10
58.3288690476
 20
89.9738789936
 10
58.3783482143
 20
89.8752926841
 10
58.3783482143
 20
89.8752926841
 10
58.3783482143
 20
89.6725397079
 10
58.3783482143
 20
89.6725397079
 10
58.375
 20
89.658774827
 10
58.3675595238
 20
89.6472420889
 10
58.3560267857
 20
89.6375694698
 10
58.3404017857
 20
89.6297569698
 10
58.3404017857
 20
89.6297569698
 10
58.3136160714
 20
89.6271528031
 10
58.3136160714
 20
89.6271528031
 10
57.3095238095
 20
89.6271528031
 10
57.3095238095
 20
89.6271528031
 10
57.3095238095
 20
89.5118254222
 10
57.3095238095
 20
89.5118254222
 10
57.390625
 20
89.2703819698
 10
57.390625
 20
89.2703819698
 10
57.5524553571
 20
89.1096676841
 10
57.5524553571
 20
89.1096676841
 10
57.7116815476
 20
89.0319147079
 10
57.7116815476
 20
89.0319147079
 10
57.9575892857
 20
89.0319147079
 10
57.9575892857
 20
89.0319147079
 10
58.111235119
 20
89.1063194698
 10
58.111235119
 20
89.1063194698
 10
58.295014881
 20
89.2781944698
 10
58.295014881
 20
89.2781944698
 10
58.3139880952
 20
89.2841468508
 10
58.3381696429
 20
89.2860069698
 10
58.3381696429
 20
89.2860069698
 10
58.3560267857
 20
89.2774504222
 10
58.3694196429
 20
89.2674057793
 10
58.3776041667
 20
89.2562450651
 10
58.3813244048
 20
89.2435962555
 10
58.3813244048
 20
89.2435962555
 10
58.3794642857
 20
89.2197867317
 10
58.373139881
 20
89.2011855412
 10
58.373139881
 20
89.2011855412
 10
58.1726190476
 20
89.0055010174
 10
58.1726190476
 20
89.0055010174
 10
58.154389881
 20
88.996572446
 10
58.1316964286
 20
88.9857837555
 10
58.1052827381
 20
88.9735069698
 10
58.0747767857
 20
88.9589980412
 10
58.0442708333
 20
88.9448611365
 10
58.0178571429
 20
88.9325843508
 10
57.9955357143
 20
88.9217956603
 10
57.9773065476
 20
88.9128670889
 10
57.9773065476
 20
88.9128670889
 10
57.6785714286
 20
88.9128670889
 10
57.6785714286
 20
88.9128670889
 10
57.4832589286
 20
89.0069891127
 10
57.4832589286
 20
89.0069891127
 10
57.2879464286
 20
89.2030456603
 10
57.2879464286
 20
89.2030456603
 10
57.279389881
 20
89.2287153031
 10
57.2697172619
 20
89.2573611365
 10
57.2589285714
 20
89.2889831603
 10
57.2473958333
 20
89.3232093508
 10
57.2347470238
 20
89.3607837555
 10
57.2209821429
 20
89.400962327
 10
57.2061011905
 20
89.4444891127
 10
57.1904761905
 20
89.4906200651
 10
57.1904761905
 20
89.4906200651
 10
57.1904761905
 20
89.6974653031
 10
57.1904761905
 20
89.6974653031
 10
57.2061011905
 20
89.7417361365
 10
57.2209821429
 20
89.7834028031
 10
57.234375
 20
89.8220932793
 10
57.2466517857
 20
89.8581795889
 10
57.2581845238
 20
89.8912897079
 10
57.2682291667
 20
89.9217956603
 10
57.2775297619
 20
89.9493254222
 10
57.2853422619
 20
89.9742510174
 10
57.2853422619
 20
89.9742510174
 10
57.2883184524
 20
89.9772272079
 10
57.2976190476
 20
89.9865278031
 10
57.3132440476
 20
90.0017807793
 10
57.3348214286
 20
90.0233581603
 10
57.3627232143
 20
90.0508879222
 10
57.396577381
 20
90.0847420889
 10
57.4367559524
 20
90.1245486365
 10
57.4832589286
 20
90.1706795889
 10
57.4832589286
 20
90.1706795889
 10
57.6785714286
 20
90.2674057793
 10
57.6785714286
 20
90.2674057793
 10
57.6923363095
 20
90.270009946
 10
57.6923363095
 20
90.270009946
 10
57.982514881
 20
90.2674057793
 10
57.982514881
 20
90.2674057793
 10
58.1748511905
 20
90.1740278031
  0
LWPOLYLINE
  5
94
330
1F
100
AcDbEntity
  8
0
  6
Continuous
 62
     7
100
AcDbPolyline
 90
       18
 70
   128
 43
0.0
 10
58.1097304821
 20
90.0732093508
 10
57.9553571429
 20
90.150962327
 10
57.9553571429
 20
90.150962327
 10
57.7057291667
 20
90.150962327
 10
57.7057291667
 20
90.150962327
 10
57.5513392857
 20
90.0784176841
 10
57.5513392857
 20
90.0784176841
 10
57.3857886905
 20
89.9199355412
 10
57.3857886905
 20
89.9199355412
 10
57.3288690476
 20
89.7462004222
 10
57.3288690476
 20
89.7462004222
 10
58.2645089286
 20
89.7462004222
 10
58.2645089286
 20
89.7462004222
 10
58.2645089286
 20
89.8499950651
 10
58.2645089286
 20
89.8499950651
 10
58.1860119048
 20
90.0028968508
 10
58.1860119048
 20
90.0028968508
 10
58.1097470238
 20
90.0732093508
  0
LWPOLYLINE
  5
95
330
1F
100
AcDbEntity
  8
0
  6
Continuous
 62
     7
100
AcDbPolyline
 90
       28
 70
   128
 43
0.0
 10
58.9255690575
 20
90.8831051841
 10
58.9285714286
 20
90.8667361365
 10
58.9285714286
 20
90.8667361365
 10
58.9285714286
 20
88.9563938746
 10
58.9285714286
 20
88.9563938746
 10
58.9241071429
 20
88.9426289936
 10
58.9162946429
 20
88.9307242317
 10
58.9051339286
 20
88.9206795889
 10
58.8909970238
 20
88.9128670889
 10
58.8909970238
 20
88.9128670889
 10
58.8705357143
 20
88.9128670889
 10
58.8705357143
 20
88.9128670889
 10
58.8448660714
 20
88.9162153031
 10
58.8255208333
 20
88.926259946
 10
58.8136160714
 20
88.941884946
 10
58.8095238095
 20
88.9616022079
 10
58.8095238095
 20
88.9616022079
 10
58.8095238095
 20
90.8749206603
 10
58.8095238095
 20
90.8749206603
 10
58.8169642857
 20
90.8894295889
 10
58.8277529762
 20
90.9005903031
 10
58.8415178571
 20
90.9084028031
 10
58.8590029762
 20
90.9128670889
 10
58.8590029762
 20
90.9128670889
 10
58.8816964286
 20
90.9110069698
 10
58.900297619
 20
90.9054266127
 10
58.9148065476
 20
90.8961260174
 10
58.9255952381
 20
90.8831051841
  0
LWPOLYLINE
  5
96
330
1F
100
AcDbEntity
  8
0
  6
Continuous
 62
     7
100
AcDbPolyline
 90
       28
 70
   128
 43
0.0
 10
59.6398711205
 20
90.8831051841
 10
59.6428571429
 20
90.8667361365
 10
59.6428571429
 20
90.8667361365
 10
59.6428571429
 20
88.9563938746
 10
59.6428571429
 20
88.9563938746
 10
59.6383928571
 20
88.9426289936
 10
59.6305803571
 20
88.9307242317
 10
59.6194196429
 20
88.9206795889
 10
59.6052827381
 20
88.9128670889
 10
59.6052827381
 20
88.9128670889
 10
59.5848214286
 20
88.9128670889
 10
59.5848214286
 20
88.9128670889
 10
59.5591517857
 20
88.9162153031
 10
59.5398065476
 20
88.926259946
 10
59.5279017857
 20
88.941884946
 10
59.5238095238
 20
88.9616022079
 10
59.5238095238
 20
88.9616022079
 10
59.5238095238
 20
90.8749206603
 10
59.5238095238
 20
90.8749206603
 10
59.53125
 20
90.8894295889
 10
59.5420386905
 20
90.9005903031
 10
59.5558035714
 20
90.9084028031
 10
59.5732886905
 20
90.9128670889
 10
59.5732886905
 20
90.9128670889
 10
59.5959821429
 20
90.9110069698
 10
59.6145833333
 20
90.9054266127
 10
59.6290922619
 20
90.8961260174
 10
59.6398809524
 20
90.8831051841
  0
LWPOLYLINE
  5
97
330
1F
100
AcDbEntity
  8
0
  6
Continuous
 62
     7
100
AcDbPolyline
 90
       40
 70
   128
 43
0.0
 10
60.4170262814
 20
90.9017063746
 10
60.5226934524
 20
90.7893551841
 10
60.5226934524
 20
90.7893551841
 10
60.5290178571
 20
90.7741022079
 10
60.5308779762
 20
90.7614533984
 10
60.5308779762
 20
90.7614533984
 10
60.5282738095
 20
90.7443403031
 10
60.5200892857
 20
90.7264831603
 10
60.5063244048
 20
90.7078819698
 10
60.4873511905
 20
90.6885367317
 10
60.4873511905
 20
90.6885367317
 10
60.4609375
 20
90.6632391127
 10
60.4408482143
 20
90.6435218508
 10
60.4270833333
 20
90.6297569698
 10
60.4196428571
 20
90.6212004222
 10
60.4196428571
 20
90.6212004222
 10
60.4006696429
 20
90.6107837555
 10
60.3816964286
 20
90.6070635174
 10
60.3816964286
 20
90.6070635174
 10
60.3697916667
 20
90.6085516127
 10
60.3601190476
 20
90.6126438746
 10
60.3601190476
 20
90.6126438746
 10
60.34375
 20
90.6238045889
 10
60.34375
 20
90.6238045889
 10
60.2436755952
 20
90.7305754222
 10
60.2436755952
 20
90.7305754222
 10
60.2410714286
 20
90.7365278031
 10
60.2395833333
 20
90.7458283984
 10
60.2384672619
 20
90.7588492317
 10
60.2380952381
 20
90.7752182793
 10
60.2380952381
 20
90.7752182793
 10
60.2462797619
 20
90.7923313746
 10
60.2462797619
 20
90.7923313746
 10
60.3493303571
 20
90.8987301841
 10
60.3493303571
 20
90.8987301841
 10
60.3616071429
 20
90.9095188746
 10
60.3816964286
 20
90.9128670889
 10
60.3816964286
 20
90.9128670889
 10
60.3973214286
 20
90.9102629222
 10
60.4170386905
 20
90.9017063746
  0
LWPOLYLINE
  5
98
330
1F
100
AcDbEntity
  8
0
  6
Continuous
 62
     7
100
AcDbPolyline
 90
       28
 70
   128
 43
0.0
 10
60.4464113712
 20
90.2432242317
 10
60.4523809524
 20
90.2242510174
 10
60.4523809524
 20
90.2242510174
 10
60.4523809524
 20
88.9530456603
 10
60.4523809524
 20
88.9530456603
 10
60.447172619
 20
88.9374206603
 10
60.4378720238
 20
88.9255158984
 10
60.4241071429
 20
88.9173313746
 10
60.4058779762
 20
88.9128670889
 10
60.4058779762
 20
88.9128670889
 10
60.3820684524
 20
88.9147272079
 10
60.3630952381
 20
88.9203075651
 10
60.3489583333
 20
88.9292361365
 10
60.3392857143
 20
88.9422569698
 10
60.3392857143
 20
88.9422569698
 10
60.3333333333
 20
88.9530456603
 10
60.3333333333
 20
88.9530456603
 10
60.3333333333
 20
90.2268551841
 10
60.3333333333
 20
90.2268551841
 10
60.3392857143
 20
90.2417361365
 10
60.3493303571
 20
90.2540129222
 10
60.3627232143
 20
90.2633135174
 10
60.3798363095
 20
90.270009946
 10
60.3798363095
 20
90.270009946
 10
60.4025297619
 20
90.2685218508
 10
60.4211309524
 20
90.2633135174
 10
60.4360119048
 20
90.2551289936
 10
60.4464285714
 20
90.2432242317
  0
LWPOLYLINE
  5
99
330
1F
100
AcDbEntity
  8
0
  6
Continuous
 62
     7
100
AcDbPolyline
 90
       86
 70
   128
 43
0.0
 10
61.3333284855
 20
90.8656200651
 10
61.3333333333
 20
90.270009946
 10
61.3333333333
 20
90.270009946
 10
61.6517857143
 20
90.270009946
 10
61.6517857143
 20
90.270009946
 10
61.6677827381
 20
90.2640575651
 10
61.6796875
 20
90.2540129222
 10
61.6882440476
 20
90.2406200651
 10
61.6927083333
 20
90.2235069698
 10
61.6927083333
 20
90.2235069698
 10
61.6912202381
 20
90.2019295889
 10
61.6867559524
 20
90.1844444698
 10
61.6789434524
 20
90.1699355412
 10
61.6681547619
 20
90.1595188746
 10
61.6681547619
 20
90.1595188746
 10
61.646577381
 20
90.150962327
 10
61.646577381
 20
90.150962327
 10
61.3333333333
 20
90.150962327
 10
61.3333333333
 20
90.150962327
 10
61.3333333333
 20
89.3295337555
 10
61.3333333333
 20
89.3295337555
 10
61.412202381
 20
89.1011111365
 10
61.412202381
 20
89.1011111365
 10
61.5591517857
 20
89.0319147079
 10
61.5591517857
 20
89.0319147079
 10
61.7388392857
 20
89.0319147079
 10
61.7388392857
 20
89.0319147079
 10
61.7589285714
 20
89.0248462555
 10
61.7734375
 20
89.0129414936
 10
61.7819940476
 20
88.9950843508
 10
61.7849702381
 20
88.9723908984
 10
61.7849702381
 20
88.9723908984
 10
61.783110119
 20
88.9526736365
 10
61.7767857143
 20
88.9385367317
 10
61.7767857143
 20
88.9385367317
 10
61.7604166667
 20
88.9221676841
 10
61.7384672619
 20
88.9128670889
 10
61.7384672619
 20
88.9128670889
 10
61.5271577381
 20
88.9128670889
 10
61.5271577381
 20
88.9128670889
 10
61.3296130952
 20
89.0092212555
 10
61.3296130952
 20
89.0092212555
 10
61.3195684524
 20
89.0162897079
 10
61.3117559524
 20
89.0267063746
 10
61.3058035714
 20
89.0404712555
 10
61.3020833333
 20
89.0575843508
 10
61.3020833333
 20
89.0575843508
 10
61.2942708333
 20
89.0795337555
 10
61.2853422619
 20
89.1044593508
 10
61.2756696429
 20
89.1323611365
 10
61.2652529762
 20
89.1628670889
 10
61.2537202381
 20
89.1959772079
 10
61.2414434524
 20
89.2316914936
 10
61.228422619
 20
89.2703819698
 10
61.2142857143
 20
89.3120486365
 10
61.2142857143
 20
89.3120486365
 10
61.2142857143
 20
90.150962327
 10
61.2142857143
 20
90.150962327
 10
60.9973958333
 20
90.150962327
 10
60.9973958333
 20
90.150962327
 10
60.9817708333
 20
90.1572867317
 10
60.9694940476
 20
90.1658432793
 10
60.9605654762
 20
90.1758879222
 10
60.954985119
 20
90.1877926841
 10
60.954985119
 20
90.1877926841
 10
60.953125
 20
90.1985813746
 10
60.9523809524
 20
90.213462327
 10
60.9523809524
 20
90.213462327
 10
60.9561011905
 20
90.2357837555
 10
60.966889881
 20
90.2514087555
 10
60.982514881
 20
90.2625694698
 10
61.0
 20
90.270009946
 10
61.0
 20
90.270009946
 10
61.2142857143
 20
90.270009946
 10
61.2142857143
 20
90.270009946
 10
61.2142857143
 20
90.8738045889
 10
61.2142857143
 20
90.8738045889
 10
61.2202380952
 20
90.8886855412
 10
61.2302827381
 20
90.9002182793
 10
61.2436755952
 20
90.9084028031
 10
61.2607886905
 20
90.9128670889
 10
61.2607886905
 20
90.9128670889
 10
61.2894345238
 20
90.9098908984
 10
61.3110119048
 20
90.900962327
 10
61.3255208333
 20
90.8864533984
 10
61.3333333333
 20
90.8656200651
  0
LWPOLYLINE
  5
9A
330
1F
100
AcDbEntity
  8
0
  6
Continuous
 62
     7
100
AcDbPolyline
 90
       95
 70
   128
 43
0.0
 10
63.1986260414
 20
90.1740278031
 10
63.3017113095
 20
90.0724653031
 10
63.3017113095
 20
90.0724653031
 10
63.3526785714
 20
89.9738789936
 10
63.4021577381
 20
89.8752926841
 10
63.4021577381
 20
89.8752926841
 10
63.4021577381
 20
89.6725397079
 10
63.4021577381
 20
89.6725397079
 10
63.3988095238
 20
89.658774827
 10
63.3913690476
 20
89.6472420889
 10
63.3798363095
 20
89.6375694698
 10
63.3642113095
 20
89.6297569698
 10
63.3642113095
 20
89.6297569698
 10
63.3374255952
 20
89.6271528031
 10
63.3374255952
 20
89.6271528031
 10
62.3333333333
 20
89.6271528031
 10
62.3333333333
 20
89.6271528031
 10
62.3333333333
 20
89.5118254222
 10
62.3333333333
 20
89.5118254222
 10
62.4144345238
 20
89.2703819698
 10
62.4144345238
 20
89.2703819698
 10
62.576264881
 20
89.1096676841
 10
62.576264881
 20
89.1096676841
 10
62.7354910714
 20
89.0319147079
 10
62.7354910714
 20
89.0319147079
 10
62.9813988095
 20
89.0319147079
 10
62.9813988095
 20
89.0319147079
 10
63.1350446429
 20
89.1063194698
 10
63.1350446429
 20
89.1063194698
 10
63.3188244048
 20
89.2781944698
 10
63.3188244048
 20
89.2781944698
 10
63.337797619
 20
89.2841468508
 10
63.3619791667
 20
89.2860069698
 10
63.3619791667
 20
89.2860069698
 10
63.3798363095
 20
89.2774504222
 10
63.3932291667
 20
89.2674057793
 10
63.4014136905
 20
89.2562450651
 10
63.4051339286
 20
89.2435962555
 10
63.4051339286
 20
89.2435962555
 10
63.4032738095
 20
89.2197867317
 10
63.3969494048
 20
89.2011855412
 10
63.3969494048
 20
89.2011855412
 10
63.1964285714
 20
89.0055010174
 10
63.1964285714
 20
89.0055010174
 10
63.1781994048
 20
88.996572446
 10
63.1555059524
 20
88.9857837555
 10
63.1290922619
 20
88.9735069698
 10
63.0985863095
 20
88.9589980412
 10
63.0680803571
 20
88.9448611365
 10
63.0416666667
 20
88.9325843508
 10
63.0193452381
 20
88.9217956603
 10
63.0011160714
 20
88.9128670889
 10
63.0011160714
 20
88.9128670889
 10
62.7023809524
 20
88.9128670889
 10
62.7023809524
 20
88.9128670889
 10
62.5070684524
 20
89.0069891127
 10
62.5070684524
 20
89.0069891127
 10
62.3117559524
 20
89.2030456603
 10
62.3117559524
 20
89.2030456603
 10
62.3031994048
 20
89.2287153031
 10
62.2935267857
 20
89.2573611365
 10
62.2827380952
 20
89.2889831603
 10
62.2712053571
 20
89.3232093508
 10
62.2585565476
 20
89.3607837555
 10
62.2447916667
 20
89.400962327
 10
62.2299107143
 20
89.4444891127
 10
62.2142857143
 20
89.4906200651
 10
62.2142857143
 20
89.4906200651
 10
62.2142857143
 20
89.6974653031
 10
62.2142857143
 20
89.6974653031
 10
62.2299107143
 20
89.7417361365
 10
62.2447916667
 20
89.7834028031
 10
62.2581845238
 20
89.8220932793
 10
62.2704613095
 20
89.8581795889
 10
62.2819940476
 20
89.8912897079
 10
62.2920386905
 20
89.9217956603
 10
62.3013392857
 20
89.9493254222
 10
62.3091517857
 20
89.9742510174
 10
62.3091517857
 20
89.9742510174
 10
62.3121279762
 20
89.9772272079
 10
62.3214285714
 20
89.9865278031
 10
62.3370535714
 20
90.0017807793
 10
62.3586309524
 20
90.0233581603
 10
62.3865327381
 20
90.0508879222
 10
62.4203869048
 20
90.0847420889
 10
62.4605654762
 20
90.1245486365
 10
62.5070684524
 20
90.1706795889
 10
62.5070684524
 20
90.1706795889
 10
62.7023809524
 20
90.2674057793
 10
62.7023809524
 20
90.2674057793
 10
62.7161458333
 20
90.270009946
 10
62.7161458333
 20
90.270009946
 10
63.0063244048
 20
90.2674057793
 10
63.0063244048
 20
90.2674057793
 10
63.1986607143
 20
90.1740278031
  0
LWPOLYLINE
  5
9B
330
1F
100
AcDbEntity
  8
0
  6
Continuous
 62
     7
100
AcDbPolyline
 90
       18
 70
   128
 43
0.0
 10
63.1335377693
 20
90.0732093508
 10
62.9791666667
 20
90.150962327
 10
62.9791666667
 20
90.150962327
 10
62.7295386905
 20
90.150962327
 10
62.7295386905
 20
90.150962327
 10
62.5751488095
 20
90.0784176841
 10
62.5751488095
 20
90.0784176841
 10
62.4095982143
 20
89.9199355412
 10
62.4095982143
 20
89.9199355412
 10
62.3526785714
 20
89.7462004222
 10
62.3526785714
 20
89.7462004222
 10
63.2883184524
 20
89.7462004222
 10
63.2883184524
 20
89.7462004222
 10
63.2883184524
 20
89.8499950651
 10
63.2883184524
 20
89.8499950651
 10
63.2098214286
 20
90.0028968508
 10
63.2098214286
 20
90.0028968508
 10
63.1335565476
 20
90.0732093508
  0
LWPOLYLINE
  5
9C
330
1F
100
AcDbEntity
  8
0
  6
Continuous
 62
     7
100
AcDbPolyline
 90
      176
 70
   128
 43
0.0
 10
66.4363503456
 20
90.9102629222
 10
66.4609375
 20
90.9013343508
 10
66.4888392857
 20
90.8916617317
 10
66.5193452381
 20
90.8812450651
 10
66.552827381
 20
90.869712327
 10
66.5889136905
 20
90.8574355412
 10
66.6283482143
 20
90.8444147079
 10
66.6703869048
 20
90.8302778031
 10
66.7154017857
 20
90.8153968508
 10
66.7154017857
 20
90.8153968508
 10
66.7306547619
 20
90.8020039936
 10
66.7485119048
 20
90.7848908984
 10
66.7693452381
 20
90.7644295889
 10
66.7935267857
 20
90.7402480412
 10
66.8199404762
 20
90.7127182793
 10
66.849702381
 20
90.6818403031
 10
66.8824404762
 20
90.6472420889
 10
66.9177827381
 20
90.6092956603
 10
66.9177827381
 20
90.6092956603
 10
66.9259672619
 20
90.5925545889
 10
66.9285714286
 20
90.5758135174
 10
66.9285714286
 20
90.5758135174
 10
66.927827381
 20
90.5661408984
 10
66.9259672619
 20
90.559072446
 10
66.9259672619
 20
90.559072446
 10
66.9203869048
 20
90.5449355412
 10
66.9118303571
 20
90.533774827
 10
66.8999255952
 20
90.5255903031
 10
66.8850446429
 20
90.520009946
 10
66.8850446429
 20
90.520009946
 10
66.8675595238
 20
90.5207539936
 10
66.8530505952
 20
90.5229861365
 10
66.8415178571
 20
90.5263343508
 10
66.8333333333
 20
90.5311706603
 10
66.8333333333
 20
90.5311706603
 10
66.6588541667
 20
90.7108581603
 10
66.6588541667
 20
90.7108581603
 10
66.4133184524
 20
90.7938194698
 10
66.4133184524
 20
90.7938194698
 10
66.0617559524
 20
90.7938194698
 10
66.0617559524
 20
90.7938194698
 10
65.822172619
 20
90.715322446
 10
65.822172619
 20
90.715322446
 10
65.6666666667
 20
90.5579563746
 10
65.6666666667
 20
90.5579563746
 10
65.6666666667
 20
90.4143551841
 10
65.6666666667
 20
90.4143551841
 10
65.7485119048
 20
90.254384946
 10
65.7485119048
 20
90.254384946
 10
65.8247767857
 20
90.1814682793
 10
65.8247767857
 20
90.1814682793
 10
66.0044642857
 20
90.0944147079
 10
66.0044642857
 20
90.0944147079
 10
66.5416666667
 20
89.9158432793
 10
66.5416666667
 20
89.9158432793
 10
66.7213541667
 20
89.8235813746
 10
66.7213541667
 20
89.8235813746
 10
66.7477678571
 20
89.7986557793
 10
66.7771577381
 20
89.7674057793
 10
66.8102678571
 20
89.7294593508
 10
66.8467261905
 20
89.6851885174
 10
66.8467261905
 20
89.6851885174
 10
66.9259672619
 20
89.5226141127
 10
66.9259672619
 20
89.5226141127
 10
66.9267113095
 20
89.496572446
 10
66.9270833333
 20
89.4675545889
 10
66.9274553571
 20
89.4351885174
 10
66.927827381
 20
89.3994742317
 10
66.9281994048
 20
89.3604117317
 10
66.9285714286
 20
89.3183730412
 10
66.9285714286
 20
89.2729861365
 10
66.9285714286
 20
89.2246230412
 10
66.9285714286
 20
89.2246230412
 10
66.9177827381
 20
89.2030456603
 10
66.9177827381
 20
89.2030456603
 10
66.7235863095
 20
89.0133135174
 10
66.7235863095
 20
89.0133135174
 10
66.6956845238
 20
89.0014087555
 10
66.6584821429
 20
88.9872718508
 10
66.6123511905
 20
88.971274827
 10
66.556547619
 20
88.9534176841
 10
66.556547619
 20
88.9534176841
 10
66.4308035714
 20
88.9128670889
 10
66.4308035714
 20
88.9128670889
 10
66.0398065476
 20
88.9128670889
 10
66.0398065476
 20
88.9128670889
 10
66.0152529762
 20
88.9206795889
 10
65.9873511905
 20
88.9296081603
 10
65.9568452381
 20
88.9396528031
 10
65.923735119
 20
88.9504414936
 10
65.8872767857
 20
88.9627182793
 10
65.8478422619
 20
88.9757391127
 10
65.8058035714
 20
88.9902480412
 10
65.7607886905
 20
89.0055010174
 10
65.7607886905
 20
89.0055010174
 10
65.7444196429
 20
89.0159176841
 10
65.7444196429
 20
89.0159176841
 10
65.5531994048
 20
89.2011855412
 10
65.5531994048
 20
89.2011855412
 10
65.5491071429
 20
89.2171825651
 10
65.5476190476
 20
89.2435962555
 10
65.5476190476
 20
89.2435962555
 10
65.5543154762
 20
89.2581051841
 10
65.5639880952
 20
89.2703819698
 10
65.576264881
 20
89.2793105412
 10
65.5911458333
 20
89.2860069698
 10
65.5911458333
 20
89.2860069698
 10
65.6086309524
 20
89.2852629222
 10
65.623139881
 20
89.2830307793
 10
65.6343005952
 20
89.2789385174
 10
65.6428571429
 20
89.2733581603
 10
65.6428571429
 20
89.2733581603
 10
65.8169642857
 20
89.1089236365
 10
65.8169642857
 20
89.1089236365
 10
66.0587797619
 20
89.0319147079
 10
66.0587797619
 20
89.0319147079
 10
66.4125744048
 20
89.0319147079
 10
66.4125744048
 20
89.0319147079
 10
66.6517857143
 20
89.1130158984
 10
66.6517857143
 20
89.1130158984
 10
66.8095238095
 20
89.2674057793
 10
66.8095238095
 20
89.2674057793
 10
66.8095238095
 20
89.4973164936
 10
66.8095238095
 20
89.4973164936
 10
66.7280505952
 20
89.6569147079
 10
66.7280505952
 20
89.6569147079
 10
66.6491815476
 20
89.7354117317
 10
66.6491815476
 20
89.7354117317
 10
66.4694940476
 20
89.8220932793
 10
66.4694940476
 20
89.8220932793
 10
65.9363839286
 20
89.9980605412
 10
65.9363839286
 20
89.9980605412
 10
65.7544642857
 20
90.0899504222
 10
65.7544642857
 20
90.0899504222
 10
65.716889881
 20
90.1252926841
 10
65.6808035714
 20
90.160634946
 10
65.6808035714
 20
90.160634946
 10
65.6599702381
 20
90.1818403031
 10
65.6436011905
 20
90.2019295889
 10
65.6313244048
 20
90.2209028031
 10
65.6238839286
 20
90.2391319698
 10
65.6238839286
 20
90.2391319698
 10
65.6175595238
 20
90.2528968508
 10
65.6090029762
 20
90.270009946
 10
65.5989583333
 20
90.2908432793
 10
65.5870535714
 20
90.3146528031
 10
65.5751488095
 20
90.3388343508
 10
65.564360119
 20
90.3600397079
 10
65.5554315476
 20
90.3778968508
 10
65.5476190476
 20
90.393149827
 10
65.5476190476
 20
90.393149827
 10
65.5476190476
 20
90.596274827
 10
65.5476190476
 20
90.596274827
 10
65.5535714286
 20
90.6156200651
 10
65.5706845238
 20
90.635337327
 10
65.5811011905
 20
90.6446379222
 10
65.5889136905
 20
90.6513343508
 10
65.5941220238
 20
90.6561706603
 10
65.5967261905
 20
90.6584028031
 10
65.5967261905
 20
90.6584028031
 10
65.7473958333
 20
90.8101885174
 10
65.7473958333
 20
90.8101885174
 10
65.7663690476
 20
90.8209772079
 10
65.7663690476
 20
90.8209772079
 10
65.790922619
 20
90.8295337555
 10
65.8188244048
 20
90.8388343508
 10
65.8493303571
 20
90.8488789936
 10
65.8828125
 20
90.8596676841
 10
65.9188988095
 20
90.8712004222
 10
65.9583333333
 20
90.8834772079
 10
66.0003720238
 20
90.8964980412
 10
66.0453869048
 20
90.9102629222
 10
66.0453869048
 20
90.9102629222
 10
66.0561755952
 20
90.9128670889
 10
66.0561755952
 20
90.9128670889
 10
66.4363839286
 20
90.9102629222
  0
LWPOLYLINE
  5
9D
330
1F
100
AcDbEntity
  8
0
  6
Continuous
 62
     7
100
AcDbPolyline
 90
       63
 70
   128
 43
0.0
 10
67.5319433212
 20
90.2376438746
 10
68.0208333333
 20
89.1070635174
 10
68.0208333333
 20
89.1070635174
 10
68.0264136905
 20
89.1152480412
 10
68.0264136905
 20
89.1152480412
 10
68.5152529762
 20
90.2428522079
 10
68.5152529762
 20
90.2428522079
 10
68.525297619
 20
90.2547569698
 10
68.537202381
 20
90.2633135174
 10
68.5498511905
 20
90.268149827
 10
68.564360119
 20
90.270009946
 10
68.564360119
 20
90.270009946
 10
68.5811011905
 20
90.268149827
 10
68.5952380952
 20
90.2625694698
 10
68.6071428571
 20
90.2532688746
 10
68.6164434524
 20
90.2402480412
 10
68.6164434524
 20
90.2402480412
 10
68.6183035714
 20
90.2246230412
 10
68.619047619
 20
90.199697446
 10
68.619047619
 20
90.199697446
 10
68.0375744048
 20
88.8633879222
 10
68.0375744048
 20
88.8633879222
 10
67.8002232143
 20
88.3890575651
 10
67.8002232143
 20
88.3890575651
 10
67.6938244048
 20
88.2781944698
 10
67.6938244048
 20
88.2781944698
 10
67.6744791667
 20
88.270009946
 10
67.6744791667
 20
88.270009946
 10
67.3716517857
 20
88.270009946
 10
67.3716517857
 20
88.270009946
 10
67.3571428571
 20
88.2767063746
 10
67.345610119
 20
88.2863789936
 10
67.337797619
 20
88.2986557793
 10
67.3333333333
 20
88.3135367317
 10
67.3333333333
 20
88.3135367317
 10
67.334077381
 20
88.3299057793
 10
67.3366815476
 20
88.3440426841
 10
67.3407738095
 20
88.3555754222
 10
67.3467261905
 20
88.3648760174
 10
67.3623511905
 20
88.3771528031
 10
67.3820684524
 20
88.3812450651
 10
67.3820684524
 20
88.3812450651
 10
67.6343005952
 20
88.3842212555
 10
67.6343005952
 20
88.3842212555
 10
67.704985119
 20
88.4519295889
 10
67.704985119
 20
88.4519295889
 10
67.9546130952
 20
88.957509946
 10
67.9546130952
 20
88.957509946
 10
67.4226190476
 20
90.1993254222
 10
67.4226190476
 20
90.1993254222
 10
67.4233630952
 20
90.2160664936
 10
67.4263392857
 20
90.2302033984
 10
67.4308035714
 20
90.2424801841
 10
67.4371279762
 20
90.252524827
 10
67.4449404762
 20
90.2599653031
 10
67.454985119
 20
90.2655456603
 10
67.4665178571
 20
90.2688938746
 10
67.4799107143
 20
90.270009946
 10
67.4799107143
 20
90.270009946
 10
67.4973958333
 20
90.268149827
 10
67.5122767857
 20
90.2618254222
 10
67.5234375
 20
90.2517807793
 10
67.5319940476
 20
90.2376438746
  0
LWPOLYLINE
  5
9E
330
1F
100
AcDbEntity
  8
0
  6
Continuous
 62
     7
100
AcDbPolyline
 90
      158
 70
   128
 43
0.0
 10
69.4624185562
 20
90.2674057793
 10
69.5264136905
 20
90.2462004222
 10
69.5941220238
 20
90.2235069698
 10
69.6655505952
 20
90.1993254222
 10
69.7406994048
 20
90.1732837555
 10
69.7406994048
 20
90.1732837555
 10
69.7526041667
 20
90.1643551841
 10
69.7652529762
 20
90.1491022079
 10
69.7652529762
 20
90.1491022079
 10
69.8571428571
 20
89.9582539936
 10
69.8571428571
 20
89.9582539936
 10
69.8556547619
 20
89.9385367317
 10
69.8515625
 20
89.9225397079
 10
69.8441220238
 20
89.9102629222
 10
69.834077381
 20
89.9017063746
 10
69.8139880952
 20
89.8916617317
 10
69.8002232143
 20
89.8883135174
 10
69.8002232143
 20
89.8883135174
 10
69.796875
 20
89.8883135174
 10
69.7924107143
 20
89.8883135174
 10
69.7924107143
 20
89.8883135174
 10
69.7875744048
 20
89.8901736365
 10
69.7842261905
 20
89.8909176841
 10
69.7842261905
 20
89.8909176841
 10
69.7700892857
 20
89.9002182793
 10
69.7544642857
 20
89.9173313746
 10
69.7544642857
 20
89.9173313746
 10
69.6707589286
 20
90.074697446
 10
69.6707589286
 20
90.074697446
 10
69.4382440476
 20
90.150962327
 10
69.4382440476
 20
90.150962327
 10
69.1785714286
 20
90.150962327
 10
69.1785714286
 20
90.150962327
 10
68.9490327381
 20
90.0758135174
 10
68.9490327381
 20
90.0758135174
 10
68.8813244048
 20
89.9444891127
 10
68.8813244048
 20
89.9444891127
 10
68.9490327381
 20
89.8079563746
 10
68.9490327381
 20
89.8079563746
 10
69.1063988095
 20
89.7302033984
 10
69.1063988095
 20
89.7302033984
 10
69.5535714286
 20
89.6416617317
 10
69.5535714286
 20
89.6416617317
 10
69.7488839286
 20
89.5479117317
 10
69.7488839286
 20
89.5479117317
 10
69.7529761905
 20
89.5419593508
 10
69.7604166667
 20
89.5293105412
 10
69.7704613095
 20
89.5095932793
 10
69.7838541667
 20
89.4835516127
 10
69.7838541667
 20
89.4835516127
 10
69.8571428571
 20
89.3362301841
 10
69.8571428571
 20
89.3362301841
 10
69.8604910714
 20
89.3258135174
 10
69.8619791667
 20
89.3127926841
 10
69.8604910714
 20
89.2975397079
 10
69.8571428571
 20
89.2800545889
 10
69.8571428571
 20
89.2800545889
 10
69.8571428571
 20
89.2614533984
 10
69.8571428571
 20
89.2458283984
 10
69.8571428571
 20
89.2335516127
 10
69.8571428571
 20
89.2238789936
 10
69.8571428571
 20
89.2238789936
 10
69.837797619
 20
89.1863045889
 10
69.8154761905
 20
89.1409176841
 10
69.7890625
 20
89.0873462555
 10
69.759672619
 20
89.0255903031
 10
69.759672619
 20
89.0255903031
 10
69.7366071429
 20
89.0088492317
 10
69.7057291667
 20
88.9958283984
 10
69.7057291667
 20
88.9958283984
 10
69.6819196429
 20
88.9876438746
 10
69.6644345238
 20
88.9820635174
 10
69.6536458333
 20
88.9783432793
 10
69.6488095238
 20
88.9772272079
 10
69.6488095238
 20
88.9772272079
 10
69.4542410714
 20
88.9128670889
 10
69.4542410714
 20
88.9128670889
 10
69.1566220238
 20
88.9128670889
 10
69.1566220238
 20
88.9128670889
 10
69.0703125
 20
88.9374206603
 10
68.9836309524
 20
88.9630903031
 10
68.9836309524
 20
88.9630903031
 10
68.9334077381
 20
88.9828075651
 10
68.8936011905
 20
89.004384946
 10
68.8645833333
 20
89.027822446
 10
68.845610119
 20
89.0531200651
 10
68.845610119
 20
89.0531200651
 10
68.7619047619
 20
89.2145783984
 10
68.7619047619
 20
89.2145783984
 10
68.7626488095
 20
89.2328075651
 10
68.7652529762
 20
89.2469444698
 10
68.7693452381
 20
89.2577331603
 10
68.775297619
 20
89.2648016127
 10
68.775297619
 20
89.2648016127
 10
68.7842261905
 20
89.2741022079
 10
68.795014881
 20
89.2807986365
 10
68.8072916667
 20
89.2845188746
 10
68.8214285714
 20
89.2860069698
 10
68.8214285714
 20
89.2860069698
 10
68.8322172619
 20
89.2848908984
 10
68.841889881
 20
89.2807986365
 10
68.8537946429
 20
89.2718700651
 10
68.8705357143
 20
89.2551289936
 10
68.8705357143
 20
89.2551289936
 10
68.9464285714
 20
89.1063194698
 10
68.9464285714
 20
89.1063194698
 10
69.1878720238
 20
89.0319147079
 10
69.1878720238
 20
89.0319147079
 10
69.4453125
 20
89.0319147079
 10
69.4453125
 20
89.0319147079
 10
69.6729910714
 20
89.1092956603
 10
69.6729910714
 20
89.1092956603
 10
69.7436755952
 20
89.2540129222
 10
69.7436755952
 20
89.2540129222
 10
69.7436755952
 20
89.3153968508
 10
69.7436755952
 20
89.3153968508
 10
69.6703869048
 20
89.4649504222
 10
69.6703869048
 20
89.4649504222
 10
69.5159970238
 20
89.5400992317
 10
69.5159970238
 20
89.5400992317
 10
69.0576636905
 20
89.6334772079
 10
69.0576636905
 20
89.6334772079
 10
68.8705357143
 20
89.7272272079
 10
68.8705357143
 20
89.7272272079
 10
68.8541666667
 20
89.7432242317
 10
68.8541666667
 20
89.7432242317
 10
68.8478422619
 20
89.7566170889
 10
68.8404017857
 20
89.7729861365
 10
68.8311011905
 20
89.7923313746
 10
68.8203125
 20
89.8146528031
 10
68.8080357143
 20
89.8399504222
 10
68.7942708333
 20
89.8678522079
 10
68.7786458333
 20
89.8991022079
 10
68.7619047619
 20
89.9329563746
 10
68.7619047619
 20
89.9329563746
 10
68.7619047619
 20
89.9463492317
 10
68.7619047619
 20
89.9463492317
 10
68.7626488095
 20
89.9627182793
 10
68.7645089286
 20
89.973134946
 10
68.7645089286
 20
89.973134946
 10
68.7827380952
 20
90.0066170889
 10
68.8043154762
 20
90.0479117317
 10
68.829985119
 20
90.0973908984
 10
68.859375
 20
90.1550545889
 10
68.859375
 20
90.1550545889
 10
68.8709077381
 20
90.1691914936
 10
68.8891369048
 20
90.1792361365
 10
68.8891369048
 20
90.1792361365
 10
68.9144345238
 20
90.1870486365
 10
68.9423363095
 20
90.1959772079
 10
68.9735863095
 20
90.205649827
 10
69.0081845238
 20
90.2168105412
 10
69.0453869048
 20
90.2283432793
 10
69.0855654762
 20
90.2413641127
 10
69.1290922619
 20
90.2551289936
 10
69.1755952381
 20
90.270009946
 10
69.1755952381
 20
90.270009946
 10
69.4624255952
 20
90.2674057793
  0
LWPOLYLINE
  5
9F
330
1F
100
AcDbEntity
  8
0
  6
Continuous
 62
     7
100
AcDbPolyline
 90
       86
 70
   128
 43
0.0
 10
70.6666111946
 20
90.8656200651
 10
70.6666666667
 20
90.270009946
 10
70.6666666667
 20
90.270009946
 10
70.9851190476
 20
90.270009946
 10
70.9851190476
 20
90.270009946
 10
71.0011160714
 20
90.2640575651
 10
71.0130208333
 20
90.2540129222
 10
71.021577381
 20
90.2406200651
 10
71.0260416667
 20
90.2235069698
 10
71.0260416667
 20
90.2235069698
 10
71.0245535714
 20
90.2019295889
 10
71.0200892857
 20
90.1844444698
 10
71.0122767857
 20
90.1699355412
 10
71.0014880952
 20
90.1595188746
 10
71.0014880952
 20
90.1595188746
 10
70.9799107143
 20
90.150962327
 10
70.9799107143
 20
90.150962327
 10
70.6666666667
 20
90.150962327
 10
70.6666666667
 20
90.150962327
 10
70.6666666667
 20
89.3295337555
 10
70.6666666667
 20
89.3295337555
 10
70.7455357143
 20
89.1011111365
 10
70.7455357143
 20
89.1011111365
 10
70.892485119
 20
89.0319147079
 10
70.892485119
 20
89.0319147079
 10
71.072172619
 20
89.0319147079
 10
71.072172619
 20
89.0319147079
 10
71.0922619048
 20
89.0248462555
 10
71.1067708333
 20
89.0129414936
 10
71.115327381
 20
88.9950843508
 10
71.1183035714
 20
88.9723908984
 10
71.1183035714
 20
88.9723908984
 10
71.1164434524
 20
88.9526736365
 10
71.1101190476
 20
88.9385367317
 10
71.1101190476
 20
88.9385367317
 10
71.09375
 20
88.9221676841
 10
71.0718005952
 20
88.9128670889
 10
71.0718005952
 20
88.9128670889
 10
70.8604910714
 20
88.9128670889
 10
70.8604910714
 20
88.9128670889
 10
70.6629464286
 20
89.0092212555
 10
70.6629464286
 20
89.0092212555
 10
70.6529017857
 20
89.0162897079
 10
70.6450892857
 20
89.0267063746
 10
70.6391369048
 20
89.0404712555
 10
70.6354166667
 20
89.0575843508
 10
70.6354166667
 20
89.0575843508
 10
70.6276041667
 20
89.0795337555
 10
70.6186755952
 20
89.1044593508
 10
70.6090029762
 20
89.1323611365
 10
70.5985863095
 20
89.1628670889
 10
70.5870535714
 20
89.1959772079
 10
70.5747767857
 20
89.2316914936
 10
70.5617559524
 20
89.2703819698
 10
70.5476190476
 20
89.3120486365
 10
70.5476190476
 20
89.3120486365
 10
70.5476190476
 20
90.150962327
 10
70.5476190476
 20
90.150962327
 10
70.3307291667
 20
90.150962327
 10
70.3307291667
 20
90.150962327
 10
70.3151041667
 20
90.1572867317
 10
70.302827381
 20
90.1658432793
 10
70.2938988095
 20
90.1758879222
 10
70.2883184524
 20
90.1877926841
 10
70.2883184524
 20
90.1877926841
 10
70.2864583333
 20
90.1985813746
 10
70.2857142857
 20
90.213462327
 10
70.2857142857
 20
90.213462327
 10
70.2894345238
 20
90.2357837555
 10
70.3002232143
 20
90.2514087555
 10
70.3158482143
 20
90.2625694698
 10
70.3333333333
 20
90.270009946
 10
70.3333333333
 20
90.270009946
 10
70.5476190476
 20
90.270009946
 10
70.5476190476
 20
90.270009946
 10
70.5476190476
 20
90.8738045889
 10
70.5476190476
 20
90.8738045889
 10
70.5535714286
 20
90.8886855412
 10
70.5636160714
 20
90.9002182793
 10
70.5770089286
 20
90.9084028031
 10
70.5941220238
 20
90.9128670889
 10
70.5941220238
 20
90.9128670889
 10
70.6227678571
 20
90.9098908984
 10
70.6443452381
 20
90.900962327
 10
70.6588541667
 20
90.8864533984
 10
70.6666666667
 20
90.8656200651
  0
LWPOLYLINE
  5
A0
330
1F
100
AcDbEntity
  8
0
  6
Continuous
 62
     7
100
AcDbPolyline
 90
       95
 70
   128
 43
0.0
 10
72.5319385529
 20
90.1740278031
 10
72.6350446429
 20
90.0724653031
 10
72.6350446429
 20
90.0724653031
 10
72.6860119048
 20
89.9738789936
 10
72.7354910714
 20
89.8752926841
 10
72.7354910714
 20
89.8752926841
 10
72.7354910714
 20
89.6725397079
 10
72.7354910714
 20
89.6725397079
 10
72.7321428571
 20
89.658774827
 10
72.724702381
 20
89.6472420889
 10
72.7131696429
 20
89.6375694698
 10
72.6975446429
 20
89.6297569698
 10
72.6975446429
 20
89.6297569698
 10
72.6707589286
 20
89.6271528031
 10
72.6707589286
 20
89.6271528031
 10
71.6666666667
 20
89.6271528031
 10
71.6666666667
 20
89.6271528031
 10
71.6666666667
 20
89.5118254222
 10
71.6666666667
 20
89.5118254222
 10
71.7477678571
 20
89.2703819698
 10
71.7477678571
 20
89.2703819698
 10
71.9095982143
 20
89.1096676841
 10
71.9095982143
 20
89.1096676841
 10
72.0688244048
 20
89.0319147079
 10
72.0688244048
 20
89.0319147079
 10
72.3147321429
 20
89.0319147079
 10
72.3147321429
 20
89.0319147079
 10
72.4683779762
 20
89.1063194698
 10
72.4683779762
 20
89.1063194698
 10
72.6521577381
 20
89.2781944698
 10
72.6521577381
 20
89.2781944698
 10
72.6711309524
 20
89.2841468508
 10
72.6953125
 20
89.2860069698
 10
72.6953125
 20
89.2860069698
 10
72.7131696429
 20
89.2774504222
 10
72.7265625
 20
89.2674057793
 10
72.7347470238
 20
89.2562450651
 10
72.7384672619
 20
89.2435962555
 10
72.7384672619
 20
89.2435962555
 10
72.7366071429
 20
89.2197867317
 10
72.7302827381
 20
89.2011855412
 10
72.7302827381
 20
89.2011855412
 10
72.5297619048
 20
89.0055010174
 10
72.5297619048
 20
89.0055010174
 10
72.5115327381
 20
88.996572446
 10
72.4888392857
 20
88.9857837555
 10
72.4624255952
 20
88.9735069698
 10
72.4319196429
 20
88.9589980412
 10
72.4014136905
 20
88.9448611365
 10
72.375
 20
88.9325843508
 10
72.3526785714
 20
88.9217956603
 10
72.3344494048
 20
88.9128670889
 10
72.3344494048
 20
88.9128670889
 10
72.0357142857
 20
88.9128670889
 10
72.0357142857
 20
88.9128670889
 10
71.8404017857
 20
89.0069891127
 10
71.8404017857
 20
89.0069891127
 10
71.6450892857
 20
89.2030456603
 10
71.6450892857
 20
89.2030456603
 10
71.6365327381
 20
89.2287153031
 10
71.626860119
 20
89.2573611365
 10
71.6160714286
 20
89.2889831603
 10
71.6045386905
 20
89.3232093508
 10
71.591889881
 20
89.3607837555
 10
71.578125
 20
89.400962327
 10
71.5632440476
 20
89.4444891127
 10
71.5476190476
 20
89.4906200651
 10
71.5476190476
 20
89.4906200651
 10
71.5476190476
 20
89.6974653031
 10
71.5476190476
 20
89.6974653031
 10
71.5632440476
 20
89.7417361365
 10
71.578125
 20
89.7834028031
 10
71.5915178571
 20
89.8220932793
 10
71.6037946429
 20
89.8581795889
 10
71.615327381
 20
89.8912897079
 10
71.6253720238
 20
89.9217956603
 10
71.634672619
 20
89.9493254222
 10
71.642485119
 20
89.9742510174
 10
71.642485119
 20
89.9742510174
 10
71.6454613095
 20
89.9772272079
 10
71.6547619048
 20
89.9865278031
 10
71.6703869048
 20
90.0017807793
 10
71.6919642857
 20
90.0233581603
 10
71.7198660714
 20
90.0508879222
 10
71.7537202381
 20
90.0847420889
 10
71.7938988095
 20
90.1245486365
 10
71.8404017857
 20
90.1706795889
 10
71.8404017857
 20
90.1706795889
 10
72.0357142857
 20
90.2674057793
 10
72.0357142857
 20
90.2674057793
 10
72.0494791667
 20
90.270009946
 10
72.0494791667
 20
90.270009946
 10
72.3396577381
 20
90.2674057793
 10
72.3396577381
 20
90.2674057793
 10
72.5319940476
 20
90.1740278031
  0
LWPOLYLINE
  5
A1
330
1F
100
AcDbEntity
  8
0
  6
Continuous
 62
     7
100
AcDbPolyline
 90
       18
 70
   128
 43
0.0
 10
72.4668502808
 20
90.0732093508
 10
72.3125
 20
90.150962327
 10
72.3125
 20
90.150962327
 10
72.0628720238
 20
90.150962327
 10
72.0628720238
 20
90.150962327
 10
71.9084821429
 20
90.0784176841
 10
71.9084821429
 20
90.0784176841
 10
71.7429315476
 20
89.9199355412
 10
71.7429315476
 20
89.9199355412
 10
71.6860119048
 20
89.7462004222
 10
71.6860119048
 20
89.7462004222
 10
72.6216517857
 20
89.7462004222
 10
72.6216517857
 20
89.7462004222
 10
72.6216517857
 20
89.8499950651
 10
72.6216517857
 20
89.8499950651
 10
72.5431547619
 20
90.0028968508
 10
72.5431547619
 20
90.0028968508
 10
72.466889881
 20
90.0732093508
  0
LWPOLYLINE
  5
A2
330
1F
100
AcDbEntity
  8
0
  6
Continuous
 62
     7
100
AcDbPolyline
 90
      112
 70
   128
 43
0.0
 10
74.1666555405
 20
90.1706795889
 10
74.1763392857
 20
90.1636111365
 10
74.1841517857
 20
90.1531944698
 10
74.1897321429
 20
90.1394295889
 10
74.193452381
 20
90.1223164936
 10
74.193452381
 20
90.1223164936
 10
74.2447916667
 20
89.9642063746
 10
74.2447916667
 20
89.9642063746
 10
74.4572172619
 20
90.1706795889
 10
74.4572172619
 20
90.1706795889
 10
74.6480654762
 20
90.2674057793
 10
74.6480654762
 20
90.2674057793
 10
74.6670386905
 20
90.270009946
 10
74.6670386905
 20
90.270009946
 10
74.9494047619
 20
90.2674057793
 10
74.9494047619
 20
90.2674057793
 10
75.1428571429
 20
90.1706795889
 10
75.1428571429
 20
90.1706795889
 10
75.1633184524
 20
90.1517063746
 10
75.1633184524
 20
90.1517063746
 10
75.2619047619
 20
89.8667361365
 10
75.2619047619
 20
89.8667361365
 10
75.2619047619
 20
88.9530456603
 10
75.2619047619
 20
88.9530456603
 10
75.2574404762
 20
88.9374206603
 10
75.2485119048
 20
88.9255158984
 10
75.2358630952
 20
88.9173313746
 10
75.21875
 20
88.9128670889
 10
75.21875
 20
88.9128670889
 10
75.1968005952
 20
88.9147272079
 10
75.1793154762
 20
88.9203075651
 10
75.165922619
 20
88.9292361365
 10
75.1569940476
 20
88.9422569698
 10
75.1569940476
 20
88.9422569698
 10
75.1517857143
 20
88.9530456603
 10
75.1517857143
 20
88.9530456603
 10
75.1488095238
 20
89.8514831603
 10
75.1488095238
 20
89.8514831603
 10
75.0736607143
 20
90.0787897079
 10
75.0736607143
 20
90.0787897079
 10
74.9255952381
 20
90.150962327
 10
74.9255952381
 20
90.150962327
 10
74.6837797619
 20
90.150962327
 10
74.6837797619
 20
90.150962327
 10
74.5279017857
 20
90.0706051841
 10
74.5279017857
 20
90.0706051841
 10
74.2857142857
 20
89.8299057793
 10
74.2857142857
 20
89.8299057793
 10
74.2857142857
 20
88.9504414936
 10
74.2857142857
 20
88.9504414936
 10
74.2823660714
 20
88.9381647079
 10
74.2749255952
 20
88.9277480412
 10
74.2630208333
 20
88.9191914936
 10
74.2470238095
 20
88.9128670889
 10
74.2470238095
 20
88.9128670889
 10
74.2280505952
 20
88.9136111365
 10
74.2124255952
 20
88.916587327
 10
74.1997767857
 20
88.9210516127
 10
74.1904761905
 20
88.9273760174
 10
74.1793154762
 20
88.9426289936
 10
74.1755952381
 20
88.9582539936
 10
74.1755952381
 20
88.9582539936
 10
74.1726190476
 20
89.8514831603
 10
74.1726190476
 20
89.8514831603
 10
74.0900297619
 20
90.0787897079
 10
74.0900297619
 20
90.0787897079
 10
73.9441964286
 20
90.150962327
 10
73.9441964286
 20
90.150962327
 10
73.693452381
 20
90.150962327
 10
73.693452381
 20
90.150962327
 10
73.5308779762
 20
90.0706051841
 10
73.5308779762
 20
90.0706051841
 10
73.2857142857
 20
89.8299057793
 10
73.2857142857
 20
89.8299057793
 10
73.2857142857
 20
88.955649827
 10
73.2857142857
 20
88.955649827
 10
73.2801339286
 20
88.941884946
 10
73.271577381
 20
88.9303522079
 10
73.2600446429
 20
88.9206795889
 10
73.2459077381
 20
88.9128670889
 10
73.2459077381
 20
88.9128670889
 10
73.2261904762
 20
88.9128670889
 10
73.2261904762
 20
88.9128670889
 10
73.201264881
 20
88.9162153031
 10
73.1822916667
 20
88.926259946
 10
73.1707589286
 20
88.941884946
 10
73.1666666667
 20
88.9612301841
 10
73.1666666667
 20
88.9612301841
 10
73.1666666667
 20
90.2268551841
 10
73.1666666667
 20
90.2268551841
 10
73.1726190476
 20
90.2458283984
 10
73.1845238095
 20
90.2592212555
 10
73.2023809524
 20
90.2674057793
 10
73.2261904762
 20
90.270009946
 10
73.2261904762
 20
90.270009946
 10
73.2488839286
 20
90.2674057793
 10
73.2659970238
 20
90.2592212555
 10
73.2659970238
 20
90.2592212555
 10
73.2808779762
 20
90.2409920889
 10
73.2857142857
 20
90.2238789936
 10
73.2857142857
 20
90.2238789936
 10
73.2857142857
 20
89.996572446
 10
73.2857142857
 20
89.996572446
 10
73.4657738095
 20
90.1736557793
 10
73.4657738095
 20
90.1736557793
 10
73.662202381
 20
90.2674057793
 10
73.662202381
 20
90.2674057793
 10
73.6755952381
 20
90.270009946
 10
73.6755952381
 20
90.270009946
 10
73.9676339286
 20
90.2674057793
 10
73.9676339286
 20
90.2674057793
 10
74.1666666667
 20
90.1706795889
  0
LWPOLYLINE
  5
A3
330
1F
100
AcDbEntity
  8
0
  6
Continuous
 62
     7
100
AcDbPolyline
 90
      158
 70
   128
 43
0.0
 10
76.557636261
 20
90.2674057793
 10
76.6216517857
 20
90.2462004222
 10
76.689360119
 20
90.2235069698
 10
76.7607886905
 20
90.1993254222
 10
76.8359375
 20
90.1732837555
 10
76.8359375
 20
90.1732837555
 10
76.8478422619
 20
90.1643551841
 10
76.8604910714
 20
90.1491022079
 10
76.8604910714
 20
90.1491022079
 10
76.9523809524
 20
89.9582539936
 10
76.9523809524
 20
89.9582539936
 10
76.9508928571
 20
89.9385367317
 10
76.9468005952
 20
89.9225397079
 10
76.939360119
 20
89.9102629222
 10
76.9293154762
 20
89.9017063746
 10
76.9092261905
 20
89.8916617317
 10
76.8954613095
 20
89.8883135174
 10
76.8954613095
 20
89.8883135174
 10
76.8921130952
 20
89.8883135174
 10
76.8876488095
 20
89.8883135174
 10
76.8876488095
 20
89.8883135174
 10
76.8828125
 20
89.8901736365
 10
76.8794642857
 20
89.8909176841
 10
76.8794642857
 20
89.8909176841
 10
76.865327381
 20
89.9002182793
 10
76.849702381
 20
89.9173313746
 10
76.849702381
 20
89.9173313746
 10
76.7659970238
 20
90.074697446
 10
76.7659970238
 20
90.074697446
 10
76.5334821429
 20
90.150962327
 10
76.5334821429
 20
90.150962327
 10
76.2738095238
 20
90.150962327
 10
76.2738095238
 20
90.150962327
 10
76.0442708333
 20
90.0758135174
 10
76.0442708333
 20
90.0758135174
 10
75.9765625
 20
89.9444891127
 10
75.9765625
 20
89.9444891127
 10
76.0442708333
 20
89.8079563746
 10
76.0442708333
 20
89.8079563746
 10
76.2016369048
 20
89.7302033984
 10
76.2016369048
 20
89.7302033984
 10
76.6488095238
 20
89.6416617317
 10
76.6488095238
 20
89.6416617317
 10
76.8441220238
 20
89.5479117317
 10
76.8441220238
 20
89.5479117317
 10
76.8482142857
 20
89.5419593508
 10
76.8556547619
 20
89.5293105412
 10
76.8656994048
 20
89.5095932793
 10
76.8790922619
 20
89.4835516127
 10
76.8790922619
 20
89.4835516127
 10
76.9523809524
 20
89.3362301841
 10
76.9523809524
 20
89.3362301841
 10
76.9557291667
 20
89.3258135174
 10
76.9572172619
 20
89.3127926841
 10
76.9557291667
 20
89.2975397079
 10
76.9523809524
 20
89.2800545889
 10
76.9523809524
 20
89.2800545889
 10
76.9523809524
 20
89.2614533984
 10
76.9523809524
 20
89.2458283984
 10
76.9523809524
 20
89.2335516127
 10
76.9523809524
 20
89.2238789936
 10
76.9523809524
 20
89.2238789936
 10
76.9330357143
 20
89.1863045889
 10
76.9107142857
 20
89.1409176841
 10
76.8843005952
 20
89.0873462555
 10
76.8549107143
 20
89.0255903031
 10
76.8549107143
 20
89.0255903031
 10
76.8318452381
 20
89.0088492317
 10
76.8009672619
 20
88.9958283984
 10
76.8009672619
 20
88.9958283984
 10
76.7771577381
 20
88.9876438746
 10
76.759672619
 20
88.9820635174
 10
76.7488839286
 20
88.9783432793
 10
76.744047619
 20
88.9772272079
 10
76.744047619
 20
88.9772272079
 10
76.5494791667
 20
88.9128670889
 10
76.5494791667
 20
88.9128670889
 10
76.251860119
 20
88.9128670889
 10
76.251860119
 20
88.9128670889
 10
76.1655505952
 20
88.9374206603
 10
76.0788690476
 20
88.9630903031
 10
76.0788690476
 20
88.9630903031
 10
76.0286458333
 20
88.9828075651
 10
75.9888392857
 20
89.004384946
 10
75.9598214286
 20
89.027822446
 10
75.9408482143
 20
89.0531200651
 10
75.9408482143
 20
89.0531200651
 10
75.8571428571
 20
89.2145783984
 10
75.8571428571
 20
89.2145783984
 10
75.8578869048
 20
89.2328075651
 10
75.8604910714
 20
89.2469444698
 10
75.8645833333
 20
89.2577331603
 10
75.8705357143
 20
89.2648016127
 10
75.8705357143
 20
89.2648016127
 10
75.8794642857
 20
89.2741022079
 10
75.8902529762
 20
89.2807986365
 10
75.9025297619
 20
89.2845188746
 10
75.9166666667
 20
89.2860069698
 10
75.9166666667
 20
89.2860069698
 10
75.9274553571
 20
89.2848908984
 10
75.9371279762
 20
89.2807986365
 10
75.9490327381
 20
89.2718700651
 10
75.9657738095
 20
89.2551289936
 10
75.9657738095
 20
89.2551289936
 10
76.0416666667
 20
89.1063194698
 10
76.0416666667
 20
89.1063194698
 10
76.283110119
 20
89.0319147079
 10
76.283110119
 20
89.0319147079
 10
76.5405505952
 20
89.0319147079
 10
76.5405505952
 20
89.0319147079
 10
76.7682291667
 20
89.1092956603
 10
76.7682291667
 20
89.1092956603
 10
76.8389136905
 20
89.2540129222
 10
76.8389136905
 20
89.2540129222
 10
76.8389136905
 20
89.3153968508
 10
76.8389136905
 20
89.3153968508
 10
76.765625
 20
89.4649504222
 10
76.765625
 20
89.4649504222
 10
76.611235119
 20
89.5400992317
 10
76.611235119
 20
89.5400992317
 10
76.1529017857
 20
89.6334772079
 10
76.1529017857
 20
89.6334772079
 10
75.9657738095
 20
89.7272272079
 10
75.9657738095
 20
89.7272272079
 10
75.9494047619
 20
89.7432242317
 10
75.9494047619
 20
89.7432242317
 10
75.9430803571
 20
89.7566170889
 10
75.935639881
 20
89.7729861365
 10
75.9263392857
 20
89.7923313746
 10
75.9155505952
 20
89.8146528031
 10
75.9032738095
 20
89.8399504222
 10
75.8895089286
 20
89.8678522079
 10
75.8738839286
 20
89.8991022079
 10
75.8571428571
 20
89.9329563746
 10
75.8571428571
 20
89.9329563746
 10
75.8571428571
 20
89.9463492317
 10
75.8571428571
 20
89.9463492317
 10
75.8578869048
 20
89.9627182793
 10
75.8597470238
 20
89.973134946
 10
75.8597470238
 20
89.973134946
 10
75.8779761905
 20
90.0066170889
 10
75.8995535714
 20
90.0479117317
 10
75.9252232143
 20
90.0973908984
 10
75.9546130952
 20
90.1550545889
 10
75.9546130952
 20
90.1550545889
 10
75.9661458333
 20
90.1691914936
 10
75.984375
 20
90.1792361365
 10
75.984375
 20
90.1792361365
 10
76.009672619
 20
90.1870486365
 10
76.0375744048
 20
90.1959772079
 10
76.0688244048
 20
90.205649827
 10
76.103422619
 20
90.2168105412
 10
76.140625
 20
90.2283432793
 10
76.1808035714
 20
90.2413641127
 10
76.2243303571
 20
90.2551289936
 10
76.2708333333
 20
90.270009946
 10
76.2708333333
 20
90.270009946
 10
76.5576636905
 20
90.2674057793
  0
LWPOLYLINE
  5
A4
330
1F
100
AcDbEntity
  8
0
  6
Continuous
 62
     7
100
AcDbPolyline
 90
       81
 70
   128
 43
0.0
 10
44.0606176853
 20
86.6208283984
 10
44.4557291667
 20
84.9482093508
 10
44.4557291667
 20
84.9482093508
 10
44.853422619
 20
86.6182242317
 10
44.853422619
 20
86.6182242317
 10
44.8604910714
 20
86.6305010174
 10
44.8709077381
 20
86.6401736365
 10
44.8850446429
 20
86.6468700651
 10
44.9021577381
 20
86.650962327
 10
44.9021577381
 20
86.650962327
 10
44.9196428571
 20
86.6491022079
 10
44.9345238095
 20
86.6435218508
 10
44.9468005952
 20
86.6338492317
 10
44.9561011905
 20
86.6208283984
 10
44.9561011905
 20
86.6208283984
 10
44.9616815476
 20
86.6018551841
 10
44.9616815476
 20
86.6018551841
 10
45.3511904762
 20
84.9482093508
 10
45.3511904762
 20
84.9482093508
 10
45.7462797619
 20
86.6182242317
 10
45.7462797619
 20
86.6182242317
 10
45.7507440476
 20
86.6305010174
 10
45.7589285714
 20
86.6401736365
 10
45.7712053571
 20
86.6468700651
 10
45.7868303571
 20
86.650962327
 10
45.7868303571
 20
86.650962327
 10
45.8080357143
 20
86.6494742317
 10
45.8255208333
 20
86.645009946
 10
45.8389136905
 20
86.637197446
 10
45.8489583333
 20
86.6264087555
 10
45.8489583333
 20
86.6264087555
 10
45.8552827381
 20
86.6148760174
 10
45.8571428571
 20
86.5966468508
 10
45.8571428571
 20
86.5966468508
 10
45.8563988095
 20
86.5851141127
 10
45.8545386905
 20
86.5776736365
 10
45.8545386905
 20
86.5776736365
 10
45.4051339286
 20
84.6837004222
 10
45.4051339286
 20
84.6837004222
 10
45.3958333333
 20
84.6695635174
 10
45.3843005952
 20
84.6591468508
 10
45.3701636905
 20
84.6531944698
 10
45.3537946429
 20
84.650962327
 10
45.3537946429
 20
84.650962327
 10
45.334077381
 20
84.652822446
 10
45.3188244048
 20
84.6591468508
 10
45.3072916667
 20
84.6691914936
 10
45.2998511905
 20
84.6833283984
 10
45.2998511905
 20
84.6833283984
 10
44.9021577381
 20
86.3232093508
 10
44.9021577381
 20
86.3232093508
 10
44.509672619
 20
84.6833283984
 10
44.509672619
 20
84.6833283984
 10
44.5040922619
 20
84.6714236365
 10
44.4955357143
 20
84.6617510174
 10
44.4836309524
 20
84.6550545889
 10
44.4691220238
 20
84.650962327
 10
44.4691220238
 20
84.650962327
 10
44.453125
 20
84.6513343508
 10
44.4397321429
 20
84.6531944698
 10
44.4293154762
 20
84.6554266127
 10
44.421875
 20
84.6591468508
 10
44.4107142857
 20
84.6729117317
 10
44.4014136905
 20
84.6970932793
 10
44.4014136905
 20
84.6970932793
 10
44.369047619
 20
84.824697446
 10
44.369047619
 20
84.824697446
 10
43.9523809524
 20
86.5966468508
 10
43.9523809524
 20
86.5966468508
 10
43.9542410714
 20
86.6126438746
 10
43.959077381
 20
86.6260367317
 10
43.9676339286
 20
86.6357093508
 10
43.9795386905
 20
86.6427778031
 10
43.9795386905
 20
86.6427778031
 10
43.9925595238
 20
86.6491022079
 10
44.0093005952
 20
86.650962327
 10
44.0093005952
 20
86.650962327
 10
44.0279017857
 20
86.6491022079
 10
44.0424107143
 20
86.6435218508
 10
44.0535714286
 20
86.6338492317
 10
44.060639881
 20
86.6208283984
  0
LWPOLYLINE
  5
A5
330
1F
100
AcDbEntity
  8
0
  6
Continuous
 62
     7
100
AcDbPolyline
 90
       74
 70
   128
 43
0.0
 10
47.0862984657
 20
85.9113789936
 10
47.2771577381
 20
85.723134946
 10
47.2771577381
 20
85.723134946
 10
47.290922619
 20
85.7045337555
 10
47.290922619
 20
85.7045337555
 10
47.3351934524
 20
85.5642807793
 10
47.380952381
 20
85.4329563746
 10
47.380952381
 20
85.4329563746
 10
47.380952381
 20
85.2287153031
 10
47.380952381
 20
85.2287153031
 10
47.3716517857
 20
85.2015575651
 10
47.3608630952
 20
85.1688194698
 10
47.3478422619
 20
85.1305010174
 10
47.3329613095
 20
85.0862301841
 10
47.318452381
 20
85.0423313746
 10
47.3054315476
 20
85.004384946
 10
47.2946428571
 20
84.9723908984
 10
47.2853422619
 20
84.9467212555
 10
47.2853422619
 20
84.9467212555
 10
47.2771577381
 20
84.9329563746
 10
47.2771577381
 20
84.9329563746
 10
47.0833333333
 20
84.7450843508
 10
47.0833333333
 20
84.7450843508
 10
47.0651041667
 20
84.7361557793
 10
47.0424107143
 20
84.7249950651
 10
47.0159970238
 20
84.7123462555
 10
46.9851190476
 20
84.697837327
 10
46.9546130952
 20
84.6833283984
 10
46.927827381
 20
84.6706795889
 10
46.9055059524
 20
84.6598908984
 10
46.8869047619
 20
84.650962327
 10
46.8869047619
 20
84.650962327
 10
46.5866815476
 20
84.650962327
 10
46.5866815476
 20
84.650962327
 10
46.3898809524
 20
84.7450843508
 10
46.3898809524
 20
84.7450843508
 10
46.193452381
 20
84.9411408984
 10
46.193452381
 20
84.9411408984
 10
46.1848958333
 20
84.9668105412
 10
46.1752232143
 20
84.9954563746
 10
46.1644345238
 20
85.0270783984
 10
46.1525297619
 20
85.0613045889
 10
46.1398809524
 20
85.0988789936
 10
46.1261160714
 20
85.1390575651
 10
46.111235119
 20
85.1825843508
 10
46.0952380952
 20
85.2287153031
 10
46.0952380952
 20
85.2287153031
 10
46.0952380952
 20
85.4355605412
 10
46.0952380952
 20
85.4355605412
 10
46.111235119
 20
85.4798313746
 10
46.1257440476
 20
85.5214980412
 10
46.1395089286
 20
85.5601885174
 10
46.1517857143
 20
85.596274827
 10
46.1633184524
 20
85.629384946
 10
46.173735119
 20
85.6598908984
 10
46.1826636905
 20
85.6874206603
 10
46.1908482143
 20
85.7123462555
 10
46.1908482143
 20
85.7123462555
 10
46.1938244048
 20
85.715322446
 10
46.203125
 20
85.7246230412
 10
46.21875
 20
85.7398760174
 10
46.2406994048
 20
85.7614533984
 10
46.2686011905
 20
85.7889831603
 10
46.302827381
 20
85.822837327
 10
46.3433779762
 20
85.8626438746
 10
46.3898809524
 20
85.908774827
 10
46.3898809524
 20
85.908774827
 10
46.5866815476
 20
86.0055010174
 10
46.5866815476
 20
86.0055010174
 10
46.6000744048
 20
86.0081051841
 10
46.6000744048
 20
86.0081051841
 10
46.892485119
 20
86.0055010174
 10
46.892485119
 20
86.0055010174
 10
47.0863095238
 20
85.9113789936
  0
LWPOLYLINE
  5
A6
330
1F
100
AcDbEntity
  8
0
  6
Continuous
 62
     7
100
AcDbPolyline
 90
       32
 70
   128
 43
0.0
 10
47.0182001591
 20
85.8116766127
 10
46.8638392857
 20
85.8890575651
 10
46.8638392857
 20
85.8890575651
 10
46.6149553571
 20
85.8890575651
 10
46.6149553571
 20
85.8890575651
 10
46.4579613095
 20
85.8116766127
 10
46.4579613095
 20
85.8116766127
 10
46.2983630952
 20
85.6546825651
 10
46.2983630952
 20
85.6546825651
 10
46.2142857143
 20
85.4173313746
 10
46.2142857143
 20
85.4173313746
 10
46.2142857143
 20
85.2495486365
 10
46.2142857143
 20
85.2495486365
 10
46.2953869048
 20
85.0069891127
 10
46.2953869048
 20
85.0069891127
 10
46.4553571429
 20
84.8499950651
 10
46.4553571429
 20
84.8499950651
 10
46.6149553571
 20
84.770009946
 10
46.6149553571
 20
84.770009946
 10
46.861235119
 20
84.770009946
 10
46.861235119
 20
84.770009946
 10
47.0182291667
 20
84.8447867317
 10
47.0182291667
 20
84.8447867317
 10
47.1808035714
 20
85.0069891127
 10
47.1808035714
 20
85.0069891127
 10
47.2619047619
 20
85.2469444698
 10
47.2619047619
 20
85.2469444698
 10
47.2619047619
 20
85.4095188746
 10
47.2619047619
 20
85.4095188746
 10
47.1808035714
 20
85.6520783984
 10
47.1808035714
 20
85.6520783984
 10
47.0182291667
 20
85.8116766127
  0
LWPOLYLINE
  5
A7
330
1F
100
AcDbEntity
  8
0
  6
Continuous
 62
     7
100
AcDbPolyline
 90
       74
 70
   128
 43
0.0
 10
48.8005876541
 20
85.9113789936
 10
48.9914434524
 20
85.723134946
 10
48.9914434524
 20
85.723134946
 10
49.0052083333
 20
85.7045337555
 10
49.0052083333
 20
85.7045337555
 10
49.0494791667
 20
85.5642807793
 10
49.0952380952
 20
85.4329563746
 10
49.0952380952
 20
85.4329563746
 10
49.0952380952
 20
85.2287153031
 10
49.0952380952
 20
85.2287153031
 10
49.0859375
 20
85.2015575651
 10
49.0751488095
 20
85.1688194698
 10
49.0621279762
 20
85.1305010174
 10
49.0472470238
 20
85.0862301841
 10
49.0327380952
 20
85.0423313746
 10
49.0197172619
 20
85.004384946
 10
49.0089285714
 20
84.9723908984
 10
48.9996279762
 20
84.9467212555
 10
48.9996279762
 20
84.9467212555
 10
48.9914434524
 20
84.9329563746
 10
48.9914434524
 20
84.9329563746
 10
48.7976190476
 20
84.7450843508
 10
48.7976190476
 20
84.7450843508
 10
48.779389881
 20
84.7361557793
 10
48.7566964286
 20
84.7249950651
 10
48.7302827381
 20
84.7123462555
 10
48.6994047619
 20
84.697837327
 10
48.6688988095
 20
84.6833283984
 10
48.6421130952
 20
84.6706795889
 10
48.6197916667
 20
84.6598908984
 10
48.6011904762
 20
84.650962327
 10
48.6011904762
 20
84.650962327
 10
48.3009672619
 20
84.650962327
 10
48.3009672619
 20
84.650962327
 10
48.1041666667
 20
84.7450843508
 10
48.1041666667
 20
84.7450843508
 10
47.9077380952
 20
84.9411408984
 10
47.9077380952
 20
84.9411408984
 10
47.8991815476
 20
84.9668105412
 10
47.8895089286
 20
84.9954563746
 10
47.8787202381
 20
85.0270783984
 10
47.8668154762
 20
85.0613045889
 10
47.8541666667
 20
85.0988789936
 10
47.8404017857
 20
85.1390575651
 10
47.8255208333
 20
85.1825843508
 10
47.8095238095
 20
85.2287153031
 10
47.8095238095
 20
85.2287153031
 10
47.8095238095
 20
85.4355605412
 10
47.8095238095
 20
85.4355605412
 10
47.8255208333
 20
85.4798313746
 10
47.8400297619
 20
85.5214980412
 10
47.8537946429
 20
85.5601885174
 10
47.8660714286
 20
85.596274827
 10
47.8776041667
 20
85.629384946
 10
47.8880208333
 20
85.6598908984
 10
47.8969494048
 20
85.6874206603
 10
47.9051339286
 20
85.7123462555
 10
47.9051339286
 20
85.7123462555
 10
47.908110119
 20
85.715322446
 10
47.9174107143
 20
85.7246230412
 10
47.9330357143
 20
85.7398760174
 10
47.954985119
 20
85.7614533984
 10
47.9828869048
 20
85.7889831603
 10
48.0171130952
 20
85.822837327
 10
48.0576636905
 20
85.8626438746
 10
48.1041666667
 20
85.908774827
 10
48.1041666667
 20
85.908774827
 10
48.3009672619
 20
86.0055010174
 10
48.3009672619
 20
86.0055010174
 10
48.314360119
 20
86.0081051841
 10
48.314360119
 20
86.0081051841
 10
48.6067708333
 20
86.0055010174
 10
48.6067708333
 20
86.0055010174
 10
48.8005952381
 20
85.9113789936
  0
LWPOLYLINE
  5
A8
330
1F
100
AcDbEntity
  8
0
  6
Continuous
 62
     7
100
AcDbPolyline
 90
       32
 70
   128
 43
0.0
 10
48.7324893475
 20
85.8116766127
 10
48.578125
 20
85.8890575651
 10
48.578125
 20
85.8890575651
 10
48.3292410714
 20
85.8890575651
 10
48.3292410714
 20
85.8890575651
 10
48.1722470238
 20
85.8116766127
 10
48.1722470238
 20
85.8116766127
 10
48.0126488095
 20
85.6546825651
 10
48.0126488095
 20
85.6546825651
 10
47.9285714286
 20
85.4173313746
 10
47.9285714286
 20
85.4173313746
 10
47.9285714286
 20
85.2495486365
 10
47.9285714286
 20
85.2495486365
 10
48.009672619
 20
85.0069891127
 10
48.009672619
 20
85.0069891127
 10
48.1696428571
 20
84.8499950651
 10
48.1696428571
 20
84.8499950651
 10
48.3292410714
 20
84.770009946
 10
48.3292410714
 20
84.770009946
 10
48.5755208333
 20
84.770009946
 10
48.5755208333
 20
84.770009946
 10
48.732514881
 20
84.8447867317
 10
48.732514881
 20
84.8447867317
 10
48.8950892857
 20
85.0069891127
 10
48.8950892857
 20
85.0069891127
 10
48.9761904762
 20
85.2469444698
 10
48.9761904762
 20
85.2469444698
 10
48.9761904762
 20
85.4095188746
 10
48.9761904762
 20
85.4095188746
 10
48.8950892857
 20
85.6520783984
 10
48.8950892857
 20
85.6520783984
 10
48.732514881
 20
85.8116766127
  0
LWPOLYLINE
  5
A9
330
1F
100
AcDbEntity
  8
0
  6
Continuous
 62
     7
100
AcDbPolyline
 90
       89
 70
   128
 43
0.0
 10
50.708681345
 20
86.6238045889
 10
50.7142857143
 20
86.6048313746
 10
50.7142857143
 20
86.6048313746
 10
50.7142857143
 20
84.691884946
 10
50.7142857143
 20
84.691884946
 10
50.709077381
 20
84.676259946
 10
50.6997767857
 20
84.6639831603
 10
50.6860119048
 20
84.6557986365
 10
50.6677827381
 20
84.650962327
 10
50.6677827381
 20
84.650962327
 10
50.6450892857
 20
84.6524504222
 10
50.6264880952
 20
84.6572867317
 10
50.6116071429
 20
84.6654712555
 10
50.6011904762
 20
84.6766319698
 10
50.6011904762
 20
84.6766319698
 10
50.5952380952
 20
84.6896528031
 10
50.5952380952
 20
84.6896528031
 10
50.5970982143
 20
84.7216468508
 10
50.5985863095
 20
84.7495486365
 10
50.599702381
 20
84.7729861365
 10
50.6000744048
 20
84.7919593508
 10
50.599702381
 20
84.8068403031
 10
50.5985863095
 20
84.8176289936
 10
50.5970982143
 20
84.8239533984
 10
50.5952380952
 20
84.8261855412
 10
50.5952380952
 20
84.8261855412
 10
50.5033482143
 20
84.7435962555
 10
50.5033482143
 20
84.7435962555
 10
50.4657738095
 20
84.7253670889
 10
50.4203869048
 20
84.7037897079
 10
50.3675595238
 20
84.6788641127
 10
50.306547619
 20
84.650962327
 10
50.306547619
 20
84.650962327
 10
50.009672619
 20
84.650962327
 10
50.009672619
 20
84.650962327
 10
49.8151041667
 20
84.7450843508
 10
49.8151041667
 20
84.7450843508
 10
49.6209077381
 20
84.9411408984
 10
49.6209077381
 20
84.9411408984
 10
49.6123511905
 20
84.9668105412
 10
49.6026785714
 20
84.9954563746
 10
49.5922619048
 20
85.0270783984
 10
49.5803571429
 20
85.0613045889
 10
49.5677083333
 20
85.0988789936
 10
49.5543154762
 20
85.1390575651
 10
49.5394345238
 20
85.1825843508
 10
49.5238095238
 20
85.2287153031
 10
49.5238095238
 20
85.2287153031
 10
49.5238095238
 20
85.4355605412
 10
49.5238095238
 20
85.4355605412
 10
49.5394345238
 20
85.4798313746
 10
49.5539434524
 20
85.5214980412
 10
49.5673363095
 20
85.5601885174
 10
49.579985119
 20
85.596274827
 10
49.5911458333
 20
85.629384946
 10
49.6011904762
 20
85.6598908984
 10
49.6104910714
 20
85.6874206603
 10
49.6183035714
 20
85.7123462555
 10
49.6183035714
 20
85.7123462555
 10
49.6212797619
 20
85.715322446
 10
49.6305803571
 20
85.7246230412
 10
49.6458333333
 20
85.7398760174
 10
49.6674107143
 20
85.7614533984
 10
49.6953125
 20
85.7889831603
 10
49.7291666667
 20
85.822837327
 10
49.7689732143
 20
85.8626438746
 10
49.8151041667
 20
85.908774827
 10
49.8151041667
 20
85.908774827
 10
50.009672619
 20
86.0055010174
 10
50.009672619
 20
86.0055010174
 10
50.0286458333
 20
86.0081051841
 10
50.0286458333
 20
86.0081051841
 10
50.3117559524
 20
86.0055010174
 10
50.3117559524
 20
86.0055010174
 10
50.5063244048
 20
85.9121230412
 10
50.5063244048
 20
85.9121230412
 10
50.5952380952
 20
85.8243254222
 10
50.5952380952
 20
85.8243254222
 10
50.5952380952
 20
86.6096676841
 10
50.5952380952
 20
86.6096676841
 10
50.6015625
 20
86.6256647079
 10
50.6116071429
 20
86.6379414936
 10
50.6257440476
 20
86.6461260174
 10
50.6436011905
 20
86.650962327
 10
50.6436011905
 20
86.650962327
 10
50.6655505952
 20
86.6491022079
 10
50.6837797619
 20
86.6442658984
 10
50.6982886905
 20
86.6357093508
 10
50.7087053571
 20
86.6238045889
  0
LWPOLYLINE
  5
AA
330
1F
100
AcDbEntity
  8
0
  6
Continuous
 62
     7
100
AcDbPolyline
 90
       28
 70
   128
 43
0.0
 10
50.4397153854
 20
85.8116766127
 10
50.2868303571
 20
85.8890575651
 10
50.2868303571
 20
85.8890575651
 10
50.0398065476
 20
85.8890575651
 10
50.0398065476
 20
85.8890575651
 10
49.8843005952
 20
85.8116766127
 10
49.8843005952
 20
85.8116766127
 10
49.7261904762
 20
85.6546825651
 10
49.7261904762
 20
85.6546825651
 10
49.6428571429
 20
85.4173313746
 10
49.6428571429
 20
85.4173313746
 10
49.6428571429
 20
85.2495486365
 10
49.6428571429
 20
85.2495486365
 10
49.7232142857
 20
85.0069891127
 10
49.7232142857
 20
85.0069891127
 10
49.8816964286
 20
84.8499950651
 10
49.8816964286
 20
84.8499950651
 10
50.0398065476
 20
84.770009946
 10
50.0398065476
 20
84.770009946
 10
50.2838541667
 20
84.770009946
 10
50.2838541667
 20
84.770009946
 10
50.4397321429
 20
84.8473908984
 10
50.4397321429
 20
84.8473908984
 10
50.5952380952
 20
84.9991766127
 10
50.5952380952
 20
84.9991766127
 10
50.5952380952
 20
85.6598908984
 10
50.5952380952
 20
85.6598908984
 10
50.4397321429
 20
85.8116766127
  0
LWPOLYLINE
  5
AB
330
1F
100
AcDbEntity
  8
0
  6
Continuous
 62
     7
100
AcDbPolyline
 90
      176
 70
   128
 43
0.0
 10
52.1268546581
 20
86.6483581603
 10
52.1514136905
 20
86.6394295889
 10
52.1793154762
 20
86.6297569698
 10
52.2098214286
 20
86.6193403031
 10
52.2433035714
 20
86.6078075651
 10
52.279389881
 20
86.5955307793
 10
52.3188244048
 20
86.582509946
 10
52.3608630952
 20
86.5683730412
 10
52.4058779762
 20
86.5534920889
 10
52.4058779762
 20
86.5534920889
 10
52.4211309524
 20
86.5400992317
 10
52.4389880952
 20
86.5229861365
 10
52.4598214286
 20
86.502524827
 10
52.4840029762
 20
86.4783432793
 10
52.5104166667
 20
86.4508135174
 10
52.5401785714
 20
86.4199355412
 10
52.5729166667
 20
86.385337327
 10
52.6082589286
 20
86.3473908984
 10
52.6082589286
 20
86.3473908984
 10
52.6164434524
 20
86.330649827
 10
52.619047619
 20
86.3139087555
 10
52.619047619
 20
86.3139087555
 10
52.6183035714
 20
86.3042361365
 10
52.6164434524
 20
86.2971676841
 10
52.6164434524
 20
86.2971676841
 10
52.6108630952
 20
86.2830307793
 10
52.6023065476
 20
86.2718700651
 10
52.5904017857
 20
86.2636855412
 10
52.5755208333
 20
86.2581051841
 10
52.5755208333
 20
86.2581051841
 10
52.5580357143
 20
86.2588492317
 10
52.5435267857
 20
86.2610813746
 10
52.5319940476
 20
86.2644295889
 10
52.5238095238
 20
86.2692658984
 10
52.5238095238
 20
86.2692658984
 10
52.3493303571
 20
86.4489533984
 10
52.3493303571
 20
86.4489533984
 10
52.1037946429
 20
86.5319147079
 10
52.1037946429
 20
86.5319147079
 10
51.7522321429
 20
86.5319147079
 10
51.7522321429
 20
86.5319147079
 10
51.5126488095
 20
86.4534176841
 10
51.5126488095
 20
86.4534176841
 10
51.3571428571
 20
86.2960516127
 10
51.3571428571
 20
86.2960516127
 10
51.3571428571
 20
86.1524504222
 10
51.3571428571
 20
86.1524504222
 10
51.4389880952
 20
85.9924801841
 10
51.4389880952
 20
85.9924801841
 10
51.5152529762
 20
85.9195635174
 10
51.5152529762
 20
85.9195635174
 10
51.6949404762
 20
85.832509946
 10
51.6949404762
 20
85.832509946
 10
52.2321428571
 20
85.6539385174
 10
52.2321428571
 20
85.6539385174
 10
52.4118303571
 20
85.5616766127
 10
52.4118303571
 20
85.5616766127
 10
52.4382440476
 20
85.5367510174
 10
52.4676339286
 20
85.5055010174
 10
52.5007440476
 20
85.4675545889
 10
52.537202381
 20
85.4232837555
 10
52.537202381
 20
85.4232837555
 10
52.6164434524
 20
85.2607093508
 10
52.6164434524
 20
85.2607093508
 10
52.6171875
 20
85.2346676841
 10
52.6175595238
 20
85.205649827
 10
52.6179315476
 20
85.1732837555
 10
52.6183035714
 20
85.1375694698
 10
52.6186755952
 20
85.0985069698
 10
52.619047619
 20
85.0564682793
 10
52.619047619
 20
85.0110813746
 10
52.619047619
 20
84.9627182793
 10
52.619047619
 20
84.9627182793
 10
52.6082589286
 20
84.9411408984
 10
52.6082589286
 20
84.9411408984
 10
52.4140625
 20
84.7514087555
 10
52.4140625
 20
84.7514087555
 10
52.3861607143
 20
84.7395039936
 10
52.3489583333
 20
84.7253670889
 10
52.302827381
 20
84.7093700651
 10
52.2470238095
 20
84.6915129222
 10
52.2470238095
 20
84.6915129222
 10
52.1212797619
 20
84.650962327
 10
52.1212797619
 20
84.650962327
 10
51.7302827381
 20
84.650962327
 10
51.7302827381
 20
84.650962327
 10
51.7057291667
 20
84.658774827
 10
51.677827381
 20
84.6677033984
 10
51.6473214286
 20
84.6777480412
 10
51.6142113095
 20
84.6885367317
 10
51.5777529762
 20
84.7008135174
 10
51.5383184524
 20
84.7138343508
 10
51.4962797619
 20
84.7283432793
 10
51.451264881
 20
84.7435962555
 10
51.451264881
 20
84.7435962555
 10
51.4348958333
 20
84.7540129222
 10
51.4348958333
 20
84.7540129222
 10
51.2436755952
 20
84.9392807793
 10
51.2436755952
 20
84.9392807793
 10
51.2395833333
 20
84.9552778031
 10
51.2380952381
 20
84.9816914936
 10
51.2380952381
 20
84.9816914936
 10
51.2447916667
 20
84.9962004222
 10
51.2544642857
 20
85.0084772079
 10
51.2667410714
 20
85.0174057793
 10
51.2816220238
 20
85.0241022079
 10
51.2816220238
 20
85.0241022079
 10
51.2991071429
 20
85.0233581603
 10
51.3136160714
 20
85.0211260174
 10
51.3247767857
 20
85.0170337555
 10
51.3333333333
 20
85.0114533984
 10
51.3333333333
 20
85.0114533984
 10
51.5074404762
 20
84.8470188746
 10
51.5074404762
 20
84.8470188746
 10
51.7492559524
 20
84.770009946
 10
51.7492559524
 20
84.770009946
 10
52.1030505952
 20
84.770009946
 10
52.1030505952
 20
84.770009946
 10
52.3422619048
 20
84.8511111365
 10
52.3422619048
 20
84.8511111365
 10
52.5
 20
85.0055010174
 10
52.5
 20
85.0055010174
 10
52.5
 20
85.2354117317
 10
52.5
 20
85.2354117317
 10
52.4185267857
 20
85.395009946
 10
52.4185267857
 20
85.395009946
 10
52.3396577381
 20
85.4735069698
 10
52.3396577381
 20
85.4735069698
 10
52.1599702381
 20
85.5601885174
 10
52.1599702381
 20
85.5601885174
 10
51.626860119
 20
85.7361557793
 10
51.626860119
 20
85.7361557793
 10
51.4449404762
 20
85.8280456603
 10
51.4449404762
 20
85.8280456603
 10
51.4073660714
 20
85.8633879222
 10
51.3712797619
 20
85.8987301841
 10
51.3712797619
 20
85.8987301841
 10
51.3504464286
 20
85.9199355412
 10
51.334077381
 20
85.940024827
 10
51.3218005952
 20
85.9589980412
 10
51.314360119
 20
85.9772272079
 10
51.314360119
 20
85.9772272079
 10
51.3080357143
 20
85.9909920889
 10
51.2994791667
 20
86.0081051841
 10
51.2894345238
 20
86.0289385174
 10
51.2775297619
 20
86.0527480412
 10
51.265625
 20
86.0769295889
 10
51.2548363095
 20
86.098134946
 10
51.2459077381
 20
86.1159920889
 10
51.2380952381
 20
86.1312450651
 10
51.2380952381
 20
86.1312450651
 10
51.2380952381
 20
86.3343700651
 10
51.2380952381
 20
86.3343700651
 10
51.244047619
 20
86.3537153031
 10
51.2611607143
 20
86.3734325651
 10
51.271577381
 20
86.3827331603
 10
51.279389881
 20
86.3894295889
 10
51.2845982143
 20
86.3942658984
 10
51.287202381
 20
86.3964980412
 10
51.287202381
 20
86.3964980412
 10
51.4378720238
 20
86.5482837555
 10
51.4378720238
 20
86.5482837555
 10
51.4568452381
 20
86.559072446
 10
51.4568452381
 20
86.559072446
 10
51.4813988095
 20
86.5676289936
 10
51.5093005952
 20
86.5769295889
 10
51.5398065476
 20
86.5869742317
 10
51.5732886905
 20
86.5977629222
 10
51.609375
 20
86.6092956603
 10
51.6488095238
 20
86.621572446
 10
51.6908482143
 20
86.6345932793
 10
51.7358630952
 20
86.6483581603
 10
51.7358630952
 20
86.6483581603
 10
51.7466517857
 20
86.650962327
 10
51.7466517857
 20
86.650962327
 10
52.126860119
 20
86.6483581603
  0
LWPOLYLINE
  5
AC
330
1F
100
AcDbEntity
  8
0
  6
Continuous
 62
     7
100
AcDbPolyline
 90
       87
 70
   128
 43
0.0
 10
54.0063083172
 20
85.9121230412
 10
54.0952380952
 20
85.8243254222
 10
54.0952380952
 20
85.8243254222
 10
54.0952380952
 20
85.9675545889
 10
54.0952380952
 20
85.9675545889
 10
54.1015625
 20
85.9831795889
 10
54.1116071429
 20
85.9950843508
 10
54.1257440476
 20
86.0036408984
 10
54.1436011905
 20
86.0081051841
 10
54.1436011905
 20
86.0081051841
 10
54.1655505952
 20
86.0066170889
 10
54.1837797619
 20
86.0021528031
 10
54.1982886905
 20
85.9943403031
 10
54.2087053571
 20
85.9839236365
 10
54.2087053571
 20
85.9839236365
 10
54.2142857143
 20
85.9623462555
 10
54.2142857143
 20
85.9623462555
 10
54.2142857143
 20
84.6967212555
 10
54.2142857143
 20
84.6967212555
 10
54.2098214286
 20
84.6818403031
 10
54.2023809524
 20
84.6691914936
 10
54.1915922619
 20
84.658774827
 10
54.1774553571
 20
84.650962327
 10
54.1774553571
 20
84.650962327
 10
54.1458333333
 20
84.6535664936
 10
54.1212797619
 20
84.660634946
 10
54.1045386905
 20
84.6729117317
 10
54.0952380952
 20
84.6896528031
 10
54.0952380952
 20
84.6896528031
 10
54.0970982143
 20
84.7216468508
 10
54.0985863095
 20
84.7495486365
 10
54.099702381
 20
84.7729861365
 10
54.1000744048
 20
84.7919593508
 10
54.099702381
 20
84.8068403031
 10
54.0985863095
 20
84.8176289936
 10
54.0970982143
 20
84.8239533984
 10
54.0952380952
 20
84.8261855412
 10
54.0952380952
 20
84.8261855412
 10
54.0033482143
 20
84.7435962555
 10
54.0033482143
 20
84.7435962555
 10
53.9657738095
 20
84.7253670889
 10
53.9203869048
 20
84.7037897079
 10
53.8675595238
 20
84.6788641127
 10
53.806547619
 20
84.650962327
 10
53.806547619
 20
84.650962327
 10
53.509672619
 20
84.650962327
 10
53.509672619
 20
84.650962327
 10
53.3151041667
 20
84.7450843508
 10
53.3151041667
 20
84.7450843508
 10
53.1209077381
 20
84.9411408984
 10
53.1209077381
 20
84.9411408984
 10
53.1123511905
 20
84.9668105412
 10
53.1026785714
 20
84.9954563746
 10
53.0922619048
 20
85.0270783984
 10
53.0803571429
 20
85.0613045889
 10
53.0677083333
 20
85.0988789936
 10
53.0543154762
 20
85.1390575651
 10
53.0394345238
 20
85.1825843508
 10
53.0238095238
 20
85.2287153031
 10
53.0238095238
 20
85.2287153031
 10
53.0238095238
 20
85.4355605412
 10
53.0238095238
 20
85.4355605412
 10
53.0394345238
 20
85.4798313746
 10
53.0539434524
 20
85.5214980412
 10
53.0673363095
 20
85.5601885174
 10
53.079985119
 20
85.596274827
 10
53.0911458333
 20
85.629384946
 10
53.1011904762
 20
85.6598908984
 10
53.1104910714
 20
85.6874206603
 10
53.1183035714
 20
85.7123462555
 10
53.1183035714
 20
85.7123462555
 10
53.1212797619
 20
85.715322446
 10
53.1305803571
 20
85.7246230412
 10
53.1458333333
 20
85.7398760174
 10
53.1674107143
 20
85.7614533984
 10
53.1953125
 20
85.7889831603
 10
53.2291666667
 20
85.822837327
 10
53.2689732143
 20
85.8626438746
 10
53.3151041667
 20
85.908774827
 10
53.3151041667
 20
85.908774827
 10
53.509672619
 20
86.0055010174
 10
53.509672619
 20
86.0055010174
 10
53.5230654762
 20
86.0081051841
 10
53.5230654762
 20
86.0081051841
 10
53.8117559524
 20
86.0055010174
 10
53.8117559524
 20
86.0055010174
 10
54.0063244048
 20
85.9121230412
  0
LWPOLYLINE
  5
AD
330
1F
100
AcDbEntity
  8
0
  6
Continuous
 62
     7
100
AcDbPolyline
 90
       28
 70
   128
 43
0.0
 10
53.939729929
 20
85.8116766127
 10
53.7868303571
 20
85.8890575651
 10
53.7868303571
 20
85.8890575651
 10
53.5398065476
 20
85.8890575651
 10
53.5398065476
 20
85.8890575651
 10
53.3843005952
 20
85.8116766127
 10
53.3843005952
 20
85.8116766127
 10
53.2261904762
 20
85.6546825651
 10
53.2261904762
 20
85.6546825651
 10
53.1428571429
 20
85.4173313746
 10
53.1428571429
 20
85.4173313746
 10
53.1428571429
 20
85.2495486365
 10
53.1428571429
 20
85.2495486365
 10
53.2232142857
 20
85.0069891127
 10
53.2232142857
 20
85.0069891127
 10
53.3816964286
 20
84.8499950651
 10
53.3816964286
 20
84.8499950651
 10
53.5398065476
 20
84.770009946
 10
53.5398065476
 20
84.770009946
 10
53.7838541667
 20
84.770009946
 10
53.7838541667
 20
84.770009946
 10
53.9397321429
 20
84.8473908984
 10
53.9397321429
 20
84.8473908984
 10
54.0952380952
 20
84.9991766127
 10
54.0952380952
 20
84.9991766127
 10
54.0952380952
 20
85.6598908984
 10
54.0952380952
 20
85.6598908984
 10
53.9397321429
 20
85.8116766127
  0
LWPOLYLINE
  5
AE
330
1F
100
AcDbEntity
  8
0
  6
Continuous
 62
     7
100
AcDbPolyline
 90
       86
 70
   128
 43
0.0
 10
55.1190376282
 20
86.6037153031
 10
55.119047619
 20
86.0081051841
 10
55.119047619
 20
86.0081051841
 10
55.4375
 20
86.0081051841
 10
55.4375
 20
86.0081051841
 10
55.4534970238
 20
86.0021528031
 10
55.4654017857
 20
85.9921081603
 10
55.4739583333
 20
85.9787153031
 10
55.478422619
 20
85.9616022079
 10
55.478422619
 20
85.9616022079
 10
55.4769345238
 20
85.940024827
 10
55.4724702381
 20
85.9225397079
 10
55.4646577381
 20
85.9080307793
 10
55.4538690476
 20
85.8976141127
 10
55.4538690476
 20
85.8976141127
 10
55.4322916667
 20
85.8890575651
 10
55.4322916667
 20
85.8890575651
 10
55.119047619
 20
85.8890575651
 10
55.119047619
 20
85.8890575651
 10
55.119047619
 20
85.0676289936
 10
55.119047619
 20
85.0676289936
 10
55.1979166667
 20
84.8392063746
 10
55.1979166667
 20
84.8392063746
 10
55.3448660714
 20
84.770009946
 10
55.3448660714
 20
84.770009946
 10
55.5245535714
 20
84.770009946
 10
55.5245535714
 20
84.770009946
 10
55.5446428571
 20
84.7629414936
 10
55.5591517857
 20
84.7510367317
 10
55.5677083333
 20
84.7331795889
 10
55.5706845238
 20
84.7104861365
 10
55.5706845238
 20
84.7104861365
 10
55.5688244048
 20
84.6907688746
 10
55.5625
 20
84.6766319698
 10
55.5625
 20
84.6766319698
 10
55.5461309524
 20
84.6602629222
 10
55.5241815476
 20
84.650962327
 10
55.5241815476
 20
84.650962327
 10
55.3128720238
 20
84.650962327
 10
55.3128720238
 20
84.650962327
 10
55.115327381
 20
84.7473164936
 10
55.115327381
 20
84.7473164936
 10
55.1052827381
 20
84.754384946
 10
55.0974702381
 20
84.7648016127
 10
55.0915178571
 20
84.7785664936
 10
55.087797619
 20
84.7956795889
 10
55.087797619
 20
84.7956795889
 10
55.079985119
 20
84.8176289936
 10
55.0710565476
 20
84.8425545889
 10
55.0613839286
 20
84.8704563746
 10
55.0509672619
 20
84.900962327
 10
55.0394345238
 20
84.934072446
 10
55.0271577381
 20
84.9697867317
 10
55.0141369048
 20
85.0084772079
 10
55.0
 20
85.0501438746
 10
55.0
 20
85.0501438746
 10
55.0
 20
85.8890575651
 10
55.0
 20
85.8890575651
 10
54.783110119
 20
85.8890575651
 10
54.783110119
 20
85.8890575651
 10
54.767485119
 20
85.8953819698
 10
54.7552083333
 20
85.9039385174
 10
54.7462797619
 20
85.9139831603
 10
54.7406994048
 20
85.9258879222
 10
54.7406994048
 20
85.9258879222
 10
54.7388392857
 20
85.9366766127
 10
54.7380952381
 20
85.9515575651
 10
54.7380952381
 20
85.9515575651
 10
54.7418154762
 20
85.9738789936
 10
54.7526041667
 20
85.9895039936
 10
54.7682291667
 20
86.0006647079
 10
54.7857142857
 20
86.0081051841
 10
54.7857142857
 20
86.0081051841
 10
55.0
 20
86.0081051841
 10
55.0
 20
86.0081051841
 10
55.0
 20
86.611899827
 10
55.0
 20
86.611899827
 10
55.005952381
 20
86.6267807793
 10
55.0159970238
 20
86.6383135174
 10
55.029389881
 20
86.6464980412
 10
55.0465029762
 20
86.650962327
 10
55.0465029762
 20
86.650962327
 10
55.0751488095
 20
86.6479861365
 10
55.0967261905
 20
86.6390575651
 10
55.111235119
 20
86.6245486365
 10
55.119047619
 20
86.6037153031
  0
LINE
  5
DF
330
1F
100
AcDbEntity
  8
0
  6
Continuous
 62
     7
370
    25
100
AcDbLine
 10
57.0131
 20
52.25
 30
0.0
 11
52.25
 21
52.25
 31
0.0
  0
LINE
  5
E0
330
1F
100
AcDbEntity
  8
0
  6
Continuous
 62
     7
370
    25
100
AcDbLine
 10
52.25
 20
52.25
 30
0.0
 11
52.25
 21
57.0131
 31
0.0
  0
LINE
  5
E1
330
1F
100
AcDbEntity
  8
0
  6
Continuous
 62
     7
370
    25
100
AcDbLine
 10
52.25
 20
57.0131
 30
0.0
 11
47.75
 21
57.0131
 31
0.0
  0
LINE
  5
E2
330
1F
100
AcDbEntity
  8
0
  6
Continuous
 62
     7
370
    25
100
AcDbLine
 10
47.75
 20
57.0131
 30
0.0
 11
47.75
 21
52.25
 31
0.0
  0
LINE
  5
E3
330
1F
100
AcDbEntity
  8
0
  6
Continuous
 62
     7
370
    25
100
AcDbLine
 10
47.75
 20
52.25
 30
0.0
 11
42.9869
 21
52.25
 31
0.0
  0
LINE
  5
E4
330
1F
100
AcDbEntity
  8
0
  6
Continuous
 62
     7
370
    25
100
AcDbLine
 10
42.9869
 20
52.25
 30
0.0
 11
42.9869
 21
47.75
 31
0.0
  0
LINE
  5
E5
330
1F
100
AcDbEntity
  8
0
  6
Continuous
 62
     7
370
    25
100
AcDbLine
 10
42.9869
 20
47.75
 30
0.0
 11
47.75
 21
47.75
 31
0.0
  0
LINE
  5
E6
330
1F
100
AcDbEntity
  8
0
  6
Continuous
 62
     7
370
    25
100
AcDbLine
 10
47.75
 20
47.75
 30
0.0
 11
47.75
 21
42.9869
 31
0.0
  0
LINE
  5
E7
330
1F
100
AcDbEntity
  8
0
  6
Continuous
 62
     7
370
    25
100
AcDbLine
 10
47.75
 20
42.9869
 30
0.0
 11
52.25
 21
42.9869
 31
0.0
  0
LINE
  5
E8
330
1F
100
AcDbEntity
  8
0
  6
Continuous
 62
     7
370
    25
100
AcDbLine
 10
52.25
 20
42.9869
 30
0.0
 11
52.25
 21
47.75
 31
0.0
  0
LINE
  5
E9
330
1F
100
AcDbEntity
  8
0
  6
Continuous
 62
     7
370
    25
100
AcDbLine
 10
52.25
 20
47.75
 30
0.0
 11
57.0131
 21
47.75
 31
0.0
  0
LINE
  5
EA
330
1F
100
AcDbEntity
  8
0
  6
Continuous
 62
     7
370
    25
100
AcDbLine
 10
57.0131
 20
47.75
 30
0.0
 11
57.0131
 21
52.25
 31
0.0
  0
LINE
  5
EB
330
1F
100
AcDbEntity
  8
0
  6
Continuous
 62
     7
370
    25
100
AcDbLine
 10
97.0
 20
79.9
 30
0.0
 11
97.0
 21
60.1
 31
0.0
  0
LINE
  5
EC
330
1F
100
AcDbEntity
  8
0
  6
Continuous
 62
     7
370
    25
100
AcDbLine
 10
100.0
 20
60.1
 30
0.0
 11
97.0
 21
60.1
 31
0.0
  0
LINE
  5
ED
330
1F
100
AcDbEntity
  8
0
  6
Continuous
 62
     7
370
    25
100
AcDbLine
 10
100.0
 20
39.9
 30
0.0
 11
100.0
 21
60.1
 31
0.0
  0
LINE
  5
EE
330
1F
100
AcDbEntity
  8
0
  6
Continuous
 62
     7
370
    25
100
AcDbLine
 10
100.0
 20
39.9
 30
0.0
 11
97.0
 21
39.9
 31
0.0
  0
LINE
  5
EF
330
1F
100
AcDbEntity
  8
0
  6
Continuous
 62
     7
370
    25
100
AcDbLine
 10
97.0
 20
39.9
 30
0.0
 11
97.0
 21
20.1
 31
0.0
  0
LINE
  5
F0
330
1F
100
AcDbEntity
  8
0
  6
Continuous
 62
     7
370
    25
100
AcDbLine
 10
100.0
 20
20.1
 30
0.0
 11
97.0
 21
20.1
 31
0.0
  0
LINE
  5
F1
330
1F
100
AcDbEntity
  8
0
  6
Continuous
 62
     7
370
    25
100
AcDbLine
 10
100.0
 20
0.0
 30
0.0
 11
100.0
 21
20.1
 31
0.0
  0
LINE
  5
F2
330
1F
100
AcDbEntity
  8
0
  6
Continuous
 62
     7
370
    25
100
AcDbLine
 10
79.9
 20
0.0
 30
0.0
 11
100.0
 21
0.0
 31
0.0
  0
LINE
  5
F3
330
1F
100
AcDbEntity
  8
0
  6
Continuous
 62
     7
370
    25
100
AcDbLine
 10
79.9
 20
0.0
 30
0.0
 11
79.9
 21
3.0
 31
0.0
  0
LINE
  5
F4
330
1F
100
AcDbEntity
  8
0
  6
Continuous
 62
     7
370
    25
100
AcDbLine
 10
60.1
 20
3.0
 30
0.0
 11
79.9
 21
3.0
 31
0.0
  0
LINE
  5
F5
330
1F
100
AcDbEntity
  8
0
  6
Continuous
 62
     7
370
    25
100
AcDbLine
 10
60.1
 20
0.0
 30
0.0
 11
60.1
 21
3.0
 31
0.0
  0
LINE
  5
F6
330
1F
100
AcDbEntity
  8
0
  6
Continuous
 62
     7
370
    25
100
AcDbLine
 10
39.9
 20
0.0
 30
0.0
 11
60.1
 21
0.0
 31
0.0
  0
LINE
  5
F7
330
1F
100
AcDbEntity
  8
0
  6
Continuous
 62
     7
370
    25
100
AcDbLine
 10
39.9
 20
0.0
 30
0.0
 11
39.9
 21
3.0
 31
0.0
  0
LINE
  5
F8
330
1F
100
AcDbEntity
  8
0
  6
Continuous
 62
     7
370
    25
100
AcDbLine
 10
20.1
 20
3.0
 30
0.0
 11
39.9
 21
3.0
 31
0.0
  0
LINE
  5
F9
330
1F
100
AcDbEntity
  8
0
  6
Continuous
 62
     7
370
    25
100
AcDbLine
 10
20.1
 20
0.0
 30
0.0
 11
20.1
 21
3.0
 31
0.0
  0
LINE
  5
FA
330
1F
100
AcDbEntity
  8
0
  6
Continuous
 62
     7
370
    25
100
AcDbLine
 10
0.0
 20
0.0
 30
0.0
 11
20.1
 21
0.0
 31
0.0
  0
LINE
  5
FB
330
1F
100
AcDbEntity
  8
0
  6
Continuous
 62
     7
370
    25
100
AcDbLine
 10
0.0
 20
0.0
 30
0.0
 11
0.0
 21
20.1
 31
0.0
  0
LINE
  5
FC
330
1F
100
AcDbEntity
  8
0
  6
Continuous
 62
     7
370
    25
100
AcDbLine
 10
0.0
 20
20.1
 30
0.0
 11
3.0
 21
20.1
 31
0.0
  0
LINE
  5
FD
330
1F
100
AcDbEntity
  8
0
  6
Continuous
 62
     7
370
    25
100
AcDbLine
 10
3.0
 20
39.9
 30
0.0
 11
3.0
 21
20.1
 31
0.0
  0
LINE
  5
FE
330
1F
100
AcDbEntity
  8
0
  6
Continuous
 62
     7
370
    25
100
AcDbLine
 10
0.0
 20
39.9
 30
0.0
 11
3.0
 21
39.9
 31
0.0
  0
LINE
  5
FF
330
1F
100
AcDbEntity
  8
0
  6
Continuous
 62
     7
370
    25
100
AcDbLine
 10
0.0
 20
39.9
 30
0.0
 11
0.0
 21
60.1
 31
0.0
  0
LINE
  5
100
330
1F
100
AcDbEntity
  8
0
  6
Continuous
 62
     7
370
    25
100
AcDbLine
 10
0.0
 20
60.1
 30
0.0
 11
3.0
 21
60.1
 31
0.0
  0
LINE
  5
101
330
1F
100
AcDbEntity
  8
0
  6
Continuous
 62
     7
370
    25
100
AcDbLine
 10
3.0
 20
79.9
 30
0.0
 11
3.0
 21
60.1
 31
0.0
  0
LINE
  5
102
330
1F
100
AcDbEntity
  8
0
  6
Continuous
 62
     7
370
    25
100
AcDbLine
 10
0.0
 20
79.9
 30
0.0
 11
3.0
 21
79.9
 31
0.0
  0
LINE
  5
103
330
1F
100
AcDbEntity
  8
0
  6
Continuous
 62
     7
370
    25
100
AcDbLine
 10
0.0
 20
79.9
 30
0.0
 11
0.0
 21
100.0
 31
0.0
  0
LINE
  5
104
330
1F
100
AcDbEntity
  8
0
  6
Continuous
 62
     7
370
    25
100
AcDbLine
 10
0.0
 20
100.0
 30
0.0
 11
20.1
 21
100.0
 31
0.0
  0
LINE
  5
105
330
1F
100
AcDbEntity
  8
0
  6
Continuous
 62
     7
370
    25
100
AcDbLine
 10
20.1
 20
100.0
 30
0.0
 11
20.1
 21
97.0
 31
0.0
  0
LINE
  5
106
330
1F
100
AcDbEntity
  8
0
  6
Continuous
 62
     7
370
    25
100
AcDbLine
 10
20.1
 20
97.0
 30
0.0
 11
39.9
 21
97.0
 31
0.0
  0
LINE
  5
107
330
1F
100
AcDbEntity
  8
0
  6
Continuous
 62
     7
370
    25
100
AcDbLine
 10
39.9
 20
100.0
 30
0.0
 11
39.9
 21
97.0
 31
0.0
  0
LINE
  5
108
330
1F
100
AcDbEntity
  8
0
  6
Continuous
 62
     7
370
    25
100
AcDbLine
 10
39.9
 20
100.0
 30
0.0
 11
60.1
 21
100.0
 31
0.0
  0
LINE
  5
109
330
1F
100
AcDbEntity
  8
0
  6
Continuous
 62
     7
370
    25
100
AcDbLine
 10
60.1
 20
100.0
 30
0.0
 11
60.1
 21
97.0
 31
0.0
  0
LINE
  5
10A
330
1F
100
AcDbEntity
  8
0
  6
Continuous
 62
     7
370
    25
100
AcDbLine
 10
60.1
 20
97.0
 30
0.0
 11
79.9
 21
97.0
 31
0.0
  0
LINE
  5
10B
330
1F
100
AcDbEntity
  8
0
  6
Continuous
 62
     7
370
    25
100
AcDbLine
 10
79.9
 20
100.0
 30
0.0
 11
79.9
 21
97.0
 31
0.0
  0
LINE
  5
10C
330
1F
100
AcDbEntity
  8
0
  6
Continuous
 62
     7
370
    25
100
AcDbLine
 10
79.9
 20
100.0
 30
0.0
 11
100.0
 21
100.0
 31
0.0
  0
LINE
  5
10D
330
1F
100
AcDbEntity
  8
0
  6
Continuous
 62
     7
370
    25
100
AcDbLine
 10
100.0
 20
79.9
 30
0.0
 11
100.0
 21
100.0
 31
0.0
  0
LINE
  5
10E
330
1F
100
AcDbEntity
  8
0
  6
Continuous
 62
     7
370
    25
100
AcDbLine
 10
100.0
 20
79.9
 30
0.0
 11
97.0
 21
79.9
 31
0.0
  0
MTEXT
  5
110
330
1F
100
AcDbEntity
  8
0
  6
Continuous
 62
     7
100
AcDbMText
 10
0.0
 20
-1.0195663917
 30
0.0
 40
4.83362
 41
0.0
 71
     1
 72
     1
  1
SOLIDWORKS Educational Product.
  7
SLDTEXTSTYLE0
 73
     1
 44
1.0
  0
MTEXT
  5
111
330
1F
100
AcDbEntity
  8
0
  6
Continuous
 62
     7
100
AcDbMText
 10
0.0
 20
-8.2699963917
 30
0.0
 40
4.83362
 41
0.0
 71
     1
 72
     1
  1
For Instructional Use Only.
  7
SLDTEXTSTYLE0
 73
     1
 44
1.0
  0
ENDSEC
  0
SECTION
  2
OBJECTS
  0
DICTIONARY
  5
C
330
0
100
AcDbDictionary
281
     1
  3
ACAD_GROUP
350
D
  3
ACAD_LAYOUT
350
1A
  3
ACAD_MLINESTYLE
350
17
  3
ACAD_PLOTSETTINGS
350
19
  3
ACAD_PLOTSTYLENAME
350
E
  3
ACAD_SCALELIST
350
47
  0
DICTIONARY
  5
D
102
{ACAD_REACTORS
330
C
102
}
330
C
100
AcDbDictionary
281
     1
  0
DICTIONARY
  5
1A
102
{ACAD_REACTORS
330
C
102
}
330
C
100
AcDbDictionary
281
     1
  3
Layout1
350
1E
  3
Layout2
350
26
  3
Model
350
22
  0
DICTIONARY
  5
17
102
{ACAD_REACTORS
330
C
102
}
330
C
100
AcDbDictionary
281
     1
  3
Standard
350
18
  0
DICTIONARY
  5
19
102
{ACAD_REACTORS
330
C
102
}
330
C
100
AcDbDictionary
281
     1
  0
ACDBDICTIONARYWDFLT
  5
E
102
{ACAD_REACTORS
330
C
102
}
330
C
100
AcDbDictionary
281
     1
  3
Normal
350
F
100
AcDbDictionaryWithDefault
340
F
  0
DICTIONARY
  5
47
102
{ACAD_REACTORS
330
C
102
}
330
C
100
AcDbDictionary
281
     1
  3
A0
350
48
  3
A1
350
49
  3
A2
350
4A
  3
A3
350
4B
  3
A4
350
4C
  3
A5
350
4D
  3
A6
350
4E
  3
A7
350
4F
  3
A8
350
50
  3
A9
350
51
  3
B0
350
52
  3
B1
350
53
  3
B2
350
54
  3
B3
350
55
  3
B4
350
56
  3
B5
350
57
  3
B6
350
58
  3
B7
350
59
  3
B8
350
5A
  3
B9
350
5B
  3
C0
350
5C
  3
C1
350
5D
  3
C2
350
5E
  3
C3
350
5F
  3
C4
350
60
  3
C5
350
61
  3
C6
350
62
  3
C7
350
63
  3
C8
350
64
  3
C9
350
65
  3
D0
350
66
  3
D1
350
67
  3
D2
350
68
  0
LAYOUT
  5
1E
102
{ACAD_REACTORS
330
1A
102
}
330
1A
100
AcDbPlotSettings
  1

  2
none_device
  4

  6

 40
0.0
 41
0.0
 42
0.0
 43
0.0
 44
0.0
 45
0.0
 46
0.0
 47
0.0
 48
0.0
 49
0.0
140
0.0
141
0.0
142
1.0
143
1.0
 70
   688
 72
     1
 73
     0
 74
     5
  7

 75
    16
147
1.0
148
0.0
149
0.0
100
AcDbLayout
  1
Layout1
 70
     1
 71
     1
 10
0.0
 20
0.0
 11
420.0
 21
297.0
 12
0.0
 22
0.0
 32
0.0
 14
1.0000000000E+20
 24
1.0000000000E+20
 34
1.0000000000E+20
 15
-1.0000000000E+20
 25
-1.0000000000E+20
 35
-1.0000000000E+20
146
0.0
 13
0.0
 23
0.0
 33
0.0
 16
1.0
 26
0.0
 36
0.0
 17
0.0
 27
1.0
 37
0.0
 76
     0
330
1B
  0
LAYOUT
  5
26
102
{ACAD_REACTORS
330
1A
102
}
330
1A
100
AcDbPlotSettings
  1

  2
none_device
  4

  6

 40
0.0
 41
0.0
 42
0.0
 43
0.0
 44
0.0
 45
0.0
 46
0.0
 47
0.0
 48
0.0
 49
0.0
140
0.0
141
0.0
142
1.0
143
1.0
 70
   688
 72
     1
 73
     0
 74
     5
  7

 75
    16
147
1.0
148
0.0
149
0.0
100
AcDbLayout
  1
Layout2
 70
     1
 71
     2
 10
0.0
 20
0.0
 11
0.0
 21
0.0
 12
0.0
 22
0.0
 32
0.0
 14
0.0
 24
0.0
 34
0.0
 15
0.0
 25
0.0
 35
0.0
146
0.0
 13
0.0
 23
0.0
 33
0.0
 16
1.0
 26
0.0
 36
0.0
 17
0.0
 27
1.0
 37
0.0
 76
     0
330
23
  0
LAYOUT
  5
22
102
{ACAD_REACTORS
330
1A
102
}
330
1A
100
AcDbPlotSettings
  1

  2
none_device
  4
ANSI_A_(11.00_x_8.50_Inches)
  6

 40
6.35
 41
19.05
 42
6.35000508
 43
19.05000254
 44
279.4
 45
215.9
 46
26.47949746
 47
-17.97050127
 48
0.0
 49
0.0
140
0.0
141
0.0
142
0.08415
143
1.0
 70
  1696
 72
     0
 73
     0
 74
     0
  7

 75
     0
147
0.0179189148
148
-1300.4909072572
149
0.0
100
AcDbLayout
  1
Model
 70
     1
 71
     0
 10
0.0
 20
0.0
 11
420.0
 21
297.0
 12
0.0
 22
0.0
 32
0.0
 14
0.0
 24
0.0
 34
0.0
 15
100.0
 25
100.0
 35
0.0
146
0.0
 13
0.0
 23
0.0
 33
0.0
 16
1.0
 26
0.0
 36
0.0
 17
0.0
 27
1.0
 37
0.0
 76
     0
330
1F
331
29
  0
MLINESTYLE
  5
18
102
{ACAD_REACTORS
330
17
102
}
330
17
100
AcDbMlineStyle
  2
Standard
 70
     0
  3

 62
   256
 51
90.0
 52
90.0
 71
     2
 49
0.5
 62
   256
  6
BYLAYER
 49
-0.5
 62
   256
  6
BYLAYER
  0
ACDBPLACEHOLDER
  5
F
102
{ACAD_REACTORS
330
E
102
}
330
E
  0
SCALE
  5
48
102
{ACAD_REACTORS
330
47
102
}
330
47
100
AcDbScale
 70
     0
300
1:1
140
1.0
141
1.0
290
     1
  0
SCALE
  5
49
102
{ACAD_REACTORS
330
47
102
}
330
47
100
AcDbScale
 70
     0
300
1:2
140
1.0
141
2.0
290
     0
  0
SCALE
  5
4A
102
{ACAD_REACTORS
330
47
102
}
330
47
100
AcDbScale
 70
     0
300
1:4
140
1.0
141
4.0
290
     0
  0
SCALE
  5
4B
102
{ACAD_REACTORS
330
47
102
}
330
47
100
AcDbScale
 70
     0
300
1:5
140
1.0
141
5.0
290
     0
  0
SCALE
  5
4C
102
{ACAD_REACTORS
330
47
102
}
330
47
100
AcDbScale
 70
     0
300
1:8
140
1.0
141
8.0
290
     0
  0
SCALE
  5
4D
102
{ACAD_REACTORS
330
47
102
}
330
47
100
AcDbScale
 70
     0
300
1:10
140
1.0
141
10.0
290
     0
  0
SCALE
  5
4E
102
{ACAD_REACTORS
330
47
102
}
330
47
100
AcDbScale
 70
     0
300
1:16
140
1.0
141
16.0
290
     0
  0
SCALE
  5
4F
102
{ACAD_REACTORS
330
47
102
}
330
47
100
AcDbScale
 70
     0
300
1:20
140
1.0
141
20.0
290
     0
  0
SCALE
  5
50
102
{ACAD_REACTORS
330
47
102
}
330
47
100
AcDbScale
 70
     0
300
1:30
140
1.0
141
30.0
290
     0
  0
SCALE
  5
51
102
{ACAD_REACTORS
330
47
102
}
330
47
100
AcDbScale
 70
     0
300
1:40
140
1.0
141
40.0
290
     0
  0
SCALE
  5
52
102
{ACAD_REACTORS
330
47
102
}
330
47
100
AcDbScale
 70
     0
300
1:50
140
1.0
141
50.0
290
     0
  0
SCALE
  5
53
102
{ACAD_REACTORS
330
47
102
}
330
47
100
AcDbScale
 70
     0
300
1:100
140
1.0
141
100.0
290
     0
  0
SCALE
  5
54
102
{ACAD_REACTORS
330
47
102
}
330
47
100
AcDbScale
 70
     0
300
2:1
140
2.0
141
1.0
290
     0
  0
SCALE
  5
55
102
{ACAD_REACTORS
330
47
102
}
330
47
100
AcDbScale
 70
     0
300
4:1
140
4.0
141
1.0
290
     0
  0
SCALE
  5
56
102
{ACAD_REACTORS
330
47
102
}
330
47
100
AcDbScale
 70
     0
300
8:1
140
8.0
141
1.0
290
     0
  0
SCALE
  5
57
102
{ACAD_REACTORS
330
47
102
}
330
47
100
AcDbScale
 70
     0
300
10:1
140
10.0
141
1.0
290
     0
  0
SCALE
  5
58
102
{ACAD_REACTORS
330
47
102
}
330
47
100
AcDbScale
 70
     0
300
100:1
140
100.0
141
1.0
290
     0
  0
SCALE
  5
59
102
{ACAD_REACTORS
330
47
102
}
330
47
100
AcDbScale
 70
     0
300
1/128" = 1'-0"
140
0.0078125
141
12.0
290
     0
  0
SCALE
  5
5A
102
{ACAD_REACTORS
330
47
102
}
330
47
100
AcDbScale
 70
     0
300
1/64" = 1'-0"
140
0.015625
141
12.0
290
     0
  0
SCALE
  5
5B
102
{ACAD_REACTORS
330
47
102
}
330
47
100
AcDbScale
 70
     0
300
1/32" = 1'-0"
140
0.03125
141
12.0
290
     0
  0
SCALE
  5
5C
102
{ACAD_REACTORS
330
47
102
}
330
47
100
AcDbScale
 70
     0
300
1/16" = 1'-0"
140
0.0625
141
12.0
290
     0
  0
SCALE
  5
5D
102
{ACAD_REACTORS
330
47
102
}
330
47
100
AcDbScale
 70
     0
300
3/32" = 1'-0"
140
0.09375
141
12.0
290
     0
  0
SCALE
  5
5E
102
{ACAD_REACTORS
330
47
102
}
330
47
100
AcDbScale
 70
     0
300
1/8" = 1'-0"
140
0.125
141
12.0
290
     0
  0
SCALE
  5
5F
102
{ACAD_REACTORS
330
47
102
}
330
47
100
AcDbScale
 70
     0
300
3/16" = 1'-0"
140
0.1875
141
12.0
290
     0
  0
SCALE
  5
60
102
{ACAD_REACTORS
330
47
102
}
330
47
100
AcDbScale
 70
     0
300
1/4" = 1'-0"
140
0.25
141
12.0
290
     0
  0
SCALE
  5
61
102
{ACAD_REACTORS
330
47
102
}
330
47
100
AcDbScale
 70
     0
300
3/8" = 1'-0"
140
0.375
141
12.0
290
     0
  0
SCALE
  5
62
102
{ACAD_REACTORS
330
47
102
}
330
47
100
AcDbScale
 70
     0
300
1/2" = 1'-0"
140
0.5
141
12.0
290
     0
  0
SCALE
  5
63
102
{ACAD_REACTORS
330
47
102
}
330
47
100
AcDbScale
 70
     0
300
3/4" = 1'-0"
140
0.75
141
12.0
290
     0
  0
SCALE
  5
64
102
{ACAD_REACTORS
330
47
102
}
330
47
100
AcDbScale
 70
     0
300
1" = 1'-0"
140
1.0
141
12.0
290
     0
  0
SCALE
  5
65
102
{ACAD_REACTORS
330
47
102
}
330
47
100
AcDbScale
 70
     0
300
1-1/2" = 1'-0"
140
1.5
141
12.0
290
     0
  0
SCALE
  5
66
102
{ACAD_REACTORS
330
47
102
}
330
47
100
AcDbScale
 70
     0
300
3" = 1'-0"
140
3.0
141
12.0
290
     0
  0
SCALE
  5
67
102
{ACAD_REACTORS
330
47
102
}
330
47
100
AcDbScale
 70
     0
300
6" = 1'-0"
140
6.0
141
12.0
290
     0
  0
SCALE
  5
68
102
{ACAD_REACTORS
330
47
102
}
330
47
100
AcDbScale
 70
     0
300
1'-0" = 1'-0"
140
12.0
141
12.0
290
     0
  0
ENDSEC
  0
EOF
