  0
SECTION
  2
HEADER
  9
$ACADVER
  1
AC1015
  9
$ACADMAINTVER
 70
     6
  9
$DWGCODEPAGE
  3
ANSI_1252
  9
$INSBASE
 10
0.0
 20
0.0
 30
0.0
  9
$EXTMIN
 10
0.0
 20
0.0
 30
0.0
  9
$EXTMAX
 10
80.0
 20
80.0
 30
0.0
  9
$LIMMIN
 10
0.0
 20
0.0
  9
$LIMMAX
 10
420.0
 20
297.0
  9
$ORTHOMODE
 70
     0
  9
$REGENMODE
 70
     1
  9
$FILLMODE
 70
     1
  9
$QTEXTMODE
 70
     0
  9
$MIRRTEXT
 70
     1
  9
$LTSCALE
 40
1.0
  9
$ATTMODE
 70
     1
  9
$TEXTSIZE
 40
3.175
  9
$TRACEWID
 40
1.0
  9
$TEXTSTYLE
  7
Standard
  9
$CLAYER
  8
0
  9
$CELTYPE
  6
ByLayer
  9
$CECOLOR
 62
   256
  9
$CELTSCALE
 40
1.0
  9
$DISPSILH
 70
     0
  9
$DIMSCALE
 40
1.0
  9
$DIMASZ
 40
3.302
  9
$DIMEXO
 40
0.0
  9
$DIMDLI
 40
3.75
  9
$DIMRND
 40
0.0
  9
$DIMDLE
 40
0.0
  9
$DIMEXE
 40
3.175
  9
$DIMTP
 40
0.0
  9
$DIMTM
 40
0.0
  9
$DIMTXT
 40
3.175
  9
$DIMCEN
 40
2.5
  9
$DIMTSZ
 40
0.0
  9
$DIMTOL
 70
     0
  9
$DIMLIM
 70
     0
  9
$DIMTIH
 70
     1
  9
$DIMTOH
 70
     1
  9
$DIMSE1
 70
     0
  9
$DIMSE2
 70
     0
  9
$DIMTAD
 70
     0
  9
$DIMZIN
 70
     1
  9
$DIMBLK
  1

  9
$DIMASO
 70
     1
  9
$DIMSHO
 70
     1
  9
$DIMPOST
  1

  9
$DIMAPOST
  1

  9
$DIMALT
 70
     0
  9
$DIMALTD
 70
     3
  9
$DIMALTF
 40
0.0393700787
  9
$DIMLFAC
 40
1.0
  9
$DIMTOFL
 70
     1
  9
$DIMTVP
 40
0.0
  9
$DIMTIX
 70
     0
  9
$DIMSOXD
 70
     0
  9
$DIMSAH
 70
     0
  9
$DIMBLK1
  1

  9
$DIMBLK2
  1

  9
$DIMSTYLE
  2
ISO-25
  9
$DIMCLRD
 70
     0
  9
$DIMCLRE
 70
     0
  9
$DIMCLRT
 70
     0
  9
$DIMTFAC
 40
1.0
  9
$DIMGAP
 40
1.524
  9
$DIMJUST
 70
     0
  9
$DIMSD1
 70
     0
  9
$DIMSD2
 70
     0
  9
$DIMTOLJ
 70
     0
  9
$DIMTZIN
 70
     1
  9
$DIMALTZ
 70
     0
  9
$DIMALTTZ
 70
     0
  9
$DIMUPT
 70
     0
  9
$DIMDEC
 70
     2
  9
$DIMTDEC
 70
     2
  9
$DIMALTU
 70
     2
  9
$DIMALTTD
 70
     3
  9
$DIMTXSTY
  7
Standard
  9
$DIMAUNIT
 70
     0
  9
$DIMADEC
 70
     2
  9
$DIMALTRND
 40
0.0
  9
$DIMAZIN
 70
     0
  9
$DIMDSEP
 70
    44
  9
$DIMATFIT
 70
     3
  9
$DIMFRAC
 70
     0
  9
$DIMLDRBLK
  1

  9
$DIMLUNIT
 70
     2
  9
$DIMLWD
 70
    -2
  9
$DIMLWE
 70
    -2
  9
$DIMTMOVE
 70
     0
  9
$LUNITS
 70
     2
  9
$LUPREC
 70
     2
  9
$SKETCHINC
 40
1.0
  9
$FILLETRAD
 40
10.0
  9
$AUNITS
 70
     0
  9
$AUPREC
 70
     2
  9
$MENU
  1
.
  9
$ELEVATION
 40
0.0
  9
$PELEVATION
 40
0.0
  9
$THICKNESS
 40
0.0
  9
$LIMCHECK
 70
     0
  9
$CHAMFERA
 40
0.0
  9
$CHAMFERB
 40
0.0
  9
$CHAMFERC
 40
0.0
  9
$CHAMFERD
 40
0.0
  9
$SKPOLY
 70
     0
  9
$TDCREATE
 40
2459321.563431886
  9
$TDUCREATE
 40
2459321.855098553
  9
$TDUPDATE
 40
2459321.563686539
  9
$TDUUPDATE
 40
2459321.855353206
  9
$TDINDWG
 40
0.0000000116
  9
$TDUSRTIMER
 40
0.0000000116
  9
$USRTIMER
 70
     1
  9
$ANGBASE
 50
0.0
  9
$ANGDIR
 70
     0
  9
$PDMODE
 70
     0
  9
$PDSIZE
 40
-1.0
  9
$PLINEWID
 40
0.0
  9
$SPLFRAME
 70
     0
  9
$SPLINETYPE
 70
     6
  9
$SPLINESEGS
 70
     8
  9
$HANDSEED
  5
161
  9
$SURFTAB1
 70
     6
  9
$SURFTAB2
 70
     6
  9
$SURFTYPE
 70
     6
  9
$SURFU
 70
     6
  9
$SURFV
 70
     6
  9
$UCSBASE
  2

  9
$UCSNAME
  2

  9
$UCSORG
 10
0.0
 20
0.0
 30
0.0
  9
$UCSXDIR
 10
1.0
 20
0.0
 30
0.0
  9
$UCSYDIR
 10
0.0
 20
1.0
 30
0.0
  9
$UCSORTHOREF
  2

  9
$UCSORTHOVIEW
 70
     0
  9
$UCSORGTOP
 10
0.0
 20
0.0
 30
0.0
  9
$UCSORGBOTTOM
 10
0.0
 20
0.0
 30
0.0
  9
$UCSORGLEFT
 10
0.0
 20
0.0
 30
0.0
  9
$UCSORGRIGHT
 10
0.0
 20
0.0
 30
0.0
  9
$UCSORGFRONT
 10
0.0
 20
0.0
 30
0.0
  9
$UCSORGBACK
 10
0.0
 20
0.0
 30
0.0
  9
$PUCSBASE
  2

  9
$PUCSNAME
  2

  9
$PUCSORG
 10
0.0
 20
0.0
 30
0.0
  9
$PUCSXDIR
 10
1.0
 20
0.0
 30
0.0
  9
$PUCSYDIR
 10
0.0
 20
1.0
 30
0.0
  9
$PUCSORTHOREF
  2

  9
$PUCSORTHOVIEW
 70
     0
  9
$PUCSORGTOP
 10
0.0
 20
0.0
 30
0.0
  9
$PUCSORGBOTTOM
 10
0.0
 20
0.0
 30
0.0
  9
$PUCSORGLEFT
 10
0.0
 20
0.0
 30
0.0
  9
$PUCSORGRIGHT
 10
0.0
 20
0.0
 30
0.0
  9
$PUCSORGFRONT
 10
0.0
 20
0.0
 30
0.0
  9
$PUCSORGBACK
 10
0.0
 20
0.0
 30
0.0
  9
$USERI1
 70
     0
  9
$USERI2
 70
     0
  9
$USERI3
 70
     0
  9
$USERI4
 70
     0
  9
$USERI5
 70
     0
  9
$USERR1
 40
0.0
  9
$USERR2
 40
0.0
  9
$USERR3
 40
0.0
  9
$USERR4
 40
0.0
  9
$USERR5
 40
0.0
  9
$WORLDVIEW
 70
     1
  9
$SHADEDGE
 70
     3
  9
$SHADEDIF
 70
    70
  9
$TILEMODE
 70
     1
  9
$MAXACTVP
 70
    64
  9
$PINSBASE
 10
0.0
 20
0.0
 30
0.0
  9
$PLIMCHECK
 70
     0
  9
$PEXTMIN
 10
0.0
 20
-2.0
 30
0.0
  9
$PEXTMAX
 10
80.0
 20
0.0
 30
0.0
  9
$PLIMMIN
 10
-6.2256809339
 20
-4.3346303502
  9
$PLIMMAX
 10
86.2256809339
 20
61.0350194553
  9
$UNITMODE
 70
     0
  9
$VISRETAIN
 70
     1
  9
$PLINEGEN
 70
     0
  9
$PSLTSCALE
 70
     1
  9
$TREEDEPTH
 70
  3020
  9
$CMLSTYLE
  2
Standard
  9
$CMLJUST
 70
     0
  9
$CMLSCALE
 40
20.0
  9
$PROXYGRAPHICS
 70
     1
  9
$MEASUREMENT
 70
     1
  9
$CELWEIGHT
370
    -1
  9
$ENDCAPS
280
     0
  9
$JOINSTYLE
280
     0
  9
$LWDISPLAY
290
     1
  9
$INSUNITS
 70
     4
  9
$HYPERLINKBASE
  1

  9
$STYLESHEET
  1

  9
$XEDIT
290
     1
  9
$CEPSNTYPE
380
     0
  9
$PSTYLEMODE
290
     1
  9
$FINGERPRINTGUID
  2
{81e1773d-90f7-4faa-930b-4daede57379d}
  9
$VERSIONGUID
  2
{FAEB1C32-E019-11D5-929B-00C0DF256EC4}
  9
$EXTNAMES
290
     1
  9
$PSVPSCALE
 40
0.0
  9
$OLESTARTUP
290
     0
  0
ENDSEC
  0
SECTION
  2
CLASSES
  0
CLASS
  1
ACDBDICTIONARYWDFLT
  2
AcDbDictionaryWithDefault
  3
ObjectDBX Classes
 90
        0
280
     0
281
     0
  0
CLASS
  1
VISUALSTYLE
  2
AcDbVisualStyle
  3
ObjectDBX Classes
 90
     4095
280
     0
281
     0
  0
CLASS
  1
MATERIAL
  2
AcDbMaterial
  3
ObjectDBX Classes
 90
     1153
280
     0
281
     0
  0
CLASS
  1
SCALE
  2
AcDbScale
  3
ObjectDBX Classes
 90
     1153
280
     0
281
     0
  0
CLASS
  1
TABLESTYLE
  2
AcDbTableStyle
  3
ObjectDBX Classes
 90
     4095
280
     0
281
     0
  0
CLASS
  1
MLEADERSTYLE
  2
AcDbMLeaderStyle
  3
ACDB_MLEADERSTYLE_CLASS
 90
     4095
280
     0
281
     0
  0
CLASS
  1
SUN
  2
AcDbSun
  3
SCENEOE
 90
     1153
280
     0
281
     0
  0
CLASS
  1
ACDBPLACEHOLDER
  2
AcDbPlaceHolder
  3
ObjectDBX Classes
 90
        0
280
     0
281
     0
  0
CLASS
  1
LAYOUT
  2
AcDbLayout
  3
ObjectDBX Classes
 90
        0
280
     0
281
     0
  0
ENDSEC
  0
SECTION
  2
TABLES
  0
TABLE
  2
VPORT
  5
8
330
0
100
AcDbSymbolTable
 70
     1
  0
VPORT
  5
29
330
8
100
AcDbSymbolTableRecord
100
AcDbViewportTableRecord
  2
*Active
 70
     0
 10
0.0
 20
0.0
 11
1.0
 21
1.0
 12
40.0
 22
40.0
 13
0.0
 23
0.0
 14
10.0
 24
10.0
 15
10.0
 25
10.0
 16
0.0
 26
0.0
 36
1.0
 17
0.0
 27
0.0
 37
0.0
 40
81.6
 41
1.0
 42
50.0
 43
0.0
 44
0.0
 50
0.0
 51
0.0
 71
     0
 72
   100
 73
     1
 74
     3
 75
     0
 76
     0
 77
     0
 78
     0
281
     0
 65
     1
110
0.0
120
0.0
130
0.0
111
1.0
121
0.0
131
0.0
112
0.0
122
1.0
132
0.0
 79
     0
146
0.0
  0
ENDTAB
  0
TABLE
  2
LTYPE
  5
5
330
0
100
AcDbSymbolTable
 70
     6
  0
LTYPE
  5
14
330
5
100
AcDbSymbolTableRecord
100
AcDbLinetypeTableRecord
  2
ByBlock
 70
     0
  3

 72
    65
 73
     0
 40
0.0
  0
LTYPE
  5
15
330
5
100
AcDbSymbolTableRecord
100
AcDbLinetypeTableRecord
  2
ByLayer
 70
     0
  3

 72
    65
 73
     0
 40
0.0
  0
LTYPE
  5
16
330
5
100
AcDbSymbolTableRecord
100
AcDbLinetypeTableRecord
  2
Continuous
 70
     0
  3
Solid line
 72
    65
 73
     0
 40
0.0
  0
LTYPE
  5
6E
330
5
100
AcDbSymbolTableRecord
100
AcDbLinetypeTableRecord
  2
HIDDEN
 70
     0
  3
Hidden __ __ __ __ __ __ __ __ __ __ __ __ __ __
 72
    65
 73
     2
 40
1.905
 49
1.27
 74
     0
 49
-0.635
 74
     0
  0
LTYPE
  5
6F
330
5
100
AcDbSymbolTableRecord
100
AcDbLinetypeTableRecord
  2
PHANTOM
 70
     0
  3
Phantom ______  __  __  ______  __  __  ______
 72
    65
 73
     6
 40
12.7
 49
6.35
 74
     0
 49
-1.27
 74
     0
 49
1.27
 74
     0
 49
-1.27
 74
     0
 49
1.27
 74
     0
 49
-1.27
 74
     0
  0
LTYPE
  5
70
330
5
100
AcDbSymbolTableRecord
100
AcDbLinetypeTableRecord
  2
CENTER
 70
     0
  3
Center ____ _ ____ _ ____ _ ____ _ ____ _ ____
 72
    65
 73
     4
 40
10.16
 49
6.35
 74
     0
 49
-1.27
 74
     0
 49
1.27
 74
     0
 49
-1.27
 74
     0
  0
LTYPE
  5
71
330
5
100
AcDbSymbolTableRecord
100
AcDbLinetypeTableRecord
  2
CENTERX2
 70
     0
  3
Center (2x) ________  __  ________  __  _____
 72
    65
 73
     4
 40
20.32
 49
12.7
 74
     0
 49
-2.54
 74
     0
 49
2.54
 74
     0
 49
-2.54
 74
     0
  0
LTYPE
  5
72
330
5
100
AcDbSymbolTableRecord
100
AcDbLinetypeTableRecord
  2
DOT2
 70
     0
  3
Dot (.5x) ........................................
 72
    65
 73
     2
 40
0.635
 49
0.0
 74
     0
 49
-0.635
 74
     0
  0
ENDTAB
  0
TABLE
  2
LAYER
  5
2
330
0
100
AcDbSymbolTable
 70
     1
  0
LAYER
  5
10
330
2
100
AcDbSymbolTableRecord
100
AcDbLayerTableRecord
  2
0
 70
     0
 62
     7
  6
Continuous
370
    -3
390
F
  0
ENDTAB
  0
TABLE
  2
STYLE
  5
3
330
0
100
AcDbSymbolTable
 70
     2
  0
STYLE
  5
11
330
3
100
AcDbSymbolTableRecord
100
AcDbTextStyleTableRecord
  2
Standard
 70
     0
 40
0.0
 41
1.0
 50
0.0
 71
     0
 42
3.175
  3
txt
  4

  0
STYLE
  5
14B
330
3
100
AcDbSymbolTableRecord
100
AcDbTextStyleTableRecord
  2
SLDTEXTSTYLE0
 70
     0
 40
0.0
 41
0.7
 50
0.0
 71
     0
 42
3.175
  3
TXT
  4

  0
ENDTAB
  0
TABLE
  2
VIEW
  5
6
330
0
100
AcDbSymbolTable
 70
     0
  0
ENDTAB
  0
TABLE
  2
UCS
  5
7
330
0
100
AcDbSymbolTable
 70
     0
  0
ENDTAB
  0
TABLE
  2
APPID
  5
9
330
0
100
AcDbSymbolTable
 70
     1
  0
APPID
  5
12
330
9
100
AcDbSymbolTableRecord
100
AcDbRegAppTableRecord
  2
ACAD
 70
     0
  0
ENDTAB
  0
TABLE
  2
DIMSTYLE
  5
A
330
0
100
AcDbSymbolTable
 70
     1
100
AcDbDimStyleTable
  0
DIMSTYLE
105
27
330
A
100
AcDbSymbolTableRecord
100
AcDbDimStyleTableRecord
  2
ISO-25
 70
     0
 41
2.5
 42
0.625
 43
3.75
 44
1.25
 73
     0
 74
     0
 77
     1
 78
     8
140
2.5
141
2.5
143
0.0393700787
147
0.625
171
     3
172
     1
178
     0
271
     2
272
     2
274
     3
278
    44
283
     0
284
     8
340
11
  0
ENDTAB
  0
TABLE
  2
BLOCK_RECORD
  5
1
330
0
100
AcDbSymbolTable
 70
     8
  0
BLOCK_RECORD
  5
1F
330
1
100
AcDbSymbolTableRecord
100
AcDbBlockTableRecord
  2
*Model_Space
340
22
  0
BLOCK_RECORD
  5
1B
330
1
100
AcDbSymbolTableRecord
100
AcDbBlockTableRecord
  2
*Paper_Space
340
1E
  0
BLOCK_RECORD
  5
23
330
1
100
AcDbSymbolTableRecord
100
AcDbBlockTableRecord
  2
*Paper_Space0
340
26
  0
BLOCK_RECORD
  5
93
330
1
100
AcDbSymbolTableRecord
100
AcDbBlockTableRecord
  2
*Paper_Space1
340
94
  0
BLOCK_RECORD
  5
A3
330
1
100
AcDbSymbolTableRecord
100
AcDbBlockTableRecord
  2
*Paper_Space2
340
A4
  0
BLOCK_RECORD
  5
AF
330
1
100
AcDbSymbolTableRecord
100
AcDbBlockTableRecord
  2
*Paper_Space3
340
B0
  0
BLOCK_RECORD
  5
BB
330
1
100
AcDbSymbolTableRecord
100
AcDbBlockTableRecord
  2
*Paper_Space4
340
BC
  0
BLOCK_RECORD
  5
C7
330
1
100
AcDbSymbolTableRecord
100
AcDbBlockTableRecord
  2
*Paper_Space5
340
C8
  0
BLOCK_RECORD
  5
E9
330
1
100
AcDbSymbolTableRecord
100
AcDbBlockTableRecord
  2
*Paper_Space6
340
EA
  0
BLOCK_RECORD
  5
113
330
1
100
AcDbSymbolTableRecord
100
AcDbBlockTableRecord
  2
*Paper_Space7
340
114
  0
ENDTAB
  0
ENDSEC
  0
SECTION
  2
BLOCKS
  0
BLOCK
  5
20
330
1F
100
AcDbEntity
  8
0
100
AcDbBlockBegin
  2
*Model_Space
 70
     0
 10
0.0
 20
0.0
 30
0.0
  3
*Model_Space
  1

  0
ENDBLK
  5
21
330
1F
100
AcDbEntity
  8
0
100
AcDbBlockEnd
  0
BLOCK
  5
1C
330
1B
100
AcDbEntity
 67
     1
  8
0
100
AcDbBlockBegin
  2
*Paper_Space
 70
     0
 10
0.0
 20
0.0
 30
0.0
  3
*Paper_Space
  1

  0
ENDBLK
  5
1D
330
1B
100
AcDbEntity
 67
     1
  8
0
100
AcDbBlockEnd
  0
BLOCK
  5
24
330
23
100
AcDbEntity
  8
0
100
AcDbBlockBegin
  2
*Paper_Space0
 70
     0
 10
0.0
 20
0.0
 30
0.0
  3
*Paper_Space0
  1

  0
CIRCLE
  5
87
330
23
100
AcDbEntity
  8
0
  6
Continuous
 62
     7
370
    25
100
AcDbCircle
 10
-70.0
 20
10.0
 30
0.0
 40
1.5
  0
CIRCLE
  5
88
330
23
100
AcDbEntity
  8
0
  6
Continuous
 62
     7
370
    25
100
AcDbCircle
 10
-70.0
 20
70.0
 30
0.0
 40
1.499999999999972
  0
CIRCLE
  5
89
330
23
100
AcDbEntity
  8
0
  6
Continuous
 62
     7
370
    25
100
AcDbCircle
 10
-10.0
 20
70.0
 30
0.0
 40
1.499999999999995
  0
CIRCLE
  5
8A
330
23
100
AcDbEntity
  8
0
  6
Continuous
 62
     7
370
    25
100
AcDbCircle
 10
-10.0
 20
10.0
 30
0.0
 40
1.5
  0
LINE
  5
8F
330
23
100
AcDbEntity
  8
0
  6
Continuous
 62
     7
370
    25
100
AcDbLine
 10
0.0
 20
80.0
 30
0.0
 11
0.0
 21
0.0
 31
0.0
  0
LINE
  5
90
330
23
100
AcDbEntity
  8
0
  6
Continuous
 62
     7
370
    25
100
AcDbLine
 10
-80.0
 20
80.0
 30
0.0
 11
0.0
 21
80.0
 31
0.0
  0
LINE
  5
91
330
23
100
AcDbEntity
  8
0
  6
Continuous
 62
     7
370
    25
100
AcDbLine
 10
-80.0
 20
0.0
 30
0.0
 11
-80.0
 21
80.0
 31
0.0
  0
LINE
  5
92
330
23
100
AcDbEntity
  8
0
  6
Continuous
 62
     7
370
    25
100
AcDbLine
 10
0.0
 20
0.0
 30
0.0
 11
-80.0
 21
0.0
 31
0.0
  0
VIEWPORT
  5
13B
330
23
100
AcDbEntity
  8
0
100
AcDbViewport
 10
0.0
 20
0.0
 30
0.0
 40
205.6
 41
156.0
 68
     1
 69
     1
 12
40.0
 22
40.0
 13
0.0
 23
0.0
 14
10.0
 24
10.0
 15
10.0
 25
10.0
 16
0.0
 26
0.0
 36
1.0
 17
0.0
 27
0.0
 37
0.0
 42
50.0
 43
0.0
 44
0.0
 45
81.6
 50
0.0
 51
0.0
 72
   100
 90
   557152
  1

281
     0
 71
     1
 74
     0
110
0.0
120
0.0
130
0.0
111
1.0
121
0.0
131
0.0
112
0.0
122
1.0
132
0.0
 79
     0
146
0.0
  0
MTEXT
  5
150
330
23
100
AcDbEntity
  8
0
  6
Continuous
 62
     7
100
AcDbMText
 10
-80.0
 20
-1.0195663917
 30
0.0
 40
4.83362
 41
0.0
 71
     1
 72
     1
  1
SOLIDWORKS Educational Product.
  7
SLDTEXTSTYLE0
 73
     1
 44
1.0
  0
MTEXT
  5
151
330
23
100
AcDbEntity
  8
0
  6
Continuous
 62
     7
100
AcDbMText
 10
-80.0
 20
-8.2699963917
 30
0.0
 40
4.83362
 41
0.0
 71
     1
 72
     1
  1
For Instructional Use Only.
  7
SLDTEXTSTYLE0
 73
     1
 44
1.0
  0
ENDBLK
  5
25
330
23
100
AcDbEntity
  8
0
100
AcDbBlockEnd
  0
BLOCK
  5
95
330
93
100
AcDbEntity
  8
0
100
AcDbBlockBegin
  2
*Paper_Space1
 70
     0
 10
0.0
 20
0.0
 30
0.0
  3
*Paper_Space1
  1

  0
CIRCLE
  5
97
330
93
100
AcDbEntity
  8
0
  6
Continuous
 62
     7
370
    25
100
AcDbCircle
 10
70.0
 20
10.0
 30
0.0
 40
1.5
  0
CIRCLE
  5
98
330
93
100
AcDbEntity
  8
0
  6
Continuous
 62
     7
370
    25
100
AcDbCircle
 10
70.0
 20
70.0
 30
0.0
 40
1.499999999999972
  0
CIRCLE
  5
99
330
93
100
AcDbEntity
  8
0
  6
Continuous
 62
     7
370
    25
100
AcDbCircle
 10
10.0
 20
70.0
 30
0.0
 40
1.499999999999995
  0
CIRCLE
  5
9A
330
93
100
AcDbEntity
  8
0
  6
Continuous
 62
     7
370
    25
100
AcDbCircle
 10
10.0
 20
10.0
 30
0.0
 40
1.5
  0
LINE
  5
9F
330
93
100
AcDbEntity
  8
0
  6
Continuous
 62
     7
370
    25
100
AcDbLine
 10
0.0
 20
80.0
 30
0.0
 11
0.0
 21
0.0
 31
0.0
  0
LINE
  5
A0
330
93
100
AcDbEntity
  8
0
  6
Continuous
 62
     7
370
    25
100
AcDbLine
 10
80.0
 20
80.0
 30
0.0
 11
0.0
 21
80.0
 31
0.0
  0
LINE
  5
A1
330
93
100
AcDbEntity
  8
0
  6
Continuous
 62
     7
370
    25
100
AcDbLine
 10
80.0
 20
0.0
 30
0.0
 11
80.0
 21
80.0
 31
0.0
  0
LINE
  5
A2
330
93
100
AcDbEntity
  8
0
  6
Continuous
 62
     7
370
    25
100
AcDbLine
 10
0.0
 20
0.0
 30
0.0
 11
80.0
 21
0.0
 31
0.0
  0
VIEWPORT
  5
13D
330
93
100
AcDbEntity
  8
0
100
AcDbViewport
 10
0.0
 20
0.0
 30
0.0
 40
205.6
 41
156.0
 68
     1
 69
     1
 12
40.0
 22
40.0
 13
0.0
 23
0.0
 14
10.0
 24
10.0
 15
10.0
 25
10.0
 16
0.0
 26
0.0
 36
1.0
 17
0.0
 27
0.0
 37
0.0
 42
50.0
 43
0.0
 44
0.0
 45
81.6
 50
0.0
 51
0.0
 72
   100
 90
   557152
  1

281
     0
 71
     1
 74
     0
110
0.0
120
0.0
130
0.0
111
1.0
121
0.0
131
0.0
112
0.0
122
1.0
132
0.0
 79
     0
146
0.0
  0
MTEXT
  5
152
330
93
100
AcDbEntity
  8
0
  6
Continuous
 62
     7
100
AcDbMText
 10
0.0
 20
-1.0195663917
 30
0.0
 40
4.83362
 41
0.0
 71
     1
 72
     1
  1
SOLIDWORKS Educational Product.
  7
SLDTEXTSTYLE0
 73
     1
 44
1.0
  0
MTEXT
  5
153
330
93
100
AcDbEntity
  8
0
  6
Continuous
 62
     7
100
AcDbMText
 10
0.0
 20
-8.2699963917
 30
0.0
 40
4.83362
 41
0.0
 71
     1
 72
     1
  1
For Instructional Use Only.
  7
SLDTEXTSTYLE0
 73
     1
 44
1.0
  0
ENDBLK
  5
96
330
93
100
AcDbEntity
  8
0
100
AcDbBlockEnd
  0
BLOCK
  5
A5
330
A3
100
AcDbEntity
  8
0
100
AcDbBlockBegin
  2
*Paper_Space2
 70
     0
 10
0.0
 20
0.0
 30
0.0
  3
*Paper_Space2
  1

  0
LINE
  5
AB
330
A3
100
AcDbEntity
  8
0
  6
Continuous
 62
     7
370
    25
100
AcDbLine
 10
2.0
 20
80.0
 30
0.0
 11
0.0
 21
80.0
 31
0.0
  0
LINE
  5
AC
330
A3
100
AcDbEntity
  8
0
  6
Continuous
 62
     7
370
    25
100
AcDbLine
 10
2.0
 20
80.0
 30
0.0
 11
2.0
 21
0.0
 31
0.0
  0
LINE
  5
AD
330
A3
100
AcDbEntity
  8
0
  6
Continuous
 62
     7
370
    25
100
AcDbLine
 10
0.0
 20
80.0
 30
0.0
 11
0.0
 21
0.0
 31
0.0
  0
LINE
  5
AE
330
A3
100
AcDbEntity
  8
0
  6
Continuous
 62
     7
370
    25
100
AcDbLine
 10
2.0
 20
0.0
 30
0.0
 11
0.0
 21
0.0
 31
0.0
  0
VIEWPORT
  5
13F
330
A3
100
AcDbEntity
  8
0
100
AcDbViewport
 10
0.0
 20
0.0
 30
0.0
 40
205.6
 41
156.0
 68
     1
 69
     1
 12
40.0
 22
40.0
 13
0.0
 23
0.0
 14
10.0
 24
10.0
 15
10.0
 25
10.0
 16
0.0
 26
0.0
 36
1.0
 17
0.0
 27
0.0
 37
0.0
 42
50.0
 43
0.0
 44
0.0
 45
81.6
 50
0.0
 51
0.0
 72
   100
 90
   557152
  1

281
     0
 71
     1
 74
     0
110
0.0
120
0.0
130
0.0
111
1.0
121
0.0
131
0.0
112
0.0
122
1.0
132
0.0
 79
     0
146
0.0
  0
MTEXT
  5
154
330
A3
100
AcDbEntity
  8
0
  6
Continuous
 62
     7
100
AcDbMText
 10
0.0
 20
-1.0195663917
 30
0.0
 40
4.83362
 41
0.0
 71
     1
 72
     1
  1
SOLIDWORKS Educational Product.
  7
SLDTEXTSTYLE0
 73
     1
 44
1.0
  0
MTEXT
  5
155
330
A3
100
AcDbEntity
  8
0
  6
Continuous
 62
     7
100
AcDbMText
 10
0.0
 20
-8.2699963917
 30
0.0
 40
4.83362
 41
0.0
 71
     1
 72
     1
  1
For Instructional Use Only.
  7
SLDTEXTSTYLE0
 73
     1
 44
1.0
  0
ENDBLK
  5
A6
330
A3
100
AcDbEntity
  8
0
100
AcDbBlockEnd
  0
BLOCK
  5
B1
330
AF
100
AcDbEntity
  8
0
100
AcDbBlockBegin
  2
*Paper_Space3
 70
     0
 10
0.0
 20
0.0
 30
0.0
  3
*Paper_Space3
  1

  0
LINE
  5
B7
330
AF
100
AcDbEntity
  8
0
  6
Continuous
 62
     7
370
    25
100
AcDbLine
 10
-2.0
 20
0.0
 30
0.0
 11
-2.0
 21
80.0
 31
0.0
  0
LINE
  5
B8
330
AF
100
AcDbEntity
  8
0
  6
Continuous
 62
     7
370
    25
100
AcDbLine
 10
-2.0
 20
80.0
 30
0.0
 11
0.0
 21
80.0
 31
0.0
  0
LINE
  5
B9
330
AF
100
AcDbEntity
  8
0
  6
Continuous
 62
     7
370
    25
100
AcDbLine
 10
0.0
 20
0.0
 30
0.0
 11
0.0
 21
80.0
 31
0.0
  0
LINE
  5
BA
330
AF
100
AcDbEntity
  8
0
  6
Continuous
 62
     7
370
    25
100
AcDbLine
 10
-2.0
 20
0.0
 30
0.0
 11
0.0
 21
0.0
 31
0.0
  0
VIEWPORT
  5
141
330
AF
100
AcDbEntity
  8
0
100
AcDbViewport
 10
0.0
 20
0.0
 30
0.0
 40
205.6
 41
156.0
 68
     1
 69
     1
 12
40.0
 22
40.0
 13
0.0
 23
0.0
 14
10.0
 24
10.0
 15
10.0
 25
10.0
 16
0.0
 26
0.0
 36
1.0
 17
0.0
 27
0.0
 37
0.0
 42
50.0
 43
0.0
 44
0.0
 45
81.6
 50
0.0
 51
0.0
 72
   100
 90
   557152
  1

281
     0
 71
     1
 74
     0
110
0.0
120
0.0
130
0.0
111
1.0
121
0.0
131
0.0
112
0.0
122
1.0
132
0.0
 79
     0
146
0.0
  0
MTEXT
  5
156
330
AF
100
AcDbEntity
  8
0
  6
Continuous
 62
     7
100
AcDbMText
 10
-2.0
 20
-1.0195663917
 30
0.0
 40
4.83362
 41
0.0
 71
     1
 72
     1
  1
SOLIDWORKS Educational Product.
  7
SLDTEXTSTYLE0
 73
     1
 44
1.0
  0
MTEXT
  5
157
330
AF
100
AcDbEntity
  8
0
  6
Continuous
 62
     7
100
AcDbMText
 10
-2.0
 20
-8.2699963917
 30
0.0
 40
4.83362
 41
0.0
 71
     1
 72
     1
  1
For Instructional Use Only.
  7
SLDTEXTSTYLE0
 73
     1
 44
1.0
  0
ENDBLK
  5
B2
330
AF
100
AcDbEntity
  8
0
100
AcDbBlockEnd
  0
BLOCK
  5
BD
330
BB
100
AcDbEntity
  8
0
100
AcDbBlockBegin
  2
*Paper_Space4
 70
     0
 10
0.0
 20
0.0
 30
0.0
  3
*Paper_Space4
  1

  0
LINE
  5
C3
330
BB
100
AcDbEntity
  8
0
  6
Continuous
 62
     7
370
    25
100
AcDbLine
 10
0.0
 20
2.0
 30
0.0
 11
0.0
 21
0.0
 31
0.0
  0
LINE
  5
C4
330
BB
100
AcDbEntity
  8
0
  6
Continuous
 62
     7
370
    25
100
AcDbLine
 10
0.0
 20
2.0
 30
0.0
 11
80.0
 21
2.0
 31
0.0
  0
LINE
  5
C5
330
BB
100
AcDbEntity
  8
0
  6
Continuous
 62
     7
370
    25
100
AcDbLine
 10
80.0
 20
2.0
 30
0.0
 11
80.0
 21
0.0
 31
0.0
  0
LINE
  5
C6
330
BB
100
AcDbEntity
  8
0
  6
Continuous
 62
     7
370
    25
100
AcDbLine
 10
0.0
 20
0.0
 30
0.0
 11
80.0
 21
0.0
 31
0.0
  0
VIEWPORT
  5
143
330
BB
100
AcDbEntity
  8
0
100
AcDbViewport
 10
0.0
 20
0.0
 30
0.0
 40
205.6
 41
156.0
 68
     1
 69
     1
 12
40.0
 22
40.0
 13
0.0
 23
0.0
 14
10.0
 24
10.0
 15
10.0
 25
10.0
 16
0.0
 26
0.0
 36
1.0
 17
0.0
 27
0.0
 37
0.0
 42
50.0
 43
0.0
 44
0.0
 45
81.6
 50
0.0
 51
0.0
 72
   100
 90
   557152
  1

281
     0
 71
     1
 74
     0
110
0.0
120
0.0
130
0.0
111
1.0
121
0.0
131
0.0
112
0.0
122
1.0
132
0.0
 79
     0
146
0.0
  0
MTEXT
  5
158
330
BB
100
AcDbEntity
  8
0
  6
Continuous
 62
     7
100
AcDbMText
 10
0.0
 20
-1.0195663917
 30
0.0
 40
4.83362
 41
0.0
 71
     1
 72
     1
  1
SOLIDWORKS Educational Product.
  7
SLDTEXTSTYLE0
 73
     1
 44
1.0
  0
MTEXT
  5
159
330
BB
100
AcDbEntity
  8
0
  6
Continuous
 62
     7
100
AcDbMText
 10
0.0
 20
-8.2699963917
 30
0.0
 40
4.83362
 41
0.0
 71
     1
 72
     1
  1
For Instructional Use Only.
  7
SLDTEXTSTYLE0
 73
     1
 44
1.0
  0
ENDBLK
  5
BE
330
BB
100
AcDbEntity
  8
0
100
AcDbBlockEnd
  0
BLOCK
  5
C9
330
C7
100
AcDbEntity
  8
0
100
AcDbBlockBegin
  2
*Paper_Space5
 70
     0
 10
0.0
 20
0.0
 30
0.0
  3
*Paper_Space5
  1

  0
LWPOLYLINE
  5
D4
330
C7
100
AcDbEntity
  8
0
  6
Continuous
 62
     7
370
    25
100
AcDbPolyline
 90
       28
 70
   128
 43
0.0
 10
47.0226009489
 20
-20.6129778229
 10
47.0511911811
 20
-20.3470217071
 10
47.1354205709
 20
-20.1284129339
 10
47.2707482901
 20
-19.9689367587
 10
47.4498787862
 20
-19.8771905835
 10
47.663155088
 20
-19.8581204682
 10
47.8990794147
 20
-19.9127544878
 10
48.1449330249
 20
-20.0381473081
 10
48.3874618868
 20
-20.2275389698
 10
48.6135912066
 20
-20.4707193192
 10
48.8111302942
 20
-20.7545784409
 10
48.9694297663
 20
-21.063813416
 10
49.0799556573
 20
-21.3817533072
 10
49.1367494878
 20
-21.6912578924
 10
49.1367494878
 20
-21.9756416995
 10
49.0799556573
 20
-22.2195735237
 10
48.9694297663
 20
-22.4099029373
 10
48.8111302942
 20
-22.5363692324
 10
48.6135912066
 20
-22.5921545782
 10
48.3874618868
 20
-22.5742515723
 10
48.1449330249
 20
-22.4836253703
 10
47.8990794147
 20
-22.3251616544
 10
47.663155088
 20
-22.1074032444
 10
47.4498787862
 20
-21.8420895526
 10
47.2707482901
 20
-21.5435237088
 10
47.1354205709
 20
-21.2278014748
 10
47.0511911811
 20
-20.9119435181
 10
47.0226009489
 20
-20.6129778229
  0
LWPOLYLINE
  5
D5
330
C7
100
AcDbEntity
  8
0
  6
Continuous
 62
     7
370
    25
100
AcDbPolyline
 90
       28
 70
   128
 43
0.0
 10
47.0226009489
 20
28.3794708903
 10
47.0511911811
 20
28.645427006
 10
47.1354205709
 20
28.8640357793
 10
47.2707482901
 20
29.0235119544
 10
47.4498787862
 20
29.1152581297
 10
47.663155088
 20
29.1343282449
 10
47.8990794147
 20
29.0796942253
 10
48.1449330249
 20
28.954301405
 10
48.3874618868
 20
28.7649097434
 10
48.6135912066
 20
28.5217293939
 10
48.8111302942
 20
28.2378702723
 10
48.9694297663
 20
27.9286352971
 10
49.0799556573
 20
27.610695406
 10
49.1367494878
 20
27.3011908207
 10
49.1367494878
 20
27.0168070137
 10
49.0799556573
 20
26.7728751894
 10
48.9694297663
 20
26.5825457758
 10
48.8111302942
 20
26.4560794808
 10
48.6135912066
 20
26.400294135
 10
48.3874618868
 20
26.4181971409
 10
48.1449330249
 20
26.5088233428
 10
47.8990794147
 20
26.6672870587
 10
47.663155088
 20
26.8850454687
 10
47.4498787862
 20
27.1503591606
 10
47.2707482901
 20
27.4489250044
 10
47.1354205709
 20
27.7646472383
 10
47.0511911811
 20
28.080505195
 10
47.0226009489
 20
28.3794708903
  0
LWPOLYLINE
  5
D6
330
C7
100
AcDbEntity
  8
0
  6
Continuous
 62
     7
370
    25
100
AcDbPolyline
 90
       28
 70
   128
 43
0.0
 10
4.5961940777
 20
52.8717142449
 10
4.6247843099
 20
53.1376703607
 10
4.7090136997
 20
53.3562791339
 10
4.8443414189
 20
53.5157553091
 10
5.023471915
 20
53.6075014844
 10
5.2367482168
 20
53.6265715996
 10
5.4726725435
 20
53.57193758
 10
5.7185261537
 20
53.4465447597
 10
5.9610550156
 20
53.2571530981
 10
6.1871843354
 20
53.0139727486
 10
6.384723423
 20
52.7301136269
 10
6.5430228951
 20
52.4208786518
 10
6.6535487861
 20
52.1029387607
 10
6.7103426166
 20
51.7934341754
 10
6.7103426166
 20
51.5090503684
 10
6.6535487861
 20
51.2651185441
 10
6.5430228951
 20
51.0747891305
 10
6.384723423
 20
50.9483228354
 10
6.1871843354
 20
50.8925374897
 10
5.9610550156
 20
50.9104404956
 10
5.7185261537
 20
51.0010666975
 10
5.4726725435
 20
51.1595304134
 10
5.2367482168
 20
51.3772888234
 10
5.023471915
 20
51.6426025152
 10
4.8443414189
 20
51.9411683591
 10
4.7090136997
 20
52.256890593
 10
4.6247843099
 20
52.5727485497
 10
4.5961940777
 20
52.8717142449
  0
LWPOLYLINE
  5
D7
330
C7
100
AcDbEntity
  8
0
  6
Continuous
 62
     7
370
    25
100
AcDbPolyline
 90
       28
 70
   128
 43
0.0
 10
4.5961940777
 20
3.8792655318
 10
4.6247843099
 20
4.1452216475
 10
4.7090136997
 20
4.3638304208
 10
4.8443414189
 20
4.523306596
 10
5.023471915
 20
4.6150527712
 10
5.2367482168
 20
4.6341228865
 10
5.4726725435
 20
4.5794888669
 10
5.7185261537
 20
4.4540960465
 10
5.9610550156
 20
4.2647043849
 10
6.1871843354
 20
4.0215240355
 10
6.384723423
 20
3.7376649138
 10
6.5430228951
 20
3.4284299386
 10
6.6535487861
 20
3.1104900475
 10
6.7103426166
 20
2.8009854623
 10
6.7103426166
 20
2.5166016552
 10
6.6535487861
 20
2.272669831
 10
6.5430228951
 20
2.0823404174
 10
6.384723423
 20
1.9558741223
 10
6.1871843354
 20
1.9000887765
 10
5.9610550156
 20
1.9179917824
 10
5.7185261537
 20
2.0086179843
 10
5.4726725435
 20
2.1670817003
 10
5.2367482168
 20
2.3848401103
 10
5.023471915
 20
2.6501538021
 10
4.8443414189
 20
2.9487196459
 10
4.7090136997
 20
3.2644418799
 10
4.6247843099
 20
3.5802998366
 10
4.5961940777
 20
3.8792655318
  0
LINE
  5
DC
330
C7
100
AcDbEntity
  8
0
  6
Continuous
 62
     7
370
    25
100
AcDbLine
 10
55.1543289326
 20
31.8505323661
 30
0.0
 11
56.5685424949
 21
32.666940478
 31
0.0
  0
LINE
  5
DD
330
C7
100
AcDbEntity
  8
0
  6
Continuous
 62
     7
370
    25
100
AcDbLine
 10
55.1543289326
 20
31.8505323661
 30
0.0
 11
-1.4142135624
 21
64.506856839
 31
0.0
  0
LINE
  5
DE
330
C7
100
AcDbEntity
  8
0
  6
Continuous
 62
     7
370
    25
100
AcDbLine
 10
-1.4142135624
 20
64.506856839
 30
0.0
 11
0.0
 21
65.3232649509
 31
0.0
  0
LINE
  5
DF
330
C7
100
AcDbEntity
  8
0
  6
Continuous
 62
     7
370
    25
100
AcDbLine
 10
56.5685424949
 20
32.666940478
 30
0.0
 11
0.0
 21
65.3232649509
 31
0.0
  0
LINE
  5
E0
330
C7
100
AcDbEntity
  8
0
  6
Continuous
 62
     7
370
    25
100
AcDbLine
 10
55.1543289326
 20
-33.4727325847
 30
0.0
 11
56.5685424949
 21
-32.6563244729
 31
0.0
  0
LINE
  5
E1
330
C7
100
AcDbEntity
  8
0
  6
Continuous
 62
     7
370
    25
100
AcDbLine
 10
55.1543289326
 20
-33.4727325847
 30
0.0
 11
55.1543289326
 21
31.8505323661
 31
0.0
  0
LINE
  5
E2
330
C7
100
AcDbEntity
  8
0
  6
Continuous
 62
     7
370
    25
100
AcDbLine
 10
56.5685424949
 20
-32.6563244729
 30
0.0
 11
56.5685424949
 21
32.666940478
 31
0.0
  0
LINE
  5
E3
330
C7
100
AcDbEntity
  8
0
  6
Continuous
 62
     7
370
    25
100
AcDbLine
 10
-1.4142135624
 20
64.506856839
 30
0.0
 11
-1.4142135624
 21
-0.8164081118
 31
0.0
  0
LINE
  5
E4
330
C7
100
AcDbEntity
  8
0
  6
Continuous
 62
     7
370
    25
100
AcDbLine
 10
-1.4142135624
 20
-0.8164081118
 30
0.0
 11
55.1543289326
 21
-33.4727325847
 31
0.0
  0
ARC
  5
E5
330
C7
100
AcDbEntity
  8
0
  6
Continuous
 62
     7
370
    25
100
AcDbCircle
 10
50.9381318991
 20
29.4152466264
 30
0.0
 40
2.529923331094304
100
AcDbArc
 50
198.591143598
 51
221.4034798693
  0
ARC
  5
E6
330
C7
100
AcDbEntity
  8
0
  6
Continuous
 62
     7
370
    25
100
AcDbCircle
 10
50.9381318991
 20
-19.5772020868
 30
0.0
 40
2.529923331093343
100
AcDbArc
 50
198.591143598
 51
221.4034798693
  0
ARC
  5
E7
330
C7
100
AcDbEntity
  8
0
  6
Continuous
 62
     7
370
    25
100
AcDbCircle
 10
8.5117250279
 20
53.9074899811
 30
0.0
 40
2.529923331093847
100
AcDbArc
 50
198.591143598
 51
221.4034798693
  0
ARC
  5
E8
330
C7
100
AcDbEntity
  8
0
  6
Continuous
 62
     7
370
    25
100
AcDbCircle
 10
8.5117250279
 20
4.9150412679
 30
0.0
 40
2.529923331094059
100
AcDbArc
 50
198.591143598
 51
221.4034798693
  0
VIEWPORT
  5
145
330
C7
100
AcDbEntity
  8
0
100
AcDbViewport
 10
0.0
 20
0.0
 30
0.0
 40
205.6
 41
156.0
 68
     1
 69
     1
 12
40.0
 22
40.0
 13
0.0
 23
0.0
 14
10.0
 24
10.0
 15
10.0
 25
10.0
 16
0.0
 26
0.0
 36
1.0
 17
0.0
 27
0.0
 37
0.0
 42
50.0
 43
0.0
 44
0.0
 45
81.6
 50
0.0
 51
0.0
 72
   100
 90
   557152
  1

281
     0
 71
     1
 74
     0
110
0.0
120
0.0
130
0.0
111
1.0
121
0.0
131
0.0
112
0.0
122
1.0
132
0.0
 79
     0
146
0.0
  0
MTEXT
  5
15A
330
C7
100
AcDbEntity
  8
0
  6
Continuous
 62
     7
100
AcDbMText
 10
-1.4142135624
 20
-34.4922989764
 30
0.0
 40
4.83362
 41
0.0
 71
     1
 72
     1
  1
SOLIDWORKS Educational Product.
  7
SLDTEXTSTYLE0
 73
     1
 44
1.0
  0
MTEXT
  5
15B
330
C7
100
AcDbEntity
  8
0
  6
Continuous
 62
     7
100
AcDbMText
 10
-1.4142135624
 20
-41.7427289764
 30
0.0
 40
4.83362
 41
0.0
 71
     1
 72
     1
  1
For Instructional Use Only.
  7
SLDTEXTSTYLE0
 73
     1
 44
1.0
  0
ENDBLK
  5
CA
330
C7
100
AcDbEntity
  8
0
100
AcDbBlockEnd
  0
BLOCK
  5
EB
330
E9
100
AcDbEntity
  8
0
100
AcDbBlockBegin
  2
*Paper_Space6
 70
     0
 10
0.0
 20
0.0
 30
0.0
  3
*Paper_Space6
  1

  0
LWPOLYLINE
  5
F1
330
E9
100
AcDbEntity
  8
0
  6
Continuous
 62
     7
370
    25
100
AcDbPolyline
 90
       28
 70
   128
 43
0.0
 10
59.649250557
 20
-8.8044087924
 10
59.6850099644
 20
-8.517612858
 10
59.7903603877
 20
-8.265715448
 10
59.9596223583
 20
-8.0622964171
 10
60.1836709195
 20
-7.9183221378
 10
60.4504275555
 20
-7.8415543008
 10
60.7455113469
 20
-7.83613148
 10
61.0530142501
 20
-7.9023460213
 10
61.3563587041
 20
-8.0366282813
 10
61.6391913308
 20
-8.2317390689
 10
61.8862645501
 20
-8.4771599109
 10
62.0842585808
 20
-8.7596601062
 10
62.2224995135
 20
-9.0640099962
 10
62.2935347437
 20
-9.3738019995
 10
62.2935347437
 20
-9.6723351489
 10
62.2224995135
 20
-9.9435154453
 10
62.0842585808
 20
-10.1727234886
 10
61.8862645501
 20
-10.3476026138
 10
61.6391913308
 20
-10.458725042
 10
61.3563587041
 20
-10.5001001345
 10
61.0530142501
 20
-10.4694973491
 10
60.7455113469
 20
-10.3685664901
 10
60.4504275555
 20
-10.2027487662
 10
60.1836709195
 20
-9.9809834537
 10
59.9596223583
 20
-9.715225978
 10
59.7903603877
 20
-9.4198033936
 10
59.6850099644
 20
-9.1106420083
 10
59.649250557
 20
-8.8044087924
  0
LWPOLYLINE
  5
F2
330
E9
100
AcDbEntity
  8
0
  6
Continuous
 62
     7
370
    25
100
AcDbPolyline
 90
       28
 70
   128
 43
0.0
 10
59.649250557
 20
42.6256292497
 10
59.6850099644
 20
42.9124251841
 10
59.7903603877
 20
43.1643225941
 10
59.9596223583
 20
43.3677416251
 10
60.1836709195
 20
43.5117159044
 10
60.4504275555
 20
43.5884837414
 10
60.7455113469
 20
43.5939065621
 10
61.0530142501
 20
43.5276920209
 10
61.3563587041
 20
43.3934097608
 10
61.6391913308
 20
43.1982989732
 10
61.8862645501
 20
42.9528781312
 10
62.0842585808
 20
42.6703779359
 10
62.2224995135
 20
42.3660280459
 10
62.2935347437
 20
42.0562360427
 10
62.2935347437
 20
41.7577028932
 10
62.2224995135
 20
41.4865225968
 10
62.0842585808
 20
41.2573145536
 10
61.8862645501
 20
41.0824354284
 10
61.6391913308
 20
40.9713130001
 10
61.3563587041
 20
40.9299379077
 10
61.0530142501
 20
40.960540693
 10
60.7455113469
 20
41.061471552
 10
60.4504275555
 20
41.227289276
 10
60.1836709195
 20
41.4490545885
 10
59.9596223583
 20
41.7148120641
 10
59.7903603877
 20
42.0102346486
 10
59.6850099644
 20
42.3193960339
 10
59.649250557
 20
42.6256292497
  0
LWPOLYLINE
  5
F3
330
E9
100
AcDbEntity
  8
0
  6
Continuous
 62
     7
370
    25
100
AcDbPolyline
 90
       28
 70
   128
 43
0.0
 10
6.5841632564
 20
57.0475829307
 10
6.6199226638
 20
57.3343788652
 10
6.7252730871
 20
57.5862762751
 10
6.8945350577
 20
57.7896953061
 10
7.1185836189
 20
57.9336695854
 10
7.3853402548
 20
58.0104374224
 10
7.6804240462
 20
58.0158602431
 10
7.9879269495
 20
57.9496457019
 10
8.2912714035
 20
57.8153634418
 10
8.5741040302
 20
57.6202526542
 10
8.8211772495
 20
57.3748318122
 10
9.0191712802
 20
57.0923316169
 10
9.1574122129
 20
56.787981727
 10
9.228447443
 20
56.4781897237
 10
9.228447443
 20
56.1796565742
 10
9.1574122129
 20
55.9084762779
 10
9.0191712802
 20
55.6792682346
 10
8.8211772495
 20
55.5043891094
 10
8.5741040302
 20
55.3932666811
 10
8.2912714035
 20
55.3518915887
 10
7.9879269495
 20
55.382494374
 10
7.6804240462
 20
55.483425233
 10
7.3853402548
 20
55.649242957
 10
7.1185836189
 20
55.8710082695
 10
6.8945350577
 20
56.1367657451
 10
6.7252730871
 20
56.4321883296
 10
6.6199226638
 20
56.7413497149
 10
6.5841632564
 20
57.0475829307
  0
LWPOLYLINE
  5
F4
330
E9
100
AcDbEntity
  8
0
  6
Continuous
 62
     7
370
    25
100
AcDbPolyline
 90
       28
 70
   128
 43
0.0
 10
6.5841632564
 20
5.6175448886
 10
6.6199226638
 20
5.904340823
 10
6.7252730871
 20
6.156238233
 10
6.8945350577
 20
6.359657264
 10
7.1185836189
 20
6.5036315433
 10
7.3853402548
 20
6.5803993803
 10
7.6804240462
 20
6.585822201
 10
7.9879269495
 20
6.5196076598
 10
8.2912714035
 20
6.3853253997
 10
8.5741040302
 20
6.1902146121
 10
8.8211772495
 20
5.9447937701
 10
9.0191712802
 20
5.6622935748
 10
9.1574122129
 20
5.3579436848
 10
9.228447443
 20
5.0481516816
 10
9.228447443
 20
4.7496185321
 10
9.1574122129
 20
4.4784382357
 10
9.0191712802
 20
4.2492301925
 10
8.8211772495
 20
4.0743510673
 10
8.5741040302
 20
3.963228639
 10
8.2912714035
 20
3.9218535466
 10
7.9879269495
 20
3.9524563319
 10
7.6804240462
 20
4.0533871909
 10
7.3853402548
 20
4.2192049149
 10
7.1185836189
 20
4.4409702274
 10
6.8945350577
 20
4.706727703
 10
6.7252730871
 20
5.0021502875
 10
6.6199226638
 20
5.3113116728
 10
6.5841632564
 20
5.6175448886
  0
LINE
  5
102
330
E9
100
AcDbEntity
  8
0
  6
Continuous
 62
     7
370
    25
100
AcDbLine
 10
-0.9333907779
 20
67.6623660426
 30
0.0
 11
-0.9333907779
 21
-0.9110180136
 31
0.0
  0
LINE
  5
103
330
E9
100
AcDbEntity
  8
0
  6
Continuous
 62
     7
370
    25
100
AcDbLine
 10
69.8200589563
 20
48.4330944678
 30
0.0
 11
-0.9333907779
 21
67.6623660426
 31
0.0
  0
LINE
  5
104
330
E9
100
AcDbEntity
  8
0
  6
Continuous
 62
     7
370
    25
100
AcDbLine
 10
69.8200589563
 20
-20.1402895883
 30
0.0
 11
69.8200589563
 21
48.4330944678
 31
0.0
  0
LINE
  5
105
330
E9
100
AcDbEntity
  8
0
  6
Continuous
 62
     7
370
    25
100
AcDbLine
 10
-0.9333907779
 20
-0.9110180136
 30
0.0
 11
69.8200589563
 21
-20.1402895883
 31
0.0
  0
LINE
  5
106
330
E9
100
AcDbEntity
  8
0
  6
Continuous
 62
     7
370
    25
100
AcDbLine
 10
69.8200589563
 20
-20.1402895883
 30
0.0
 11
70.7534497342
 21
-19.2292715747
 31
0.0
  0
LINE
  5
107
330
E9
100
AcDbEntity
  8
0
  6
Continuous
 62
     7
370
    25
100
AcDbLine
 10
69.8200589563
 20
48.4330944678
 30
0.0
 11
70.7534497342
 21
49.3441124815
 31
0.0
  0
LINE
  5
108
330
E9
100
AcDbEntity
  8
0
  6
Continuous
 62
     7
370
    25
100
AcDbLine
 10
70.7534497342
 20
-19.2292715747
 30
0.0
 11
70.7534497342
 21
49.3441124815
 31
0.0
  0
LINE
  5
109
330
E9
100
AcDbEntity
  8
0
  6
Continuous
 62
     7
370
    25
100
AcDbLine
 10
-0.9333907779
 20
67.6623660426
 30
0.0
 11
0.0
 21
68.5733840562
 31
0.0
  0
LINE
  5
10A
330
E9
100
AcDbEntity
  8
0
  6
Continuous
 62
     7
370
    25
100
AcDbLine
 10
70.7534497342
 20
49.3441124815
 30
0.0
 11
0.0
 21
68.5733840562
 31
0.0
  0
LINE
  5
10B
330
E9
100
AcDbEntity
  8
0
  6
Continuous
 62
     7
370
    25
100
AcDbLine
 10
60.5826413349
 20
43.5366472633
 30
0.0
 11
60.5842736893
 21
43.5999669561
 31
0.0
  0
LINE
  5
10C
330
E9
100
AcDbEntity
  8
0
  6
Continuous
 62
     7
370
    25
100
AcDbLine
 10
7.5175540343
 20
57.9586009443
 30
0.0
 11
7.5191863887
 21
58.0219206371
 31
0.0
  0
LINE
  5
10D
330
E9
100
AcDbEntity
  8
0
  6
Continuous
 62
     7
370
    25
100
AcDbLine
 10
60.5826413349
 20
-7.8933907788
 30
0.0
 11
60.5842736893
 21
-7.8300710861
 31
0.0
  0
LINE
  5
10E
330
E9
100
AcDbEntity
  8
0
  6
Continuous
 62
     7
370
    25
100
AcDbLine
 10
7.5175540343
 20
6.5285629022
 30
0.0
 11
7.5191863887
 21
6.591882595
 31
0.0
  0
ARC
  5
10F
330
E9
100
AcDbEntity
  8
0
  6
Continuous
 62
     7
370
    25
100
AcDbCircle
 10
62.352073235
 20
43.6114854373
 30
0.0
 40
1.771013834312728
100
AcDbArc
 50
182.4218832163
 51
268.3433269144
  0
ARC
  5
110
330
E9
100
AcDbEntity
  8
0
  6
Continuous
 62
     7
370
    25
100
AcDbCircle
 10
9.2869859343
 20
58.0334391184
 30
0.0
 40
1.771013834312639
100
AcDbArc
 50
182.4218832163
 51
268.3433269145
  0
ARC
  5
111
330
E9
100
AcDbEntity
  8
0
  6
Continuous
 62
     7
370
    25
100
AcDbCircle
 10
62.352073235
 20
-7.8185526048
 30
0.0
 40
1.771013834312604
100
AcDbArc
 50
182.4218832163
 51
268.3433269145
  0
ARC
  5
112
330
E9
100
AcDbEntity
  8
0
  6
Continuous
 62
     7
370
    25
100
AcDbCircle
 10
9.2869859343
 20
6.6034010762
 30
0.0
 40
1.771013834312638
100
AcDbArc
 50
182.4218832163
 51
268.3433269145
  0
VIEWPORT
  5
147
330
E9
100
AcDbEntity
  8
0
100
AcDbViewport
 10
0.0
 20
0.0
 30
0.0
 40
205.6
 41
156.0
 68
     1
 69
     1
 12
40.0
 22
40.0
 13
0.0
 23
0.0
 14
10.0
 24
10.0
 15
10.0
 25
10.0
 16
0.0
 26
0.0
 36
1.0
 17
0.0
 27
0.0
 37
0.0
 42
50.0
 43
0.0
 44
0.0
 45
81.6
 50
0.0
 51
0.0
 72
   100
 90
   557152
  1

281
     0
 71
     1
 74
     0
110
0.0
120
0.0
130
0.0
111
1.0
121
0.0
131
0.0
112
0.0
122
1.0
132
0.0
 79
     0
146
0.0
  0
MTEXT
  5
15C
330
E9
100
AcDbEntity
  8
0
  6
Continuous
 62
     7
100
AcDbMText
 10
-0.9333907779
 20
-21.15985598
 30
0.0
 40
4.83362
 41
0.0
 71
     1
 72
     1
  1
SOLIDWORKS Educational Product.
  7
SLDTEXTSTYLE0
 73
     1
 44
1.0
  0
MTEXT
  5
15D
330
E9
100
AcDbEntity
  8
0
  6
Continuous
 62
     7
100
AcDbMText
 10
-0.9333907779
 20
-28.41028598
 30
0.0
 40
4.83362
 41
0.0
 71
     1
 72
     1
  1
For Instructional Use Only.
  7
SLDTEXTSTYLE0
 73
     1
 44
1.0
  0
ENDBLK
  5
EC
330
E9
100
AcDbEntity
  8
0
100
AcDbBlockEnd
  0
BLOCK
  5
115
330
113
100
AcDbEntity
  8
0
100
AcDbBlockBegin
  2
*Paper_Space7
 70
     0
 10
0.0
 20
0.0
 30
0.0
  3
*Paper_Space7
  1

  0
LWPOLYLINE
  5
11B
330
113
100
AcDbEntity
  8
0
  6
Continuous
 62
     7
370
    25
100
AcDbPolyline
 90
       28
 70
   128
 43
0.0
 10
63.3687759696
 20
0.731678437
 10
63.4065972917
 20
1.0530534904
 10
63.518022301
 20
1.3475730541
 10
63.6970440462
 20
1.5993595022
 10
63.9340114187
 20
1.7948389621
 10
64.2161494463
 20
1.9234730854
 10
64.5282479947
 20
1.9783271734
 10
64.8534817504
 20
1.956444028
 10
65.1743172775
 20
1.8590033751
 10
65.4734582497
 20
1.6912582656
 10
65.7347778997
 20
1.4622518818
 10
65.9441884176
 20
1.184330017
 10
66.0904004282
 20
0.8724755111
 10
66.165531604
 20
0.543500521
 10
66.165531604
 20
0.2151401737
 10
66.0904004282
 20
-0.0949035396
 10
65.9441884176
 20
-0.3699160819
 10
65.7347778997
 20
-0.5950714559
 10
65.4734582497
 20
-0.7582314773
 10
65.1743172775
 20
-0.8506001468
 10
64.8534817504
 20
-0.8671978458
 10
64.5282479947
 20
-0.8071297879
 10
64.2161494463
 20
-0.6736342577
 10
63.9340114187
 20
-0.4739080338
 10
63.6970440462
 20
-0.2187184086
 10
63.518022301
 20
0.0781772792
 10
63.4065972917
 20
0.4007733062
 10
63.3687759696
 20
0.731678437
  0
LWPOLYLINE
  5
11C
330
113
100
AcDbEntity
  8
0
  6
Continuous
 62
     7
370
    25
100
AcDbPolyline
 90
       28
 70
   128
 43
0.0
 10
63.3687759696
 20
57.3002209336
 10
63.4065972917
 20
57.621595987
 10
63.518022301
 20
57.9161155507
 10
63.6970440462
 20
58.1679019988
 10
63.9340114187
 20
58.3633814587
 10
64.2161494463
 20
58.492015582
 10
64.5282479947
 20
58.54686967
 10
64.8534817504
 20
58.5249865246
 10
65.1743172775
 20
58.4275458717
 10
65.4734582497
 20
58.2598007622
 10
65.7347778997
 20
58.0307943784
 10
65.9441884176
 20
57.7528725136
 10
66.0904004282
 20
57.4410180077
 10
66.165531604
 20
57.1120430176
 10
66.165531604
 20
56.7836826703
 10
66.0904004282
 20
56.4736389571
 10
65.9441884176
 20
56.1986264147
 10
65.7347778997
 20
55.9734710407
 10
65.4734582497
 20
55.8103110194
 10
65.1743172775
 20
55.7179423498
 10
64.8534817504
 20
55.7013446508
 10
64.5282479947
 20
55.7614127087
 10
64.2161494463
 20
55.8949082389
 10
63.9340114187
 20
56.0946344628
 10
63.6970440462
 20
56.3498240881
 10
63.518022301
 20
56.6467197758
 10
63.4065972917
 20
56.9693158028
 10
63.3687759696
 20
57.3002209336
  0
LWPOLYLINE
  5
11D
330
113
100
AcDbEntity
  8
0
  6
Continuous
 62
     7
370
    25
100
AcDbPolyline
 90
       28
 70
   128
 43
0.0
 10
7.2439151661
 20
64.3712887422
 10
7.2817364883
 20
64.6926637956
 10
7.3931614975
 20
64.9871833593
 10
7.5721832427
 20
65.2389698074
 10
7.8091506153
 20
65.4344492672
 10
8.0912886428
 20
65.5630833906
 10
8.4033871912
 20
65.6179374786
 10
8.7286209469
 20
65.5960543331
 10
9.0494564741
 20
65.4986136803
 10
9.3485974463
 20
65.3308685708
 10
9.6099170963
 20
65.1018621869
 10
9.8193276142
 20
64.8239403222
 10
9.9655396247
 20
64.5120858162
 10
10.0406708005
 20
64.1831108262
 10
10.0406708005
 20
63.8547504788
 10
9.9655396247
 20
63.5447067656
 10
9.8193276142
 20
63.2696942233
 10
9.6099170963
 20
63.0445388492
 10
9.3485974463
 20
62.8813788279
 10
9.0494564741
 20
62.7890101583
 10
8.7286209469
 20
62.7724124594
 10
8.4033871912
 20
62.8324805172
 10
8.0912886428
 20
62.9659760474
 10
7.8091506153
 20
63.1657022714
 10
7.5721832427
 20
63.4208918966
 10
7.3931614975
 20
63.7177875844
 10
7.2817364883
 20
64.0403836113
 10
7.2439151661
 20
64.3712887422
  0
LWPOLYLINE
  5
11E
330
113
100
AcDbEntity
  8
0
  6
Continuous
 62
     7
370
    25
100
AcDbPolyline
 90
       28
 70
   128
 43
0.0
 10
7.2439151661
 20
7.8027462456
 10
7.2817364883
 20
8.124121299
 10
7.3931614975
 20
8.4186408627
 10
7.5721832427
 20
8.6704273108
 10
7.8091506153
 20
8.8659067706
 10
8.0912886428
 20
8.994540894
 10
8.4033871912
 20
9.049394982
 10
8.7286209469
 20
9.0275118365
 10
9.0494564741
 20
8.9300711837
 10
9.3485974463
 20
8.7623260742
 10
9.6099170963
 20
8.5333196903
 10
9.8193276142
 20
8.2553978256
 10
9.9655396247
 20
7.9435433196
 10
10.0406708005
 20
7.6145683296
 10
10.0406708005
 20
7.2862079822
 10
9.9655396247
 20
6.976164269
 10
9.8193276142
 20
6.7011517267
 10
9.6099170963
 20
6.4759963526
 10
9.3485974463
 20
6.3128363313
 10
9.0494564741
 20
6.2204676617
 10
8.7286209469
 20
6.2038699627
 10
8.4033871912
 20
6.2639380206
 10
8.0912886428
 20
6.3974335508
 10
7.8091506153
 20
6.5971597748
 10
7.5721832427
 20
6.8523494
 10
7.3931614975
 20
7.1492450878
 10
7.2817364883
 20
7.4718411147
 10
7.2439151661
 20
7.8027462456
  0
LWPOLYLINE
  5
124
330
113
100
AcDbEntity
  8
0
  6
Continuous
 62
     7
370
    25
100
AcDbPolyline
 90
        3
 70
   128
 43
0.0
 10
64.0758827506
 20
57.9238304979
 10
64.1137040728
 20
58.2452055513
 10
64.1984260692
 20
58.4863963529
  0
LWPOLYLINE
  5
126
330
113
100
AcDbEntity
  8
0
  6
Continuous
 62
     7
370
    25
100
AcDbPolyline
 90
        3
 70
   128
 43
0.0
 10
64.0758827506
 20
1.3552880013
 10
64.1137040728
 20
1.6766630547
 10
64.1984260692
 20
1.9178538563
  0
LWPOLYLINE
  5
128
330
113
100
AcDbEntity
  8
0
  6
Continuous
 62
     7
370
    25
100
AcDbPolyline
 90
        3
 70
   128
 43
0.0
 10
7.9510219472
 20
64.9948983065
 10
7.9888432693
 20
65.3162733599
 10
8.0735652658
 20
65.5574641615
  0
LWPOLYLINE
  5
12A
330
113
100
AcDbEntity
  8
0
  6
Continuous
 62
     7
370
    25
100
AcDbPolyline
 90
        3
 70
   128
 43
0.0
 10
7.9510219472
 20
8.4263558099
 10
7.9888432693
 20
8.7477308633
 10
8.0735652658
 20
8.9889216649
  0
LINE
  5
12C
330
113
100
AcDbEntity
  8
0
  6
Continuous
 62
     7
370
    25
100
AcDbLine
 10
-0.707106781
 20
74.8011137645
 30
0.0
 11
-0.707106781
 21
-0.6236095643
 31
0.0
  0
LINE
  5
12D
330
113
100
AcDbEntity
  8
0
  6
Continuous
 62
     7
370
    25
100
AcDbLine
 10
74.1260409569
 20
65.3730233531
 30
0.0
 11
-0.707106781
 21
74.8011137645
 31
0.0
  0
LINE
  5
12E
330
113
100
AcDbEntity
  8
0
  6
Continuous
 62
     7
370
    25
100
AcDbLine
 10
74.1260409569
 20
-10.0516999757
 30
0.0
 11
74.1260409569
 21
65.3730233531
 31
0.0
  0
LINE
  5
12F
330
113
100
AcDbEntity
  8
0
  6
Continuous
 62
     7
370
    25
100
AcDbLine
 10
-0.707106781
 20
-0.6236095643
 30
0.0
 11
74.1260409569
 21
-10.0516999757
 31
0.0
  0
LINE
  5
130
330
113
100
AcDbEntity
  8
0
  6
Continuous
 62
     7
370
    25
100
AcDbLine
 10
74.1260409569
 20
-10.0516999757
 30
0.0
 11
74.8331477379
 21
-9.4280904114
 31
0.0
  0
LINE
  5
131
330
113
100
AcDbEntity
  8
0
  6
Continuous
 62
     7
370
    25
100
AcDbLine
 10
74.1260409569
 20
65.3730233531
 30
0.0
 11
74.8331477379
 21
65.9966329174
 31
0.0
  0
LINE
  5
132
330
113
100
AcDbEntity
  8
0
  6
Continuous
 62
     7
370
    25
100
AcDbLine
 10
74.8331477379
 20
-9.4280904114
 30
0.0
 11
74.8331477379
 21
65.9966329174
 31
0.0
  0
LINE
  5
133
330
113
100
AcDbEntity
  8
0
  6
Continuous
 62
     7
370
    25
100
AcDbLine
 10
-0.707106781
 20
74.8011137645
 30
0.0
 11
0.0
 21
75.4247233288
 31
0.0
  0
LINE
  5
134
330
113
100
AcDbEntity
  8
0
  6
Continuous
 62
     7
370
    25
100
AcDbLine
 10
74.8331477379
 20
65.9966329174
 30
0.0
 11
0.0
 21
75.4247233288
 31
0.0
  0
ARC
  5
135
330
113
100
AcDbEntity
  8
0
  6
Continuous
 62
     7
370
    25
100
AcDbCircle
 10
65.6603281388
 20
57.9192591338
 30
0.0
 40
1.584451982758182
100
AcDbArc
 50
179.8346934862
 51
284.3294632461
  0
ARC
  5
136
330
113
100
AcDbEntity
  8
0
  6
Continuous
 62
     7
370
    25
100
AcDbCircle
 10
65.6603281388
 20
1.3507166372
 30
0.0
 40
1.58445198275803
100
AcDbArc
 50
179.8346934862
 51
284.3294632461
  0
ARC
  5
137
330
113
100
AcDbEntity
  8
0
  6
Continuous
 62
     7
370
    25
100
AcDbCircle
 10
9.5354673354
 20
64.9903269424
 30
0.0
 40
1.58445198275779
100
AcDbArc
 50
179.8346934862
 51
284.3294632462
  0
ARC
  5
138
330
113
100
AcDbEntity
  8
0
  6
Continuous
 62
     7
370
    25
100
AcDbCircle
 10
9.5354673354
 20
8.4217844458
 30
0.0
 40
1.584451982758043
100
AcDbArc
 50
179.8346934862
 51
284.3294632461
  0
VIEWPORT
  5
149
330
113
100
AcDbEntity
  8
0
100
AcDbViewport
 10
0.0
 20
0.0
 30
0.0
 40
205.6
 41
156.0
 68
     1
 69
     1
 12
40.0
 22
40.0
 13
0.0
 23
0.0
 14
10.0
 24
10.0
 15
10.0
 25
10.0
 16
0.0
 26
0.0
 36
1.0
 17
0.0
 27
0.0
 37
0.0
 42
50.0
 43
0.0
 44
0.0
 45
81.6
 50
0.0
 51
0.0
 72
   100
 90
   557152
  1

281
     0
 71
     1
 74
     0
110
0.0
120
0.0
130
0.0
111
1.0
121
0.0
131
0.0
112
0.0
122
1.0
132
0.0
 79
     0
146
0.0
  0
MTEXT
  5
15E
330
113
100
AcDbEntity
  8
0
  6
Continuous
 62
     7
100
AcDbMText
 10
-0.707106781
 20
-11.0712663674
 30
0.0
 40
4.83362
 41
0.0
 71
     1
 72
     1
  1
SOLIDWORKS Educational Product.
  7
SLDTEXTSTYLE0
 73
     1
 44
1.0
  0
MTEXT
  5
15F
330
113
100
AcDbEntity
  8
0
  6
Continuous
 62
     7
100
AcDbMText
 10
-0.707106781
 20
-18.3216963674
 30
0.0
 40
4.83362
 41
0.0
 71
     1
 72
     1
  1
For Instructional Use Only.
  7
SLDTEXTSTYLE0
 73
     1
 44
1.0
  0
ENDBLK
  5
116
330
113
100
AcDbEntity
  8
0
100
AcDbBlockEnd
  0
ENDSEC
  0
SECTION
  2
ENTITIES
  0
CIRCLE
  5
73
330
1F
100
AcDbEntity
  8
0
  6
Continuous
 62
     7
370
    25
100
AcDbCircle
 10
70.0
 20
10.0
 30
0.0
 40
1.5
  0
CIRCLE
  5
74
330
1F
100
AcDbEntity
  8
0
  6
Continuous
 62
     7
370
    25
100
AcDbCircle
 10
70.0
 20
70.0
 30
0.0
 40
1.499999999999972
  0
CIRCLE
  5
75
330
1F
100
AcDbEntity
  8
0
  6
Continuous
 62
     7
370
    25
100
AcDbCircle
 10
10.0
 20
70.0
 30
0.0
 40
1.499999999999995
  0
CIRCLE
  5
76
330
1F
100
AcDbEntity
  8
0
  6
Continuous
 62
     7
370
    25
100
AcDbCircle
 10
10.0
 20
10.0
 30
0.0
 40
1.5
  0
LINE
  5
7B
330
1F
100
AcDbEntity
  8
0
  6
Continuous
 62
     7
370
    25
100
AcDbLine
 10
0.0
 20
80.0
 30
0.0
 11
0.0
 21
0.0
 31
0.0
  0
LINE
  5
7C
330
1F
100
AcDbEntity
  8
0
  6
Continuous
 62
     7
370
    25
100
AcDbLine
 10
80.0
 20
80.0
 30
0.0
 11
0.0
 21
80.0
 31
0.0
  0
LINE
  5
7D
330
1F
100
AcDbEntity
  8
0
  6
Continuous
 62
     7
370
    25
100
AcDbLine
 10
80.0
 20
0.0
 30
0.0
 11
80.0
 21
80.0
 31
0.0
  0
LINE
  5
7E
330
1F
100
AcDbEntity
  8
0
  6
Continuous
 62
     7
370
    25
100
AcDbLine
 10
0.0
 20
0.0
 30
0.0
 11
80.0
 21
0.0
 31
0.0
  0
MTEXT
  5
14E
330
1F
100
AcDbEntity
  8
0
  6
Continuous
 62
     7
100
AcDbMText
 10
0.0
 20
-1.0195663917
 30
0.0
 40
4.83362
 41
0.0
 71
     1
 72
     1
  1
SOLIDWORKS Educational Product.
  7
SLDTEXTSTYLE0
 73
     1
 44
1.0
  0
MTEXT
  5
14F
330
1F
100
AcDbEntity
  8
0
  6
Continuous
 62
     7
100
AcDbMText
 10
0.0
 20
-8.2699963917
 30
0.0
 40
4.83362
 41
0.0
 71
     1
 72
     1
  1
For Instructional Use Only.
  7
SLDTEXTSTYLE0
 73
     1
 44
1.0
  0
LINE
  5
83
330
1B
100
AcDbEntity
 67
     1
  8
0
  6
Continuous
 62
     7
370
    25
100
AcDbLine
 10
80.0
 20
-2.0
 30
0.0
 11
0.0
 21
-2.0
 31
0.0
  0
LINE
  5
84
330
1B
100
AcDbEntity
 67
     1
  8
0
  6
Continuous
 62
     7
370
    25
100
AcDbLine
 10
0.0
 20
-2.0
 30
0.0
 11
0.0
 21
0.0
 31
0.0
  0
LINE
  5
85
330
1B
100
AcDbEntity
 67
     1
  8
0
  6
Continuous
 62
     7
370
    25
100
AcDbLine
 10
80.0
 20
-2.0
 30
0.0
 11
80.0
 21
0.0
 31
0.0
  0
LINE
  5
86
330
1B
100
AcDbEntity
 67
     1
  8
0
  6
Continuous
 62
     7
370
    25
100
AcDbLine
 10
80.0
 20
0.0
 30
0.0
 11
0.0
 21
0.0
 31
0.0
  0
VIEWPORT
  5
139
330
1B
100
AcDbEntity
 67
     1
  8
0
100
AcDbViewport
 10
0.0
 20
0.0
 30
0.0
 40
205.6
 41
156.0
 68
     1
 69
     1
 12
40.0
 22
40.0
 13
0.0
 23
0.0
 14
10.0
 24
10.0
 15
10.0
 25
10.0
 16
0.0
 26
0.0
 36
1.0
 17
0.0
 27
0.0
 37
0.0
 42
50.0
 43
0.0
 44
0.0
 45
81.6
 50
0.0
 51
0.0
 72
   100
 90
   557152
  1

281
     0
 71
     1
 74
     0
110
0.0
120
0.0
130
0.0
111
1.0
121
0.0
131
0.0
112
0.0
122
1.0
132
0.0
 79
     0
146
0.0
  0
MTEXT
  5
14C
330
1B
100
AcDbEntity
 67
     1
  8
0
  6
Continuous
 62
     7
100
AcDbMText
 10
0.0
 20
-3.0195663917
 30
0.0
 40
4.83362
 41
0.0
 71
     1
 72
     1
  1
SOLIDWORKS Educational Product.
  7
SLDTEXTSTYLE0
 73
     1
 44
1.0
  0
MTEXT
  5
14D
330
1B
100
AcDbEntity
 67
     1
  8
0
  6
Continuous
 62
     7
100
AcDbMText
 10
0.0
 20
-10.2699963917
 30
0.0
 40
4.83362
 41
0.0
 71
     1
 72
     1
  1
For Instructional Use Only.
  7
SLDTEXTSTYLE0
 73
     1
 44
1.0
  0
ENDSEC
  0
SECTION
  2
OBJECTS
  0
DICTIONARY
  5
C
330
0
100
AcDbDictionary
281
     1
  3
ACAD_GROUP
350
D
  3
ACAD_LAYOUT
350
1A
  3
ACAD_MLINESTYLE
350
17
  3
ACAD_PLOTSETTINGS
350
19
  3
ACAD_PLOTSTYLENAME
350
E
  3
ACAD_SCALELIST
350
47
  3
DWGPROPS
350
160
  0
DICTIONARY
  5
D
102
{ACAD_REACTORS
330
C
102
}
330
C
100
AcDbDictionary
281
     1
  0
DICTIONARY
  5
1A
102
{ACAD_REACTORS
330
C
102
}
330
C
100
AcDbDictionary
281
     1
  3
_Back
350
26
  3
_Bottom
350
BC
  3
_Dimetric
350
114
  3
_Front
350
94
  3
_Isometric
350
C8
  3
_Left
350
A4
  3
_Right
350
B0
  3
_Top
350
1E
  3
_Trimetric
350
EA
  3
Model
350
22
  0
DICTIONARY
  5
17
102
{ACAD_REACTORS
330
C
102
}
330
C
100
AcDbDictionary
281
     1
  3
Standard
350
18
  0
DICTIONARY
  5
19
102
{ACAD_REACTORS
330
C
102
}
330
C
100
AcDbDictionary
281
     1
  0
ACDBDICTIONARYWDFLT
  5
E
102
{ACAD_REACTORS
330
C
102
}
330
C
100
AcDbDictionary
281
     1
  3
Normal
350
F
100
AcDbDictionaryWithDefault
340
F
  0
DICTIONARY
  5
47
102
{ACAD_REACTORS
330
C
102
}
330
C
100
AcDbDictionary
281
     1
  3
A0
350
48
  3
A1
350
49
  3
A2
350
4A
  3
A3
350
4B
  3
A4
350
4C
  3
A5
350
4D
  3
A6
350
4E
  3
A7
350
4F
  3
A8
350
50
  3
A9
350
51
  3
B0
350
52
  3
B1
350
53
  3
B2
350
54
  3
B3
350
55
  3
B4
350
56
  3
B5
350
57
  3
B6
350
58
  3
B7
350
59
  3
B8
350
5A
  3
B9
350
5B
  3
C0
350
5C
  3
C1
350
5D
  3
C2
350
5E
  3
C3
350
5F
  3
C4
350
60
  3
C5
350
61
  3
C6
350
62
  3
C7
350
63
  3
C8
350
64
  3
C9
350
65
  3
D0
350
66
  3
D1
350
67
  3
D2
350
68
  0
XRECORD
  5
160
102
{ACAD_REACTORS
330
C
102
}
330
C
100
AcDbXrecord
280
     1
  1
DWGPROPS COOKIE
  2

  3

  4

  6

  7

  8
Saturn
  9

300
=
301
=
302
=
303
=
304
=
305
=
306
=
307
=
308
=
309
=
 40
0.0
 41
2459321.855098553
 42
2459321.855353206
  1

 90
        0
  0
LAYOUT
  5
26
102
{ACAD_REACTORS
330
1A
102
}
330
1A
100
AcDbPlotSettings
  1

  2
none_device
  4
ISO_A4_(210.00_x_297.00_MM)
  6

 40
7.5
 41
20.0
 42
7.5
 43
20.0
 44
210.0
 45
297.0
 46
0.0
 47
0.0
 48
0.0
 49
0.0
140
0.0
141
0.0
142
1.0
143
0.3112840467
 70
   688
 72
     1
 73
     1
 74
     1
  7

 75
     0
147
3.2125
148
0.0
149
2.0
100
AcDbLayout
  1
_Back
 70
     1
 71
     2
 10
0.0
 20
0.0
 11
0.0
 21
0.0
 12
0.0
 22
0.0
 32
0.0
 14
0.0
 24
0.0
 34
0.0
 15
0.0
 25
0.0
 35
0.0
146
0.0
 13
0.0
 23
0.0
 33
0.0
 16
1.0
 26
0.0
 36
0.0
 17
0.0
 27
1.0
 37
0.0
 76
     0
330
23
331
13B
  0
LAYOUT
  5
BC
102
{ACAD_REACTORS
330
1A
102
}
330
1A
100
AcDbPlotSettings
  1

  2
none_device
  4
ISO_A4_(210.00_x_297.00_MM)
  6

 40
7.5
 41
20.0
 42
7.5
 43
20.0
 44
210.0
 45
297.0
 46
0.0
 47
0.0
 48
0.0
 49
0.0
140
0.0
141
0.0
142
1.0
143
0.3112840467
 70
   688
 72
     1
 73
     1
 74
     1
  7

 75
     0
147
3.2125
148
0.0
149
2.0
100
AcDbLayout
  1
_Bottom
 70
     1
 71
     6
 10
0.0
 20
0.0
 11
0.0
 21
0.0
 12
0.0
 22
0.0
 32
0.0
 14
0.0
 24
0.0
 34
0.0
 15
0.0
 25
0.0
 35
0.0
146
0.0
 13
0.0
 23
0.0
 33
0.0
 16
1.0
 26
0.0
 36
0.0
 17
0.0
 27
1.0
 37
0.0
 76
     0
330
BB
331
143
  0
LAYOUT
  5
114
102
{ACAD_REACTORS
330
1A
102
}
330
1A
100
AcDbPlotSettings
  1

  2
none_device
  4
ISO_A4_(210.00_x_297.00_MM)
  6

 40
7.5
 41
20.0
 42
7.5
 43
20.0
 44
210.0
 45
297.0
 46
0.0
 47
0.0
 48
0.0
 49
0.0
140
0.0
141
0.0
142
1.0
143
0.3112840467
 70
   688
 72
     1
 73
     1
 74
     1
  7

 75
     0
147
3.2125
148
0.0
149
2.0
100
AcDbLayout
  1
_Dimetric
 70
     1
 71
     9
 10
0.0
 20
0.0
 11
0.0
 21
0.0
 12
0.0
 22
0.0
 32
0.0
 14
0.0
 24
0.0
 34
0.0
 15
0.0
 25
0.0
 35
0.0
146
0.0
 13
0.0
 23
0.0
 33
0.0
 16
1.0
 26
0.0
 36
0.0
 17
0.0
 27
1.0
 37
0.0
 76
     0
330
113
331
149
  0
LAYOUT
  5
94
102
{ACAD_REACTORS
330
1A
102
}
330
1A
100
AcDbPlotSettings
  1

  2
none_device
  4
ISO_A4_(210.00_x_297.00_MM)
  6

 40
7.5
 41
20.0
 42
7.5
 43
20.0
 44
210.0
 45
297.0
 46
0.0
 47
0.0
 48
0.0
 49
0.0
140
0.0
141
0.0
142
1.0
143
0.3112840467
 70
   688
 72
     1
 73
     1
 74
     1
  7

 75
     0
147
3.2125
148
0.0
149
2.0
100
AcDbLayout
  1
_Front
 70
     1
 71
     3
 10
0.0
 20
0.0
 11
0.0
 21
0.0
 12
0.0
 22
0.0
 32
0.0
 14
0.0
 24
0.0
 34
0.0
 15
0.0
 25
0.0
 35
0.0
146
0.0
 13
0.0
 23
0.0
 33
0.0
 16
1.0
 26
0.0
 36
0.0
 17
0.0
 27
1.0
 37
0.0
 76
     0
330
93
331
13D
  0
LAYOUT
  5
C8
102
{ACAD_REACTORS
330
1A
102
}
330
1A
100
AcDbPlotSettings
  1

  2
none_device
  4
ISO_A4_(210.00_x_297.00_MM)
  6

 40
7.5
 41
20.0
 42
7.5
 43
20.0
 44
210.0
 45
297.0
 46
0.0
 47
0.0
 48
0.0
 49
0.0
140
0.0
141
0.0
142
1.0
143
0.3112840467
 70
   688
 72
     1
 73
     1
 74
     1
  7

 75
     0
147
3.2125
148
0.0
149
2.0
100
AcDbLayout
  1
_Isometric
 70
     1
 71
     7
 10
0.0
 20
0.0
 11
0.0
 21
0.0
 12
0.0
 22
0.0
 32
0.0
 14
0.0
 24
0.0
 34
0.0
 15
0.0
 25
0.0
 35
0.0
146
0.0
 13
0.0
 23
0.0
 33
0.0
 16
1.0
 26
0.0
 36
0.0
 17
0.0
 27
1.0
 37
0.0
 76
     0
330
C7
331
145
  0
LAYOUT
  5
A4
102
{ACAD_REACTORS
330
1A
102
}
330
1A
100
AcDbPlotSettings
  1

  2
none_device
  4
ISO_A4_(210.00_x_297.00_MM)
  6

 40
7.5
 41
20.0
 42
7.5
 43
20.0
 44
210.0
 45
297.0
 46
0.0
 47
0.0
 48
0.0
 49
0.0
140
0.0
141
0.0
142
1.0
143
0.3112840467
 70
   688
 72
     1
 73
     1
 74
     1
  7

 75
     0
147
3.2125
148
0.0
149
2.0
100
AcDbLayout
  1
_Left
 70
     1
 71
     4
 10
0.0
 20
0.0
 11
0.0
 21
0.0
 12
0.0
 22
0.0
 32
0.0
 14
0.0
 24
0.0
 34
0.0
 15
0.0
 25
0.0
 35
0.0
146
0.0
 13
0.0
 23
0.0
 33
0.0
 16
1.0
 26
0.0
 36
0.0
 17
0.0
 27
1.0
 37
0.0
 76
     0
330
A3
331
13F
  0
LAYOUT
  5
B0
102
{ACAD_REACTORS
330
1A
102
}
330
1A
100
AcDbPlotSettings
  1

  2
none_device
  4
ISO_A4_(210.00_x_297.00_MM)
  6

 40
7.5
 41
20.0
 42
7.5
 43
20.0
 44
210.0
 45
297.0
 46
0.0
 47
0.0
 48
0.0
 49
0.0
140
0.0
141
0.0
142
1.0
143
0.3112840467
 70
   688
 72
     1
 73
     1
 74
     1
  7

 75
     0
147
3.2125
148
0.0
149
2.0
100
AcDbLayout
  1
_Right
 70
     1
 71
     5
 10
0.0
 20
0.0
 11
0.0
 21
0.0
 12
0.0
 22
0.0
 32
0.0
 14
0.0
 24
0.0
 34
0.0
 15
0.0
 25
0.0
 35
0.0
146
0.0
 13
0.0
 23
0.0
 33
0.0
 16
1.0
 26
0.0
 36
0.0
 17
0.0
 27
1.0
 37
0.0
 76
     0
330
AF
331
141
  0
LAYOUT
  5
1E
102
{ACAD_REACTORS
330
1A
102
}
330
1A
100
AcDbPlotSettings
  1

  2
none_device
  4
ISO_A4_(210.00_x_297.00_MM)
  6

 40
7.5
 41
20.0
 42
7.5
 43
20.0
 44
210.0
 45
297.0
 46
0.0
 47
0.0
 48
0.0
 49
0.0
140
0.0
141
0.0
142
1.0
143
0.3112840467
 70
   688
 72
     1
 73
     1
 74
     1
  7

 75
     0
147
3.2125
148
0.0
149
2.0
100
AcDbLayout
  1
_Top
 70
     1
 71
     1
 10
-6.2256809339
 20
-4.3346303502
 11
86.2256809339
 21
61.0350194553
 12
0.0
 22
0.0
 32
0.0
 14
0.0
 24
-2.0
 34
0.0
 15
80.0
 25
0.0
 35
0.0
146
0.0
 13
0.0
 23
0.0
 33
0.0
 16
1.0
 26
0.0
 36
0.0
 17
0.0
 27
1.0
 37
0.0
 76
     0
330
1B
331
139
  0
LAYOUT
  5
EA
102
{ACAD_REACTORS
330
1A
102
}
330
1A
100
AcDbPlotSettings
  1

  2
none_device
  4
ISO_A4_(210.00_x_297.00_MM)
  6

 40
7.5
 41
20.0
 42
7.5
 43
20.0
 44
210.0
 45
297.0
 46
0.0
 47
0.0
 48
0.0
 49
0.0
140
0.0
141
0.0
142
1.0
143
0.3112840467
 70
   688
 72
     1
 73
     1
 74
     1
  7

 75
     0
147
3.2125
148
0.0
149
2.0
100
AcDbLayout
  1
_Trimetric
 70
     1
 71
     8
 10
0.0
 20
0.0
 11
0.0
 21
0.0
 12
0.0
 22
0.0
 32
0.0
 14
0.0
 24
0.0
 34
0.0
 15
0.0
 25
0.0
 35
0.0
146
0.0
 13
0.0
 23
0.0
 33
0.0
 16
1.0
 26
0.0
 36
0.0
 17
0.0
 27
1.0
 37
0.0
 76
     0
330
E9
331
147
  0
LAYOUT
  5
22
102
{ACAD_REACTORS
330
1A
102
}
330
1A
100
AcDbPlotSettings
  1

  2
none_device
  4
ANSI_A_(11.00_x_8.50_Inches)
  6

 40
6.35
 41
19.05
 42
6.35000508
 43
19.05000254
 44
279.4
 45
215.9
 46
26.47949746
 47
-17.97050127
 48
0.0
 49
0.0
140
0.0
141
0.0
142
0.1051875
143
1.0
 70
  1696
 72
     0
 73
     0
 74
     0
  7

 75
     0
147
0.0179189148
148
-1300.4909072572
149
0.0
100
AcDbLayout
  1
Model
 70
     1
 71
     0
 10
0.0
 20
0.0
 11
420.0
 21
297.0
 12
0.0
 22
0.0
 32
0.0
 14
0.0
 24
0.0
 34
0.0
 15
80.0
 25
80.0
 35
0.0
146
0.0
 13
0.0
 23
0.0
 33
0.0
 16
1.0
 26
0.0
 36
0.0
 17
0.0
 27
1.0
 37
0.0
 76
     0
330
1F
331
29
  0
MLINESTYLE
  5
18
102
{ACAD_REACTORS
330
17
102
}
330
17
100
AcDbMlineStyle
  2
Standard
 70
     0
  3

 62
   256
 51
90.0
 52
90.0
 71
     2
 49
0.5
 62
   256
  6
BYLAYER
 49
-0.5
 62
   256
  6
BYLAYER
  0
ACDBPLACEHOLDER
  5
F
102
{ACAD_REACTORS
330
E
102
}
330
E
  0
SCALE
  5
48
102
{ACAD_REACTORS
330
47
102
}
330
47
100
AcDbScale
 70
     0
300
1:1
140
1.0
141
1.0
290
     1
  0
SCALE
  5
49
102
{ACAD_REACTORS
330
47
102
}
330
47
100
AcDbScale
 70
     0
300
1:2
140
1.0
141
2.0
290
     0
  0
SCALE
  5
4A
102
{ACAD_REACTORS
330
47
102
}
330
47
100
AcDbScale
 70
     0
300
1:4
140
1.0
141
4.0
290
     0
  0
SCALE
  5
4B
102
{ACAD_REACTORS
330
47
102
}
330
47
100
AcDbScale
 70
     0
300
1:5
140
1.0
141
5.0
290
     0
  0
SCALE
  5
4C
102
{ACAD_REACTORS
330
47
102
}
330
47
100
AcDbScale
 70
     0
300
1:8
140
1.0
141
8.0
290
     0
  0
SCALE
  5
4D
102
{ACAD_REACTORS
330
47
102
}
330
47
100
AcDbScale
 70
     0
300
1:10
140
1.0
141
10.0
290
     0
  0
SCALE
  5
4E
102
{ACAD_REACTORS
330
47
102
}
330
47
100
AcDbScale
 70
     0
300
1:16
140
1.0
141
16.0
290
     0
  0
SCALE
  5
4F
102
{ACAD_REACTORS
330
47
102
}
330
47
100
AcDbScale
 70
     0
300
1:20
140
1.0
141
20.0
290
     0
  0
SCALE
  5
50
102
{ACAD_REACTORS
330
47
102
}
330
47
100
AcDbScale
 70
     0
300
1:30
140
1.0
141
30.0
290
     0
  0
SCALE
  5
51
102
{ACAD_REACTORS
330
47
102
}
330
47
100
AcDbScale
 70
     0
300
1:40
140
1.0
141
40.0
290
     0
  0
SCALE
  5
52
102
{ACAD_REACTORS
330
47
102
}
330
47
100
AcDbScale
 70
     0
300
1:50
140
1.0
141
50.0
290
     0
  0
SCALE
  5
53
102
{ACAD_REACTORS
330
47
102
}
330
47
100
AcDbScale
 70
     0
300
1:100
140
1.0
141
100.0
290
     0
  0
SCALE
  5
54
102
{ACAD_REACTORS
330
47
102
}
330
47
100
AcDbScale
 70
     0
300
2:1
140
2.0
141
1.0
290
     0
  0
SCALE
  5
55
102
{ACAD_REACTORS
330
47
102
}
330
47
100
AcDbScale
 70
     0
300
4:1
140
4.0
141
1.0
290
     0
  0
SCALE
  5
56
102
{ACAD_REACTORS
330
47
102
}
330
47
100
AcDbScale
 70
     0
300
8:1
140
8.0
141
1.0
290
     0
  0
SCALE
  5
57
102
{ACAD_REACTORS
330
47
102
}
330
47
100
AcDbScale
 70
     0
300
10:1
140
10.0
141
1.0
290
     0
  0
SCALE
  5
58
102
{ACAD_REACTORS
330
47
102
}
330
47
100
AcDbScale
 70
     0
300
100:1
140
100.0
141
1.0
290
     0
  0
SCALE
  5
59
102
{ACAD_REACTORS
330
47
102
}
330
47
100
AcDbScale
 70
     0
300
1/128" = 1'-0"
140
0.0078125
141
12.0
290
     0
  0
SCALE
  5
5A
102
{ACAD_REACTORS
330
47
102
}
330
47
100
AcDbScale
 70
     0
300
1/64" = 1'-0"
140
0.015625
141
12.0
290
     0
  0
SCALE
  5
5B
102
{ACAD_REACTORS
330
47
102
}
330
47
100
AcDbScale
 70
     0
300
1/32" = 1'-0"
140
0.03125
141
12.0
290
     0
  0
SCALE
  5
5C
102
{ACAD_REACTORS
330
47
102
}
330
47
100
AcDbScale
 70
     0
300
1/16" = 1'-0"
140
0.0625
141
12.0
290
     0
  0
SCALE
  5
5D
102
{ACAD_REACTORS
330
47
102
}
330
47
100
AcDbScale
 70
     0
300
3/32" = 1'-0"
140
0.09375
141
12.0
290
     0
  0
SCALE
  5
5E
102
{ACAD_REACTORS
330
47
102
}
330
47
100
AcDbScale
 70
     0
300
1/8" = 1'-0"
140
0.125
141
12.0
290
     0
  0
SCALE
  5
5F
102
{ACAD_REACTORS
330
47
102
}
330
47
100
AcDbScale
 70
     0
300
3/16" = 1'-0"
140
0.1875
141
12.0
290
     0
  0
SCALE
  5
60
102
{ACAD_REACTORS
330
47
102
}
330
47
100
AcDbScale
 70
     0
300
1/4" = 1'-0"
140
0.25
141
12.0
290
     0
  0
SCALE
  5
61
102
{ACAD_REACTORS
330
47
102
}
330
47
100
AcDbScale
 70
     0
300
3/8" = 1'-0"
140
0.375
141
12.0
290
     0
  0
SCALE
  5
62
102
{ACAD_REACTORS
330
47
102
}
330
47
100
AcDbScale
 70
     0
300
1/2" = 1'-0"
140
0.5
141
12.0
290
     0
  0
SCALE
  5
63
102
{ACAD_REACTORS
330
47
102
}
330
47
100
AcDbScale
 70
     0
300
3/4" = 1'-0"
140
0.75
141
12.0
290
     0
  0
SCALE
  5
64
102
{ACAD_REACTORS
330
47
102
}
330
47
100
AcDbScale
 70
     0
300
1" = 1'-0"
140
1.0
141
12.0
290
     0
  0
SCALE
  5
65
102
{ACAD_REACTORS
330
47
102
}
330
47
100
AcDbScale
 70
     0
300
1-1/2" = 1'-0"
140
1.5
141
12.0
290
     0
  0
SCALE
  5
66
102
{ACAD_REACTORS
330
47
102
}
330
47
100
AcDbScale
 70
     0
300
3" = 1'-0"
140
3.0
141
12.0
290
     0
  0
SCALE
  5
67
102
{ACAD_REACTORS
330
47
102
}
330
47
100
AcDbScale
 70
     0
300
6" = 1'-0"
140
6.0
141
12.0
290
     0
  0
SCALE
  5
68
102
{ACAD_REACTORS
330
47
102
}
330
47
100
AcDbScale
 70
     0
300
1'-0" = 1'-0"
140
12.0
141
12.0
290
     0
  0
ENDSEC
  0
EOF
